%TF.GenerationSoftware,KiCad,Pcbnew,10.0.0*%
%TF.CreationDate,2026-09-11T12:13:24+02:00*%
%TF.ProjectId,Bil v 1_0,42696c20-7620-4312-9c30-2e6b69636164,rev?*%
%TF.SameCoordinates,Original*%
%TF.FileFunction,Copper,L2,Inr*%
%TF.FilePolarity,Positive*%
%FSLAX46Y46*%
G04 Gerber Fmt 4.6, Leading zero omitted, Abs format (unit mm)*
G04 Created by KiCad (PCBNEW 10.0.0) date 2026-09-11 12:13:24*
%MOMM*%
%LPD*%
G01*
G04 APERTURE LIST*
G04 Aperture macros list*
%AMRoundRect*
0 Rectangle with rounded corners*
0 $1 Rounding radius*
0 $2 $3 $4 $5 $6 $7 $8 $9 X,Y pos of 4 corners*
0 Add a 4 corners polygon primitive as box body*
4,1,4,$2,$3,$4,$5,$6,$7,$8,$9,$2,$3,0*
0 Add four circle primitives for the rounded corners*
1,1,$1+$1,$2,$3*
1,1,$1+$1,$4,$5*
1,1,$1+$1,$6,$7*
1,1,$1+$1,$8,$9*
0 Add four rect primitives between the rounded corners*
20,1,$1+$1,$2,$3,$4,$5,0*
20,1,$1+$1,$4,$5,$6,$7,0*
20,1,$1+$1,$6,$7,$8,$9,0*
20,1,$1+$1,$8,$9,$2,$3,0*%
%AMRotRect*
0 Rectangle, with rotation*
0 The origin of the aperture is its center*
0 $1 length*
0 $2 width*
0 $3 Rotation angle, in degrees counterclockwise*
0 Add horizontal line*
21,1,$1,$2,0,0,$3*%
G04 Aperture macros list end*
%TA.AperFunction,ComponentPad*%
%ADD10C,1.700000*%
%TD*%
%TA.AperFunction,ComponentPad*%
%ADD11R,1.700000X1.700000*%
%TD*%
%TA.AperFunction,ComponentPad*%
%ADD12R,1.500000X1.500000*%
%TD*%
%TA.AperFunction,ComponentPad*%
%ADD13C,1.600000*%
%TD*%
%TA.AperFunction,ComponentPad*%
%ADD14RotRect,1.700000X1.700000X315.000000*%
%TD*%
%TA.AperFunction,ComponentPad*%
%ADD15RotRect,1.700000X1.700000X225.000000*%
%TD*%
%TA.AperFunction,ComponentPad*%
%ADD16RoundRect,0.250000X0.350000X0.625000X-0.350000X0.625000X-0.350000X-0.625000X0.350000X-0.625000X0*%
%TD*%
%TA.AperFunction,ComponentPad*%
%ADD17O,1.200000X1.750000*%
%TD*%
%TA.AperFunction,ComponentPad*%
%ADD18RoundRect,0.250000X-0.350000X-0.625000X0.350000X-0.625000X0.350000X0.625000X-0.350000X0.625000X0*%
%TD*%
%TA.AperFunction,ComponentPad*%
%ADD19RoundRect,0.250000X-0.600000X-0.750000X0.600000X-0.750000X0.600000X0.750000X-0.600000X0.750000X0*%
%TD*%
%TA.AperFunction,ComponentPad*%
%ADD20O,1.700000X2.000000*%
%TD*%
%TA.AperFunction,Conductor*%
%ADD21C,0.500000*%
%TD*%
G04 APERTURE END LIST*
D10*
%TO.N,GND*%
%TO.C,DC-DC*%
X158452800Y-125227200D03*
%TO.N,*%
X158452800Y-122687200D03*
X158452800Y-117607200D03*
X158452800Y-115067200D03*
X158452800Y-112527200D03*
X158452800Y-109987200D03*
D11*
%TO.N,/DC-DC out*%
X158452800Y-107447200D03*
D10*
%TO.N,*%
X118342800Y-122687200D03*
X118342800Y-115067200D03*
D11*
%TO.N,VCC*%
X118342800Y-107447200D03*
D10*
%TO.N,GND*%
X118342800Y-125227200D03*
%TO.N,*%
X118342800Y-112527200D03*
X118342800Y-120147200D03*
X118342800Y-117607200D03*
X118342800Y-109987200D03*
X158452800Y-120147200D03*
%TD*%
D12*
%TO.N,VCC*%
%TO.C,SW2*%
X104902000Y-110490000D03*
D13*
%TO.N,Net-(BT1-+)*%
X104902000Y-113030000D03*
%TO.N,unconnected-(SW2-A-Pad3)*%
X104902000Y-107950000D03*
%TD*%
D11*
%TO.N,+3V3*%
%TO.C,Start Modul*%
X161893000Y-71374000D03*
D10*
%TO.N,GND*%
X161893000Y-73914000D03*
%TO.N,/D8*%
X161893000Y-76454000D03*
%TO.N,unconnected-(J5-Pin_4-Pad4)*%
X161893000Y-78994000D03*
%TD*%
D11*
%TO.N,/D13{slash}SCK*%
%TO.C,Arduino Nano*%
X115283800Y-86360000D03*
D10*
%TO.N,+3V3*%
X117823800Y-86360000D03*
%TO.N,/AREF*%
X120363800Y-86360000D03*
%TO.N,/A0*%
X122903800Y-86360000D03*
%TO.N,/A1*%
X125443800Y-86360000D03*
%TO.N,/A2*%
X127983800Y-86360000D03*
%TO.N,/A3*%
X130523800Y-86360000D03*
%TO.N,/A4{slash}SDA*%
X133063800Y-86360000D03*
%TO.N,/A5{slash}SCL*%
X135603800Y-86360000D03*
%TO.N,/A6*%
X138143800Y-86360000D03*
%TO.N,/A7*%
X140683800Y-86360000D03*
%TO.N,+5V*%
X143223800Y-86360000D03*
%TO.N,/~{RESET}*%
X145763800Y-86360000D03*
%TO.N,GND*%
X148303800Y-86360000D03*
%TO.N,VCC*%
X150843800Y-86360000D03*
%TD*%
D14*
%TO.N,+3V3*%
%TO.C,Lidar R*%
X192833354Y-116664046D03*
D10*
%TO.N,GND*%
X191037303Y-118460097D03*
%TO.N,/A5{slash}SCL*%
X189241252Y-120256148D03*
%TO.N,/A4{slash}SDA*%
X187445200Y-122052200D03*
%TO.N,unconnected-(J6-GPIO-Pad5)*%
X185649149Y-123848251D03*
%TO.N,/\u002AD5*%
X183853098Y-125644302D03*
%TD*%
%TO.N,/D1{slash}TX*%
%TO.C,ESP32*%
X150843800Y-70944200D03*
%TO.N,/D0{slash}RX*%
X148303800Y-70944200D03*
%TO.N,/~{RESET}*%
X145763800Y-70944200D03*
%TO.N,GND*%
X143223800Y-70944200D03*
%TO.N,/D2*%
X140683800Y-70944200D03*
%TO.N,/\u002AD3*%
X138143800Y-70944200D03*
%TO.N,/D4*%
X135603800Y-70944200D03*
%TO.N,/\u002AD5*%
X133063800Y-70944200D03*
%TO.N,/\u002AD6*%
X130523800Y-70944200D03*
%TO.N,/D7*%
X127983800Y-70944200D03*
%TO.N,/D8*%
X125443800Y-70944200D03*
%TO.N,/\u002AD9*%
X122903800Y-70944200D03*
%TO.N,/\u002AD10{slash}SS*%
X120363800Y-70944200D03*
%TO.N,/\u002AD11{slash}MOSI*%
X117823800Y-70944200D03*
D11*
%TO.N,/D12{slash}MISO*%
X115283800Y-70944200D03*
%TD*%
D10*
%TO.N,/D4*%
%TO.C,Lidar L*%
X184839795Y-63681795D03*
%TO.N,unconnected-(J3-GPIO-Pad5)*%
X186635846Y-65477846D03*
%TO.N,/A4{slash}SDA*%
X188431897Y-67273897D03*
%TO.N,/A5{slash}SCL*%
X190227949Y-69069949D03*
%TO.N,GND*%
X192024000Y-70866000D03*
D15*
%TO.N,+3V3*%
X193820051Y-72662051D03*
%TD*%
D10*
%TO.N,/\u002AD3*%
%TO.C,Lidar Front*%
X194760400Y-87376000D03*
%TO.N,unconnected-(J4-GPIO-Pad5)*%
X194760400Y-89916000D03*
%TO.N,/A4{slash}SDA*%
X194760400Y-92456000D03*
%TO.N,/A5{slash}SCL*%
X194760400Y-94996000D03*
%TO.N,GND*%
X194760400Y-97536000D03*
D11*
%TO.N,+3V3*%
X194760400Y-100076000D03*
%TD*%
D16*
%TO.N,/M2 +*%
%TO.C,M2*%
X160274000Y-63500000D03*
D17*
%TO.N,/M2 -*%
X158274000Y-63500000D03*
%TD*%
D13*
%TO.N,+3V3*%
%TO.C,R1*%
X136130000Y-97790000D03*
%TO.N,/A5{slash}SCL*%
X136130000Y-90170000D03*
%TD*%
D10*
%TO.N,/M1 +*%
%TO.C,Moror controller*%
X168148000Y-101092000D03*
%TO.N,/M2 +*%
X168148000Y-90932000D03*
%TO.N,N/C*%
X168148000Y-85852000D03*
%TO.N,/M1 -*%
X168148000Y-98552000D03*
%TO.N,GND*%
X168148000Y-93472000D03*
D11*
%TO.N,N/C*%
X168148000Y-103632000D03*
D10*
%TO.N,/DC-DC out*%
X168148000Y-96012000D03*
%TO.N,/M2 -*%
X168148000Y-88392000D03*
D11*
%TO.N,unconnected-(U1-Vm-Pad1)*%
X180698000Y-103632000D03*
D10*
%TO.N,unconnected-(U1-Gnd-Pad2)*%
X180698000Y-101092000D03*
%TO.N,unconnected-(U1-Err-Pad3)*%
X180698000Y-98552000D03*
%TO.N,unconnected-(U1-Reset-Pad4)*%
X180698000Y-96012000D03*
%TO.N,/A5{slash}SCL*%
X180698000Y-93472000D03*
%TO.N,/A4{slash}SDA*%
X180698000Y-90932000D03*
%TO.N,+3V3*%
X180698000Y-88392000D03*
%TO.N,GND*%
X180698000Y-85852000D03*
%TD*%
D13*
%TO.N,/A4{slash}SDA*%
%TO.C,R2*%
X132080000Y-90170000D03*
%TO.N,+3V3*%
X132080000Y-97790000D03*
%TD*%
D18*
%TO.N,/\u002AD9*%
%TO.C,Servo*%
X168291800Y-125660600D03*
D17*
%TO.N,/DC-DC out*%
X170291800Y-125660600D03*
%TO.N,GND*%
X172291800Y-125660600D03*
%TD*%
D16*
%TO.N,/M1 +*%
%TO.C,M1*%
X171450000Y-63500000D03*
D17*
%TO.N,/M1 -*%
X169450000Y-63500000D03*
%TD*%
D19*
%TO.N,Net-(BT1-+)*%
%TO.C,Battery*%
X108244000Y-125476000D03*
D20*
%TO.N,GND*%
X110744000Y-125476000D03*
%TD*%
%TO.N,/\u002AD5*%
D21*
X123236000Y-80772000D02*
X133063800Y-70944200D01*
X114808000Y-80772000D02*
X123236000Y-80772000D01*
X112014000Y-89154000D02*
X112014000Y-83566000D01*
X114280000Y-91420000D02*
X112014000Y-89154000D01*
X112014000Y-83566000D02*
X114808000Y-80772000D01*
X149628796Y-91420000D02*
X114280000Y-91420000D01*
X183853098Y-125644302D02*
X149628796Y-91420000D01*
%TO.N,/A4{slash}SDA*%
X133604000Y-88646000D02*
X132080000Y-90170000D01*
X150396278Y-88646000D02*
X133604000Y-88646000D01*
X155476278Y-83566000D02*
X150396278Y-88646000D01*
X173332000Y-83566000D02*
X155476278Y-83566000D01*
X180698000Y-90932000D02*
X173332000Y-83566000D01*
%TO.N,/A5{slash}SCL*%
X171778000Y-84552000D02*
X180698000Y-93472000D01*
X150368000Y-90170000D02*
X155986000Y-84552000D01*
X155986000Y-84552000D02*
X171778000Y-84552000D01*
X136130000Y-90170000D02*
X150368000Y-90170000D01*
%TO.N,/\u002AD9*%
X166698400Y-127254000D02*
X142748000Y-127254000D01*
X142748000Y-127254000D02*
X110744000Y-95250000D01*
X168291800Y-125660600D02*
X166698400Y-127254000D01*
X110744000Y-95250000D02*
X110744000Y-83104000D01*
X110744000Y-83104000D02*
X122903800Y-70944200D01*
%TO.N,/D4*%
X141524000Y-65024000D02*
X135603800Y-70944200D01*
X183497590Y-65024000D02*
X141524000Y-65024000D01*
X184839795Y-63681795D02*
X183497590Y-65024000D01*
%TO.N,/A4{slash}SDA*%
X188431897Y-86127497D02*
X194760400Y-92456000D01*
X188431897Y-67273897D02*
X188431897Y-86127497D01*
%TO.N,/A5{slash}SCL*%
X189241252Y-100515148D02*
X194760400Y-94996000D01*
X189241252Y-120256148D02*
X189241252Y-100515148D01*
X194760400Y-94996000D02*
X193236400Y-93472000D01*
X193236400Y-93472000D02*
X180698000Y-93472000D01*
%TO.N,/A4{slash}SDA*%
X182222000Y-92456000D02*
X194760400Y-92456000D01*
X180698000Y-90932000D02*
X182222000Y-92456000D01*
%TD*%
%TA.AperFunction,Conductor*%
%TO.N,/\u002AD5*%
G36*
X132324501Y-70549046D02*
G01*
X132325130Y-70549357D01*
X133061363Y-70941817D01*
X133066183Y-70946637D01*
X133458726Y-71683026D01*
X133459593Y-71691939D01*
X133453905Y-71698855D01*
X133453429Y-71699095D01*
X133263752Y-71789361D01*
X133262678Y-71789807D01*
X133089641Y-71851949D01*
X133088632Y-71852261D01*
X132936482Y-71891833D01*
X132935831Y-71891983D01*
X132798210Y-71919493D01*
X132603905Y-71961619D01*
X132603899Y-71961620D01*
X132431909Y-72025415D01*
X132345516Y-72072439D01*
X132345492Y-72072454D01*
X132254035Y-72134034D01*
X132254029Y-72134039D01*
X132152186Y-72216218D01*
X132152179Y-72216224D01*
X132049653Y-72312410D01*
X132041275Y-72315571D01*
X132033375Y-72312150D01*
X131695841Y-71974616D01*
X131692414Y-71966343D01*
X131695573Y-71958347D01*
X131794452Y-71852747D01*
X131878136Y-71748283D01*
X131942277Y-71651270D01*
X131990267Y-71559759D01*
X132051351Y-71385449D01*
X132088511Y-71209763D01*
X132123690Y-71038613D01*
X132123954Y-71037573D01*
X132195032Y-70803916D01*
X132195579Y-70802473D01*
X132308992Y-70554812D01*
X132315553Y-70548717D01*
X132324501Y-70549046D01*
G37*
%TD.AperFunction*%
%TD*%
%TA.AperFunction,Conductor*%
%TO.N,/\u002AD5*%
G36*
X182838951Y-124276076D02*
G01*
X182944545Y-124374949D01*
X182944548Y-124374952D01*
X183049010Y-124458634D01*
X183049015Y-124458638D01*
X183146028Y-124522780D01*
X183237539Y-124570769D01*
X183411849Y-124631853D01*
X183583500Y-124668159D01*
X183587568Y-124669020D01*
X183587567Y-124669020D01*
X183701889Y-124692518D01*
X183758678Y-124704191D01*
X183759720Y-124704455D01*
X183993376Y-124775532D01*
X183994829Y-124776083D01*
X184182096Y-124861840D01*
X184242484Y-124889494D01*
X184248580Y-124896055D01*
X184248251Y-124905003D01*
X184247938Y-124905636D01*
X183855481Y-125641864D01*
X183850660Y-125646685D01*
X183114271Y-126039228D01*
X183105358Y-126040095D01*
X183098442Y-126034407D01*
X183098212Y-126033951D01*
X183007938Y-125844257D01*
X183007492Y-125843184D01*
X182945346Y-125670140D01*
X182945037Y-125669141D01*
X182905458Y-125516960D01*
X182905321Y-125516364D01*
X182877809Y-125378739D01*
X182835675Y-125184397D01*
X182771884Y-125012417D01*
X182771881Y-125012411D01*
X182724858Y-124926018D01*
X182724852Y-124926009D01*
X182724847Y-124925999D01*
X182663266Y-124834543D01*
X182663262Y-124834537D01*
X182663257Y-124834531D01*
X182581079Y-124732688D01*
X182581073Y-124732681D01*
X182484887Y-124630155D01*
X182481726Y-124621777D01*
X182485146Y-124613878D01*
X182822682Y-124276342D01*
X182830954Y-124272916D01*
X182838951Y-124276076D01*
G37*
%TD.AperFunction*%
%TD*%
%TA.AperFunction,Conductor*%
%TO.N,/A4{slash}SDA*%
G36*
X133039879Y-88872585D02*
G01*
X133377409Y-89210115D01*
X133380836Y-89218388D01*
X133377668Y-89226394D01*
X133284709Y-89325450D01*
X133284699Y-89325460D01*
X133205404Y-89423705D01*
X133144330Y-89514788D01*
X133144326Y-89514795D01*
X133098306Y-89600580D01*
X133098303Y-89600586D01*
X133038686Y-89763848D01*
X133038683Y-89763858D01*
X133001115Y-89928547D01*
X132972420Y-90060721D01*
X132972181Y-90061638D01*
X132902535Y-90291049D01*
X132901980Y-90292516D01*
X132790708Y-90535810D01*
X132784151Y-90541909D01*
X132775202Y-90541584D01*
X132774565Y-90541269D01*
X132082438Y-90172383D01*
X132077616Y-90167561D01*
X131862453Y-89763858D01*
X131708627Y-89475241D01*
X131707761Y-89466330D01*
X131713450Y-89459415D01*
X131713879Y-89459197D01*
X131889492Y-89375106D01*
X131890483Y-89374688D01*
X132051224Y-89315551D01*
X132052142Y-89315257D01*
X132193370Y-89276605D01*
X132193865Y-89276484D01*
X132321394Y-89248897D01*
X132321406Y-89248894D01*
X132321435Y-89248888D01*
X132346234Y-89243270D01*
X132480282Y-89212910D01*
X132649666Y-89151577D01*
X132733738Y-89106554D01*
X132822863Y-89047119D01*
X132922686Y-88966916D01*
X133023606Y-88872321D01*
X133031984Y-88869164D01*
X133039879Y-88872585D01*
G37*
%TD.AperFunction*%
%TD*%
%TA.AperFunction,Conductor*%
%TO.N,/A4{slash}SDA*%
G36*
X179681779Y-89562954D02*
G01*
X179685477Y-89565294D01*
X179744177Y-89620258D01*
X179789296Y-89662506D01*
X179789376Y-89662583D01*
X179789441Y-89662642D01*
X179789447Y-89662647D01*
X179789450Y-89662650D01*
X179789455Y-89662654D01*
X179893909Y-89746330D01*
X179893912Y-89746332D01*
X179893917Y-89746336D01*
X179990930Y-89810478D01*
X180082441Y-89858467D01*
X180256751Y-89919551D01*
X180422186Y-89954542D01*
X180422316Y-89954631D01*
X180432470Y-89956718D01*
X180432469Y-89956718D01*
X180546791Y-89980216D01*
X180603303Y-89991832D01*
X180603815Y-89991949D01*
X180604349Y-89992084D01*
X180604874Y-89992229D01*
X180837918Y-90063120D01*
X180838647Y-90063370D01*
X180838906Y-90063468D01*
X180839374Y-90063646D01*
X180840089Y-90063945D01*
X181026998Y-90149538D01*
X181085270Y-90176223D01*
X181088972Y-90178899D01*
X181090184Y-90180204D01*
X181093303Y-90188591D01*
X181093250Y-90190049D01*
X181091883Y-90195128D01*
X180701201Y-90928026D01*
X180699149Y-90930795D01*
X180696795Y-90933149D01*
X180694026Y-90935201D01*
X179961226Y-91325831D01*
X179956852Y-91327151D01*
X179955079Y-91327323D01*
X179946519Y-91324716D01*
X179945335Y-91323742D01*
X179942203Y-91319735D01*
X179852954Y-91132195D01*
X179852732Y-91131696D01*
X179852493Y-91131121D01*
X179852293Y-91130602D01*
X179790341Y-90958098D01*
X179790174Y-90957597D01*
X179790013Y-90957076D01*
X179789868Y-90956567D01*
X179784311Y-90935201D01*
X179750401Y-90804817D01*
X179750328Y-90804518D01*
X179750259Y-90804218D01*
X179750188Y-90803889D01*
X179722711Y-90666437D01*
X179680577Y-90472095D01*
X179616786Y-90300115D01*
X179616783Y-90300109D01*
X179616780Y-90300103D01*
X179616776Y-90300095D01*
X179569843Y-90213869D01*
X179569760Y-90213716D01*
X179569754Y-90213707D01*
X179569749Y-90213697D01*
X179508168Y-90122241D01*
X179508164Y-90122235D01*
X179508159Y-90122229D01*
X179425981Y-90020386D01*
X179425975Y-90020379D01*
X179399569Y-89992233D01*
X179331381Y-89919550D01*
X179328966Y-89915673D01*
X179328299Y-89913904D01*
X179328510Y-89905128D01*
X179329162Y-89903622D01*
X179331623Y-89900000D01*
X179665940Y-89565683D01*
X179669735Y-89563149D01*
X179670209Y-89562953D01*
X179670305Y-89562912D01*
X179671484Y-89562425D01*
X179680254Y-89562352D01*
X179681779Y-89562954D01*
G37*
%TD.AperFunction*%
%TD*%
%TA.AperFunction,Conductor*%
%TO.N,/A5{slash}SCL*%
G36*
X179681779Y-92102954D02*
G01*
X179685477Y-92105294D01*
X179744177Y-92160258D01*
X179789296Y-92202506D01*
X179789376Y-92202583D01*
X179789441Y-92202642D01*
X179789447Y-92202647D01*
X179789450Y-92202650D01*
X179789455Y-92202654D01*
X179893909Y-92286330D01*
X179893912Y-92286332D01*
X179893917Y-92286336D01*
X179990930Y-92350478D01*
X180082441Y-92398467D01*
X180256751Y-92459551D01*
X180422186Y-92494542D01*
X180422316Y-92494631D01*
X180432470Y-92496718D01*
X180432469Y-92496718D01*
X180546791Y-92520216D01*
X180603303Y-92531832D01*
X180603815Y-92531949D01*
X180604349Y-92532084D01*
X180604874Y-92532229D01*
X180837918Y-92603120D01*
X180838647Y-92603370D01*
X180838906Y-92603468D01*
X180839374Y-92603646D01*
X180840089Y-92603945D01*
X181026998Y-92689538D01*
X181085270Y-92716223D01*
X181088972Y-92718899D01*
X181090184Y-92720204D01*
X181093303Y-92728591D01*
X181093250Y-92730049D01*
X181091883Y-92735128D01*
X180701201Y-93468026D01*
X180699149Y-93470795D01*
X180696795Y-93473149D01*
X180694026Y-93475201D01*
X179961226Y-93865831D01*
X179956852Y-93867151D01*
X179955079Y-93867323D01*
X179946519Y-93864716D01*
X179945335Y-93863742D01*
X179942203Y-93859735D01*
X179852954Y-93672195D01*
X179852732Y-93671696D01*
X179852493Y-93671121D01*
X179852293Y-93670602D01*
X179790341Y-93498098D01*
X179790174Y-93497597D01*
X179790013Y-93497076D01*
X179789868Y-93496567D01*
X179784311Y-93475201D01*
X179750401Y-93344817D01*
X179750328Y-93344518D01*
X179750259Y-93344218D01*
X179750188Y-93343889D01*
X179722711Y-93206437D01*
X179680577Y-93012095D01*
X179616786Y-92840115D01*
X179616783Y-92840109D01*
X179616780Y-92840103D01*
X179616776Y-92840095D01*
X179569843Y-92753869D01*
X179569760Y-92753716D01*
X179569754Y-92753707D01*
X179569749Y-92753697D01*
X179508168Y-92662241D01*
X179508164Y-92662235D01*
X179508159Y-92662229D01*
X179425981Y-92560386D01*
X179425975Y-92560379D01*
X179399569Y-92532233D01*
X179331381Y-92459550D01*
X179328966Y-92455673D01*
X179328299Y-92453904D01*
X179328510Y-92445128D01*
X179329162Y-92443622D01*
X179331623Y-92440000D01*
X179665940Y-92105683D01*
X179669735Y-92103149D01*
X179670209Y-92102953D01*
X179670305Y-92102912D01*
X179671484Y-92102425D01*
X179680254Y-92102352D01*
X179681779Y-92102954D01*
G37*
%TD.AperFunction*%
%TD*%
%TA.AperFunction,Conductor*%
%TO.N,/A5{slash}SCL*%
G36*
X136373749Y-89408508D02*
G01*
X136557347Y-89473209D01*
X136558365Y-89473622D01*
X136713840Y-89545467D01*
X136714698Y-89545908D01*
X136824999Y-89608809D01*
X136841851Y-89618419D01*
X136842392Y-89618748D01*
X136952009Y-89689373D01*
X137089807Y-89776279D01*
X137252948Y-89852681D01*
X137344235Y-89880295D01*
X137449280Y-89901287D01*
X137576578Y-89915161D01*
X137714827Y-89919633D01*
X137722984Y-89923326D01*
X137726148Y-89931327D01*
X137726148Y-90408665D01*
X137722721Y-90416938D01*
X137714819Y-90420359D01*
X137584719Y-90424490D01*
X137579043Y-90424671D01*
X137453486Y-90438073D01*
X137453482Y-90438073D01*
X137453480Y-90438074D01*
X137345892Y-90459291D01*
X137345889Y-90459292D01*
X137252686Y-90487411D01*
X137095082Y-90560703D01*
X136952016Y-90650621D01*
X136838315Y-90723760D01*
X136837498Y-90724240D01*
X136626026Y-90837215D01*
X136624596Y-90837860D01*
X136373879Y-90931213D01*
X136364930Y-90930888D01*
X136358831Y-90924331D01*
X136358604Y-90923658D01*
X136130038Y-90173407D01*
X136130038Y-90166592D01*
X136358668Y-89416132D01*
X136364357Y-89409218D01*
X136373270Y-89408351D01*
X136373749Y-89408508D01*
G37*
%TD.AperFunction*%
%TD*%
%TA.AperFunction,Conductor*%
%TO.N,/\u002AD9*%
G36*
X167701483Y-125416066D02*
G01*
X168285023Y-125656805D01*
X168291364Y-125663128D01*
X168292255Y-125667984D01*
X168265566Y-126527923D01*
X168261885Y-126536086D01*
X168258190Y-126538434D01*
X167451463Y-126858800D01*
X167442509Y-126858669D01*
X167438872Y-126856199D01*
X167096965Y-126514292D01*
X167093538Y-126506019D01*
X167094979Y-126500393D01*
X167686763Y-125421257D01*
X167693746Y-125415651D01*
X167701483Y-125416066D01*
G37*
%TD.AperFunction*%
%TD*%
%TA.AperFunction,Conductor*%
%TO.N,/\u002AD9*%
G36*
X122164501Y-70549046D02*
G01*
X122165130Y-70549357D01*
X122901363Y-70941817D01*
X122906183Y-70946637D01*
X123298726Y-71683026D01*
X123299593Y-71691939D01*
X123293905Y-71698855D01*
X123293429Y-71699095D01*
X123103752Y-71789361D01*
X123102678Y-71789807D01*
X122929641Y-71851949D01*
X122928632Y-71852261D01*
X122776482Y-71891833D01*
X122775831Y-71891983D01*
X122638210Y-71919493D01*
X122443905Y-71961619D01*
X122443899Y-71961620D01*
X122271909Y-72025415D01*
X122185516Y-72072439D01*
X122185492Y-72072454D01*
X122094035Y-72134034D01*
X122094029Y-72134039D01*
X121992186Y-72216218D01*
X121992179Y-72216224D01*
X121889653Y-72312410D01*
X121881275Y-72315571D01*
X121873375Y-72312150D01*
X121535841Y-71974616D01*
X121532414Y-71966343D01*
X121535573Y-71958347D01*
X121634452Y-71852747D01*
X121718136Y-71748283D01*
X121782277Y-71651270D01*
X121830267Y-71559759D01*
X121891351Y-71385449D01*
X121928511Y-71209763D01*
X121963690Y-71038613D01*
X121963954Y-71037573D01*
X122035032Y-70803916D01*
X122035579Y-70802473D01*
X122148992Y-70554812D01*
X122155553Y-70548717D01*
X122164501Y-70549046D01*
G37*
%TD.AperFunction*%
%TD*%
%TA.AperFunction,Conductor*%
%TO.N,/D4*%
G36*
X136634224Y-69576249D02*
G01*
X136971758Y-69913783D01*
X136975185Y-69922056D01*
X136972025Y-69930053D01*
X136873151Y-70035647D01*
X136873148Y-70035650D01*
X136789466Y-70140112D01*
X136789465Y-70140113D01*
X136725323Y-70237127D01*
X136677333Y-70328637D01*
X136616248Y-70502949D01*
X136616247Y-70502955D01*
X136579081Y-70678670D01*
X136543910Y-70849776D01*
X136543644Y-70850825D01*
X136472571Y-71084471D01*
X136472015Y-71085937D01*
X136358607Y-71333586D01*
X136352046Y-71339682D01*
X136343098Y-71339353D01*
X136342465Y-71339040D01*
X135606237Y-70946583D01*
X135601417Y-70941763D01*
X135208872Y-70205372D01*
X135208006Y-70196460D01*
X135213694Y-70189544D01*
X135214132Y-70189322D01*
X135403851Y-70099036D01*
X135404909Y-70098596D01*
X135577977Y-70036442D01*
X135578953Y-70036141D01*
X135731149Y-69996558D01*
X135731730Y-69996424D01*
X135869363Y-69968911D01*
X136063704Y-69926777D01*
X136235684Y-69862986D01*
X136322103Y-69815949D01*
X136413558Y-69754368D01*
X136515420Y-69672176D01*
X136617947Y-69575988D01*
X136626324Y-69572828D01*
X136634224Y-69576249D01*
G37*
%TD.AperFunction*%
%TD*%
%TA.AperFunction,Conductor*%
%TO.N,/D4*%
G36*
X184100496Y-63286641D02*
G01*
X184101125Y-63286952D01*
X184837358Y-63679412D01*
X184842178Y-63684232D01*
X185234721Y-64420621D01*
X185235588Y-64429534D01*
X185229900Y-64436450D01*
X185229424Y-64436690D01*
X185039747Y-64526956D01*
X185038673Y-64527402D01*
X184865636Y-64589544D01*
X184864627Y-64589856D01*
X184712477Y-64629428D01*
X184711826Y-64629578D01*
X184574205Y-64657088D01*
X184379900Y-64699214D01*
X184379894Y-64699215D01*
X184207904Y-64763010D01*
X184121511Y-64810034D01*
X184121487Y-64810049D01*
X184030030Y-64871629D01*
X184030024Y-64871634D01*
X183928181Y-64953813D01*
X183928174Y-64953819D01*
X183825648Y-65050005D01*
X183817270Y-65053166D01*
X183809370Y-65049745D01*
X183471836Y-64712211D01*
X183468409Y-64703938D01*
X183471568Y-64695942D01*
X183570447Y-64590342D01*
X183654131Y-64485878D01*
X183718272Y-64388865D01*
X183766262Y-64297354D01*
X183827346Y-64123044D01*
X183864506Y-63947358D01*
X183899685Y-63776208D01*
X183899949Y-63775168D01*
X183971027Y-63541511D01*
X183971574Y-63540068D01*
X184084987Y-63292407D01*
X184091548Y-63286312D01*
X184100496Y-63286641D01*
G37*
%TD.AperFunction*%
%TD*%
%TA.AperFunction,Conductor*%
%TO.N,/A4{slash}SDA*%
G36*
X193744179Y-91086954D02*
G01*
X193747877Y-91089294D01*
X193806577Y-91144258D01*
X193851696Y-91186506D01*
X193851776Y-91186583D01*
X193851841Y-91186642D01*
X193851847Y-91186647D01*
X193851850Y-91186650D01*
X193851855Y-91186654D01*
X193956309Y-91270330D01*
X193956312Y-91270332D01*
X193956317Y-91270336D01*
X194053330Y-91334478D01*
X194144841Y-91382467D01*
X194319151Y-91443551D01*
X194484586Y-91478542D01*
X194484716Y-91478631D01*
X194494870Y-91480718D01*
X194494869Y-91480718D01*
X194609191Y-91504216D01*
X194665703Y-91515832D01*
X194666215Y-91515949D01*
X194666749Y-91516084D01*
X194667274Y-91516229D01*
X194900318Y-91587120D01*
X194901047Y-91587370D01*
X194901306Y-91587468D01*
X194901774Y-91587646D01*
X194902489Y-91587945D01*
X195089398Y-91673538D01*
X195147670Y-91700223D01*
X195151372Y-91702899D01*
X195152584Y-91704204D01*
X195155703Y-91712591D01*
X195155650Y-91714049D01*
X195154283Y-91719128D01*
X194763601Y-92452026D01*
X194761549Y-92454795D01*
X194759195Y-92457149D01*
X194756426Y-92459201D01*
X194023626Y-92849831D01*
X194019252Y-92851151D01*
X194017479Y-92851323D01*
X194008919Y-92848716D01*
X194007735Y-92847742D01*
X194004603Y-92843735D01*
X193915354Y-92656195D01*
X193915132Y-92655696D01*
X193914893Y-92655121D01*
X193914693Y-92654602D01*
X193852741Y-92482098D01*
X193852574Y-92481597D01*
X193852413Y-92481076D01*
X193852268Y-92480567D01*
X193846711Y-92459201D01*
X193812801Y-92328817D01*
X193812728Y-92328518D01*
X193812659Y-92328218D01*
X193812588Y-92327889D01*
X193785111Y-92190437D01*
X193742977Y-91996095D01*
X193679186Y-91824115D01*
X193679183Y-91824109D01*
X193679180Y-91824103D01*
X193679176Y-91824095D01*
X193632243Y-91737869D01*
X193632160Y-91737716D01*
X193632154Y-91737707D01*
X193632149Y-91737697D01*
X193570568Y-91646241D01*
X193570564Y-91646235D01*
X193570559Y-91646229D01*
X193488381Y-91544386D01*
X193488375Y-91544379D01*
X193461969Y-91516233D01*
X193393781Y-91443550D01*
X193391366Y-91439673D01*
X193390699Y-91437904D01*
X193390910Y-91429128D01*
X193391562Y-91427622D01*
X193394023Y-91424000D01*
X193728340Y-91089683D01*
X193732135Y-91087149D01*
X193732609Y-91086953D01*
X193732705Y-91086912D01*
X193733884Y-91086425D01*
X193742654Y-91086352D01*
X193744179Y-91086954D01*
G37*
%TD.AperFunction*%
%TD*%
%TA.AperFunction,Conductor*%
%TO.N,/A4{slash}SDA*%
G36*
X189233582Y-67517071D02*
G01*
X189240498Y-67522759D01*
X189241365Y-67531672D01*
X189241198Y-67532178D01*
X189170910Y-67730109D01*
X189170468Y-67731184D01*
X189092040Y-67897510D01*
X189091546Y-67898444D01*
X189011947Y-68034002D01*
X189011592Y-68034569D01*
X188933767Y-68151283D01*
X188826126Y-68318516D01*
X188749622Y-68485236D01*
X188721775Y-68579604D01*
X188700653Y-68687801D01*
X188700649Y-68687823D01*
X188686740Y-68817967D01*
X188682258Y-68958477D01*
X188678569Y-68966637D01*
X188670564Y-68969804D01*
X188193219Y-68969804D01*
X188184946Y-68966377D01*
X188181525Y-68958488D01*
X188181525Y-68958477D01*
X188176772Y-68813901D01*
X188162079Y-68680860D01*
X188138835Y-68566907D01*
X188108060Y-68468265D01*
X188027997Y-68301816D01*
X187930045Y-68151311D01*
X187930027Y-68151283D01*
X187930027Y-68151282D01*
X187852930Y-68034292D01*
X187833897Y-68005411D01*
X187833353Y-68004497D01*
X187718394Y-67789021D01*
X187717752Y-67787595D01*
X187622828Y-67532285D01*
X187623157Y-67523338D01*
X187629718Y-67517242D01*
X187630348Y-67517029D01*
X188428489Y-67273935D01*
X188435305Y-67273935D01*
X189233582Y-67517071D01*
G37*
%TD.AperFunction*%
%TD*%
%TA.AperFunction,Conductor*%
%TO.N,/A5{slash}SCL*%
G36*
X194021101Y-94600846D02*
G01*
X194021730Y-94601157D01*
X194757963Y-94993617D01*
X194762783Y-94998437D01*
X195155326Y-95734826D01*
X195156193Y-95743739D01*
X195150505Y-95750655D01*
X195150029Y-95750895D01*
X194960352Y-95841161D01*
X194959278Y-95841607D01*
X194786241Y-95903749D01*
X194785232Y-95904061D01*
X194633082Y-95943633D01*
X194632431Y-95943783D01*
X194494810Y-95971293D01*
X194300505Y-96013419D01*
X194300499Y-96013420D01*
X194128509Y-96077215D01*
X194042116Y-96124239D01*
X194042092Y-96124254D01*
X193950635Y-96185834D01*
X193950629Y-96185839D01*
X193848786Y-96268018D01*
X193848779Y-96268024D01*
X193746253Y-96364210D01*
X193737875Y-96367371D01*
X193729975Y-96363950D01*
X193392441Y-96026416D01*
X193389014Y-96018143D01*
X193392173Y-96010147D01*
X193491052Y-95904547D01*
X193574736Y-95800083D01*
X193638877Y-95703070D01*
X193686867Y-95611559D01*
X193747951Y-95437249D01*
X193785111Y-95261563D01*
X193820290Y-95090413D01*
X193820554Y-95089373D01*
X193891632Y-94855716D01*
X193892179Y-94854273D01*
X194005592Y-94606612D01*
X194012153Y-94600517D01*
X194021101Y-94600846D01*
G37*
%TD.AperFunction*%
%TD*%
%TA.AperFunction,Conductor*%
%TO.N,/A5{slash}SCL*%
G36*
X189488203Y-118563668D02*
G01*
X189491624Y-118571557D01*
X189496376Y-118716142D01*
X189496378Y-118716166D01*
X189511067Y-118849165D01*
X189511069Y-118849183D01*
X189511070Y-118849185D01*
X189534314Y-118963138D01*
X189552724Y-119022146D01*
X189565088Y-119061778D01*
X189565088Y-119061779D01*
X189645151Y-119228227D01*
X189645152Y-119228229D01*
X189743122Y-119378762D01*
X189839245Y-119524624D01*
X189839799Y-119525555D01*
X189954751Y-119741018D01*
X189955395Y-119742448D01*
X190050320Y-119997758D01*
X190049991Y-120006706D01*
X190043430Y-120012802D01*
X190042762Y-120013027D01*
X189244661Y-120256109D01*
X189237843Y-120256109D01*
X188439566Y-120012973D01*
X188432650Y-120007285D01*
X188431783Y-119998372D01*
X188431937Y-119997904D01*
X188502239Y-119799931D01*
X188502680Y-119798860D01*
X188529280Y-119742448D01*
X188581111Y-119632526D01*
X188581602Y-119631599D01*
X188661221Y-119496007D01*
X188661534Y-119495507D01*
X188739400Y-119378733D01*
X188739400Y-119378732D01*
X188739418Y-119378706D01*
X188836272Y-119228229D01*
X188847027Y-119211520D01*
X188923528Y-119044804D01*
X188951375Y-118950437D01*
X188972499Y-118842224D01*
X188986408Y-118712078D01*
X188990891Y-118571568D01*
X188994580Y-118563408D01*
X189002585Y-118560241D01*
X189479930Y-118560241D01*
X189488203Y-118563668D01*
G37*
%TD.AperFunction*%
%TD*%
%TA.AperFunction,Conductor*%
%TO.N,/A5{slash}SCL*%
G36*
X193746253Y-93627774D02*
G01*
X193851847Y-93726647D01*
X193851850Y-93726650D01*
X193956312Y-93810332D01*
X193956317Y-93810336D01*
X194053330Y-93874478D01*
X194144841Y-93922467D01*
X194319151Y-93983551D01*
X194490802Y-94019857D01*
X194494870Y-94020718D01*
X194494869Y-94020718D01*
X194609191Y-94044216D01*
X194665980Y-94055889D01*
X194667022Y-94056153D01*
X194900678Y-94127230D01*
X194902131Y-94127781D01*
X195089398Y-94213538D01*
X195149786Y-94241192D01*
X195155882Y-94247753D01*
X195155553Y-94256701D01*
X195155240Y-94257334D01*
X194762783Y-94993562D01*
X194757962Y-94998383D01*
X194021573Y-95390926D01*
X194012660Y-95391793D01*
X194005744Y-95386105D01*
X194005514Y-95385649D01*
X193915240Y-95195955D01*
X193914794Y-95194882D01*
X193852648Y-95021838D01*
X193852339Y-95020839D01*
X193812760Y-94868658D01*
X193812623Y-94868062D01*
X193785111Y-94730437D01*
X193742977Y-94536095D01*
X193679186Y-94364115D01*
X193679183Y-94364109D01*
X193632160Y-94277716D01*
X193632154Y-94277707D01*
X193632149Y-94277697D01*
X193570568Y-94186241D01*
X193570564Y-94186235D01*
X193570559Y-94186229D01*
X193488381Y-94084386D01*
X193488375Y-94084379D01*
X193392189Y-93981853D01*
X193389028Y-93973475D01*
X193392448Y-93965576D01*
X193729984Y-93628040D01*
X193738256Y-93624614D01*
X193746253Y-93627774D01*
G37*
%TD.AperFunction*%
%TD*%
%TA.AperFunction,Conductor*%
%TO.N,/A5{slash}SCL*%
G36*
X180958257Y-92663399D02*
G01*
X181114981Y-92719054D01*
X181153944Y-92732890D01*
X181154446Y-92733082D01*
X181155025Y-92733320D01*
X181155544Y-92733549D01*
X181321388Y-92811750D01*
X181321837Y-92811974D01*
X181322342Y-92812241D01*
X181322767Y-92812479D01*
X181457969Y-92891869D01*
X181458256Y-92892043D01*
X181458513Y-92892204D01*
X181458793Y-92892385D01*
X181538027Y-92945218D01*
X181575428Y-92970158D01*
X181742606Y-93077761D01*
X181742620Y-93077770D01*
X181742628Y-93077775D01*
X181909344Y-93154276D01*
X182003711Y-93182123D01*
X182111924Y-93203247D01*
X182242070Y-93217156D01*
X182380257Y-93221563D01*
X182384698Y-93222595D01*
X182386423Y-93223375D01*
X182392480Y-93229728D01*
X182393085Y-93231256D01*
X182393907Y-93235563D01*
X182393907Y-93708350D01*
X182393014Y-93712832D01*
X182392289Y-93714580D01*
X182386141Y-93720830D01*
X182384639Y-93721482D01*
X182380365Y-93722444D01*
X182249840Y-93726735D01*
X182238186Y-93727119D01*
X182238088Y-93727120D01*
X182237997Y-93727124D01*
X182237987Y-93727125D01*
X182104997Y-93741812D01*
X182104969Y-93741817D01*
X182104944Y-93741821D01*
X181992443Y-93764769D01*
X181992436Y-93764770D01*
X181991013Y-93765061D01*
X181991011Y-93765061D01*
X181991009Y-93765062D01*
X181989820Y-93765432D01*
X181989800Y-93765438D01*
X181964879Y-93773214D01*
X181964878Y-93773214D01*
X181892811Y-93795697D01*
X181892458Y-93795792D01*
X181725916Y-93875901D01*
X181725913Y-93875903D01*
X181575358Y-93973888D01*
X181429761Y-94069835D01*
X181429318Y-94070113D01*
X181428832Y-94070403D01*
X181428344Y-94070679D01*
X181213470Y-94185316D01*
X181212772Y-94185659D01*
X181212069Y-94185976D01*
X181211337Y-94186277D01*
X180958569Y-94280257D01*
X180954065Y-94280982D01*
X180952286Y-94280917D01*
X180944145Y-94277192D01*
X180943147Y-94276117D01*
X180940528Y-94271565D01*
X180914551Y-94186277D01*
X180774705Y-93727124D01*
X180698546Y-93477075D01*
X180698038Y-93473666D01*
X180698038Y-93470332D01*
X180698546Y-93466923D01*
X180940496Y-92672536D01*
X180942652Y-92668516D01*
X180943784Y-92667140D01*
X180951684Y-92662928D01*
X180953214Y-92662780D01*
X180958257Y-92663399D01*
G37*
%TD.AperFunction*%
%TD*%
%TA.AperFunction,Conductor*%
%TO.N,/A4{slash}SDA*%
G36*
X194506113Y-91647081D02*
G01*
X194514254Y-91650807D01*
X194515250Y-91651879D01*
X194516551Y-91655379D01*
X194516853Y-91655285D01*
X194543948Y-91742050D01*
X194543972Y-91742129D01*
X194759853Y-92450923D01*
X194760361Y-92454332D01*
X194760361Y-92457667D01*
X194759853Y-92461076D01*
X194517902Y-93255459D01*
X194515749Y-93259479D01*
X194514619Y-93260854D01*
X194506719Y-93265069D01*
X194506710Y-93265070D01*
X194505185Y-93265218D01*
X194500140Y-93264598D01*
X194304464Y-93195111D01*
X194303929Y-93194907D01*
X194303394Y-93194687D01*
X194302854Y-93194449D01*
X194137010Y-93116248D01*
X194136536Y-93116011D01*
X194136071Y-93115764D01*
X194135631Y-93115519D01*
X194048679Y-93064462D01*
X194000429Y-93036129D01*
X194000142Y-93035955D01*
X193999885Y-93035794D01*
X193999605Y-93035613D01*
X193957915Y-93007815D01*
X193882970Y-92957840D01*
X193715880Y-92850294D01*
X193715790Y-92850235D01*
X193715779Y-92850229D01*
X193715776Y-92850227D01*
X193715772Y-92850225D01*
X193602979Y-92798467D01*
X193549063Y-92773726D01*
X193464206Y-92748685D01*
X193463438Y-92748064D01*
X193454683Y-92745875D01*
X193414779Y-92738086D01*
X193346505Y-92724757D01*
X193346477Y-92724752D01*
X193216327Y-92710842D01*
X193078146Y-92706435D01*
X193073697Y-92705401D01*
X193071975Y-92704622D01*
X193065917Y-92698265D01*
X193065313Y-92696738D01*
X193064493Y-92692435D01*
X193064493Y-92219648D01*
X193065382Y-92215175D01*
X193065415Y-92215093D01*
X193066107Y-92213423D01*
X193072260Y-92207165D01*
X193073765Y-92206513D01*
X193078027Y-92205554D01*
X193220396Y-92200875D01*
X193353437Y-92186182D01*
X193467390Y-92162938D01*
X193566032Y-92132163D01*
X193732480Y-92052100D01*
X193882985Y-91954148D01*
X193883013Y-91954130D01*
X193883069Y-91954094D01*
X193923858Y-91927212D01*
X194028699Y-91858121D01*
X194029103Y-91857868D01*
X194029559Y-91857597D01*
X194030020Y-91857337D01*
X194244958Y-91742665D01*
X194245626Y-91742337D01*
X194246340Y-91742016D01*
X194247031Y-91741732D01*
X194499834Y-91647740D01*
X194504331Y-91647016D01*
X194506113Y-91647081D01*
G37*
%TD.AperFunction*%
%TD*%
%TA.AperFunction,Conductor*%
%TO.N,/A4{slash}SDA*%
G36*
X181452655Y-90541894D02*
G01*
X181452895Y-90542370D01*
X181543161Y-90732046D01*
X181543607Y-90733120D01*
X181605749Y-90906157D01*
X181606061Y-90907166D01*
X181645633Y-91059316D01*
X181645783Y-91059968D01*
X181673291Y-91197576D01*
X181715419Y-91391893D01*
X181715420Y-91391899D01*
X181779215Y-91563889D01*
X181826239Y-91650283D01*
X181826247Y-91650296D01*
X181826251Y-91650303D01*
X181854299Y-91691958D01*
X181887834Y-91741763D01*
X181887839Y-91741769D01*
X181970018Y-91843613D01*
X181970024Y-91843620D01*
X182066210Y-91946146D01*
X182069371Y-91954524D01*
X182065950Y-91962424D01*
X181728416Y-92299958D01*
X181720143Y-92303385D01*
X181712146Y-92300225D01*
X181606552Y-92201351D01*
X181606549Y-92201348D01*
X181502087Y-92117666D01*
X181502086Y-92117665D01*
X181405071Y-92053523D01*
X181313561Y-92005533D01*
X181139249Y-91944448D01*
X181139243Y-91944447D01*
X180963529Y-91907281D01*
X180963529Y-91907280D01*
X180792423Y-91872110D01*
X180791374Y-91871844D01*
X180557728Y-91800771D01*
X180556262Y-91800215D01*
X180308613Y-91686807D01*
X180302517Y-91680246D01*
X180302846Y-91671298D01*
X180303150Y-91670682D01*
X180695618Y-90934434D01*
X180700434Y-90929618D01*
X181436827Y-90537072D01*
X181445739Y-90536206D01*
X181452655Y-90541894D01*
G37*
%TD.AperFunction*%
%TD*%
M02*
