M48
; DRILL file KiCad 10.0.0 date 2026-09-11T09:20:00
; FORMAT={-:-/ absolute / metric / decimal}
; #@! TF.CreationDate,2026-09-11T09:20:00+02:00
; #@! TF.GenerationSoftware,Kicad,Pcbnew,10.0.0
; #@! TF.FileFunction,Plated,1,4,PTH
FMAT,2
METRIC
; #@! TA.AperFunction,Plated,PTH,ComponentDrill
T1C0.750
; #@! TA.AperFunction,Plated,PTH,ComponentDrill
T2C0.800
; #@! TA.AperFunction,Plated,PTH,ComponentDrill
T3C1.000
%
G90
G05
T1
X158.274Y-63.5
X160.274Y-63.5
X168.292Y-125.661
X169.45Y-63.5
X170.292Y-125.661
X171.45Y-63.5
X172.292Y-125.661
T2
X104.902Y-107.95
X104.902Y-110.49
X104.902Y-113.03
X132.08Y-90.17
X132.08Y-97.79
X136.13Y-90.17
X136.13Y-97.79
T3
X108.244Y-125.476
X110.744Y-125.476
X115.284Y-70.944
X115.284Y-86.36
X117.824Y-70.944
X117.824Y-86.36
X118.343Y-107.447
X118.343Y-109.987
X118.343Y-112.527
X118.343Y-115.067
X118.343Y-117.607
X118.343Y-120.147
X118.343Y-122.687
X118.343Y-125.227
X120.364Y-70.944
X120.364Y-86.36
X122.904Y-70.944
X122.904Y-86.36
X125.444Y-70.944
X125.444Y-86.36
X127.984Y-70.944
X127.984Y-86.36
X130.524Y-70.944
X130.524Y-86.36
X133.064Y-70.944
X133.064Y-86.36
X135.604Y-70.944
X135.604Y-86.36
X138.144Y-70.944
X138.144Y-86.36
X140.684Y-70.944
X140.684Y-86.36
X143.224Y-70.944
X143.224Y-86.36
X145.764Y-70.944
X145.764Y-86.36
X148.304Y-70.944
X148.304Y-86.36
X150.844Y-70.944
X150.844Y-86.36
X158.453Y-107.447
X158.453Y-109.987
X158.453Y-112.527
X158.453Y-115.067
X158.453Y-117.607
X158.453Y-120.147
X158.453Y-122.687
X158.453Y-125.227
X161.893Y-71.374
X161.893Y-73.914
X161.893Y-76.454
X161.893Y-78.994
X168.148Y-85.852
X168.148Y-88.392
X168.148Y-90.932
X168.148Y-93.472
X168.148Y-96.012
X168.148Y-98.552
X168.148Y-101.092
X168.148Y-103.632
X180.698Y-85.852
X180.698Y-88.392
X180.698Y-90.932
X180.698Y-93.472
X180.698Y-96.012
X180.698Y-98.552
X180.698Y-101.092
X180.698Y-103.632
X183.853Y-125.644
X184.84Y-63.682
X185.649Y-123.848
X186.636Y-65.478
X187.445Y-122.052
X188.432Y-67.274
X189.241Y-120.256
X190.228Y-69.07
X191.037Y-118.46
X192.024Y-70.866
X192.833Y-116.664
X193.82Y-72.662
X194.76Y-87.376
X194.76Y-89.916
X194.76Y-92.456
X194.76Y-94.996
X194.76Y-97.536
X194.76Y-100.076
M30
