%TF.GenerationSoftware,KiCad,Pcbnew,10.0.0*%
%TF.CreationDate,2026-09-11T09:21:35+02:00*%
%TF.ProjectId,Bil v 1_0,42696c20-7620-4312-9c30-2e6b69636164,rev?*%
%TF.SameCoordinates,Original*%
%TF.FileFunction,Copper,L3,Inr*%
%TF.FilePolarity,Positive*%
%FSLAX46Y46*%
G04 Gerber Fmt 4.6, Leading zero omitted, Abs format (unit mm)*
G04 Created by KiCad (PCBNEW 10.0.0) date 2026-09-11 09:21:35*
%MOMM*%
%LPD*%
G01*
G04 APERTURE LIST*
G04 Aperture macros list*
%AMRoundRect*
0 Rectangle with rounded corners*
0 $1 Rounding radius*
0 $2 $3 $4 $5 $6 $7 $8 $9 X,Y pos of 4 corners*
0 Add a 4 corners polygon primitive as box body*
4,1,4,$2,$3,$4,$5,$6,$7,$8,$9,$2,$3,0*
0 Add four circle primitives for the rounded corners*
1,1,$1+$1,$2,$3*
1,1,$1+$1,$4,$5*
1,1,$1+$1,$6,$7*
1,1,$1+$1,$8,$9*
0 Add four rect primitives between the rounded corners*
20,1,$1+$1,$2,$3,$4,$5,0*
20,1,$1+$1,$4,$5,$6,$7,0*
20,1,$1+$1,$6,$7,$8,$9,0*
20,1,$1+$1,$8,$9,$2,$3,0*%
%AMRotRect*
0 Rectangle, with rotation*
0 The origin of the aperture is its center*
0 $1 length*
0 $2 width*
0 $3 Rotation angle, in degrees counterclockwise*
0 Add horizontal line*
21,1,$1,$2,0,0,$3*%
G04 Aperture macros list end*
%TA.AperFunction,ComponentPad*%
%ADD10C,1.700000*%
%TD*%
%TA.AperFunction,ComponentPad*%
%ADD11R,1.700000X1.700000*%
%TD*%
%TA.AperFunction,ComponentPad*%
%ADD12R,1.500000X1.500000*%
%TD*%
%TA.AperFunction,ComponentPad*%
%ADD13C,1.600000*%
%TD*%
%TA.AperFunction,ComponentPad*%
%ADD14RotRect,1.700000X1.700000X315.000000*%
%TD*%
%TA.AperFunction,ComponentPad*%
%ADD15RotRect,1.700000X1.700000X225.000000*%
%TD*%
%TA.AperFunction,ComponentPad*%
%ADD16RoundRect,0.250000X0.350000X0.625000X-0.350000X0.625000X-0.350000X-0.625000X0.350000X-0.625000X0*%
%TD*%
%TA.AperFunction,ComponentPad*%
%ADD17O,1.200000X1.750000*%
%TD*%
%TA.AperFunction,ComponentPad*%
%ADD18RoundRect,0.250000X-0.350000X-0.625000X0.350000X-0.625000X0.350000X0.625000X-0.350000X0.625000X0*%
%TD*%
%TA.AperFunction,ComponentPad*%
%ADD19RoundRect,0.250000X-0.600000X-0.750000X0.600000X-0.750000X0.600000X0.750000X-0.600000X0.750000X0*%
%TD*%
%TA.AperFunction,ComponentPad*%
%ADD20O,1.700000X2.000000*%
%TD*%
G04 APERTURE END LIST*
D10*
%TO.N,GND*%
%TO.C,DC-DC*%
X158452800Y-125227200D03*
%TO.N,*%
X158452800Y-122687200D03*
X158452800Y-117607200D03*
X158452800Y-115067200D03*
X158452800Y-112527200D03*
X158452800Y-109987200D03*
D11*
%TO.N,/DC-DC out*%
X158452800Y-107447200D03*
D10*
%TO.N,*%
X118342800Y-122687200D03*
X118342800Y-115067200D03*
D11*
%TO.N,VCC*%
X118342800Y-107447200D03*
D10*
%TO.N,GND*%
X118342800Y-125227200D03*
%TO.N,*%
X118342800Y-112527200D03*
X118342800Y-120147200D03*
X118342800Y-117607200D03*
X118342800Y-109987200D03*
X158452800Y-120147200D03*
%TD*%
D12*
%TO.N,VCC*%
%TO.C,SW2*%
X104902000Y-110490000D03*
D13*
%TO.N,Net-(BT1-+)*%
X104902000Y-113030000D03*
%TO.N,unconnected-(SW2-A-Pad3)*%
X104902000Y-107950000D03*
%TD*%
D11*
%TO.N,+3V3*%
%TO.C,Start Modul*%
X161893000Y-71374000D03*
D10*
%TO.N,GND*%
X161893000Y-73914000D03*
%TO.N,/D8*%
X161893000Y-76454000D03*
%TO.N,unconnected-(J5-Pin_4-Pad4)*%
X161893000Y-78994000D03*
%TD*%
D11*
%TO.N,/D13{slash}SCK*%
%TO.C,Arduino Nano*%
X115283800Y-86360000D03*
D10*
%TO.N,+3V3*%
X117823800Y-86360000D03*
%TO.N,/AREF*%
X120363800Y-86360000D03*
%TO.N,/A0*%
X122903800Y-86360000D03*
%TO.N,/A1*%
X125443800Y-86360000D03*
%TO.N,/A2*%
X127983800Y-86360000D03*
%TO.N,/A3*%
X130523800Y-86360000D03*
%TO.N,/A4{slash}SDA*%
X133063800Y-86360000D03*
%TO.N,/A5{slash}SCL*%
X135603800Y-86360000D03*
%TO.N,/A6*%
X138143800Y-86360000D03*
%TO.N,/A7*%
X140683800Y-86360000D03*
%TO.N,+5V*%
X143223800Y-86360000D03*
%TO.N,/~{RESET}*%
X145763800Y-86360000D03*
%TO.N,GND*%
X148303800Y-86360000D03*
%TO.N,VCC*%
X150843800Y-86360000D03*
%TD*%
D14*
%TO.N,+3V3*%
%TO.C,Lidar R*%
X192833354Y-116664046D03*
D10*
%TO.N,GND*%
X191037303Y-118460097D03*
%TO.N,/A5{slash}SCL*%
X189241252Y-120256148D03*
%TO.N,/A4{slash}SDA*%
X187445200Y-122052200D03*
%TO.N,unconnected-(J6-GPIO-Pad5)*%
X185649149Y-123848251D03*
%TO.N,/\u002AD5*%
X183853098Y-125644302D03*
%TD*%
%TO.N,/D1{slash}TX*%
%TO.C,ESP32*%
X150843800Y-70944200D03*
%TO.N,/D0{slash}RX*%
X148303800Y-70944200D03*
%TO.N,/~{RESET}*%
X145763800Y-70944200D03*
%TO.N,GND*%
X143223800Y-70944200D03*
%TO.N,/D2*%
X140683800Y-70944200D03*
%TO.N,/\u002AD3*%
X138143800Y-70944200D03*
%TO.N,/D4*%
X135603800Y-70944200D03*
%TO.N,/\u002AD5*%
X133063800Y-70944200D03*
%TO.N,/\u002AD6*%
X130523800Y-70944200D03*
%TO.N,/D7*%
X127983800Y-70944200D03*
%TO.N,/D8*%
X125443800Y-70944200D03*
%TO.N,/\u002AD9*%
X122903800Y-70944200D03*
%TO.N,/\u002AD10{slash}SS*%
X120363800Y-70944200D03*
%TO.N,/\u002AD11{slash}MOSI*%
X117823800Y-70944200D03*
D11*
%TO.N,/D12{slash}MISO*%
X115283800Y-70944200D03*
%TD*%
D10*
%TO.N,/D4*%
%TO.C,Lidar L*%
X184839795Y-63681795D03*
%TO.N,unconnected-(J3-GPIO-Pad5)*%
X186635846Y-65477846D03*
%TO.N,/A4{slash}SDA*%
X188431897Y-67273897D03*
%TO.N,/A5{slash}SCL*%
X190227949Y-69069949D03*
%TO.N,GND*%
X192024000Y-70866000D03*
D15*
%TO.N,+3V3*%
X193820051Y-72662051D03*
%TD*%
D10*
%TO.N,/\u002AD3*%
%TO.C,Lidar Front*%
X194760400Y-87376000D03*
%TO.N,unconnected-(J4-GPIO-Pad5)*%
X194760400Y-89916000D03*
%TO.N,/A4{slash}SDA*%
X194760400Y-92456000D03*
%TO.N,/A5{slash}SCL*%
X194760400Y-94996000D03*
%TO.N,GND*%
X194760400Y-97536000D03*
D11*
%TO.N,+3V3*%
X194760400Y-100076000D03*
%TD*%
D16*
%TO.N,/M2 +*%
%TO.C,M2*%
X160274000Y-63500000D03*
D17*
%TO.N,/M2 -*%
X158274000Y-63500000D03*
%TD*%
D13*
%TO.N,+3V3*%
%TO.C,R1*%
X136130000Y-97790000D03*
%TO.N,/A5{slash}SCL*%
X136130000Y-90170000D03*
%TD*%
D10*
%TO.N,/M1 +*%
%TO.C,Moror controller*%
X168148000Y-101092000D03*
%TO.N,/M2 +*%
X168148000Y-90932000D03*
%TO.N,N/C*%
X168148000Y-85852000D03*
%TO.N,/M1 -*%
X168148000Y-98552000D03*
%TO.N,GND*%
X168148000Y-93472000D03*
D11*
%TO.N,N/C*%
X168148000Y-103632000D03*
D10*
%TO.N,/DC-DC out*%
X168148000Y-96012000D03*
%TO.N,/M2 -*%
X168148000Y-88392000D03*
D11*
%TO.N,unconnected-(U1-Vm-Pad1)*%
X180698000Y-103632000D03*
D10*
%TO.N,unconnected-(U1-Gnd-Pad2)*%
X180698000Y-101092000D03*
%TO.N,unconnected-(U1-Err-Pad3)*%
X180698000Y-98552000D03*
%TO.N,unconnected-(U1-Reset-Pad4)*%
X180698000Y-96012000D03*
%TO.N,/A5{slash}SCL*%
X180698000Y-93472000D03*
%TO.N,/A4{slash}SDA*%
X180698000Y-90932000D03*
%TO.N,+3V3*%
X180698000Y-88392000D03*
%TO.N,GND*%
X180698000Y-85852000D03*
%TD*%
D13*
%TO.N,/A4{slash}SDA*%
%TO.C,R2*%
X132080000Y-90170000D03*
%TO.N,+3V3*%
X132080000Y-97790000D03*
%TD*%
D18*
%TO.N,/\u002AD9*%
%TO.C,Servo*%
X168291800Y-125660600D03*
D17*
%TO.N,/DC-DC out*%
X170291800Y-125660600D03*
%TO.N,GND*%
X172291800Y-125660600D03*
%TD*%
D16*
%TO.N,/M1 +*%
%TO.C,M1*%
X171450000Y-63500000D03*
D17*
%TO.N,/M1 -*%
X169450000Y-63500000D03*
%TD*%
D19*
%TO.N,Net-(BT1-+)*%
%TO.C,Battery*%
X108244000Y-125476000D03*
D20*
%TO.N,GND*%
X110744000Y-125476000D03*
%TD*%
%TA.AperFunction,Conductor*%
%TO.N,+3V3*%
G36*
X193444429Y-56886168D02*
G01*
X193747604Y-56896212D01*
X193756374Y-56896814D01*
X194270961Y-56950571D01*
X194280218Y-56951894D01*
X194788847Y-57044340D01*
X194797992Y-57046362D01*
X195298166Y-57177007D01*
X195307144Y-57179719D01*
X195796012Y-57347820D01*
X195804741Y-57351196D01*
X196094290Y-57475975D01*
X196279489Y-57555785D01*
X196287959Y-57559822D01*
X196745863Y-57799724D01*
X196753992Y-57804382D01*
X197045039Y-57986163D01*
X197192453Y-58078234D01*
X197200219Y-58083503D01*
X197616714Y-58389733D01*
X197624059Y-58395575D01*
X198016188Y-58732414D01*
X198023070Y-58738794D01*
X198388611Y-59104335D01*
X198394978Y-59111202D01*
X198731835Y-59503353D01*
X198737667Y-59510686D01*
X199043895Y-59927179D01*
X199049164Y-59934945D01*
X199323012Y-60373400D01*
X199327678Y-60381542D01*
X199567575Y-60839437D01*
X199571613Y-60847909D01*
X199776196Y-61322642D01*
X199779581Y-61331395D01*
X199947677Y-61820246D01*
X199950391Y-61829230D01*
X200081033Y-62329394D01*
X200083059Y-62338557D01*
X200175501Y-62847168D01*
X200176829Y-62856458D01*
X200230583Y-63371018D01*
X200231186Y-63379796D01*
X200241231Y-63682967D01*
X200241299Y-63687073D01*
X200241299Y-124984124D01*
X200241231Y-124988230D01*
X200231186Y-125291401D01*
X200230583Y-125300179D01*
X200176829Y-125814740D01*
X200175501Y-125824030D01*
X200083059Y-126332641D01*
X200081033Y-126341804D01*
X199950391Y-126841968D01*
X199947677Y-126850952D01*
X199779581Y-127339803D01*
X199776196Y-127348556D01*
X199571613Y-127823289D01*
X199567575Y-127831761D01*
X199327678Y-128289656D01*
X199323012Y-128297798D01*
X199049164Y-128736253D01*
X199043895Y-128744019D01*
X198737667Y-129160512D01*
X198731826Y-129167857D01*
X198394992Y-129559981D01*
X198388611Y-129566863D01*
X198023070Y-129932404D01*
X198016188Y-129938784D01*
X197624059Y-130275623D01*
X197616714Y-130281465D01*
X197200219Y-130587695D01*
X197192453Y-130592964D01*
X196753998Y-130866812D01*
X196745856Y-130871478D01*
X196287961Y-131111375D01*
X196279489Y-131115413D01*
X195804753Y-131319997D01*
X195796000Y-131323382D01*
X195307147Y-131491478D01*
X195298163Y-131494192D01*
X194798001Y-131624834D01*
X194788838Y-131626860D01*
X194280234Y-131719301D01*
X194270944Y-131720629D01*
X193756379Y-131774383D01*
X193747601Y-131774986D01*
X193444430Y-131785031D01*
X193440324Y-131785099D01*
X107143275Y-131785099D01*
X107139169Y-131785031D01*
X106835997Y-131774986D01*
X106827219Y-131774383D01*
X106312658Y-131720629D01*
X106303368Y-131719301D01*
X105794757Y-131626859D01*
X105785594Y-131624833D01*
X105285430Y-131494191D01*
X105276446Y-131491477D01*
X104787595Y-131323381D01*
X104778842Y-131319996D01*
X104304109Y-131115413D01*
X104295637Y-131111375D01*
X103837742Y-130871478D01*
X103829600Y-130866812D01*
X103391145Y-130592964D01*
X103383379Y-130587695D01*
X102966886Y-130281467D01*
X102959553Y-130275635D01*
X102567402Y-129938778D01*
X102560535Y-129932411D01*
X102194994Y-129566870D01*
X102188614Y-129559988D01*
X101851775Y-129167859D01*
X101845933Y-129160514D01*
X101539703Y-128744019D01*
X101534434Y-128736253D01*
X101260582Y-128297792D01*
X101255920Y-128289656D01*
X101016023Y-127831761D01*
X101011985Y-127823289D01*
X100828999Y-127398670D01*
X100807396Y-127348541D01*
X100804020Y-127339812D01*
X100635919Y-126850944D01*
X100633206Y-126841963D01*
X100623864Y-126806196D01*
X100502562Y-126341792D01*
X100500538Y-126332638D01*
X100408094Y-125824018D01*
X100406771Y-125814761D01*
X100353014Y-125300175D01*
X100352412Y-125291401D01*
X100349223Y-125195156D01*
X100342368Y-124988230D01*
X100342300Y-124984124D01*
X100342300Y-124675447D01*
X106885500Y-124675447D01*
X106885500Y-126276537D01*
X106885501Y-126276553D01*
X106896113Y-126380427D01*
X106951884Y-126548735D01*
X106951886Y-126548740D01*
X106963240Y-126567148D01*
X107044970Y-126699652D01*
X107170348Y-126825030D01*
X107321262Y-126918115D01*
X107489574Y-126973887D01*
X107593455Y-126984500D01*
X108894544Y-126984499D01*
X108998426Y-126973887D01*
X109166738Y-126918115D01*
X109317652Y-126825030D01*
X109443030Y-126699652D01*
X109533679Y-126552687D01*
X109585624Y-126505966D01*
X109654587Y-126494743D01*
X109718669Y-126522587D01*
X109726896Y-126530106D01*
X109858996Y-126662206D01*
X110031991Y-126787894D01*
X110125438Y-126835507D01*
X110222516Y-126884972D01*
X110222519Y-126884973D01*
X110324200Y-126918010D01*
X110425884Y-126951049D01*
X110637084Y-126984500D01*
X110637085Y-126984500D01*
X110850915Y-126984500D01*
X110850916Y-126984500D01*
X111062116Y-126951049D01*
X111265483Y-126884972D01*
X111456009Y-126787894D01*
X111629004Y-126662206D01*
X111780206Y-126511004D01*
X111905894Y-126338009D01*
X112002972Y-126147483D01*
X112069049Y-125944116D01*
X112102500Y-125732916D01*
X112102500Y-125219084D01*
X112069049Y-125007884D01*
X112002972Y-124804517D01*
X112002972Y-124804516D01*
X111952630Y-124705716D01*
X111905894Y-124613991D01*
X111780206Y-124440996D01*
X111629004Y-124289794D01*
X111456009Y-124164106D01*
X111383126Y-124126970D01*
X111265483Y-124067027D01*
X111265480Y-124067026D01*
X111062117Y-124000951D01*
X110880691Y-123972216D01*
X110850916Y-123967500D01*
X110637084Y-123967500D01*
X110607309Y-123972216D01*
X110425882Y-124000951D01*
X110222519Y-124067026D01*
X110222516Y-124067027D01*
X110031990Y-124164106D01*
X109858997Y-124289793D01*
X109726896Y-124421894D01*
X109665573Y-124455378D01*
X109595881Y-124450394D01*
X109539948Y-124408522D01*
X109533684Y-124399320D01*
X109443030Y-124252348D01*
X109317652Y-124126970D01*
X109166738Y-124033885D01*
X109166735Y-124033884D01*
X108998427Y-123978113D01*
X108894545Y-123967500D01*
X107593462Y-123967500D01*
X107593446Y-123967501D01*
X107489572Y-123978113D01*
X107321264Y-124033884D01*
X107321259Y-124033886D01*
X107170346Y-124126971D01*
X107044971Y-124252346D01*
X106951886Y-124403259D01*
X106951884Y-124403264D01*
X106896113Y-124571572D01*
X106885500Y-124675447D01*
X100342300Y-124675447D01*
X100342300Y-107847019D01*
X103593500Y-107847019D01*
X103593500Y-108052980D01*
X103625719Y-108256408D01*
X103689367Y-108452294D01*
X103782873Y-108635806D01*
X103903926Y-108802423D01*
X103903930Y-108802428D01*
X104049571Y-108948069D01*
X104049576Y-108948073D01*
X104135916Y-109010803D01*
X104178582Y-109066133D01*
X104184561Y-109135746D01*
X104151955Y-109197541D01*
X104091117Y-109231898D01*
X104076288Y-109234410D01*
X104042797Y-109238011D01*
X104042795Y-109238011D01*
X103905795Y-109289111D01*
X103788739Y-109376739D01*
X103701111Y-109493795D01*
X103650011Y-109630795D01*
X103650011Y-109630797D01*
X103643500Y-109691345D01*
X103643500Y-111288654D01*
X103650011Y-111349202D01*
X103650011Y-111349204D01*
X103701111Y-111486204D01*
X103788739Y-111603261D01*
X103905796Y-111690889D01*
X104005110Y-111727931D01*
X104042793Y-111741987D01*
X104042799Y-111741989D01*
X104076288Y-111745589D01*
X104140836Y-111772326D01*
X104180685Y-111829718D01*
X104183179Y-111899543D01*
X104147528Y-111959632D01*
X104135917Y-111969196D01*
X104049571Y-112031930D01*
X103903930Y-112177571D01*
X103903926Y-112177576D01*
X103782873Y-112344193D01*
X103689367Y-112527705D01*
X103625719Y-112723591D01*
X103593500Y-112927019D01*
X103593500Y-113132980D01*
X103625719Y-113336408D01*
X103689367Y-113532294D01*
X103782873Y-113715806D01*
X103903926Y-113882423D01*
X103903930Y-113882428D01*
X104049571Y-114028069D01*
X104049576Y-114028073D01*
X104194908Y-114133661D01*
X104216197Y-114149129D01*
X104333128Y-114208709D01*
X104399705Y-114242632D01*
X104399707Y-114242632D01*
X104399710Y-114242634D01*
X104504707Y-114276749D01*
X104595591Y-114306280D01*
X104697305Y-114322390D01*
X104799019Y-114338500D01*
X104799020Y-114338500D01*
X105004980Y-114338500D01*
X105004981Y-114338500D01*
X105208408Y-114306280D01*
X105404290Y-114242634D01*
X105587803Y-114149129D01*
X105754430Y-114028068D01*
X105900068Y-113882430D01*
X106021129Y-113715803D01*
X106114634Y-113532290D01*
X106178280Y-113336408D01*
X106210500Y-113132981D01*
X106210500Y-112927019D01*
X106178280Y-112723592D01*
X106114634Y-112527710D01*
X106114632Y-112527707D01*
X106114632Y-112527705D01*
X106059897Y-112420284D01*
X106021129Y-112344197D01*
X106005661Y-112322908D01*
X105900073Y-112177576D01*
X105900069Y-112177571D01*
X105754428Y-112031930D01*
X105668082Y-111969196D01*
X105625417Y-111913866D01*
X105619438Y-111844253D01*
X105652044Y-111782458D01*
X105712883Y-111748100D01*
X105727695Y-111745591D01*
X105761201Y-111741989D01*
X105898204Y-111690889D01*
X106015261Y-111603261D01*
X106102889Y-111486204D01*
X106153989Y-111349201D01*
X106158083Y-111311120D01*
X106160499Y-111288654D01*
X106160500Y-111288637D01*
X106160500Y-109691362D01*
X106160499Y-109691345D01*
X106157157Y-109660270D01*
X106153989Y-109630799D01*
X106102889Y-109493796D01*
X106015261Y-109376739D01*
X105898204Y-109289111D01*
X105761203Y-109238011D01*
X105727711Y-109234410D01*
X105663161Y-109207672D01*
X105623313Y-109150279D01*
X105620820Y-109080453D01*
X105656473Y-109020365D01*
X105668082Y-109010803D01*
X105754430Y-108948068D01*
X105900068Y-108802430D01*
X106021129Y-108635803D01*
X106114634Y-108452290D01*
X106178280Y-108256408D01*
X106210500Y-108052981D01*
X106210500Y-107847019D01*
X106178280Y-107643592D01*
X106114634Y-107447710D01*
X106114632Y-107447707D01*
X106114632Y-107447705D01*
X106080709Y-107381128D01*
X106021129Y-107264197D01*
X106005661Y-107242908D01*
X105900073Y-107097576D01*
X105900069Y-107097571D01*
X105754428Y-106951930D01*
X105754423Y-106951926D01*
X105587806Y-106830873D01*
X105587805Y-106830872D01*
X105587803Y-106830871D01*
X105530496Y-106801671D01*
X105404294Y-106737367D01*
X105208408Y-106673719D01*
X105170489Y-106667714D01*
X105087526Y-106654574D01*
X105004981Y-106641500D01*
X104799019Y-106641500D01*
X104774550Y-106645375D01*
X104595591Y-106673719D01*
X104399705Y-106737367D01*
X104216193Y-106830873D01*
X104049576Y-106951926D01*
X104049571Y-106951930D01*
X103903930Y-107097571D01*
X103903926Y-107097576D01*
X103782873Y-107264193D01*
X103689367Y-107447705D01*
X103625719Y-107643591D01*
X103593500Y-107847019D01*
X100342300Y-107847019D01*
X100342300Y-106548545D01*
X116984300Y-106548545D01*
X116984300Y-108345854D01*
X116990811Y-108406402D01*
X116990811Y-108406404D01*
X117007928Y-108452294D01*
X117041911Y-108543404D01*
X117129539Y-108660461D01*
X117246596Y-108748089D01*
X117367426Y-108793156D01*
X117423357Y-108835027D01*
X117447774Y-108900491D01*
X117432922Y-108968764D01*
X117411772Y-108997018D01*
X117306593Y-109102197D01*
X117180906Y-109275190D01*
X117083827Y-109465716D01*
X117083826Y-109465719D01*
X117017751Y-109669082D01*
X116984300Y-109880284D01*
X116984300Y-110094115D01*
X117017751Y-110305317D01*
X117083826Y-110508680D01*
X117083827Y-110508683D01*
X117180906Y-110699209D01*
X117306594Y-110872204D01*
X117457796Y-111023406D01*
X117630791Y-111149094D01*
X117634673Y-111151473D01*
X117681548Y-111203286D01*
X117692969Y-111272216D01*
X117665312Y-111336378D01*
X117634673Y-111362927D01*
X117630791Y-111365305D01*
X117457793Y-111490996D01*
X117306596Y-111642193D01*
X117180906Y-111815190D01*
X117083827Y-112005716D01*
X117083826Y-112005719D01*
X117017751Y-112209082D01*
X116984300Y-112420284D01*
X116984300Y-112634115D01*
X117017751Y-112845317D01*
X117083826Y-113048680D01*
X117083827Y-113048683D01*
X117180906Y-113239209D01*
X117306594Y-113412204D01*
X117457796Y-113563406D01*
X117630791Y-113689094D01*
X117634673Y-113691473D01*
X117681548Y-113743286D01*
X117692969Y-113812216D01*
X117665312Y-113876378D01*
X117634673Y-113902927D01*
X117630791Y-113905305D01*
X117457793Y-114030996D01*
X117306596Y-114182193D01*
X117180906Y-114355190D01*
X117083827Y-114545716D01*
X117083826Y-114545719D01*
X117017751Y-114749082D01*
X116984300Y-114960284D01*
X116984300Y-115174115D01*
X117017751Y-115385317D01*
X117083826Y-115588680D01*
X117083827Y-115588683D01*
X117180906Y-115779209D01*
X117306594Y-115952204D01*
X117457796Y-116103406D01*
X117630791Y-116229094D01*
X117634673Y-116231473D01*
X117681548Y-116283286D01*
X117692969Y-116352216D01*
X117665312Y-116416378D01*
X117634673Y-116442927D01*
X117630791Y-116445305D01*
X117457793Y-116570996D01*
X117306596Y-116722193D01*
X117180906Y-116895190D01*
X117083827Y-117085716D01*
X117083826Y-117085719D01*
X117017751Y-117289082D01*
X116984300Y-117500284D01*
X116984300Y-117714115D01*
X117017751Y-117925317D01*
X117083826Y-118128680D01*
X117083827Y-118128683D01*
X117147424Y-118253497D01*
X117180906Y-118319209D01*
X117306594Y-118492204D01*
X117457796Y-118643406D01*
X117630791Y-118769094D01*
X117634673Y-118771473D01*
X117681548Y-118823286D01*
X117692969Y-118892216D01*
X117665312Y-118956378D01*
X117634673Y-118982927D01*
X117630791Y-118985305D01*
X117457793Y-119110996D01*
X117306596Y-119262193D01*
X117180906Y-119435190D01*
X117083827Y-119625716D01*
X117083826Y-119625719D01*
X117017751Y-119829082D01*
X116984300Y-120040284D01*
X116984300Y-120254115D01*
X117017751Y-120465317D01*
X117083826Y-120668680D01*
X117083827Y-120668683D01*
X117147286Y-120793226D01*
X117180906Y-120859209D01*
X117306594Y-121032204D01*
X117457796Y-121183406D01*
X117607746Y-121292351D01*
X117630791Y-121309094D01*
X117634673Y-121311473D01*
X117681548Y-121363286D01*
X117692969Y-121432216D01*
X117665312Y-121496378D01*
X117634673Y-121522927D01*
X117630791Y-121525305D01*
X117457793Y-121650996D01*
X117306596Y-121802193D01*
X117180906Y-121975190D01*
X117083827Y-122165716D01*
X117083826Y-122165719D01*
X117017751Y-122369082D01*
X116984300Y-122580284D01*
X116984300Y-122794115D01*
X117017751Y-123005317D01*
X117083826Y-123208680D01*
X117083827Y-123208683D01*
X117136049Y-123311173D01*
X117180906Y-123399209D01*
X117306594Y-123572204D01*
X117457796Y-123723406D01*
X117630791Y-123849094D01*
X117634673Y-123851473D01*
X117681548Y-123903286D01*
X117692969Y-123972216D01*
X117665312Y-124036378D01*
X117634673Y-124062927D01*
X117630791Y-124065305D01*
X117457793Y-124190996D01*
X117306596Y-124342193D01*
X117180906Y-124515190D01*
X117083827Y-124705716D01*
X117083826Y-124705719D01*
X117017751Y-124909082D01*
X116984300Y-125120284D01*
X116984300Y-125334115D01*
X117017751Y-125545317D01*
X117083826Y-125748680D01*
X117083827Y-125748683D01*
X117137486Y-125853993D01*
X117180906Y-125939209D01*
X117306594Y-126112204D01*
X117457796Y-126263406D01*
X117630791Y-126389094D01*
X117680989Y-126414671D01*
X117821316Y-126486172D01*
X117821319Y-126486173D01*
X117897743Y-126511004D01*
X118024684Y-126552249D01*
X118235884Y-126585700D01*
X118235885Y-126585700D01*
X118449715Y-126585700D01*
X118449716Y-126585700D01*
X118660916Y-126552249D01*
X118864283Y-126486172D01*
X119054809Y-126389094D01*
X119227804Y-126263406D01*
X119379006Y-126112204D01*
X119504694Y-125939209D01*
X119601772Y-125748683D01*
X119667849Y-125545316D01*
X119701300Y-125334116D01*
X119701300Y-125120284D01*
X119667849Y-124909084D01*
X119601772Y-124705717D01*
X119601772Y-124705716D01*
X119546357Y-124596959D01*
X119504694Y-124515191D01*
X119379006Y-124342196D01*
X119227804Y-124190994D01*
X119054809Y-124065306D01*
X119054805Y-124065303D01*
X119050932Y-124062930D01*
X119004054Y-124011120D01*
X118992629Y-123942191D01*
X119020283Y-123878027D01*
X119050932Y-123851470D01*
X119054805Y-123849096D01*
X119054804Y-123849096D01*
X119054809Y-123849094D01*
X119227804Y-123723406D01*
X119379006Y-123572204D01*
X119504694Y-123399209D01*
X119601772Y-123208683D01*
X119667849Y-123005316D01*
X119701300Y-122794116D01*
X119701300Y-122580284D01*
X119667849Y-122369084D01*
X119601772Y-122165717D01*
X119601772Y-122165716D01*
X119504693Y-121975190D01*
X119482965Y-121945284D01*
X119379006Y-121802196D01*
X119227804Y-121650994D01*
X119054809Y-121525306D01*
X119054805Y-121525303D01*
X119050932Y-121522930D01*
X119004054Y-121471120D01*
X118992629Y-121402191D01*
X119020283Y-121338027D01*
X119050932Y-121311470D01*
X119054805Y-121309096D01*
X119054804Y-121309096D01*
X119054809Y-121309094D01*
X119227804Y-121183406D01*
X119379006Y-121032204D01*
X119504694Y-120859209D01*
X119601772Y-120668683D01*
X119667849Y-120465316D01*
X119701300Y-120254116D01*
X119701300Y-120040284D01*
X119667849Y-119829084D01*
X119601772Y-119625717D01*
X119601772Y-119625716D01*
X119535832Y-119496303D01*
X119504694Y-119435191D01*
X119379006Y-119262196D01*
X119227804Y-119110994D01*
X119054809Y-118985306D01*
X119054805Y-118985303D01*
X119050932Y-118982930D01*
X119004054Y-118931120D01*
X118992629Y-118862191D01*
X119020283Y-118798027D01*
X119050932Y-118771470D01*
X119054805Y-118769096D01*
X119054804Y-118769096D01*
X119054809Y-118769094D01*
X119227804Y-118643406D01*
X119379006Y-118492204D01*
X119504694Y-118319209D01*
X119601772Y-118128683D01*
X119667849Y-117925316D01*
X119701300Y-117714116D01*
X119701300Y-117500284D01*
X119667849Y-117289084D01*
X119627222Y-117164046D01*
X119601773Y-117085719D01*
X119601772Y-117085716D01*
X119543348Y-116971053D01*
X119504694Y-116895191D01*
X119379006Y-116722196D01*
X119227804Y-116570994D01*
X119054809Y-116445306D01*
X119054805Y-116445303D01*
X119050932Y-116442930D01*
X119004054Y-116391120D01*
X118992629Y-116322191D01*
X119020283Y-116258027D01*
X119050932Y-116231470D01*
X119054805Y-116229096D01*
X119054804Y-116229096D01*
X119054809Y-116229094D01*
X119227804Y-116103406D01*
X119379006Y-115952204D01*
X119504694Y-115779209D01*
X119601772Y-115588683D01*
X119667849Y-115385316D01*
X119701300Y-115174116D01*
X119701300Y-114960284D01*
X119667849Y-114749084D01*
X119601772Y-114545717D01*
X119601772Y-114545716D01*
X119504693Y-114355190D01*
X119469158Y-114306280D01*
X119379006Y-114182196D01*
X119227804Y-114030994D01*
X119054809Y-113905306D01*
X119054805Y-113905303D01*
X119050932Y-113902930D01*
X119004054Y-113851120D01*
X118992629Y-113782191D01*
X119020283Y-113718027D01*
X119050932Y-113691470D01*
X119054805Y-113689096D01*
X119054804Y-113689096D01*
X119054809Y-113689094D01*
X119227804Y-113563406D01*
X119379006Y-113412204D01*
X119504694Y-113239209D01*
X119601772Y-113048683D01*
X119667849Y-112845316D01*
X119701300Y-112634116D01*
X119701300Y-112420284D01*
X119667849Y-112209084D01*
X119601772Y-112005717D01*
X119601772Y-112005716D01*
X119519502Y-111844253D01*
X119504694Y-111815191D01*
X119379006Y-111642196D01*
X119227804Y-111490994D01*
X119054809Y-111365306D01*
X119054805Y-111365303D01*
X119050932Y-111362930D01*
X119004054Y-111311120D01*
X118992629Y-111242191D01*
X119020283Y-111178027D01*
X119050932Y-111151470D01*
X119054805Y-111149096D01*
X119054804Y-111149096D01*
X119054809Y-111149094D01*
X119227804Y-111023406D01*
X119379006Y-110872204D01*
X119504694Y-110699209D01*
X119601772Y-110508683D01*
X119667849Y-110305316D01*
X119701300Y-110094116D01*
X119701300Y-109880284D01*
X119667849Y-109669084D01*
X119634810Y-109567400D01*
X119601773Y-109465719D01*
X119601772Y-109465716D01*
X119552307Y-109368638D01*
X119504694Y-109275191D01*
X119379006Y-109102196D01*
X119273828Y-108997018D01*
X119240343Y-108935695D01*
X119245327Y-108866003D01*
X119287199Y-108810070D01*
X119318167Y-108793159D01*
X119439004Y-108748089D01*
X119556061Y-108660461D01*
X119643689Y-108543404D01*
X119694789Y-108406401D01*
X119698391Y-108372892D01*
X119701299Y-108345854D01*
X119701300Y-108345837D01*
X119701300Y-106548562D01*
X119701299Y-106548545D01*
X157094300Y-106548545D01*
X157094300Y-108345854D01*
X157100811Y-108406402D01*
X157100811Y-108406404D01*
X157117928Y-108452294D01*
X157151911Y-108543404D01*
X157239539Y-108660461D01*
X157356596Y-108748089D01*
X157477426Y-108793156D01*
X157533357Y-108835027D01*
X157557774Y-108900491D01*
X157542922Y-108968764D01*
X157521772Y-108997018D01*
X157416593Y-109102197D01*
X157290906Y-109275190D01*
X157193827Y-109465716D01*
X157193826Y-109465719D01*
X157127751Y-109669082D01*
X157094300Y-109880284D01*
X157094300Y-110094115D01*
X157127751Y-110305317D01*
X157193826Y-110508680D01*
X157193827Y-110508683D01*
X157290906Y-110699209D01*
X157416594Y-110872204D01*
X157567796Y-111023406D01*
X157740791Y-111149094D01*
X157744673Y-111151473D01*
X157791548Y-111203286D01*
X157802969Y-111272216D01*
X157775312Y-111336378D01*
X157744673Y-111362927D01*
X157740791Y-111365305D01*
X157567793Y-111490996D01*
X157416596Y-111642193D01*
X157290906Y-111815190D01*
X157193827Y-112005716D01*
X157193826Y-112005719D01*
X157127751Y-112209082D01*
X157094300Y-112420284D01*
X157094300Y-112634115D01*
X157127751Y-112845317D01*
X157193826Y-113048680D01*
X157193827Y-113048683D01*
X157290906Y-113239209D01*
X157416594Y-113412204D01*
X157567796Y-113563406D01*
X157740791Y-113689094D01*
X157744673Y-113691473D01*
X157791548Y-113743286D01*
X157802969Y-113812216D01*
X157775312Y-113876378D01*
X157744673Y-113902927D01*
X157740791Y-113905305D01*
X157567793Y-114030996D01*
X157416596Y-114182193D01*
X157290906Y-114355190D01*
X157193827Y-114545716D01*
X157193826Y-114545719D01*
X157127751Y-114749082D01*
X157094300Y-114960284D01*
X157094300Y-115174115D01*
X157127751Y-115385317D01*
X157193826Y-115588680D01*
X157193827Y-115588683D01*
X157290906Y-115779209D01*
X157416594Y-115952204D01*
X157567796Y-116103406D01*
X157740791Y-116229094D01*
X157744673Y-116231473D01*
X157791548Y-116283286D01*
X157802969Y-116352216D01*
X157775312Y-116416378D01*
X157744673Y-116442927D01*
X157740791Y-116445305D01*
X157567793Y-116570996D01*
X157416596Y-116722193D01*
X157290906Y-116895190D01*
X157193827Y-117085716D01*
X157193826Y-117085719D01*
X157127751Y-117289082D01*
X157094300Y-117500284D01*
X157094300Y-117714115D01*
X157127751Y-117925317D01*
X157193826Y-118128680D01*
X157193827Y-118128683D01*
X157257424Y-118253497D01*
X157290906Y-118319209D01*
X157416594Y-118492204D01*
X157567796Y-118643406D01*
X157740791Y-118769094D01*
X157744673Y-118771473D01*
X157791548Y-118823286D01*
X157802969Y-118892216D01*
X157775312Y-118956378D01*
X157744673Y-118982927D01*
X157740791Y-118985305D01*
X157567793Y-119110996D01*
X157416596Y-119262193D01*
X157290906Y-119435190D01*
X157193827Y-119625716D01*
X157193826Y-119625719D01*
X157127751Y-119829082D01*
X157094300Y-120040284D01*
X157094300Y-120254115D01*
X157127751Y-120465317D01*
X157193826Y-120668680D01*
X157193827Y-120668683D01*
X157257286Y-120793226D01*
X157290906Y-120859209D01*
X157416594Y-121032204D01*
X157567796Y-121183406D01*
X157717746Y-121292351D01*
X157740791Y-121309094D01*
X157744673Y-121311473D01*
X157791548Y-121363286D01*
X157802969Y-121432216D01*
X157775312Y-121496378D01*
X157744673Y-121522927D01*
X157740791Y-121525305D01*
X157567793Y-121650996D01*
X157416596Y-121802193D01*
X157290906Y-121975190D01*
X157193827Y-122165716D01*
X157193826Y-122165719D01*
X157127751Y-122369082D01*
X157094300Y-122580284D01*
X157094300Y-122794115D01*
X157127751Y-123005317D01*
X157193826Y-123208680D01*
X157193827Y-123208683D01*
X157246049Y-123311173D01*
X157290906Y-123399209D01*
X157416594Y-123572204D01*
X157567796Y-123723406D01*
X157740791Y-123849094D01*
X157744673Y-123851473D01*
X157791548Y-123903286D01*
X157802969Y-123972216D01*
X157775312Y-124036378D01*
X157744673Y-124062927D01*
X157740791Y-124065305D01*
X157567793Y-124190996D01*
X157416596Y-124342193D01*
X157290906Y-124515190D01*
X157193827Y-124705716D01*
X157193826Y-124705719D01*
X157127751Y-124909082D01*
X157094300Y-125120284D01*
X157094300Y-125334115D01*
X157127751Y-125545317D01*
X157193826Y-125748680D01*
X157193827Y-125748683D01*
X157247486Y-125853993D01*
X157290906Y-125939209D01*
X157416594Y-126112204D01*
X157567796Y-126263406D01*
X157740791Y-126389094D01*
X157790989Y-126414671D01*
X157931316Y-126486172D01*
X157931319Y-126486173D01*
X158007743Y-126511004D01*
X158134684Y-126552249D01*
X158345884Y-126585700D01*
X158345885Y-126585700D01*
X158559715Y-126585700D01*
X158559716Y-126585700D01*
X158770916Y-126552249D01*
X158974283Y-126486172D01*
X159164809Y-126389094D01*
X159337804Y-126263406D01*
X159489006Y-126112204D01*
X159614694Y-125939209D01*
X159711772Y-125748683D01*
X159777849Y-125545316D01*
X159811300Y-125334116D01*
X159811300Y-125120284D01*
X159789880Y-124985047D01*
X167183300Y-124985047D01*
X167183300Y-126336137D01*
X167183301Y-126336153D01*
X167193913Y-126440027D01*
X167249684Y-126608335D01*
X167249686Y-126608340D01*
X167280152Y-126657732D01*
X167342770Y-126759252D01*
X167468148Y-126884630D01*
X167619062Y-126977715D01*
X167787374Y-127033487D01*
X167891255Y-127044100D01*
X168692344Y-127044099D01*
X168796226Y-127033487D01*
X168964538Y-126977715D01*
X169115452Y-126884630D01*
X169240830Y-126759252D01*
X169275608Y-126702867D01*
X169327554Y-126656143D01*
X169396516Y-126644920D01*
X169460599Y-126672763D01*
X169468827Y-126680283D01*
X169569662Y-126781118D01*
X169569667Y-126781122D01*
X169675150Y-126857759D01*
X169710819Y-126883674D01*
X169778409Y-126918113D01*
X169866283Y-126962888D01*
X169866286Y-126962889D01*
X169932794Y-126984498D01*
X170032226Y-127016805D01*
X170204559Y-127044100D01*
X170204560Y-127044100D01*
X170379040Y-127044100D01*
X170379041Y-127044100D01*
X170551374Y-127016805D01*
X170717316Y-126962888D01*
X170872781Y-126883674D01*
X171013939Y-126781117D01*
X171137317Y-126657739D01*
X171146631Y-126644920D01*
X171191482Y-126583188D01*
X171246811Y-126540522D01*
X171316425Y-126534543D01*
X171378220Y-126567148D01*
X171392118Y-126583188D01*
X171446277Y-126657732D01*
X171446281Y-126657737D01*
X171569662Y-126781118D01*
X171569667Y-126781122D01*
X171675150Y-126857759D01*
X171710819Y-126883674D01*
X171778409Y-126918113D01*
X171866283Y-126962888D01*
X171866286Y-126962889D01*
X171932794Y-126984498D01*
X172032226Y-127016805D01*
X172204559Y-127044100D01*
X172204560Y-127044100D01*
X172379040Y-127044100D01*
X172379041Y-127044100D01*
X172551374Y-127016805D01*
X172717316Y-126962888D01*
X172872781Y-126883674D01*
X173013939Y-126781117D01*
X173137317Y-126657739D01*
X173239874Y-126516581D01*
X173319088Y-126361116D01*
X173373005Y-126195174D01*
X173400300Y-126022841D01*
X173400300Y-125537386D01*
X182494598Y-125537386D01*
X182494598Y-125751218D01*
X182506130Y-125824030D01*
X182528049Y-125962419D01*
X182594124Y-126165782D01*
X182594125Y-126165785D01*
X182683245Y-126340691D01*
X182691204Y-126356311D01*
X182816892Y-126529306D01*
X182968094Y-126680508D01*
X183141089Y-126806196D01*
X183234536Y-126853809D01*
X183331614Y-126903274D01*
X183331617Y-126903275D01*
X183433298Y-126936312D01*
X183534982Y-126969351D01*
X183746182Y-127002802D01*
X183746183Y-127002802D01*
X183960013Y-127002802D01*
X183960014Y-127002802D01*
X184171214Y-126969351D01*
X184374581Y-126903274D01*
X184565107Y-126806196D01*
X184738102Y-126680508D01*
X184889304Y-126529306D01*
X185014992Y-126356311D01*
X185112070Y-126165785D01*
X185178147Y-125962418D01*
X185211598Y-125751218D01*
X185211598Y-125537386D01*
X185178147Y-125326186D01*
X185178144Y-125326177D01*
X185177083Y-125321754D01*
X185180576Y-125251972D01*
X185221242Y-125195156D01*
X185286169Y-125169344D01*
X185326601Y-125172236D01*
X185331024Y-125173297D01*
X185331033Y-125173300D01*
X185542233Y-125206751D01*
X185542234Y-125206751D01*
X185756064Y-125206751D01*
X185756065Y-125206751D01*
X185967265Y-125173300D01*
X186170632Y-125107223D01*
X186361158Y-125010145D01*
X186534153Y-124884457D01*
X186685355Y-124733255D01*
X186811043Y-124560260D01*
X186908121Y-124369734D01*
X186974198Y-124166367D01*
X187007649Y-123955167D01*
X187007649Y-123741335D01*
X186974198Y-123530135D01*
X186974195Y-123530126D01*
X186973134Y-123525703D01*
X186976627Y-123455921D01*
X187017293Y-123399105D01*
X187082220Y-123373293D01*
X187122652Y-123376185D01*
X187127075Y-123377246D01*
X187127084Y-123377249D01*
X187338284Y-123410700D01*
X187338285Y-123410700D01*
X187552115Y-123410700D01*
X187552116Y-123410700D01*
X187763316Y-123377249D01*
X187966683Y-123311172D01*
X188157209Y-123214094D01*
X188330204Y-123088406D01*
X188481406Y-122937204D01*
X188607094Y-122764209D01*
X188704172Y-122573683D01*
X188770249Y-122370316D01*
X188803700Y-122159116D01*
X188803700Y-121945284D01*
X188770249Y-121734084D01*
X188770247Y-121734078D01*
X188769186Y-121729657D01*
X188772675Y-121659874D01*
X188813337Y-121603056D01*
X188878263Y-121577241D01*
X188918709Y-121580134D01*
X188923130Y-121581195D01*
X188923136Y-121581197D01*
X189134336Y-121614648D01*
X189134337Y-121614648D01*
X189348167Y-121614648D01*
X189348168Y-121614648D01*
X189559368Y-121581197D01*
X189762735Y-121515120D01*
X189953261Y-121418042D01*
X190126256Y-121292354D01*
X190277458Y-121141152D01*
X190403146Y-120968157D01*
X190500224Y-120777631D01*
X190566301Y-120574264D01*
X190599752Y-120363064D01*
X190599752Y-120149232D01*
X190566301Y-119938032D01*
X190566298Y-119938023D01*
X190565237Y-119933600D01*
X190568730Y-119863818D01*
X190609396Y-119807002D01*
X190674323Y-119781190D01*
X190714755Y-119784082D01*
X190719178Y-119785143D01*
X190719187Y-119785146D01*
X190930387Y-119818597D01*
X190930388Y-119818597D01*
X191144218Y-119818597D01*
X191144219Y-119818597D01*
X191355419Y-119785146D01*
X191558786Y-119719069D01*
X191749312Y-119621991D01*
X191922307Y-119496303D01*
X192073509Y-119345101D01*
X192199197Y-119172106D01*
X192296275Y-118981580D01*
X192362352Y-118778213D01*
X192395803Y-118567013D01*
X192395803Y-118408925D01*
X192415488Y-118341886D01*
X192468292Y-118296131D01*
X192537450Y-118286187D01*
X192571315Y-118296131D01*
X192691036Y-118350807D01*
X192691040Y-118350808D01*
X192833354Y-118371268D01*
X192975667Y-118350808D01*
X192975672Y-118350807D01*
X193106451Y-118291081D01*
X193153086Y-118253501D01*
X193153090Y-118253497D01*
X193611171Y-117795417D01*
X192962762Y-117147008D01*
X193026347Y-117129971D01*
X193140361Y-117064145D01*
X193233453Y-116971053D01*
X193299279Y-116857039D01*
X193316316Y-116793454D01*
X193964725Y-117441863D01*
X194422805Y-116983782D01*
X194422809Y-116983778D01*
X194460389Y-116937143D01*
X194520115Y-116806364D01*
X194520116Y-116806359D01*
X194540576Y-116664046D01*
X194520116Y-116521732D01*
X194520115Y-116521727D01*
X194460389Y-116390948D01*
X194422809Y-116344313D01*
X193964725Y-115886229D01*
X193316316Y-116534637D01*
X193299279Y-116471053D01*
X193233453Y-116357039D01*
X193140361Y-116263947D01*
X193026347Y-116198121D01*
X192962762Y-116181083D01*
X193611171Y-115532675D01*
X193153086Y-115074590D01*
X193106451Y-115037010D01*
X192975672Y-114977284D01*
X192975667Y-114977283D01*
X192833354Y-114956823D01*
X192691040Y-114977283D01*
X192691035Y-114977284D01*
X192560256Y-115037010D01*
X192513621Y-115074590D01*
X192513617Y-115074594D01*
X192055537Y-115532675D01*
X192703945Y-116181083D01*
X192640361Y-116198121D01*
X192526347Y-116263947D01*
X192433255Y-116357039D01*
X192367429Y-116471053D01*
X192350391Y-116534637D01*
X191701983Y-115886229D01*
X191243902Y-116344309D01*
X191243898Y-116344313D01*
X191206318Y-116390948D01*
X191146592Y-116521727D01*
X191146591Y-116521732D01*
X191126131Y-116664046D01*
X191146591Y-116806359D01*
X191146592Y-116806364D01*
X191201268Y-116926085D01*
X191211212Y-116995244D01*
X191182187Y-117058800D01*
X191123409Y-117096574D01*
X191088474Y-117101597D01*
X190930387Y-117101597D01*
X190859987Y-117112747D01*
X190719185Y-117135048D01*
X190515822Y-117201123D01*
X190515819Y-117201124D01*
X190325293Y-117298203D01*
X190152296Y-117423893D01*
X190001099Y-117575090D01*
X189875409Y-117748087D01*
X189778330Y-117938613D01*
X189778329Y-117938616D01*
X189712254Y-118141979D01*
X189678803Y-118353181D01*
X189678803Y-118567012D01*
X189712254Y-118778216D01*
X189713319Y-118782653D01*
X189709821Y-118852435D01*
X189669151Y-118909248D01*
X189604221Y-118935055D01*
X189563808Y-118932164D01*
X189559371Y-118931099D01*
X189400968Y-118906010D01*
X189348168Y-118897648D01*
X189134336Y-118897648D01*
X189063936Y-118908798D01*
X188923134Y-118931099D01*
X188719771Y-118997174D01*
X188719768Y-118997175D01*
X188529242Y-119094254D01*
X188356245Y-119219944D01*
X188205048Y-119371141D01*
X188079358Y-119544138D01*
X187982279Y-119734664D01*
X187982278Y-119734667D01*
X187916203Y-119938030D01*
X187900008Y-120040284D01*
X187882752Y-120149232D01*
X187882752Y-120363064D01*
X187916203Y-120574264D01*
X187916204Y-120574269D01*
X187917268Y-120578700D01*
X187913773Y-120648482D01*
X187873106Y-120705297D01*
X187808178Y-120731107D01*
X187767752Y-120728216D01*
X187763321Y-120727152D01*
X187763316Y-120727151D01*
X187552116Y-120693700D01*
X187338284Y-120693700D01*
X187267884Y-120704850D01*
X187127082Y-120727151D01*
X186923719Y-120793226D01*
X186923716Y-120793227D01*
X186733190Y-120890306D01*
X186560193Y-121015996D01*
X186408996Y-121167193D01*
X186283306Y-121340190D01*
X186186227Y-121530716D01*
X186186226Y-121530719D01*
X186120151Y-121734082D01*
X186086700Y-121945284D01*
X186086700Y-122159115D01*
X186120151Y-122370319D01*
X186121216Y-122374756D01*
X186117718Y-122444538D01*
X186077048Y-122501351D01*
X186012118Y-122527158D01*
X185971705Y-122524267D01*
X185967268Y-122523202D01*
X185808865Y-122498113D01*
X185756065Y-122489751D01*
X185542233Y-122489751D01*
X185471833Y-122500901D01*
X185331031Y-122523202D01*
X185127668Y-122589277D01*
X185127665Y-122589278D01*
X184937139Y-122686357D01*
X184764142Y-122812047D01*
X184612945Y-122963244D01*
X184487255Y-123136241D01*
X184390176Y-123326767D01*
X184390175Y-123326770D01*
X184324100Y-123530133D01*
X184290649Y-123741335D01*
X184290649Y-123955166D01*
X184324100Y-124166370D01*
X184325165Y-124170807D01*
X184321667Y-124240589D01*
X184280997Y-124297402D01*
X184216067Y-124323209D01*
X184175654Y-124320318D01*
X184171217Y-124319253D01*
X184012814Y-124294164D01*
X183960014Y-124285802D01*
X183746182Y-124285802D01*
X183675782Y-124296952D01*
X183534980Y-124319253D01*
X183331617Y-124385328D01*
X183331614Y-124385329D01*
X183141088Y-124482408D01*
X182968091Y-124608098D01*
X182816894Y-124759295D01*
X182691204Y-124932292D01*
X182594125Y-125122818D01*
X182594124Y-125122821D01*
X182528049Y-125326184D01*
X182526793Y-125334115D01*
X182494598Y-125537386D01*
X173400300Y-125537386D01*
X173400300Y-125298359D01*
X173373005Y-125126026D01*
X173334618Y-125007882D01*
X173319089Y-124960086D01*
X173319088Y-124960083D01*
X173278880Y-124881172D01*
X173239874Y-124804619D01*
X173222479Y-124780677D01*
X173137322Y-124663467D01*
X173137318Y-124663462D01*
X173013937Y-124540081D01*
X173013932Y-124540077D01*
X172872784Y-124437528D01*
X172872783Y-124437527D01*
X172872781Y-124437526D01*
X172805529Y-124403259D01*
X172717316Y-124358311D01*
X172717313Y-124358310D01*
X172551375Y-124304395D01*
X172459181Y-124289793D01*
X172379041Y-124277100D01*
X172204559Y-124277100D01*
X172149617Y-124285802D01*
X172032224Y-124304395D01*
X171866286Y-124358310D01*
X171866283Y-124358311D01*
X171710815Y-124437528D01*
X171569667Y-124540077D01*
X171569662Y-124540081D01*
X171446281Y-124663462D01*
X171392118Y-124738012D01*
X171336788Y-124780677D01*
X171267175Y-124786656D01*
X171205380Y-124754050D01*
X171191482Y-124738012D01*
X171137318Y-124663462D01*
X171013937Y-124540081D01*
X171013932Y-124540077D01*
X170872784Y-124437528D01*
X170872783Y-124437527D01*
X170872781Y-124437526D01*
X170805529Y-124403259D01*
X170717316Y-124358311D01*
X170717313Y-124358310D01*
X170551375Y-124304395D01*
X170459181Y-124289793D01*
X170379041Y-124277100D01*
X170204559Y-124277100D01*
X170149617Y-124285802D01*
X170032224Y-124304395D01*
X169866286Y-124358310D01*
X169866283Y-124358311D01*
X169710815Y-124437528D01*
X169569668Y-124540076D01*
X169468827Y-124640917D01*
X169407504Y-124674401D01*
X169337812Y-124669417D01*
X169281879Y-124627545D01*
X169275607Y-124618331D01*
X169272930Y-124613991D01*
X169240830Y-124561948D01*
X169115452Y-124436570D01*
X168964538Y-124343485D01*
X168903348Y-124323209D01*
X168796227Y-124287713D01*
X168692346Y-124277100D01*
X167891262Y-124277100D01*
X167891246Y-124277101D01*
X167787372Y-124287713D01*
X167619064Y-124343484D01*
X167619059Y-124343486D01*
X167468146Y-124436571D01*
X167342771Y-124561946D01*
X167249686Y-124712859D01*
X167249684Y-124712864D01*
X167193913Y-124881172D01*
X167183300Y-124985047D01*
X159789880Y-124985047D01*
X159777849Y-124909084D01*
X159711772Y-124705717D01*
X159711772Y-124705716D01*
X159656357Y-124596959D01*
X159614694Y-124515191D01*
X159489006Y-124342196D01*
X159337804Y-124190994D01*
X159164809Y-124065306D01*
X159164805Y-124065303D01*
X159160932Y-124062930D01*
X159114054Y-124011120D01*
X159102629Y-123942191D01*
X159130283Y-123878027D01*
X159160932Y-123851470D01*
X159164805Y-123849096D01*
X159164804Y-123849096D01*
X159164809Y-123849094D01*
X159337804Y-123723406D01*
X159489006Y-123572204D01*
X159614694Y-123399209D01*
X159711772Y-123208683D01*
X159777849Y-123005316D01*
X159811300Y-122794116D01*
X159811300Y-122580284D01*
X159777849Y-122369084D01*
X159711772Y-122165717D01*
X159711772Y-122165716D01*
X159614693Y-121975190D01*
X159592965Y-121945284D01*
X159489006Y-121802196D01*
X159337804Y-121650994D01*
X159164809Y-121525306D01*
X159164805Y-121525303D01*
X159160932Y-121522930D01*
X159114054Y-121471120D01*
X159102629Y-121402191D01*
X159130283Y-121338027D01*
X159160932Y-121311470D01*
X159164805Y-121309096D01*
X159164804Y-121309096D01*
X159164809Y-121309094D01*
X159337804Y-121183406D01*
X159489006Y-121032204D01*
X159614694Y-120859209D01*
X159711772Y-120668683D01*
X159777849Y-120465316D01*
X159811300Y-120254116D01*
X159811300Y-120040284D01*
X159777849Y-119829084D01*
X159711772Y-119625717D01*
X159711772Y-119625716D01*
X159645832Y-119496303D01*
X159614694Y-119435191D01*
X159489006Y-119262196D01*
X159337804Y-119110994D01*
X159164809Y-118985306D01*
X159164805Y-118985303D01*
X159160932Y-118982930D01*
X159114054Y-118931120D01*
X159102629Y-118862191D01*
X159130283Y-118798027D01*
X159160932Y-118771470D01*
X159164805Y-118769096D01*
X159164804Y-118769096D01*
X159164809Y-118769094D01*
X159337804Y-118643406D01*
X159489006Y-118492204D01*
X159614694Y-118319209D01*
X159711772Y-118128683D01*
X159777849Y-117925316D01*
X159811300Y-117714116D01*
X159811300Y-117500284D01*
X159777849Y-117289084D01*
X159737222Y-117164046D01*
X159711773Y-117085719D01*
X159711772Y-117085716D01*
X159653348Y-116971053D01*
X159614694Y-116895191D01*
X159489006Y-116722196D01*
X159337804Y-116570994D01*
X159164809Y-116445306D01*
X159164805Y-116445303D01*
X159160932Y-116442930D01*
X159114054Y-116391120D01*
X159102629Y-116322191D01*
X159130283Y-116258027D01*
X159160932Y-116231470D01*
X159164805Y-116229096D01*
X159164804Y-116229096D01*
X159164809Y-116229094D01*
X159337804Y-116103406D01*
X159489006Y-115952204D01*
X159614694Y-115779209D01*
X159711772Y-115588683D01*
X159729970Y-115532675D01*
X159759109Y-115442995D01*
X159759109Y-115442994D01*
X159777848Y-115385319D01*
X159777847Y-115385319D01*
X159777849Y-115385316D01*
X159811300Y-115174116D01*
X159811300Y-114960284D01*
X159777849Y-114749084D01*
X159711772Y-114545717D01*
X159711772Y-114545716D01*
X159614693Y-114355190D01*
X159579158Y-114306280D01*
X159489006Y-114182196D01*
X159337804Y-114030994D01*
X159164809Y-113905306D01*
X159164805Y-113905303D01*
X159160932Y-113902930D01*
X159114054Y-113851120D01*
X159102629Y-113782191D01*
X159130283Y-113718027D01*
X159160932Y-113691470D01*
X159164805Y-113689096D01*
X159164804Y-113689096D01*
X159164809Y-113689094D01*
X159337804Y-113563406D01*
X159489006Y-113412204D01*
X159614694Y-113239209D01*
X159711772Y-113048683D01*
X159777849Y-112845316D01*
X159811300Y-112634116D01*
X159811300Y-112420284D01*
X159777849Y-112209084D01*
X159711772Y-112005717D01*
X159711772Y-112005716D01*
X159629502Y-111844253D01*
X159614694Y-111815191D01*
X159489006Y-111642196D01*
X159337804Y-111490994D01*
X159164809Y-111365306D01*
X159164805Y-111365303D01*
X159160932Y-111362930D01*
X159114054Y-111311120D01*
X159102629Y-111242191D01*
X159130283Y-111178027D01*
X159160932Y-111151470D01*
X159164805Y-111149096D01*
X159164804Y-111149096D01*
X159164809Y-111149094D01*
X159337804Y-111023406D01*
X159489006Y-110872204D01*
X159614694Y-110699209D01*
X159711772Y-110508683D01*
X159777849Y-110305316D01*
X159811300Y-110094116D01*
X159811300Y-109880284D01*
X159777849Y-109669084D01*
X159744810Y-109567400D01*
X159711773Y-109465719D01*
X159711772Y-109465716D01*
X159662307Y-109368638D01*
X159614694Y-109275191D01*
X159489006Y-109102196D01*
X159383828Y-108997018D01*
X159350343Y-108935695D01*
X159355327Y-108866003D01*
X159397199Y-108810070D01*
X159428167Y-108793159D01*
X159549004Y-108748089D01*
X159666061Y-108660461D01*
X159753689Y-108543404D01*
X159804789Y-108406401D01*
X159808391Y-108372892D01*
X159811299Y-108345854D01*
X159811300Y-108345837D01*
X159811300Y-106548562D01*
X159811299Y-106548545D01*
X159807957Y-106517470D01*
X159804789Y-106487999D01*
X159753689Y-106350996D01*
X159666061Y-106233939D01*
X159549004Y-106146311D01*
X159412003Y-106095211D01*
X159351454Y-106088700D01*
X159351438Y-106088700D01*
X157554162Y-106088700D01*
X157554145Y-106088700D01*
X157493597Y-106095211D01*
X157493595Y-106095211D01*
X157356595Y-106146311D01*
X157239539Y-106233939D01*
X157151911Y-106350995D01*
X157100811Y-106487995D01*
X157100811Y-106487997D01*
X157094300Y-106548545D01*
X119701299Y-106548545D01*
X119697957Y-106517470D01*
X119694789Y-106487999D01*
X119643689Y-106350996D01*
X119556061Y-106233939D01*
X119439004Y-106146311D01*
X119302003Y-106095211D01*
X119241454Y-106088700D01*
X119241438Y-106088700D01*
X117444162Y-106088700D01*
X117444145Y-106088700D01*
X117383597Y-106095211D01*
X117383595Y-106095211D01*
X117246595Y-106146311D01*
X117129539Y-106233939D01*
X117041911Y-106350995D01*
X116990811Y-106487995D01*
X116990811Y-106487997D01*
X116984300Y-106548545D01*
X100342300Y-106548545D01*
X100342300Y-97687682D01*
X130780000Y-97687682D01*
X130780000Y-97892317D01*
X130812009Y-98094417D01*
X130875244Y-98289031D01*
X130968141Y-98471350D01*
X130968147Y-98471359D01*
X131000523Y-98515921D01*
X131000524Y-98515922D01*
X131680000Y-97836446D01*
X131680000Y-97842661D01*
X131707259Y-97944394D01*
X131759920Y-98035606D01*
X131834394Y-98110080D01*
X131925606Y-98162741D01*
X132027339Y-98190000D01*
X132033553Y-98190000D01*
X131354076Y-98869474D01*
X131398650Y-98901859D01*
X131580968Y-98994755D01*
X131775582Y-99057990D01*
X131977683Y-99090000D01*
X132182317Y-99090000D01*
X132384417Y-99057990D01*
X132579031Y-98994755D01*
X132761349Y-98901859D01*
X132805921Y-98869474D01*
X132126447Y-98190000D01*
X132132661Y-98190000D01*
X132234394Y-98162741D01*
X132325606Y-98110080D01*
X132400080Y-98035606D01*
X132452741Y-97944394D01*
X132480000Y-97842661D01*
X132480000Y-97836448D01*
X133159474Y-98515922D01*
X133159474Y-98515921D01*
X133191859Y-98471349D01*
X133284755Y-98289031D01*
X133347990Y-98094417D01*
X133380000Y-97892317D01*
X133380000Y-97687682D01*
X134830000Y-97687682D01*
X134830000Y-97892317D01*
X134862009Y-98094417D01*
X134925244Y-98289031D01*
X135018141Y-98471350D01*
X135018147Y-98471359D01*
X135050523Y-98515921D01*
X135050524Y-98515922D01*
X135730000Y-97836446D01*
X135730000Y-97842661D01*
X135757259Y-97944394D01*
X135809920Y-98035606D01*
X135884394Y-98110080D01*
X135975606Y-98162741D01*
X136077339Y-98190000D01*
X136083553Y-98190000D01*
X135404076Y-98869474D01*
X135448650Y-98901859D01*
X135630968Y-98994755D01*
X135825582Y-99057990D01*
X136027683Y-99090000D01*
X136232317Y-99090000D01*
X136434417Y-99057990D01*
X136629031Y-98994755D01*
X136811349Y-98901859D01*
X136855921Y-98869474D01*
X136176447Y-98190000D01*
X136182661Y-98190000D01*
X136284394Y-98162741D01*
X136375606Y-98110080D01*
X136450080Y-98035606D01*
X136502741Y-97944394D01*
X136530000Y-97842661D01*
X136530000Y-97836447D01*
X137209474Y-98515921D01*
X137241859Y-98471349D01*
X137334755Y-98289031D01*
X137397990Y-98094417D01*
X137430000Y-97892317D01*
X137430000Y-97687682D01*
X137397990Y-97485582D01*
X137334755Y-97290968D01*
X137241859Y-97108650D01*
X137209474Y-97064077D01*
X137209474Y-97064076D01*
X136530000Y-97743551D01*
X136530000Y-97737339D01*
X136502741Y-97635606D01*
X136450080Y-97544394D01*
X136375606Y-97469920D01*
X136284394Y-97417259D01*
X136182661Y-97390000D01*
X136176446Y-97390000D01*
X136855922Y-96710524D01*
X136855921Y-96710523D01*
X136811359Y-96678147D01*
X136811350Y-96678141D01*
X136629031Y-96585244D01*
X136434417Y-96522009D01*
X136232317Y-96490000D01*
X136027683Y-96490000D01*
X135825582Y-96522009D01*
X135630968Y-96585244D01*
X135448644Y-96678143D01*
X135404077Y-96710523D01*
X135404077Y-96710524D01*
X136083554Y-97390000D01*
X136077339Y-97390000D01*
X135975606Y-97417259D01*
X135884394Y-97469920D01*
X135809920Y-97544394D01*
X135757259Y-97635606D01*
X135730000Y-97737339D01*
X135730000Y-97743553D01*
X135050524Y-97064077D01*
X135050523Y-97064077D01*
X135018143Y-97108644D01*
X134925244Y-97290968D01*
X134862009Y-97485582D01*
X134830000Y-97687682D01*
X133380000Y-97687682D01*
X133347990Y-97485582D01*
X133284755Y-97290968D01*
X133191859Y-97108650D01*
X133159474Y-97064077D01*
X133159474Y-97064076D01*
X132480000Y-97743551D01*
X132480000Y-97737339D01*
X132452741Y-97635606D01*
X132400080Y-97544394D01*
X132325606Y-97469920D01*
X132234394Y-97417259D01*
X132132661Y-97390000D01*
X132126446Y-97390000D01*
X132805922Y-96710524D01*
X132805921Y-96710523D01*
X132761359Y-96678147D01*
X132761350Y-96678141D01*
X132579031Y-96585244D01*
X132384417Y-96522009D01*
X132182317Y-96490000D01*
X131977683Y-96490000D01*
X131775582Y-96522009D01*
X131580968Y-96585244D01*
X131398644Y-96678143D01*
X131354077Y-96710523D01*
X131354077Y-96710524D01*
X132033554Y-97390000D01*
X132027339Y-97390000D01*
X131925606Y-97417259D01*
X131834394Y-97469920D01*
X131759920Y-97544394D01*
X131707259Y-97635606D01*
X131680000Y-97737339D01*
X131680000Y-97743553D01*
X131000524Y-97064077D01*
X131000523Y-97064077D01*
X130968143Y-97108644D01*
X130875244Y-97290968D01*
X130812009Y-97485582D01*
X130780000Y-97687682D01*
X100342300Y-97687682D01*
X100342300Y-90067019D01*
X130771500Y-90067019D01*
X130771500Y-90272980D01*
X130803719Y-90476408D01*
X130867367Y-90672294D01*
X130960873Y-90855806D01*
X131081926Y-91022423D01*
X131081930Y-91022428D01*
X131227571Y-91168069D01*
X131227576Y-91168073D01*
X131252251Y-91186000D01*
X131394197Y-91289129D01*
X131511128Y-91348709D01*
X131577705Y-91382632D01*
X131577707Y-91382632D01*
X131577710Y-91382634D01*
X131682707Y-91416749D01*
X131773591Y-91446280D01*
X131819069Y-91453483D01*
X131977019Y-91478500D01*
X131977020Y-91478500D01*
X132182980Y-91478500D01*
X132182981Y-91478500D01*
X132386408Y-91446280D01*
X132582290Y-91382634D01*
X132765803Y-91289129D01*
X132932430Y-91168068D01*
X133078068Y-91022430D01*
X133199129Y-90855803D01*
X133292634Y-90672290D01*
X133356280Y-90476408D01*
X133388500Y-90272981D01*
X133388500Y-90067019D01*
X134821500Y-90067019D01*
X134821500Y-90272980D01*
X134853719Y-90476408D01*
X134917367Y-90672294D01*
X135010873Y-90855806D01*
X135131926Y-91022423D01*
X135131930Y-91022428D01*
X135277571Y-91168069D01*
X135277576Y-91168073D01*
X135302251Y-91186000D01*
X135444197Y-91289129D01*
X135561128Y-91348709D01*
X135627705Y-91382632D01*
X135627707Y-91382632D01*
X135627710Y-91382634D01*
X135732707Y-91416749D01*
X135823591Y-91446280D01*
X135869069Y-91453483D01*
X136027019Y-91478500D01*
X136027020Y-91478500D01*
X136232980Y-91478500D01*
X136232981Y-91478500D01*
X136436408Y-91446280D01*
X136632290Y-91382634D01*
X136815803Y-91289129D01*
X136982430Y-91168068D01*
X137128068Y-91022430D01*
X137249129Y-90855803D01*
X137342634Y-90672290D01*
X137406280Y-90476408D01*
X137438500Y-90272981D01*
X137438500Y-90067019D01*
X137406280Y-89863592D01*
X137342634Y-89667710D01*
X137342632Y-89667707D01*
X137342632Y-89667705D01*
X137307055Y-89597882D01*
X137249129Y-89484197D01*
X137233661Y-89462908D01*
X137128073Y-89317576D01*
X137128069Y-89317571D01*
X136982428Y-89171930D01*
X136982423Y-89171926D01*
X136815806Y-89050873D01*
X136815805Y-89050872D01*
X136815803Y-89050871D01*
X136758496Y-89021671D01*
X136632294Y-88957367D01*
X136436408Y-88893719D01*
X136260794Y-88865905D01*
X136232981Y-88861500D01*
X136027019Y-88861500D01*
X136002550Y-88865375D01*
X135823591Y-88893719D01*
X135627705Y-88957367D01*
X135444193Y-89050873D01*
X135277576Y-89171926D01*
X135277571Y-89171930D01*
X135131930Y-89317571D01*
X135131926Y-89317576D01*
X135010873Y-89484193D01*
X134917367Y-89667705D01*
X134853719Y-89863591D01*
X134821500Y-90067019D01*
X133388500Y-90067019D01*
X133356280Y-89863592D01*
X133292634Y-89667710D01*
X133292632Y-89667707D01*
X133292632Y-89667705D01*
X133257055Y-89597882D01*
X133199129Y-89484197D01*
X133183661Y-89462908D01*
X133078073Y-89317576D01*
X133078069Y-89317571D01*
X132932428Y-89171930D01*
X132932423Y-89171926D01*
X132765806Y-89050873D01*
X132765805Y-89050872D01*
X132765803Y-89050871D01*
X132708496Y-89021671D01*
X132582294Y-88957367D01*
X132386408Y-88893719D01*
X132210794Y-88865905D01*
X132182981Y-88861500D01*
X131977019Y-88861500D01*
X131952550Y-88865375D01*
X131773591Y-88893719D01*
X131577705Y-88957367D01*
X131394193Y-89050873D01*
X131227576Y-89171926D01*
X131227571Y-89171930D01*
X131081930Y-89317571D01*
X131081926Y-89317576D01*
X130960873Y-89484193D01*
X130867367Y-89667705D01*
X130803719Y-89863591D01*
X130771500Y-90067019D01*
X100342300Y-90067019D01*
X100342300Y-85461345D01*
X113925300Y-85461345D01*
X113925300Y-87258654D01*
X113931811Y-87319202D01*
X113931811Y-87319204D01*
X113982911Y-87456203D01*
X113982911Y-87456204D01*
X114070539Y-87573261D01*
X114187596Y-87660889D01*
X114324599Y-87711989D01*
X114351850Y-87714918D01*
X114385145Y-87718499D01*
X114385162Y-87718500D01*
X116182438Y-87718500D01*
X116182454Y-87718499D01*
X116209492Y-87715591D01*
X116243001Y-87711989D01*
X116380004Y-87660889D01*
X116497061Y-87573261D01*
X116584689Y-87456204D01*
X116635789Y-87319201D01*
X116642300Y-87258638D01*
X116642300Y-87226708D01*
X116644835Y-87214364D01*
X116655549Y-87194186D01*
X116661985Y-87172268D01*
X116677237Y-87153340D01*
X116677602Y-87152654D01*
X116677946Y-87152460D01*
X116678619Y-87151626D01*
X117340837Y-86489408D01*
X117357875Y-86552993D01*
X117423701Y-86667007D01*
X117516793Y-86760099D01*
X117630807Y-86825925D01*
X117694390Y-86842962D01*
X117062082Y-87475269D01*
X117062082Y-87475270D01*
X117116249Y-87514624D01*
X117305582Y-87611095D01*
X117507670Y-87676757D01*
X117717554Y-87710000D01*
X117930046Y-87710000D01*
X118139927Y-87676757D01*
X118139930Y-87676757D01*
X118342017Y-87611095D01*
X118531354Y-87514622D01*
X118585516Y-87475270D01*
X118585517Y-87475270D01*
X117953208Y-86842962D01*
X118016793Y-86825925D01*
X118130807Y-86760099D01*
X118223899Y-86667007D01*
X118289725Y-86552993D01*
X118306762Y-86489409D01*
X118939070Y-87121717D01*
X118939070Y-87121716D01*
X118978421Y-87067556D01*
X118978538Y-87067327D01*
X118978608Y-87067252D01*
X118980968Y-87063402D01*
X118981776Y-87063897D01*
X119026507Y-87016526D01*
X119094326Y-86999723D01*
X119160463Y-87022254D01*
X119199512Y-87067311D01*
X119201905Y-87072008D01*
X119243802Y-87129674D01*
X119327594Y-87245004D01*
X119478796Y-87396206D01*
X119651791Y-87521894D01*
X119745238Y-87569507D01*
X119842316Y-87618972D01*
X119842319Y-87618973D01*
X119944000Y-87652010D01*
X120045684Y-87685049D01*
X120256884Y-87718500D01*
X120256885Y-87718500D01*
X120470715Y-87718500D01*
X120470716Y-87718500D01*
X120681916Y-87685049D01*
X120885283Y-87618972D01*
X121075809Y-87521894D01*
X121248804Y-87396206D01*
X121400006Y-87245004D01*
X121525694Y-87072009D01*
X121525696Y-87072004D01*
X121528070Y-87068132D01*
X121579880Y-87021254D01*
X121648809Y-87009829D01*
X121712973Y-87037483D01*
X121739530Y-87068132D01*
X121741903Y-87072005D01*
X121741905Y-87072008D01*
X121741906Y-87072009D01*
X121867594Y-87245004D01*
X122018796Y-87396206D01*
X122191791Y-87521894D01*
X122285238Y-87569507D01*
X122382316Y-87618972D01*
X122382319Y-87618973D01*
X122484000Y-87652010D01*
X122585684Y-87685049D01*
X122796884Y-87718500D01*
X122796885Y-87718500D01*
X123010715Y-87718500D01*
X123010716Y-87718500D01*
X123221916Y-87685049D01*
X123425283Y-87618972D01*
X123615809Y-87521894D01*
X123788804Y-87396206D01*
X123940006Y-87245004D01*
X124065694Y-87072009D01*
X124065696Y-87072004D01*
X124068070Y-87068132D01*
X124119880Y-87021254D01*
X124188809Y-87009829D01*
X124252973Y-87037483D01*
X124279530Y-87068132D01*
X124281903Y-87072005D01*
X124281905Y-87072008D01*
X124281906Y-87072009D01*
X124407594Y-87245004D01*
X124558796Y-87396206D01*
X124731791Y-87521894D01*
X124825238Y-87569507D01*
X124922316Y-87618972D01*
X124922319Y-87618973D01*
X125024000Y-87652010D01*
X125125684Y-87685049D01*
X125336884Y-87718500D01*
X125336885Y-87718500D01*
X125550715Y-87718500D01*
X125550716Y-87718500D01*
X125761916Y-87685049D01*
X125965283Y-87618972D01*
X126155809Y-87521894D01*
X126328804Y-87396206D01*
X126480006Y-87245004D01*
X126605694Y-87072009D01*
X126605696Y-87072004D01*
X126608070Y-87068132D01*
X126659880Y-87021254D01*
X126728809Y-87009829D01*
X126792973Y-87037483D01*
X126819530Y-87068132D01*
X126821903Y-87072005D01*
X126821905Y-87072008D01*
X126821906Y-87072009D01*
X126947594Y-87245004D01*
X127098796Y-87396206D01*
X127271791Y-87521894D01*
X127365238Y-87569507D01*
X127462316Y-87618972D01*
X127462319Y-87618973D01*
X127564000Y-87652010D01*
X127665684Y-87685049D01*
X127876884Y-87718500D01*
X127876885Y-87718500D01*
X128090715Y-87718500D01*
X128090716Y-87718500D01*
X128301916Y-87685049D01*
X128505283Y-87618972D01*
X128695809Y-87521894D01*
X128868804Y-87396206D01*
X129020006Y-87245004D01*
X129145694Y-87072009D01*
X129145696Y-87072004D01*
X129148070Y-87068132D01*
X129199880Y-87021254D01*
X129268809Y-87009829D01*
X129332973Y-87037483D01*
X129359530Y-87068132D01*
X129361903Y-87072005D01*
X129361905Y-87072008D01*
X129361906Y-87072009D01*
X129487594Y-87245004D01*
X129638796Y-87396206D01*
X129811791Y-87521894D01*
X129905238Y-87569507D01*
X130002316Y-87618972D01*
X130002319Y-87618973D01*
X130104000Y-87652010D01*
X130205684Y-87685049D01*
X130416884Y-87718500D01*
X130416885Y-87718500D01*
X130630715Y-87718500D01*
X130630716Y-87718500D01*
X130841916Y-87685049D01*
X131045283Y-87618972D01*
X131235809Y-87521894D01*
X131408804Y-87396206D01*
X131560006Y-87245004D01*
X131685694Y-87072009D01*
X131685696Y-87072004D01*
X131688070Y-87068132D01*
X131739880Y-87021254D01*
X131808809Y-87009829D01*
X131872973Y-87037483D01*
X131899530Y-87068132D01*
X131901903Y-87072005D01*
X131901905Y-87072008D01*
X131901906Y-87072009D01*
X132027594Y-87245004D01*
X132178796Y-87396206D01*
X132351791Y-87521894D01*
X132445238Y-87569507D01*
X132542316Y-87618972D01*
X132542319Y-87618973D01*
X132644000Y-87652010D01*
X132745684Y-87685049D01*
X132956884Y-87718500D01*
X132956885Y-87718500D01*
X133170715Y-87718500D01*
X133170716Y-87718500D01*
X133381916Y-87685049D01*
X133585283Y-87618972D01*
X133775809Y-87521894D01*
X133948804Y-87396206D01*
X134100006Y-87245004D01*
X134225694Y-87072009D01*
X134225696Y-87072004D01*
X134228070Y-87068132D01*
X134279880Y-87021254D01*
X134348809Y-87009829D01*
X134412973Y-87037483D01*
X134439530Y-87068132D01*
X134441903Y-87072005D01*
X134441905Y-87072008D01*
X134441906Y-87072009D01*
X134567594Y-87245004D01*
X134718796Y-87396206D01*
X134891791Y-87521894D01*
X134985238Y-87569507D01*
X135082316Y-87618972D01*
X135082319Y-87618973D01*
X135184000Y-87652010D01*
X135285684Y-87685049D01*
X135496884Y-87718500D01*
X135496885Y-87718500D01*
X135710715Y-87718500D01*
X135710716Y-87718500D01*
X135921916Y-87685049D01*
X136125283Y-87618972D01*
X136315809Y-87521894D01*
X136488804Y-87396206D01*
X136640006Y-87245004D01*
X136765694Y-87072009D01*
X136765696Y-87072004D01*
X136768070Y-87068132D01*
X136819880Y-87021254D01*
X136888809Y-87009829D01*
X136952973Y-87037483D01*
X136979530Y-87068132D01*
X136981903Y-87072005D01*
X136981905Y-87072008D01*
X136981906Y-87072009D01*
X137107594Y-87245004D01*
X137258796Y-87396206D01*
X137431791Y-87521894D01*
X137525238Y-87569507D01*
X137622316Y-87618972D01*
X137622319Y-87618973D01*
X137724000Y-87652010D01*
X137825684Y-87685049D01*
X138036884Y-87718500D01*
X138036885Y-87718500D01*
X138250715Y-87718500D01*
X138250716Y-87718500D01*
X138461916Y-87685049D01*
X138665283Y-87618972D01*
X138855809Y-87521894D01*
X139028804Y-87396206D01*
X139180006Y-87245004D01*
X139305694Y-87072009D01*
X139305696Y-87072004D01*
X139308070Y-87068132D01*
X139359880Y-87021254D01*
X139428809Y-87009829D01*
X139492973Y-87037483D01*
X139519530Y-87068132D01*
X139521903Y-87072005D01*
X139521905Y-87072008D01*
X139521906Y-87072009D01*
X139647594Y-87245004D01*
X139798796Y-87396206D01*
X139971791Y-87521894D01*
X140065238Y-87569507D01*
X140162316Y-87618972D01*
X140162319Y-87618973D01*
X140264000Y-87652010D01*
X140365684Y-87685049D01*
X140576884Y-87718500D01*
X140576885Y-87718500D01*
X140790715Y-87718500D01*
X140790716Y-87718500D01*
X141001916Y-87685049D01*
X141205283Y-87618972D01*
X141395809Y-87521894D01*
X141568804Y-87396206D01*
X141720006Y-87245004D01*
X141845694Y-87072009D01*
X141845696Y-87072004D01*
X141848070Y-87068132D01*
X141899880Y-87021254D01*
X141968809Y-87009829D01*
X142032973Y-87037483D01*
X142059530Y-87068132D01*
X142061903Y-87072005D01*
X142061905Y-87072008D01*
X142061906Y-87072009D01*
X142187594Y-87245004D01*
X142338796Y-87396206D01*
X142511791Y-87521894D01*
X142605238Y-87569507D01*
X142702316Y-87618972D01*
X142702319Y-87618973D01*
X142804000Y-87652010D01*
X142905684Y-87685049D01*
X143116884Y-87718500D01*
X143116885Y-87718500D01*
X143330715Y-87718500D01*
X143330716Y-87718500D01*
X143541916Y-87685049D01*
X143745283Y-87618972D01*
X143935809Y-87521894D01*
X144108804Y-87396206D01*
X144260006Y-87245004D01*
X144385694Y-87072009D01*
X144385696Y-87072004D01*
X144388070Y-87068132D01*
X144439880Y-87021254D01*
X144508809Y-87009829D01*
X144572973Y-87037483D01*
X144599530Y-87068132D01*
X144601903Y-87072005D01*
X144601905Y-87072008D01*
X144601906Y-87072009D01*
X144727594Y-87245004D01*
X144878796Y-87396206D01*
X145051791Y-87521894D01*
X145145238Y-87569507D01*
X145242316Y-87618972D01*
X145242319Y-87618973D01*
X145344000Y-87652010D01*
X145445684Y-87685049D01*
X145656884Y-87718500D01*
X145656885Y-87718500D01*
X145870715Y-87718500D01*
X145870716Y-87718500D01*
X146081916Y-87685049D01*
X146285283Y-87618972D01*
X146475809Y-87521894D01*
X146648804Y-87396206D01*
X146800006Y-87245004D01*
X146925694Y-87072009D01*
X146925696Y-87072004D01*
X146928070Y-87068132D01*
X146979880Y-87021254D01*
X147048809Y-87009829D01*
X147112973Y-87037483D01*
X147139530Y-87068132D01*
X147141903Y-87072005D01*
X147141905Y-87072008D01*
X147141906Y-87072009D01*
X147267594Y-87245004D01*
X147418796Y-87396206D01*
X147591791Y-87521894D01*
X147685238Y-87569507D01*
X147782316Y-87618972D01*
X147782319Y-87618973D01*
X147884000Y-87652010D01*
X147985684Y-87685049D01*
X148196884Y-87718500D01*
X148196885Y-87718500D01*
X148410715Y-87718500D01*
X148410716Y-87718500D01*
X148621916Y-87685049D01*
X148825283Y-87618972D01*
X149015809Y-87521894D01*
X149188804Y-87396206D01*
X149340006Y-87245004D01*
X149465694Y-87072009D01*
X149465696Y-87072004D01*
X149468070Y-87068132D01*
X149519880Y-87021254D01*
X149588809Y-87009829D01*
X149652973Y-87037483D01*
X149679530Y-87068132D01*
X149681903Y-87072005D01*
X149681905Y-87072008D01*
X149681906Y-87072009D01*
X149807594Y-87245004D01*
X149958796Y-87396206D01*
X150131791Y-87521894D01*
X150225238Y-87569507D01*
X150322316Y-87618972D01*
X150322319Y-87618973D01*
X150424000Y-87652010D01*
X150525684Y-87685049D01*
X150736884Y-87718500D01*
X150736885Y-87718500D01*
X150950715Y-87718500D01*
X150950716Y-87718500D01*
X151161916Y-87685049D01*
X151365283Y-87618972D01*
X151555809Y-87521894D01*
X151728804Y-87396206D01*
X151880006Y-87245004D01*
X152005694Y-87072009D01*
X152102772Y-86881483D01*
X152168849Y-86678116D01*
X152202300Y-86466916D01*
X152202300Y-86253084D01*
X152168849Y-86041884D01*
X152102772Y-85838517D01*
X152055165Y-85745084D01*
X166789500Y-85745084D01*
X166789500Y-85958915D01*
X166822951Y-86170117D01*
X166889026Y-86373480D01*
X166889027Y-86373483D01*
X166948902Y-86490993D01*
X166986106Y-86564009D01*
X167111794Y-86737004D01*
X167262996Y-86888206D01*
X167416486Y-86999723D01*
X167435991Y-87013894D01*
X167439873Y-87016273D01*
X167486748Y-87068086D01*
X167498169Y-87137016D01*
X167470512Y-87201178D01*
X167439873Y-87227727D01*
X167435991Y-87230105D01*
X167262993Y-87355796D01*
X167111796Y-87506993D01*
X166986106Y-87679990D01*
X166889027Y-87870516D01*
X166889026Y-87870519D01*
X166822951Y-88073882D01*
X166789500Y-88285084D01*
X166789500Y-88498915D01*
X166822951Y-88710117D01*
X166889026Y-88913480D01*
X166889027Y-88913483D01*
X166948902Y-89030993D01*
X166986106Y-89104009D01*
X167111794Y-89277004D01*
X167262996Y-89428206D01*
X167426257Y-89546822D01*
X167435991Y-89553894D01*
X167439873Y-89556273D01*
X167486748Y-89608086D01*
X167498169Y-89677016D01*
X167470512Y-89741178D01*
X167439873Y-89767727D01*
X167435991Y-89770105D01*
X167262993Y-89895796D01*
X167111796Y-90046993D01*
X166986106Y-90219990D01*
X166889027Y-90410516D01*
X166889026Y-90410519D01*
X166822951Y-90613882D01*
X166789500Y-90825084D01*
X166789500Y-91038915D01*
X166822951Y-91250117D01*
X166889026Y-91453480D01*
X166889027Y-91453483D01*
X166948902Y-91570993D01*
X166986106Y-91644009D01*
X167111794Y-91817004D01*
X167262996Y-91968206D01*
X167435991Y-92093894D01*
X167439873Y-92096273D01*
X167486748Y-92148086D01*
X167498169Y-92217016D01*
X167470512Y-92281178D01*
X167439873Y-92307727D01*
X167435991Y-92310105D01*
X167262993Y-92435796D01*
X167111796Y-92586993D01*
X166986106Y-92759990D01*
X166889027Y-92950516D01*
X166889026Y-92950519D01*
X166822951Y-93153882D01*
X166789500Y-93365084D01*
X166789500Y-93578915D01*
X166822951Y-93790117D01*
X166889026Y-93993480D01*
X166889027Y-93993483D01*
X166948902Y-94110993D01*
X166986106Y-94184009D01*
X167111794Y-94357004D01*
X167262996Y-94508206D01*
X167435991Y-94633894D01*
X167439873Y-94636273D01*
X167486748Y-94688086D01*
X167498169Y-94757016D01*
X167470512Y-94821178D01*
X167439873Y-94847727D01*
X167435991Y-94850105D01*
X167262993Y-94975796D01*
X167111796Y-95126993D01*
X166986106Y-95299990D01*
X166889027Y-95490516D01*
X166889026Y-95490519D01*
X166822951Y-95693882D01*
X166789500Y-95905084D01*
X166789500Y-96118915D01*
X166822951Y-96330117D01*
X166889026Y-96533480D01*
X166889027Y-96533483D01*
X166979235Y-96710524D01*
X166986106Y-96724009D01*
X167111794Y-96897004D01*
X167262996Y-97048206D01*
X167435991Y-97173894D01*
X167439873Y-97176273D01*
X167486748Y-97228086D01*
X167498169Y-97297016D01*
X167470512Y-97361178D01*
X167439873Y-97387727D01*
X167435991Y-97390105D01*
X167262993Y-97515796D01*
X167111796Y-97666993D01*
X166986106Y-97839990D01*
X166889027Y-98030516D01*
X166889026Y-98030519D01*
X166822951Y-98233882D01*
X166789500Y-98445084D01*
X166789500Y-98658915D01*
X166822951Y-98870117D01*
X166889026Y-99073480D01*
X166889027Y-99073483D01*
X166986106Y-99264009D01*
X167111794Y-99437004D01*
X167262996Y-99588206D01*
X167383698Y-99675901D01*
X167435991Y-99713894D01*
X167439873Y-99716273D01*
X167486748Y-99768086D01*
X167498169Y-99837016D01*
X167470512Y-99901178D01*
X167439873Y-99927727D01*
X167435991Y-99930105D01*
X167262993Y-100055796D01*
X167111796Y-100206993D01*
X166986106Y-100379990D01*
X166889027Y-100570516D01*
X166889026Y-100570519D01*
X166822951Y-100773882D01*
X166789500Y-100985084D01*
X166789500Y-101198915D01*
X166822951Y-101410117D01*
X166889026Y-101613480D01*
X166889027Y-101613483D01*
X166986106Y-101804009D01*
X167111794Y-101977004D01*
X167111796Y-101977006D01*
X167216971Y-102082181D01*
X167250456Y-102143504D01*
X167245472Y-102213196D01*
X167203600Y-102269129D01*
X167172625Y-102286043D01*
X167051795Y-102331111D01*
X166934739Y-102418739D01*
X166847111Y-102535795D01*
X166796011Y-102672795D01*
X166796011Y-102672797D01*
X166789500Y-102733345D01*
X166789500Y-104530654D01*
X166796011Y-104591202D01*
X166796011Y-104591204D01*
X166847111Y-104728204D01*
X166934739Y-104845261D01*
X167051796Y-104932889D01*
X167188799Y-104983989D01*
X167216050Y-104986918D01*
X167249345Y-104990499D01*
X167249362Y-104990500D01*
X169046638Y-104990500D01*
X169046654Y-104990499D01*
X169073692Y-104987591D01*
X169107201Y-104983989D01*
X169244204Y-104932889D01*
X169361261Y-104845261D01*
X169448889Y-104728204D01*
X169499989Y-104591201D01*
X169503591Y-104557692D01*
X169506499Y-104530654D01*
X169506500Y-104530637D01*
X169506500Y-102733362D01*
X169506499Y-102733345D01*
X169503157Y-102702270D01*
X169499989Y-102672799D01*
X169448889Y-102535796D01*
X169361261Y-102418739D01*
X169244204Y-102331111D01*
X169244202Y-102331110D01*
X169244204Y-102331110D01*
X169123375Y-102286043D01*
X169067441Y-102244172D01*
X169043025Y-102178707D01*
X169057877Y-102110434D01*
X169079022Y-102082187D01*
X169184206Y-101977004D01*
X169309894Y-101804009D01*
X169406972Y-101613483D01*
X169473049Y-101410116D01*
X169506500Y-101198916D01*
X169506500Y-100985084D01*
X169473049Y-100773884D01*
X169406972Y-100570517D01*
X169406972Y-100570516D01*
X169357507Y-100473438D01*
X169309894Y-100379991D01*
X169184206Y-100206996D01*
X169033004Y-100055794D01*
X168860009Y-99930106D01*
X168860005Y-99930103D01*
X168856132Y-99927730D01*
X168809254Y-99875920D01*
X168797829Y-99806991D01*
X168825483Y-99742827D01*
X168856132Y-99716270D01*
X168860005Y-99713896D01*
X168860004Y-99713896D01*
X168860009Y-99713894D01*
X169033004Y-99588206D01*
X169184206Y-99437004D01*
X169309894Y-99264009D01*
X169406972Y-99073483D01*
X169473049Y-98870116D01*
X169506500Y-98658916D01*
X169506500Y-98445084D01*
X169473049Y-98233884D01*
X169415733Y-98057480D01*
X169406973Y-98030519D01*
X169406972Y-98030516D01*
X169336555Y-97892317D01*
X169309894Y-97839991D01*
X169184206Y-97666996D01*
X169033004Y-97515794D01*
X168860009Y-97390106D01*
X168860005Y-97390103D01*
X168856132Y-97387730D01*
X168809254Y-97335920D01*
X168797829Y-97266991D01*
X168825483Y-97202827D01*
X168856132Y-97176270D01*
X168860005Y-97173896D01*
X168860004Y-97173896D01*
X168860009Y-97173894D01*
X169033004Y-97048206D01*
X169184206Y-96897004D01*
X169309894Y-96724009D01*
X169406972Y-96533483D01*
X169473049Y-96330116D01*
X169506500Y-96118916D01*
X169506500Y-95905084D01*
X169473049Y-95693884D01*
X169406972Y-95490517D01*
X169406972Y-95490516D01*
X169357507Y-95393438D01*
X169309894Y-95299991D01*
X169184206Y-95126996D01*
X169033004Y-94975794D01*
X168860009Y-94850106D01*
X168860005Y-94850103D01*
X168856132Y-94847730D01*
X168809254Y-94795920D01*
X168797829Y-94726991D01*
X168825483Y-94662827D01*
X168856132Y-94636270D01*
X168860005Y-94633896D01*
X168860004Y-94633896D01*
X168860009Y-94633894D01*
X169033004Y-94508206D01*
X169184206Y-94357004D01*
X169309894Y-94184009D01*
X169406972Y-93993483D01*
X169473049Y-93790116D01*
X169506500Y-93578916D01*
X169506500Y-93365084D01*
X169473049Y-93153884D01*
X169406972Y-92950517D01*
X169406972Y-92950516D01*
X169357507Y-92853438D01*
X169309894Y-92759991D01*
X169184206Y-92586996D01*
X169033004Y-92435794D01*
X168860009Y-92310106D01*
X168860005Y-92310103D01*
X168856132Y-92307730D01*
X168809254Y-92255920D01*
X168797829Y-92186991D01*
X168825483Y-92122827D01*
X168856132Y-92096270D01*
X168860005Y-92093896D01*
X168860004Y-92093896D01*
X168860009Y-92093894D01*
X169033004Y-91968206D01*
X169184206Y-91817004D01*
X169309894Y-91644009D01*
X169406972Y-91453483D01*
X169473049Y-91250116D01*
X169506500Y-91038916D01*
X169506500Y-90825084D01*
X169473049Y-90613884D01*
X169406972Y-90410517D01*
X169406972Y-90410516D01*
X169336893Y-90272980D01*
X169309894Y-90219991D01*
X169184206Y-90046996D01*
X169033004Y-89895794D01*
X168860009Y-89770106D01*
X168860005Y-89770103D01*
X168856132Y-89767730D01*
X168809254Y-89715920D01*
X168797829Y-89646991D01*
X168825483Y-89582827D01*
X168856132Y-89556270D01*
X168860005Y-89553896D01*
X168860004Y-89553896D01*
X168860009Y-89553894D01*
X169033004Y-89428206D01*
X169184206Y-89277004D01*
X169309894Y-89104009D01*
X169406972Y-88913483D01*
X169473049Y-88710116D01*
X169506500Y-88498916D01*
X169506500Y-88285084D01*
X169473049Y-88073884D01*
X169406972Y-87870517D01*
X169406972Y-87870516D01*
X169329515Y-87718499D01*
X169309894Y-87679991D01*
X169184206Y-87506996D01*
X169033004Y-87355794D01*
X168860009Y-87230106D01*
X168860005Y-87230103D01*
X168856132Y-87227730D01*
X168809254Y-87175920D01*
X168797829Y-87106991D01*
X168825483Y-87042827D01*
X168856132Y-87016270D01*
X168860005Y-87013896D01*
X168860004Y-87013896D01*
X168860009Y-87013894D01*
X169033004Y-86888206D01*
X169184206Y-86737004D01*
X169309894Y-86564009D01*
X169406972Y-86373483D01*
X169473049Y-86170116D01*
X169506500Y-85958916D01*
X169506500Y-85745084D01*
X179339500Y-85745084D01*
X179339500Y-85958915D01*
X179372951Y-86170117D01*
X179439026Y-86373480D01*
X179439027Y-86373483D01*
X179498902Y-86490993D01*
X179536106Y-86564009D01*
X179661794Y-86737004D01*
X179812996Y-86888206D01*
X179985991Y-87013894D01*
X179990680Y-87016283D01*
X180041478Y-87064254D01*
X180058276Y-87132074D01*
X180035742Y-87198210D01*
X179994205Y-87234209D01*
X179994590Y-87234838D01*
X179990804Y-87237157D01*
X179990702Y-87237246D01*
X179990449Y-87237374D01*
X179990440Y-87237380D01*
X179936282Y-87276727D01*
X179936282Y-87276728D01*
X180568591Y-87909037D01*
X180505007Y-87926075D01*
X180390993Y-87991901D01*
X180297901Y-88084993D01*
X180232075Y-88199007D01*
X180215037Y-88262591D01*
X179582728Y-87630282D01*
X179582727Y-87630282D01*
X179543380Y-87684439D01*
X179446904Y-87873782D01*
X179381242Y-88075869D01*
X179381242Y-88075872D01*
X179348000Y-88285753D01*
X179348000Y-88498246D01*
X179381242Y-88708127D01*
X179381242Y-88708130D01*
X179446904Y-88910217D01*
X179543375Y-89099550D01*
X179582728Y-89153716D01*
X180215037Y-88521408D01*
X180232075Y-88584993D01*
X180297901Y-88699007D01*
X180390993Y-88792099D01*
X180505007Y-88857925D01*
X180568590Y-88874962D01*
X179936282Y-89507269D01*
X179936282Y-89507270D01*
X179990449Y-89546624D01*
X179990682Y-89546743D01*
X179990755Y-89546812D01*
X179994604Y-89549171D01*
X179994108Y-89549979D01*
X180041479Y-89594716D01*
X180058275Y-89662537D01*
X180035739Y-89728672D01*
X179990693Y-89767709D01*
X179985994Y-89770103D01*
X179812993Y-89895796D01*
X179661796Y-90046993D01*
X179536106Y-90219990D01*
X179439027Y-90410516D01*
X179439026Y-90410519D01*
X179372951Y-90613882D01*
X179339500Y-90825084D01*
X179339500Y-91038915D01*
X179372951Y-91250117D01*
X179439026Y-91453480D01*
X179439027Y-91453483D01*
X179498902Y-91570993D01*
X179536106Y-91644009D01*
X179661794Y-91817004D01*
X179812996Y-91968206D01*
X179985991Y-92093894D01*
X179989873Y-92096273D01*
X180036748Y-92148086D01*
X180048169Y-92217016D01*
X180020512Y-92281178D01*
X179989873Y-92307727D01*
X179985991Y-92310105D01*
X179812993Y-92435796D01*
X179661796Y-92586993D01*
X179536106Y-92759990D01*
X179439027Y-92950516D01*
X179439026Y-92950519D01*
X179372951Y-93153882D01*
X179339500Y-93365084D01*
X179339500Y-93578915D01*
X179372951Y-93790117D01*
X179439026Y-93993480D01*
X179439027Y-93993483D01*
X179498902Y-94110993D01*
X179536106Y-94184009D01*
X179661794Y-94357004D01*
X179812996Y-94508206D01*
X179985991Y-94633894D01*
X179989873Y-94636273D01*
X180036748Y-94688086D01*
X180048169Y-94757016D01*
X180020512Y-94821178D01*
X179989873Y-94847727D01*
X179985991Y-94850105D01*
X179812993Y-94975796D01*
X179661796Y-95126993D01*
X179536106Y-95299990D01*
X179439027Y-95490516D01*
X179439026Y-95490519D01*
X179372951Y-95693882D01*
X179339500Y-95905084D01*
X179339500Y-96118915D01*
X179372951Y-96330117D01*
X179439026Y-96533480D01*
X179439027Y-96533483D01*
X179529235Y-96710524D01*
X179536106Y-96724009D01*
X179661794Y-96897004D01*
X179812996Y-97048206D01*
X179985991Y-97173894D01*
X179989873Y-97176273D01*
X180036748Y-97228086D01*
X180048169Y-97297016D01*
X180020512Y-97361178D01*
X179989873Y-97387727D01*
X179985991Y-97390105D01*
X179812993Y-97515796D01*
X179661796Y-97666993D01*
X179536106Y-97839990D01*
X179439027Y-98030516D01*
X179439026Y-98030519D01*
X179372951Y-98233882D01*
X179339500Y-98445084D01*
X179339500Y-98658915D01*
X179372951Y-98870117D01*
X179439026Y-99073480D01*
X179439027Y-99073483D01*
X179536106Y-99264009D01*
X179661794Y-99437004D01*
X179812996Y-99588206D01*
X179933698Y-99675901D01*
X179985991Y-99713894D01*
X179989873Y-99716273D01*
X180036748Y-99768086D01*
X180048169Y-99837016D01*
X180020512Y-99901178D01*
X179989873Y-99927727D01*
X179985991Y-99930105D01*
X179812993Y-100055796D01*
X179661796Y-100206993D01*
X179536106Y-100379990D01*
X179439027Y-100570516D01*
X179439026Y-100570519D01*
X179372951Y-100773882D01*
X179339500Y-100985084D01*
X179339500Y-101198915D01*
X179372951Y-101410117D01*
X179439026Y-101613480D01*
X179439027Y-101613483D01*
X179536106Y-101804009D01*
X179661794Y-101977004D01*
X179661796Y-101977006D01*
X179766971Y-102082181D01*
X179800456Y-102143504D01*
X179795472Y-102213196D01*
X179753600Y-102269129D01*
X179722625Y-102286043D01*
X179601795Y-102331111D01*
X179484739Y-102418739D01*
X179397111Y-102535795D01*
X179346011Y-102672795D01*
X179346011Y-102672797D01*
X179339500Y-102733345D01*
X179339500Y-104530654D01*
X179346011Y-104591202D01*
X179346011Y-104591204D01*
X179397111Y-104728204D01*
X179484739Y-104845261D01*
X179601796Y-104932889D01*
X179738799Y-104983989D01*
X179766050Y-104986918D01*
X179799345Y-104990499D01*
X179799362Y-104990500D01*
X181596638Y-104990500D01*
X181596654Y-104990499D01*
X181623692Y-104987591D01*
X181657201Y-104983989D01*
X181794204Y-104932889D01*
X181911261Y-104845261D01*
X181998889Y-104728204D01*
X182049989Y-104591201D01*
X182053591Y-104557692D01*
X182056499Y-104530654D01*
X182056500Y-104530637D01*
X182056500Y-102733362D01*
X182056499Y-102733345D01*
X182053157Y-102702270D01*
X182049989Y-102672799D01*
X181998889Y-102535796D01*
X181911261Y-102418739D01*
X181794204Y-102331111D01*
X181794202Y-102331110D01*
X181794204Y-102331110D01*
X181673375Y-102286043D01*
X181617441Y-102244172D01*
X181593025Y-102178707D01*
X181607877Y-102110434D01*
X181629022Y-102082187D01*
X181734206Y-101977004D01*
X181859894Y-101804009D01*
X181956972Y-101613483D01*
X182023049Y-101410116D01*
X182056500Y-101198916D01*
X182056500Y-100985084D01*
X182023049Y-100773884D01*
X181956972Y-100570517D01*
X181956972Y-100570516D01*
X181907507Y-100473438D01*
X181859894Y-100379991D01*
X181734206Y-100206996D01*
X181583004Y-100055794D01*
X181410009Y-99930106D01*
X181410005Y-99930103D01*
X181406132Y-99927730D01*
X181359254Y-99875920D01*
X181347829Y-99806991D01*
X181375483Y-99742827D01*
X181406132Y-99716270D01*
X181410005Y-99713896D01*
X181410004Y-99713896D01*
X181410009Y-99713894D01*
X181583004Y-99588206D01*
X181734206Y-99437004D01*
X181859894Y-99264009D01*
X181956972Y-99073483D01*
X182023049Y-98870116D01*
X182056500Y-98658916D01*
X182056500Y-98445084D01*
X182023049Y-98233884D01*
X181965733Y-98057480D01*
X181956973Y-98030519D01*
X181956972Y-98030516D01*
X181886555Y-97892317D01*
X181859894Y-97839991D01*
X181734206Y-97666996D01*
X181583004Y-97515794D01*
X181410009Y-97390106D01*
X181410005Y-97390103D01*
X181406132Y-97387730D01*
X181359254Y-97335920D01*
X181347829Y-97266991D01*
X181375483Y-97202827D01*
X181406132Y-97176270D01*
X181410005Y-97173896D01*
X181410004Y-97173896D01*
X181410009Y-97173894D01*
X181583004Y-97048206D01*
X181734206Y-96897004D01*
X181859894Y-96724009D01*
X181956972Y-96533483D01*
X182023049Y-96330116D01*
X182056500Y-96118916D01*
X182056500Y-95905084D01*
X182023049Y-95693884D01*
X181956972Y-95490517D01*
X181956972Y-95490516D01*
X181907507Y-95393438D01*
X181859894Y-95299991D01*
X181734206Y-95126996D01*
X181583004Y-94975794D01*
X181410009Y-94850106D01*
X181410005Y-94850103D01*
X181406132Y-94847730D01*
X181359254Y-94795920D01*
X181347829Y-94726991D01*
X181375483Y-94662827D01*
X181406132Y-94636270D01*
X181410005Y-94633896D01*
X181410004Y-94633896D01*
X181410009Y-94633894D01*
X181583004Y-94508206D01*
X181734206Y-94357004D01*
X181859894Y-94184009D01*
X181956972Y-93993483D01*
X182023049Y-93790116D01*
X182056500Y-93578916D01*
X182056500Y-93365084D01*
X182023049Y-93153884D01*
X181956972Y-92950517D01*
X181956972Y-92950516D01*
X181907507Y-92853438D01*
X181859894Y-92759991D01*
X181734206Y-92586996D01*
X181583004Y-92435794D01*
X181410009Y-92310106D01*
X181410005Y-92310103D01*
X181406132Y-92307730D01*
X181359254Y-92255920D01*
X181347829Y-92186991D01*
X181375483Y-92122827D01*
X181406132Y-92096270D01*
X181410005Y-92093896D01*
X181410004Y-92093896D01*
X181410009Y-92093894D01*
X181583004Y-91968206D01*
X181734206Y-91817004D01*
X181859894Y-91644009D01*
X181956972Y-91453483D01*
X182023049Y-91250116D01*
X182056500Y-91038916D01*
X182056500Y-90825084D01*
X182023049Y-90613884D01*
X181956972Y-90410517D01*
X181956972Y-90410516D01*
X181886893Y-90272980D01*
X181859894Y-90219991D01*
X181734206Y-90046996D01*
X181583004Y-89895794D01*
X181410009Y-89770106D01*
X181410010Y-89770106D01*
X181410008Y-89770105D01*
X181405311Y-89767712D01*
X181354517Y-89719735D01*
X181337724Y-89651914D01*
X181360264Y-89585780D01*
X181401790Y-89549801D01*
X181401402Y-89549168D01*
X181405229Y-89546822D01*
X181405327Y-89546738D01*
X181405556Y-89546621D01*
X181459716Y-89507270D01*
X181459717Y-89507270D01*
X180827408Y-88874962D01*
X180890993Y-88857925D01*
X181005007Y-88792099D01*
X181098099Y-88699007D01*
X181163925Y-88584993D01*
X181180962Y-88521409D01*
X181813270Y-89153717D01*
X181813270Y-89153716D01*
X181852622Y-89099554D01*
X181949095Y-88910217D01*
X182014757Y-88708130D01*
X182014757Y-88708127D01*
X182048000Y-88498246D01*
X182048000Y-88285753D01*
X182014757Y-88075872D01*
X182014757Y-88075869D01*
X181949095Y-87873782D01*
X181852624Y-87684449D01*
X181813270Y-87630282D01*
X181813269Y-87630282D01*
X181180962Y-88262590D01*
X181163925Y-88199007D01*
X181098099Y-88084993D01*
X181005007Y-87991901D01*
X180890993Y-87926075D01*
X180827409Y-87909037D01*
X181443239Y-87293205D01*
X181421915Y-87269084D01*
X193401900Y-87269084D01*
X193401900Y-87482916D01*
X193405714Y-87506996D01*
X193435351Y-87694117D01*
X193501426Y-87897480D01*
X193501427Y-87897483D01*
X193515996Y-87926075D01*
X193598506Y-88088009D01*
X193724194Y-88261004D01*
X193875396Y-88412206D01*
X194048391Y-88537894D01*
X194052273Y-88540273D01*
X194099148Y-88592086D01*
X194110569Y-88661016D01*
X194082912Y-88725178D01*
X194052273Y-88751727D01*
X194048391Y-88754105D01*
X193875393Y-88879796D01*
X193724196Y-89030993D01*
X193598506Y-89203990D01*
X193501427Y-89394516D01*
X193501426Y-89394519D01*
X193435351Y-89597882D01*
X193401900Y-89809084D01*
X193401900Y-90022916D01*
X193405714Y-90046996D01*
X193435351Y-90234117D01*
X193501426Y-90437480D01*
X193501427Y-90437483D01*
X193521261Y-90476408D01*
X193598506Y-90628009D01*
X193724194Y-90801004D01*
X193875396Y-90952206D01*
X194048391Y-91077894D01*
X194052273Y-91080273D01*
X194099148Y-91132086D01*
X194110569Y-91201016D01*
X194082912Y-91265178D01*
X194052273Y-91291727D01*
X194048391Y-91294105D01*
X193875393Y-91419796D01*
X193724196Y-91570993D01*
X193598506Y-91743990D01*
X193501427Y-91934516D01*
X193501426Y-91934519D01*
X193435351Y-92137882D01*
X193401900Y-92349084D01*
X193401900Y-92562916D01*
X193405714Y-92586996D01*
X193435351Y-92774117D01*
X193501426Y-92977480D01*
X193501427Y-92977483D01*
X193591308Y-93153882D01*
X193598506Y-93168009D01*
X193724194Y-93341004D01*
X193875396Y-93492206D01*
X194048391Y-93617894D01*
X194052273Y-93620273D01*
X194099148Y-93672086D01*
X194110569Y-93741016D01*
X194082912Y-93805178D01*
X194052273Y-93831727D01*
X194048391Y-93834105D01*
X193875393Y-93959796D01*
X193724196Y-94110993D01*
X193598506Y-94283990D01*
X193501427Y-94474516D01*
X193501426Y-94474519D01*
X193435351Y-94677882D01*
X193401900Y-94889084D01*
X193401900Y-95102916D01*
X193405714Y-95126996D01*
X193435351Y-95314117D01*
X193501426Y-95517480D01*
X193501427Y-95517483D01*
X193591308Y-95693882D01*
X193598506Y-95708009D01*
X193724194Y-95881004D01*
X193875396Y-96032206D01*
X194048391Y-96157894D01*
X194052273Y-96160273D01*
X194099148Y-96212086D01*
X194110569Y-96281016D01*
X194082912Y-96345178D01*
X194052273Y-96371727D01*
X194048391Y-96374105D01*
X193875393Y-96499796D01*
X193724196Y-96650993D01*
X193598506Y-96823990D01*
X193501427Y-97014516D01*
X193501426Y-97014519D01*
X193435351Y-97217882D01*
X193403773Y-97417259D01*
X193401900Y-97429084D01*
X193401900Y-97642916D01*
X193405714Y-97666996D01*
X193435351Y-97854117D01*
X193501426Y-98057480D01*
X193501427Y-98057483D01*
X193568949Y-98190000D01*
X193598506Y-98248009D01*
X193724194Y-98421004D01*
X193724196Y-98421006D01*
X193835978Y-98532788D01*
X193869463Y-98594111D01*
X193864479Y-98663803D01*
X193822607Y-98719736D01*
X193791630Y-98736651D01*
X193668313Y-98782645D01*
X193668306Y-98782649D01*
X193553212Y-98868809D01*
X193553209Y-98868812D01*
X193467049Y-98983906D01*
X193467045Y-98983913D01*
X193416803Y-99118620D01*
X193416801Y-99118627D01*
X193410400Y-99178155D01*
X193410400Y-99826000D01*
X194327388Y-99826000D01*
X194294475Y-99883007D01*
X194260400Y-100010174D01*
X194260400Y-100141826D01*
X194294475Y-100268993D01*
X194327388Y-100326000D01*
X193410400Y-100326000D01*
X193410400Y-100973844D01*
X193416801Y-101033372D01*
X193416803Y-101033379D01*
X193467045Y-101168086D01*
X193467049Y-101168093D01*
X193553209Y-101283187D01*
X193553212Y-101283190D01*
X193668306Y-101369350D01*
X193668313Y-101369354D01*
X193803020Y-101419596D01*
X193803027Y-101419598D01*
X193862555Y-101425999D01*
X193862572Y-101426000D01*
X194510400Y-101426000D01*
X194510400Y-100509012D01*
X194567407Y-100541925D01*
X194694574Y-100576000D01*
X194826226Y-100576000D01*
X194953393Y-100541925D01*
X195010400Y-100509012D01*
X195010400Y-101426000D01*
X195658228Y-101426000D01*
X195658244Y-101425999D01*
X195717772Y-101419598D01*
X195717779Y-101419596D01*
X195852486Y-101369354D01*
X195852493Y-101369350D01*
X195967587Y-101283190D01*
X195967590Y-101283187D01*
X196053750Y-101168093D01*
X196053754Y-101168086D01*
X196103996Y-101033379D01*
X196103998Y-101033372D01*
X196110399Y-100973844D01*
X196110400Y-100973827D01*
X196110400Y-100326000D01*
X195193412Y-100326000D01*
X195226325Y-100268993D01*
X195260400Y-100141826D01*
X195260400Y-100010174D01*
X195226325Y-99883007D01*
X195193412Y-99826000D01*
X196110400Y-99826000D01*
X196110400Y-99178172D01*
X196110399Y-99178155D01*
X196103998Y-99118627D01*
X196103996Y-99118620D01*
X196053754Y-98983913D01*
X196053750Y-98983906D01*
X195967590Y-98868812D01*
X195967587Y-98868809D01*
X195852493Y-98782649D01*
X195852486Y-98782645D01*
X195729169Y-98736651D01*
X195673235Y-98694780D01*
X195648818Y-98629315D01*
X195663670Y-98561042D01*
X195684815Y-98532794D01*
X195796606Y-98421004D01*
X195922294Y-98248009D01*
X196019372Y-98057483D01*
X196085449Y-97854116D01*
X196118900Y-97642916D01*
X196118900Y-97429084D01*
X196085449Y-97217884D01*
X196035475Y-97064077D01*
X196019373Y-97014519D01*
X196019372Y-97014516D01*
X195922293Y-96823990D01*
X195796606Y-96650996D01*
X195645404Y-96499794D01*
X195472409Y-96374106D01*
X195472405Y-96374103D01*
X195468532Y-96371730D01*
X195421654Y-96319920D01*
X195410229Y-96250991D01*
X195437883Y-96186827D01*
X195468532Y-96160270D01*
X195472405Y-96157896D01*
X195472404Y-96157896D01*
X195472409Y-96157894D01*
X195645404Y-96032206D01*
X195796606Y-95881004D01*
X195922294Y-95708009D01*
X196019372Y-95517483D01*
X196085449Y-95314116D01*
X196118900Y-95102916D01*
X196118900Y-94889084D01*
X196085449Y-94677884D01*
X196019372Y-94474517D01*
X196019372Y-94474516D01*
X195922293Y-94283990D01*
X195796606Y-94110996D01*
X195645404Y-93959794D01*
X195472409Y-93834106D01*
X195472405Y-93834103D01*
X195468532Y-93831730D01*
X195421654Y-93779920D01*
X195410229Y-93710991D01*
X195437883Y-93646827D01*
X195468532Y-93620270D01*
X195472405Y-93617896D01*
X195472404Y-93617896D01*
X195472409Y-93617894D01*
X195645404Y-93492206D01*
X195796606Y-93341004D01*
X195922294Y-93168009D01*
X196019372Y-92977483D01*
X196085449Y-92774116D01*
X196118900Y-92562916D01*
X196118900Y-92349084D01*
X196085449Y-92137884D01*
X196019372Y-91934517D01*
X196019372Y-91934516D01*
X195922293Y-91743990D01*
X195796606Y-91570996D01*
X195645404Y-91419794D01*
X195472409Y-91294106D01*
X195472405Y-91294103D01*
X195468532Y-91291730D01*
X195421654Y-91239920D01*
X195410229Y-91170991D01*
X195437883Y-91106827D01*
X195468532Y-91080270D01*
X195472405Y-91077896D01*
X195472404Y-91077896D01*
X195472409Y-91077894D01*
X195645404Y-90952206D01*
X195796606Y-90801004D01*
X195922294Y-90628009D01*
X196019372Y-90437483D01*
X196085449Y-90234116D01*
X196118900Y-90022916D01*
X196118900Y-89809084D01*
X196085449Y-89597884D01*
X196019372Y-89394517D01*
X196019372Y-89394516D01*
X195922293Y-89203990D01*
X195796606Y-89030996D01*
X195645404Y-88879794D01*
X195472409Y-88754106D01*
X195472405Y-88754103D01*
X195468532Y-88751730D01*
X195421654Y-88699920D01*
X195410229Y-88630991D01*
X195437883Y-88566827D01*
X195468532Y-88540270D01*
X195472405Y-88537896D01*
X195472404Y-88537896D01*
X195472409Y-88537894D01*
X195645404Y-88412206D01*
X195796606Y-88261004D01*
X195922294Y-88088009D01*
X196019372Y-87897483D01*
X196085449Y-87694116D01*
X196118900Y-87482916D01*
X196118900Y-87269084D01*
X196085449Y-87057884D01*
X196019372Y-86854517D01*
X196019372Y-86854516D01*
X195959496Y-86737004D01*
X195922294Y-86663991D01*
X195796606Y-86490996D01*
X195645404Y-86339794D01*
X195472409Y-86214106D01*
X195281883Y-86117027D01*
X195281880Y-86117026D01*
X195078517Y-86050951D01*
X194972916Y-86034225D01*
X194867316Y-86017500D01*
X194653484Y-86017500D01*
X194583084Y-86028650D01*
X194442282Y-86050951D01*
X194238919Y-86117026D01*
X194238916Y-86117027D01*
X194048390Y-86214106D01*
X193875393Y-86339796D01*
X193724196Y-86490993D01*
X193598506Y-86663990D01*
X193501427Y-86854516D01*
X193501426Y-86854519D01*
X193435351Y-87057882D01*
X193407424Y-87234209D01*
X193401900Y-87269084D01*
X181421915Y-87269084D01*
X181368708Y-87208899D01*
X181363476Y-87197738D01*
X181354515Y-87189274D01*
X181348925Y-87166696D01*
X181339053Y-87145635D01*
X181340686Y-87133416D01*
X181337724Y-87121451D01*
X181345228Y-87099434D01*
X181348310Y-87076381D01*
X181356288Y-87066986D01*
X181360266Y-87055318D01*
X181382720Y-87035862D01*
X181393538Y-87023126D01*
X181399525Y-87021302D01*
X181405319Y-87016283D01*
X181410009Y-87013894D01*
X181583004Y-86888206D01*
X181734206Y-86737004D01*
X181859894Y-86564009D01*
X181956972Y-86373483D01*
X182023049Y-86170116D01*
X182056500Y-85958916D01*
X182056500Y-85745084D01*
X182023049Y-85533884D01*
X181956972Y-85330517D01*
X181956972Y-85330516D01*
X181859893Y-85139990D01*
X181837308Y-85108904D01*
X181734206Y-84966996D01*
X181583004Y-84815794D01*
X181410009Y-84690106D01*
X181219483Y-84593027D01*
X181219480Y-84593026D01*
X181016117Y-84526951D01*
X180910516Y-84510225D01*
X180804916Y-84493500D01*
X180591084Y-84493500D01*
X180520684Y-84504650D01*
X180379882Y-84526951D01*
X180176519Y-84593026D01*
X180176516Y-84593027D01*
X179985990Y-84690106D01*
X179812993Y-84815796D01*
X179661796Y-84966993D01*
X179536106Y-85139990D01*
X179439027Y-85330516D01*
X179439026Y-85330519D01*
X179372951Y-85533882D01*
X179339500Y-85745084D01*
X169506500Y-85745084D01*
X169473049Y-85533884D01*
X169406972Y-85330517D01*
X169406972Y-85330516D01*
X169309893Y-85139990D01*
X169287308Y-85108904D01*
X169184206Y-84966996D01*
X169033004Y-84815794D01*
X168860009Y-84690106D01*
X168669483Y-84593027D01*
X168669480Y-84593026D01*
X168466117Y-84526951D01*
X168360516Y-84510225D01*
X168254916Y-84493500D01*
X168041084Y-84493500D01*
X167970684Y-84504650D01*
X167829882Y-84526951D01*
X167626519Y-84593026D01*
X167626516Y-84593027D01*
X167435990Y-84690106D01*
X167262993Y-84815796D01*
X167111796Y-84966993D01*
X166986106Y-85139990D01*
X166889027Y-85330516D01*
X166889026Y-85330519D01*
X166822951Y-85533882D01*
X166789500Y-85745084D01*
X152055165Y-85745084D01*
X152005694Y-85647991D01*
X151880006Y-85474996D01*
X151728804Y-85323794D01*
X151555809Y-85198106D01*
X151365283Y-85101027D01*
X151365280Y-85101026D01*
X151161917Y-85034951D01*
X151056316Y-85018225D01*
X150950716Y-85001500D01*
X150736884Y-85001500D01*
X150666484Y-85012650D01*
X150525682Y-85034951D01*
X150322319Y-85101026D01*
X150322316Y-85101027D01*
X150131790Y-85198106D01*
X149958793Y-85323796D01*
X149807596Y-85474993D01*
X149681905Y-85647991D01*
X149679527Y-85651873D01*
X149627714Y-85698748D01*
X149558784Y-85710169D01*
X149494622Y-85682512D01*
X149468073Y-85651873D01*
X149465694Y-85647991D01*
X149407848Y-85568373D01*
X149340006Y-85474996D01*
X149188804Y-85323794D01*
X149015809Y-85198106D01*
X148825283Y-85101027D01*
X148825280Y-85101026D01*
X148621917Y-85034951D01*
X148516316Y-85018225D01*
X148410716Y-85001500D01*
X148196884Y-85001500D01*
X148126484Y-85012650D01*
X147985682Y-85034951D01*
X147782319Y-85101026D01*
X147782316Y-85101027D01*
X147591790Y-85198106D01*
X147418793Y-85323796D01*
X147267596Y-85474993D01*
X147141905Y-85647991D01*
X147139527Y-85651873D01*
X147087714Y-85698748D01*
X147018784Y-85710169D01*
X146954622Y-85682512D01*
X146928073Y-85651873D01*
X146925694Y-85647991D01*
X146867848Y-85568373D01*
X146800006Y-85474996D01*
X146648804Y-85323794D01*
X146475809Y-85198106D01*
X146285283Y-85101027D01*
X146285280Y-85101026D01*
X146081917Y-85034951D01*
X145976316Y-85018225D01*
X145870716Y-85001500D01*
X145656884Y-85001500D01*
X145586484Y-85012650D01*
X145445682Y-85034951D01*
X145242319Y-85101026D01*
X145242316Y-85101027D01*
X145051790Y-85198106D01*
X144878793Y-85323796D01*
X144727596Y-85474993D01*
X144601905Y-85647991D01*
X144599527Y-85651873D01*
X144547714Y-85698748D01*
X144478784Y-85710169D01*
X144414622Y-85682512D01*
X144388073Y-85651873D01*
X144385694Y-85647991D01*
X144327848Y-85568373D01*
X144260006Y-85474996D01*
X144108804Y-85323794D01*
X143935809Y-85198106D01*
X143745283Y-85101027D01*
X143745280Y-85101026D01*
X143541917Y-85034951D01*
X143436316Y-85018225D01*
X143330716Y-85001500D01*
X143116884Y-85001500D01*
X143046484Y-85012650D01*
X142905682Y-85034951D01*
X142702319Y-85101026D01*
X142702316Y-85101027D01*
X142511790Y-85198106D01*
X142338793Y-85323796D01*
X142187596Y-85474993D01*
X142061905Y-85647991D01*
X142059527Y-85651873D01*
X142007714Y-85698748D01*
X141938784Y-85710169D01*
X141874622Y-85682512D01*
X141848073Y-85651873D01*
X141845694Y-85647991D01*
X141787848Y-85568373D01*
X141720006Y-85474996D01*
X141568804Y-85323794D01*
X141395809Y-85198106D01*
X141205283Y-85101027D01*
X141205280Y-85101026D01*
X141001917Y-85034951D01*
X140896316Y-85018225D01*
X140790716Y-85001500D01*
X140576884Y-85001500D01*
X140506484Y-85012650D01*
X140365682Y-85034951D01*
X140162319Y-85101026D01*
X140162316Y-85101027D01*
X139971790Y-85198106D01*
X139798793Y-85323796D01*
X139647596Y-85474993D01*
X139521905Y-85647991D01*
X139519527Y-85651873D01*
X139467714Y-85698748D01*
X139398784Y-85710169D01*
X139334622Y-85682512D01*
X139308073Y-85651873D01*
X139305694Y-85647991D01*
X139247848Y-85568373D01*
X139180006Y-85474996D01*
X139028804Y-85323794D01*
X138855809Y-85198106D01*
X138665283Y-85101027D01*
X138665280Y-85101026D01*
X138461917Y-85034951D01*
X138356316Y-85018225D01*
X138250716Y-85001500D01*
X138036884Y-85001500D01*
X137966484Y-85012650D01*
X137825682Y-85034951D01*
X137622319Y-85101026D01*
X137622316Y-85101027D01*
X137431790Y-85198106D01*
X137258793Y-85323796D01*
X137107596Y-85474993D01*
X136981905Y-85647991D01*
X136979527Y-85651873D01*
X136927714Y-85698748D01*
X136858784Y-85710169D01*
X136794622Y-85682512D01*
X136768073Y-85651873D01*
X136765694Y-85647991D01*
X136707848Y-85568373D01*
X136640006Y-85474996D01*
X136488804Y-85323794D01*
X136315809Y-85198106D01*
X136125283Y-85101027D01*
X136125280Y-85101026D01*
X135921917Y-85034951D01*
X135816316Y-85018225D01*
X135710716Y-85001500D01*
X135496884Y-85001500D01*
X135426484Y-85012650D01*
X135285682Y-85034951D01*
X135082319Y-85101026D01*
X135082316Y-85101027D01*
X134891790Y-85198106D01*
X134718793Y-85323796D01*
X134567596Y-85474993D01*
X134441905Y-85647991D01*
X134439527Y-85651873D01*
X134387714Y-85698748D01*
X134318784Y-85710169D01*
X134254622Y-85682512D01*
X134228073Y-85651873D01*
X134225694Y-85647991D01*
X134167848Y-85568373D01*
X134100006Y-85474996D01*
X133948804Y-85323794D01*
X133775809Y-85198106D01*
X133585283Y-85101027D01*
X133585280Y-85101026D01*
X133381917Y-85034951D01*
X133276316Y-85018225D01*
X133170716Y-85001500D01*
X132956884Y-85001500D01*
X132886484Y-85012650D01*
X132745682Y-85034951D01*
X132542319Y-85101026D01*
X132542316Y-85101027D01*
X132351790Y-85198106D01*
X132178793Y-85323796D01*
X132027596Y-85474993D01*
X131901905Y-85647991D01*
X131899527Y-85651873D01*
X131847714Y-85698748D01*
X131778784Y-85710169D01*
X131714622Y-85682512D01*
X131688073Y-85651873D01*
X131685694Y-85647991D01*
X131627848Y-85568373D01*
X131560006Y-85474996D01*
X131408804Y-85323794D01*
X131235809Y-85198106D01*
X131045283Y-85101027D01*
X131045280Y-85101026D01*
X130841917Y-85034951D01*
X130736316Y-85018225D01*
X130630716Y-85001500D01*
X130416884Y-85001500D01*
X130346484Y-85012650D01*
X130205682Y-85034951D01*
X130002319Y-85101026D01*
X130002316Y-85101027D01*
X129811790Y-85198106D01*
X129638793Y-85323796D01*
X129487596Y-85474993D01*
X129361905Y-85647991D01*
X129359527Y-85651873D01*
X129307714Y-85698748D01*
X129238784Y-85710169D01*
X129174622Y-85682512D01*
X129148073Y-85651873D01*
X129145694Y-85647991D01*
X129087848Y-85568373D01*
X129020006Y-85474996D01*
X128868804Y-85323794D01*
X128695809Y-85198106D01*
X128505283Y-85101027D01*
X128505280Y-85101026D01*
X128301917Y-85034951D01*
X128196316Y-85018225D01*
X128090716Y-85001500D01*
X127876884Y-85001500D01*
X127806484Y-85012650D01*
X127665682Y-85034951D01*
X127462319Y-85101026D01*
X127462316Y-85101027D01*
X127271790Y-85198106D01*
X127098793Y-85323796D01*
X126947596Y-85474993D01*
X126821905Y-85647991D01*
X126819527Y-85651873D01*
X126767714Y-85698748D01*
X126698784Y-85710169D01*
X126634622Y-85682512D01*
X126608073Y-85651873D01*
X126605694Y-85647991D01*
X126547848Y-85568373D01*
X126480006Y-85474996D01*
X126328804Y-85323794D01*
X126155809Y-85198106D01*
X125965283Y-85101027D01*
X125965280Y-85101026D01*
X125761917Y-85034951D01*
X125656316Y-85018225D01*
X125550716Y-85001500D01*
X125336884Y-85001500D01*
X125266484Y-85012650D01*
X125125682Y-85034951D01*
X124922319Y-85101026D01*
X124922316Y-85101027D01*
X124731790Y-85198106D01*
X124558793Y-85323796D01*
X124407596Y-85474993D01*
X124281905Y-85647991D01*
X124279527Y-85651873D01*
X124227714Y-85698748D01*
X124158784Y-85710169D01*
X124094622Y-85682512D01*
X124068073Y-85651873D01*
X124065694Y-85647991D01*
X124007848Y-85568373D01*
X123940006Y-85474996D01*
X123788804Y-85323794D01*
X123615809Y-85198106D01*
X123425283Y-85101027D01*
X123425280Y-85101026D01*
X123221917Y-85034951D01*
X123116316Y-85018225D01*
X123010716Y-85001500D01*
X122796884Y-85001500D01*
X122726484Y-85012650D01*
X122585682Y-85034951D01*
X122382319Y-85101026D01*
X122382316Y-85101027D01*
X122191790Y-85198106D01*
X122018793Y-85323796D01*
X121867596Y-85474993D01*
X121741905Y-85647991D01*
X121739527Y-85651873D01*
X121687714Y-85698748D01*
X121618784Y-85710169D01*
X121554622Y-85682512D01*
X121528073Y-85651873D01*
X121525694Y-85647991D01*
X121467848Y-85568373D01*
X121400006Y-85474996D01*
X121248804Y-85323794D01*
X121075809Y-85198106D01*
X120885283Y-85101027D01*
X120885280Y-85101026D01*
X120681917Y-85034951D01*
X120576316Y-85018225D01*
X120470716Y-85001500D01*
X120256884Y-85001500D01*
X120186484Y-85012650D01*
X120045682Y-85034951D01*
X119842319Y-85101026D01*
X119842316Y-85101027D01*
X119651790Y-85198106D01*
X119478793Y-85323796D01*
X119327596Y-85474993D01*
X119201903Y-85647994D01*
X119199509Y-85652693D01*
X119151531Y-85703485D01*
X119083708Y-85720275D01*
X119017575Y-85697732D01*
X118981604Y-85656215D01*
X118980971Y-85656604D01*
X118978626Y-85652778D01*
X118978543Y-85652682D01*
X118978424Y-85652449D01*
X118939070Y-85598282D01*
X118939069Y-85598282D01*
X118306762Y-86230590D01*
X118289725Y-86167007D01*
X118223899Y-86052993D01*
X118130807Y-85959901D01*
X118016793Y-85894075D01*
X117953209Y-85877037D01*
X118585516Y-85244728D01*
X118531350Y-85205375D01*
X118342017Y-85108904D01*
X118139929Y-85043242D01*
X117930046Y-85010000D01*
X117717554Y-85010000D01*
X117507672Y-85043242D01*
X117507669Y-85043242D01*
X117305582Y-85108904D01*
X117116239Y-85205380D01*
X117062082Y-85244727D01*
X117062082Y-85244728D01*
X117694391Y-85877037D01*
X117630807Y-85894075D01*
X117516793Y-85959901D01*
X117423701Y-86052993D01*
X117357875Y-86167007D01*
X117340837Y-86230591D01*
X116678619Y-85568373D01*
X116645134Y-85507050D01*
X116644835Y-85505636D01*
X116642300Y-85493292D01*
X116642300Y-85461362D01*
X116635789Y-85400799D01*
X116584689Y-85263796D01*
X116497061Y-85146739D01*
X116380004Y-85059111D01*
X116243003Y-85008011D01*
X116182454Y-85001500D01*
X116182438Y-85001500D01*
X114385162Y-85001500D01*
X114385145Y-85001500D01*
X114324597Y-85008011D01*
X114324595Y-85008011D01*
X114187595Y-85059111D01*
X114070539Y-85146739D01*
X113982911Y-85263795D01*
X113931811Y-85400795D01*
X113931811Y-85400797D01*
X113925300Y-85461345D01*
X100342300Y-85461345D01*
X100342300Y-73807084D01*
X160534500Y-73807084D01*
X160534500Y-74020915D01*
X160567951Y-74232117D01*
X160634026Y-74435480D01*
X160634027Y-74435483D01*
X160731106Y-74626009D01*
X160856794Y-74799004D01*
X161007996Y-74950206D01*
X161180991Y-75075894D01*
X161184873Y-75078273D01*
X161231748Y-75130086D01*
X161243169Y-75199016D01*
X161215512Y-75263178D01*
X161184873Y-75289727D01*
X161180991Y-75292105D01*
X161007993Y-75417796D01*
X160856796Y-75568993D01*
X160731106Y-75741990D01*
X160634027Y-75932516D01*
X160634026Y-75932519D01*
X160567951Y-76135882D01*
X160534500Y-76347084D01*
X160534500Y-76560915D01*
X160567951Y-76772117D01*
X160634026Y-76975480D01*
X160634027Y-76975483D01*
X160731106Y-77166009D01*
X160856794Y-77339004D01*
X161007996Y-77490206D01*
X161180991Y-77615894D01*
X161184873Y-77618273D01*
X161231748Y-77670086D01*
X161243169Y-77739016D01*
X161215512Y-77803178D01*
X161184873Y-77829727D01*
X161180991Y-77832105D01*
X161007993Y-77957796D01*
X160856796Y-78108993D01*
X160731106Y-78281990D01*
X160634027Y-78472516D01*
X160634026Y-78472519D01*
X160567951Y-78675882D01*
X160534500Y-78887084D01*
X160534500Y-79100915D01*
X160567951Y-79312117D01*
X160634026Y-79515480D01*
X160634027Y-79515483D01*
X160731106Y-79706009D01*
X160856794Y-79879004D01*
X161007996Y-80030206D01*
X161180991Y-80155894D01*
X161274438Y-80203507D01*
X161371516Y-80252972D01*
X161371519Y-80252973D01*
X161473200Y-80286010D01*
X161574884Y-80319049D01*
X161786084Y-80352500D01*
X161786085Y-80352500D01*
X161999915Y-80352500D01*
X161999916Y-80352500D01*
X162211116Y-80319049D01*
X162414483Y-80252972D01*
X162605009Y-80155894D01*
X162778004Y-80030206D01*
X162929206Y-79879004D01*
X163054894Y-79706009D01*
X163151972Y-79515483D01*
X163218049Y-79312116D01*
X163251500Y-79100916D01*
X163251500Y-78887084D01*
X163218049Y-78675884D01*
X163151972Y-78472517D01*
X163151972Y-78472516D01*
X163054893Y-78281990D01*
X162929206Y-78108996D01*
X162778004Y-77957794D01*
X162605009Y-77832106D01*
X162605005Y-77832103D01*
X162601132Y-77829730D01*
X162554254Y-77777920D01*
X162542829Y-77708991D01*
X162570483Y-77644827D01*
X162601132Y-77618270D01*
X162605005Y-77615896D01*
X162605004Y-77615896D01*
X162605009Y-77615894D01*
X162778004Y-77490206D01*
X162929206Y-77339004D01*
X163054894Y-77166009D01*
X163151972Y-76975483D01*
X163218049Y-76772116D01*
X163251500Y-76560916D01*
X163251500Y-76347084D01*
X163218049Y-76135884D01*
X163151972Y-75932517D01*
X163151972Y-75932516D01*
X163054893Y-75741990D01*
X162929206Y-75568996D01*
X162778004Y-75417794D01*
X162605009Y-75292106D01*
X162605005Y-75292103D01*
X162601132Y-75289730D01*
X162554254Y-75237920D01*
X162542829Y-75168991D01*
X162570483Y-75104827D01*
X162601132Y-75078270D01*
X162605005Y-75075896D01*
X162605004Y-75075896D01*
X162605009Y-75075894D01*
X162778004Y-74950206D01*
X162929206Y-74799004D01*
X163054894Y-74626009D01*
X163151972Y-74435483D01*
X163218049Y-74232116D01*
X163251500Y-74020916D01*
X163251500Y-73807084D01*
X163218049Y-73595884D01*
X163151972Y-73392517D01*
X163151972Y-73392516D01*
X163054893Y-73201990D01*
X163001119Y-73127976D01*
X162929206Y-73028996D01*
X162817421Y-72917211D01*
X162783936Y-72855888D01*
X162788920Y-72786196D01*
X162830792Y-72730263D01*
X162861770Y-72713348D01*
X162985084Y-72667355D01*
X162985093Y-72667350D01*
X163100187Y-72581190D01*
X163100190Y-72581187D01*
X163186350Y-72466093D01*
X163186354Y-72466086D01*
X163236596Y-72331379D01*
X163236598Y-72331372D01*
X163242999Y-72271844D01*
X163243000Y-72271827D01*
X163243000Y-71624000D01*
X162326012Y-71624000D01*
X162358925Y-71566993D01*
X162393000Y-71439826D01*
X162393000Y-71308174D01*
X162358925Y-71181007D01*
X162326012Y-71124000D01*
X163243000Y-71124000D01*
X163243000Y-70476172D01*
X163242999Y-70476155D01*
X163236598Y-70416627D01*
X163236596Y-70416620D01*
X163186354Y-70281913D01*
X163186350Y-70281906D01*
X163100190Y-70166812D01*
X163100187Y-70166809D01*
X162985093Y-70080649D01*
X162985086Y-70080645D01*
X162850379Y-70030403D01*
X162850372Y-70030401D01*
X162790844Y-70024000D01*
X162143000Y-70024000D01*
X162143000Y-70940988D01*
X162085993Y-70908075D01*
X161958826Y-70874000D01*
X161827174Y-70874000D01*
X161700007Y-70908075D01*
X161643000Y-70940988D01*
X161643000Y-70024000D01*
X160995155Y-70024000D01*
X160935627Y-70030401D01*
X160935620Y-70030403D01*
X160800913Y-70080645D01*
X160800906Y-70080649D01*
X160685812Y-70166809D01*
X160685809Y-70166812D01*
X160599649Y-70281906D01*
X160599645Y-70281913D01*
X160549403Y-70416620D01*
X160549401Y-70416627D01*
X160543000Y-70476155D01*
X160543000Y-71124000D01*
X161459988Y-71124000D01*
X161427075Y-71181007D01*
X161393000Y-71308174D01*
X161393000Y-71439826D01*
X161427075Y-71566993D01*
X161459988Y-71624000D01*
X160543000Y-71624000D01*
X160543000Y-72271844D01*
X160549401Y-72331372D01*
X160549403Y-72331379D01*
X160599645Y-72466086D01*
X160599649Y-72466093D01*
X160685809Y-72581187D01*
X160685812Y-72581190D01*
X160800906Y-72667350D01*
X160800913Y-72667354D01*
X160924230Y-72713348D01*
X160980164Y-72755219D01*
X161004581Y-72820683D01*
X160989730Y-72888956D01*
X160968579Y-72917211D01*
X160856793Y-73028997D01*
X160731106Y-73201990D01*
X160634027Y-73392516D01*
X160634026Y-73392519D01*
X160567951Y-73595882D01*
X160534500Y-73807084D01*
X100342300Y-73807084D01*
X100342300Y-70045545D01*
X113925300Y-70045545D01*
X113925300Y-71842854D01*
X113931811Y-71903402D01*
X113931811Y-71903404D01*
X113978245Y-72027894D01*
X113982911Y-72040404D01*
X114070539Y-72157461D01*
X114187596Y-72245089D01*
X114324599Y-72296189D01*
X114351850Y-72299118D01*
X114385145Y-72302699D01*
X114385162Y-72302700D01*
X116182438Y-72302700D01*
X116182454Y-72302699D01*
X116209492Y-72299791D01*
X116243001Y-72296189D01*
X116380004Y-72245089D01*
X116497061Y-72157461D01*
X116584689Y-72040404D01*
X116629757Y-71919571D01*
X116671627Y-71863642D01*
X116737091Y-71839225D01*
X116805364Y-71854077D01*
X116833618Y-71875228D01*
X116938796Y-71980406D01*
X117111791Y-72106094D01*
X117205238Y-72153707D01*
X117302316Y-72203172D01*
X117302319Y-72203173D01*
X117404000Y-72236210D01*
X117505684Y-72269249D01*
X117716884Y-72302700D01*
X117716885Y-72302700D01*
X117930715Y-72302700D01*
X117930716Y-72302700D01*
X118141916Y-72269249D01*
X118345283Y-72203172D01*
X118535809Y-72106094D01*
X118708804Y-71980406D01*
X118860006Y-71829204D01*
X118985694Y-71656209D01*
X118985696Y-71656204D01*
X118988070Y-71652332D01*
X119039880Y-71605454D01*
X119108809Y-71594029D01*
X119172973Y-71621683D01*
X119199530Y-71652332D01*
X119201903Y-71656205D01*
X119201906Y-71656209D01*
X119327594Y-71829204D01*
X119478796Y-71980406D01*
X119651791Y-72106094D01*
X119745238Y-72153707D01*
X119842316Y-72203172D01*
X119842319Y-72203173D01*
X119944000Y-72236210D01*
X120045684Y-72269249D01*
X120256884Y-72302700D01*
X120256885Y-72302700D01*
X120470715Y-72302700D01*
X120470716Y-72302700D01*
X120681916Y-72269249D01*
X120885283Y-72203172D01*
X121075809Y-72106094D01*
X121248804Y-71980406D01*
X121400006Y-71829204D01*
X121525694Y-71656209D01*
X121525696Y-71656204D01*
X121528070Y-71652332D01*
X121579880Y-71605454D01*
X121648809Y-71594029D01*
X121712973Y-71621683D01*
X121739530Y-71652332D01*
X121741903Y-71656205D01*
X121741906Y-71656209D01*
X121867594Y-71829204D01*
X122018796Y-71980406D01*
X122191791Y-72106094D01*
X122285238Y-72153707D01*
X122382316Y-72203172D01*
X122382319Y-72203173D01*
X122484000Y-72236210D01*
X122585684Y-72269249D01*
X122796884Y-72302700D01*
X122796885Y-72302700D01*
X123010715Y-72302700D01*
X123010716Y-72302700D01*
X123221916Y-72269249D01*
X123425283Y-72203172D01*
X123615809Y-72106094D01*
X123788804Y-71980406D01*
X123940006Y-71829204D01*
X124065694Y-71656209D01*
X124065696Y-71656204D01*
X124068070Y-71652332D01*
X124119880Y-71605454D01*
X124188809Y-71594029D01*
X124252973Y-71621683D01*
X124279530Y-71652332D01*
X124281903Y-71656205D01*
X124281906Y-71656209D01*
X124407594Y-71829204D01*
X124558796Y-71980406D01*
X124731791Y-72106094D01*
X124825238Y-72153707D01*
X124922316Y-72203172D01*
X124922319Y-72203173D01*
X125024000Y-72236210D01*
X125125684Y-72269249D01*
X125336884Y-72302700D01*
X125336885Y-72302700D01*
X125550715Y-72302700D01*
X125550716Y-72302700D01*
X125761916Y-72269249D01*
X125965283Y-72203172D01*
X126155809Y-72106094D01*
X126328804Y-71980406D01*
X126480006Y-71829204D01*
X126605694Y-71656209D01*
X126605696Y-71656204D01*
X126608070Y-71652332D01*
X126659880Y-71605454D01*
X126728809Y-71594029D01*
X126792973Y-71621683D01*
X126819530Y-71652332D01*
X126821903Y-71656205D01*
X126821906Y-71656209D01*
X126947594Y-71829204D01*
X127098796Y-71980406D01*
X127271791Y-72106094D01*
X127365238Y-72153707D01*
X127462316Y-72203172D01*
X127462319Y-72203173D01*
X127564000Y-72236210D01*
X127665684Y-72269249D01*
X127876884Y-72302700D01*
X127876885Y-72302700D01*
X128090715Y-72302700D01*
X128090716Y-72302700D01*
X128301916Y-72269249D01*
X128505283Y-72203172D01*
X128695809Y-72106094D01*
X128868804Y-71980406D01*
X129020006Y-71829204D01*
X129145694Y-71656209D01*
X129145696Y-71656204D01*
X129148070Y-71652332D01*
X129199880Y-71605454D01*
X129268809Y-71594029D01*
X129332973Y-71621683D01*
X129359530Y-71652332D01*
X129361903Y-71656205D01*
X129361906Y-71656209D01*
X129487594Y-71829204D01*
X129638796Y-71980406D01*
X129811791Y-72106094D01*
X129905238Y-72153707D01*
X130002316Y-72203172D01*
X130002319Y-72203173D01*
X130104000Y-72236210D01*
X130205684Y-72269249D01*
X130416884Y-72302700D01*
X130416885Y-72302700D01*
X130630715Y-72302700D01*
X130630716Y-72302700D01*
X130841916Y-72269249D01*
X131045283Y-72203172D01*
X131235809Y-72106094D01*
X131408804Y-71980406D01*
X131560006Y-71829204D01*
X131685694Y-71656209D01*
X131685696Y-71656204D01*
X131688070Y-71652332D01*
X131739880Y-71605454D01*
X131808809Y-71594029D01*
X131872973Y-71621683D01*
X131899530Y-71652332D01*
X131901903Y-71656205D01*
X131901906Y-71656209D01*
X132027594Y-71829204D01*
X132178796Y-71980406D01*
X132351791Y-72106094D01*
X132445238Y-72153707D01*
X132542316Y-72203172D01*
X132542319Y-72203173D01*
X132644000Y-72236210D01*
X132745684Y-72269249D01*
X132956884Y-72302700D01*
X132956885Y-72302700D01*
X133170715Y-72302700D01*
X133170716Y-72302700D01*
X133381916Y-72269249D01*
X133585283Y-72203172D01*
X133775809Y-72106094D01*
X133948804Y-71980406D01*
X134100006Y-71829204D01*
X134225694Y-71656209D01*
X134225696Y-71656204D01*
X134228070Y-71652332D01*
X134279880Y-71605454D01*
X134348809Y-71594029D01*
X134412973Y-71621683D01*
X134439530Y-71652332D01*
X134441903Y-71656205D01*
X134441906Y-71656209D01*
X134567594Y-71829204D01*
X134718796Y-71980406D01*
X134891791Y-72106094D01*
X134985238Y-72153707D01*
X135082316Y-72203172D01*
X135082319Y-72203173D01*
X135184000Y-72236210D01*
X135285684Y-72269249D01*
X135496884Y-72302700D01*
X135496885Y-72302700D01*
X135710715Y-72302700D01*
X135710716Y-72302700D01*
X135921916Y-72269249D01*
X136125283Y-72203172D01*
X136315809Y-72106094D01*
X136488804Y-71980406D01*
X136640006Y-71829204D01*
X136765694Y-71656209D01*
X136765696Y-71656204D01*
X136768070Y-71652332D01*
X136819880Y-71605454D01*
X136888809Y-71594029D01*
X136952973Y-71621683D01*
X136979530Y-71652332D01*
X136981903Y-71656205D01*
X136981906Y-71656209D01*
X137107594Y-71829204D01*
X137258796Y-71980406D01*
X137431791Y-72106094D01*
X137525238Y-72153707D01*
X137622316Y-72203172D01*
X137622319Y-72203173D01*
X137724000Y-72236210D01*
X137825684Y-72269249D01*
X138036884Y-72302700D01*
X138036885Y-72302700D01*
X138250715Y-72302700D01*
X138250716Y-72302700D01*
X138461916Y-72269249D01*
X138665283Y-72203172D01*
X138855809Y-72106094D01*
X139028804Y-71980406D01*
X139180006Y-71829204D01*
X139305694Y-71656209D01*
X139305696Y-71656204D01*
X139308070Y-71652332D01*
X139359880Y-71605454D01*
X139428809Y-71594029D01*
X139492973Y-71621683D01*
X139519530Y-71652332D01*
X139521903Y-71656205D01*
X139521906Y-71656209D01*
X139647594Y-71829204D01*
X139798796Y-71980406D01*
X139971791Y-72106094D01*
X140065238Y-72153707D01*
X140162316Y-72203172D01*
X140162319Y-72203173D01*
X140264000Y-72236210D01*
X140365684Y-72269249D01*
X140576884Y-72302700D01*
X140576885Y-72302700D01*
X140790715Y-72302700D01*
X140790716Y-72302700D01*
X141001916Y-72269249D01*
X141205283Y-72203172D01*
X141395809Y-72106094D01*
X141568804Y-71980406D01*
X141720006Y-71829204D01*
X141845694Y-71656209D01*
X141845696Y-71656204D01*
X141848070Y-71652332D01*
X141899880Y-71605454D01*
X141968809Y-71594029D01*
X142032973Y-71621683D01*
X142059530Y-71652332D01*
X142061903Y-71656205D01*
X142061906Y-71656209D01*
X142187594Y-71829204D01*
X142338796Y-71980406D01*
X142511791Y-72106094D01*
X142605238Y-72153707D01*
X142702316Y-72203172D01*
X142702319Y-72203173D01*
X142804000Y-72236210D01*
X142905684Y-72269249D01*
X143116884Y-72302700D01*
X143116885Y-72302700D01*
X143330715Y-72302700D01*
X143330716Y-72302700D01*
X143541916Y-72269249D01*
X143745283Y-72203172D01*
X143935809Y-72106094D01*
X144108804Y-71980406D01*
X144260006Y-71829204D01*
X144385694Y-71656209D01*
X144385696Y-71656204D01*
X144388070Y-71652332D01*
X144439880Y-71605454D01*
X144508809Y-71594029D01*
X144572973Y-71621683D01*
X144599530Y-71652332D01*
X144601903Y-71656205D01*
X144601906Y-71656209D01*
X144727594Y-71829204D01*
X144878796Y-71980406D01*
X145051791Y-72106094D01*
X145145238Y-72153707D01*
X145242316Y-72203172D01*
X145242319Y-72203173D01*
X145344000Y-72236210D01*
X145445684Y-72269249D01*
X145656884Y-72302700D01*
X145656885Y-72302700D01*
X145870715Y-72302700D01*
X145870716Y-72302700D01*
X146081916Y-72269249D01*
X146285283Y-72203172D01*
X146475809Y-72106094D01*
X146648804Y-71980406D01*
X146800006Y-71829204D01*
X146925694Y-71656209D01*
X146925696Y-71656204D01*
X146928070Y-71652332D01*
X146979880Y-71605454D01*
X147048809Y-71594029D01*
X147112973Y-71621683D01*
X147139530Y-71652332D01*
X147141903Y-71656205D01*
X147141906Y-71656209D01*
X147267594Y-71829204D01*
X147418796Y-71980406D01*
X147591791Y-72106094D01*
X147685238Y-72153707D01*
X147782316Y-72203172D01*
X147782319Y-72203173D01*
X147884000Y-72236210D01*
X147985684Y-72269249D01*
X148196884Y-72302700D01*
X148196885Y-72302700D01*
X148410715Y-72302700D01*
X148410716Y-72302700D01*
X148621916Y-72269249D01*
X148825283Y-72203172D01*
X149015809Y-72106094D01*
X149188804Y-71980406D01*
X149340006Y-71829204D01*
X149465694Y-71656209D01*
X149465696Y-71656204D01*
X149468070Y-71652332D01*
X149519880Y-71605454D01*
X149588809Y-71594029D01*
X149652973Y-71621683D01*
X149679530Y-71652332D01*
X149681903Y-71656205D01*
X149681906Y-71656209D01*
X149807594Y-71829204D01*
X149958796Y-71980406D01*
X150131791Y-72106094D01*
X150225238Y-72153707D01*
X150322316Y-72203172D01*
X150322319Y-72203173D01*
X150424000Y-72236210D01*
X150525684Y-72269249D01*
X150736884Y-72302700D01*
X150736885Y-72302700D01*
X150950715Y-72302700D01*
X150950716Y-72302700D01*
X151161916Y-72269249D01*
X151365283Y-72203172D01*
X151555809Y-72106094D01*
X151728804Y-71980406D01*
X151880006Y-71829204D01*
X152005694Y-71656209D01*
X152102772Y-71465683D01*
X152168849Y-71262316D01*
X152202300Y-71051116D01*
X152202300Y-70837284D01*
X152168849Y-70626084D01*
X152143441Y-70547884D01*
X152131512Y-70511168D01*
X152102773Y-70422719D01*
X152102772Y-70422716D01*
X152031556Y-70282948D01*
X152005694Y-70232191D01*
X151880006Y-70059196D01*
X151728804Y-69907994D01*
X151555809Y-69782306D01*
X151555126Y-69781958D01*
X151365283Y-69685227D01*
X151365280Y-69685226D01*
X151161917Y-69619151D01*
X151056316Y-69602425D01*
X150950716Y-69585700D01*
X150736884Y-69585700D01*
X150666484Y-69596850D01*
X150525682Y-69619151D01*
X150322319Y-69685226D01*
X150322316Y-69685227D01*
X150131790Y-69782306D01*
X149958793Y-69907996D01*
X149807596Y-70059193D01*
X149681905Y-70232191D01*
X149679527Y-70236073D01*
X149627714Y-70282948D01*
X149558784Y-70294369D01*
X149494622Y-70266712D01*
X149468073Y-70236073D01*
X149465694Y-70232191D01*
X149408878Y-70153991D01*
X149340006Y-70059196D01*
X149188804Y-69907994D01*
X149015809Y-69782306D01*
X149015126Y-69781958D01*
X148825283Y-69685227D01*
X148825280Y-69685226D01*
X148621917Y-69619151D01*
X148516316Y-69602425D01*
X148410716Y-69585700D01*
X148196884Y-69585700D01*
X148126484Y-69596850D01*
X147985682Y-69619151D01*
X147782319Y-69685226D01*
X147782316Y-69685227D01*
X147591790Y-69782306D01*
X147418793Y-69907996D01*
X147267596Y-70059193D01*
X147141905Y-70232191D01*
X147139527Y-70236073D01*
X147087714Y-70282948D01*
X147018784Y-70294369D01*
X146954622Y-70266712D01*
X146928073Y-70236073D01*
X146925694Y-70232191D01*
X146868878Y-70153991D01*
X146800006Y-70059196D01*
X146648804Y-69907994D01*
X146475809Y-69782306D01*
X146475126Y-69781958D01*
X146285283Y-69685227D01*
X146285280Y-69685226D01*
X146081917Y-69619151D01*
X145976316Y-69602425D01*
X145870716Y-69585700D01*
X145656884Y-69585700D01*
X145586484Y-69596850D01*
X145445682Y-69619151D01*
X145242319Y-69685226D01*
X145242316Y-69685227D01*
X145051790Y-69782306D01*
X144878793Y-69907996D01*
X144727596Y-70059193D01*
X144601905Y-70232191D01*
X144599527Y-70236073D01*
X144547714Y-70282948D01*
X144478784Y-70294369D01*
X144414622Y-70266712D01*
X144388073Y-70236073D01*
X144385694Y-70232191D01*
X144328878Y-70153991D01*
X144260006Y-70059196D01*
X144108804Y-69907994D01*
X143935809Y-69782306D01*
X143935126Y-69781958D01*
X143745283Y-69685227D01*
X143745280Y-69685226D01*
X143541917Y-69619151D01*
X143436316Y-69602425D01*
X143330716Y-69585700D01*
X143116884Y-69585700D01*
X143046484Y-69596850D01*
X142905682Y-69619151D01*
X142702319Y-69685226D01*
X142702316Y-69685227D01*
X142511790Y-69782306D01*
X142338793Y-69907996D01*
X142187596Y-70059193D01*
X142061905Y-70232191D01*
X142059527Y-70236073D01*
X142007714Y-70282948D01*
X141938784Y-70294369D01*
X141874622Y-70266712D01*
X141848073Y-70236073D01*
X141845694Y-70232191D01*
X141788878Y-70153991D01*
X141720006Y-70059196D01*
X141568804Y-69907994D01*
X141395809Y-69782306D01*
X141395126Y-69781958D01*
X141205283Y-69685227D01*
X141205280Y-69685226D01*
X141001917Y-69619151D01*
X140896316Y-69602425D01*
X140790716Y-69585700D01*
X140576884Y-69585700D01*
X140506484Y-69596850D01*
X140365682Y-69619151D01*
X140162319Y-69685226D01*
X140162316Y-69685227D01*
X139971790Y-69782306D01*
X139798793Y-69907996D01*
X139647596Y-70059193D01*
X139521905Y-70232191D01*
X139519527Y-70236073D01*
X139467714Y-70282948D01*
X139398784Y-70294369D01*
X139334622Y-70266712D01*
X139308073Y-70236073D01*
X139305694Y-70232191D01*
X139248878Y-70153991D01*
X139180006Y-70059196D01*
X139028804Y-69907994D01*
X138855809Y-69782306D01*
X138855126Y-69781958D01*
X138665283Y-69685227D01*
X138665280Y-69685226D01*
X138461917Y-69619151D01*
X138356316Y-69602425D01*
X138250716Y-69585700D01*
X138036884Y-69585700D01*
X137966484Y-69596850D01*
X137825682Y-69619151D01*
X137622319Y-69685226D01*
X137622316Y-69685227D01*
X137431790Y-69782306D01*
X137258793Y-69907996D01*
X137107596Y-70059193D01*
X136981905Y-70232191D01*
X136979527Y-70236073D01*
X136927714Y-70282948D01*
X136858784Y-70294369D01*
X136794622Y-70266712D01*
X136768073Y-70236073D01*
X136765694Y-70232191D01*
X136708878Y-70153991D01*
X136640006Y-70059196D01*
X136488804Y-69907994D01*
X136315809Y-69782306D01*
X136315126Y-69781958D01*
X136125283Y-69685227D01*
X136125280Y-69685226D01*
X135921917Y-69619151D01*
X135816316Y-69602425D01*
X135710716Y-69585700D01*
X135496884Y-69585700D01*
X135426484Y-69596850D01*
X135285682Y-69619151D01*
X135082319Y-69685226D01*
X135082316Y-69685227D01*
X134891790Y-69782306D01*
X134718793Y-69907996D01*
X134567596Y-70059193D01*
X134441905Y-70232191D01*
X134439527Y-70236073D01*
X134387714Y-70282948D01*
X134318784Y-70294369D01*
X134254622Y-70266712D01*
X134228073Y-70236073D01*
X134225694Y-70232191D01*
X134168878Y-70153991D01*
X134100006Y-70059196D01*
X133948804Y-69907994D01*
X133775809Y-69782306D01*
X133775126Y-69781958D01*
X133585283Y-69685227D01*
X133585280Y-69685226D01*
X133381917Y-69619151D01*
X133276316Y-69602425D01*
X133170716Y-69585700D01*
X132956884Y-69585700D01*
X132886484Y-69596850D01*
X132745682Y-69619151D01*
X132542319Y-69685226D01*
X132542316Y-69685227D01*
X132351790Y-69782306D01*
X132178793Y-69907996D01*
X132027596Y-70059193D01*
X131901905Y-70232191D01*
X131899527Y-70236073D01*
X131847714Y-70282948D01*
X131778784Y-70294369D01*
X131714622Y-70266712D01*
X131688073Y-70236073D01*
X131685694Y-70232191D01*
X131628878Y-70153991D01*
X131560006Y-70059196D01*
X131408804Y-69907994D01*
X131235809Y-69782306D01*
X131235126Y-69781958D01*
X131045283Y-69685227D01*
X131045280Y-69685226D01*
X130841917Y-69619151D01*
X130736316Y-69602425D01*
X130630716Y-69585700D01*
X130416884Y-69585700D01*
X130346484Y-69596850D01*
X130205682Y-69619151D01*
X130002319Y-69685226D01*
X130002316Y-69685227D01*
X129811790Y-69782306D01*
X129638793Y-69907996D01*
X129487596Y-70059193D01*
X129361905Y-70232191D01*
X129359527Y-70236073D01*
X129307714Y-70282948D01*
X129238784Y-70294369D01*
X129174622Y-70266712D01*
X129148073Y-70236073D01*
X129145694Y-70232191D01*
X129088878Y-70153991D01*
X129020006Y-70059196D01*
X128868804Y-69907994D01*
X128695809Y-69782306D01*
X128695126Y-69781958D01*
X128505283Y-69685227D01*
X128505280Y-69685226D01*
X128301917Y-69619151D01*
X128196316Y-69602425D01*
X128090716Y-69585700D01*
X127876884Y-69585700D01*
X127806484Y-69596850D01*
X127665682Y-69619151D01*
X127462319Y-69685226D01*
X127462316Y-69685227D01*
X127271790Y-69782306D01*
X127098793Y-69907996D01*
X126947596Y-70059193D01*
X126821905Y-70232191D01*
X126819527Y-70236073D01*
X126767714Y-70282948D01*
X126698784Y-70294369D01*
X126634622Y-70266712D01*
X126608073Y-70236073D01*
X126605694Y-70232191D01*
X126548878Y-70153991D01*
X126480006Y-70059196D01*
X126328804Y-69907994D01*
X126155809Y-69782306D01*
X126155126Y-69781958D01*
X125965283Y-69685227D01*
X125965280Y-69685226D01*
X125761917Y-69619151D01*
X125656316Y-69602425D01*
X125550716Y-69585700D01*
X125336884Y-69585700D01*
X125266484Y-69596850D01*
X125125682Y-69619151D01*
X124922319Y-69685226D01*
X124922316Y-69685227D01*
X124731790Y-69782306D01*
X124558793Y-69907996D01*
X124407596Y-70059193D01*
X124281905Y-70232191D01*
X124279527Y-70236073D01*
X124227714Y-70282948D01*
X124158784Y-70294369D01*
X124094622Y-70266712D01*
X124068073Y-70236073D01*
X124065694Y-70232191D01*
X124008878Y-70153991D01*
X123940006Y-70059196D01*
X123788804Y-69907994D01*
X123615809Y-69782306D01*
X123615126Y-69781958D01*
X123425283Y-69685227D01*
X123425280Y-69685226D01*
X123221917Y-69619151D01*
X123116316Y-69602425D01*
X123010716Y-69585700D01*
X122796884Y-69585700D01*
X122726484Y-69596850D01*
X122585682Y-69619151D01*
X122382319Y-69685226D01*
X122382316Y-69685227D01*
X122191790Y-69782306D01*
X122018793Y-69907996D01*
X121867596Y-70059193D01*
X121741905Y-70232191D01*
X121739527Y-70236073D01*
X121687714Y-70282948D01*
X121618784Y-70294369D01*
X121554622Y-70266712D01*
X121528073Y-70236073D01*
X121525694Y-70232191D01*
X121468878Y-70153991D01*
X121400006Y-70059196D01*
X121248804Y-69907994D01*
X121075809Y-69782306D01*
X121075126Y-69781958D01*
X120885283Y-69685227D01*
X120885280Y-69685226D01*
X120681917Y-69619151D01*
X120576316Y-69602425D01*
X120470716Y-69585700D01*
X120256884Y-69585700D01*
X120186484Y-69596850D01*
X120045682Y-69619151D01*
X119842319Y-69685226D01*
X119842316Y-69685227D01*
X119651790Y-69782306D01*
X119478793Y-69907996D01*
X119327596Y-70059193D01*
X119201905Y-70232191D01*
X119199527Y-70236073D01*
X119147714Y-70282948D01*
X119078784Y-70294369D01*
X119014622Y-70266712D01*
X118988073Y-70236073D01*
X118985694Y-70232191D01*
X118928878Y-70153991D01*
X118860006Y-70059196D01*
X118708804Y-69907994D01*
X118535809Y-69782306D01*
X118535126Y-69781958D01*
X118345283Y-69685227D01*
X118345280Y-69685226D01*
X118141917Y-69619151D01*
X118036316Y-69602425D01*
X117930716Y-69585700D01*
X117716884Y-69585700D01*
X117646484Y-69596850D01*
X117505682Y-69619151D01*
X117302319Y-69685226D01*
X117302316Y-69685227D01*
X117111790Y-69782306D01*
X116938797Y-69907993D01*
X116833618Y-70013172D01*
X116772295Y-70046656D01*
X116702603Y-70041672D01*
X116646670Y-69999800D01*
X116629758Y-69968829D01*
X116584689Y-69847996D01*
X116497061Y-69730939D01*
X116380004Y-69643311D01*
X116326163Y-69623229D01*
X116243003Y-69592211D01*
X116182454Y-69585700D01*
X116182438Y-69585700D01*
X114385162Y-69585700D01*
X114385145Y-69585700D01*
X114324597Y-69592211D01*
X114324595Y-69592211D01*
X114187595Y-69643311D01*
X114070539Y-69730939D01*
X113982911Y-69847995D01*
X113931811Y-69984995D01*
X113931811Y-69984997D01*
X113925300Y-70045545D01*
X100342300Y-70045545D01*
X100342300Y-63687075D01*
X100342368Y-63682969D01*
X100352412Y-63379798D01*
X100353015Y-63371021D01*
X100353015Y-63371018D01*
X100377382Y-63137759D01*
X157165500Y-63137759D01*
X157165500Y-63862240D01*
X157192795Y-64034575D01*
X157246710Y-64200513D01*
X157246711Y-64200516D01*
X157325928Y-64355984D01*
X157428477Y-64497132D01*
X157428481Y-64497137D01*
X157551862Y-64620518D01*
X157551867Y-64620522D01*
X157674984Y-64709971D01*
X157693019Y-64723074D01*
X157794646Y-64774856D01*
X157848483Y-64802288D01*
X157848486Y-64802289D01*
X157931455Y-64829246D01*
X158014426Y-64856205D01*
X158186759Y-64883500D01*
X158186760Y-64883500D01*
X158361240Y-64883500D01*
X158361241Y-64883500D01*
X158533574Y-64856205D01*
X158699516Y-64802288D01*
X158854981Y-64723074D01*
X158996139Y-64620517D01*
X159096975Y-64519680D01*
X159158294Y-64486198D01*
X159227986Y-64491182D01*
X159283920Y-64533053D01*
X159290184Y-64542255D01*
X159324970Y-64598652D01*
X159450348Y-64724030D01*
X159601262Y-64817115D01*
X159769574Y-64872887D01*
X159873455Y-64883500D01*
X160674544Y-64883499D01*
X160778426Y-64872887D01*
X160946738Y-64817115D01*
X161097652Y-64724030D01*
X161223030Y-64598652D01*
X161316115Y-64447738D01*
X161371887Y-64279426D01*
X161382500Y-64175545D01*
X161382499Y-63137759D01*
X168341500Y-63137759D01*
X168341500Y-63862240D01*
X168368795Y-64034575D01*
X168422710Y-64200513D01*
X168422711Y-64200516D01*
X168501928Y-64355984D01*
X168604477Y-64497132D01*
X168604481Y-64497137D01*
X168727862Y-64620518D01*
X168727867Y-64620522D01*
X168850984Y-64709971D01*
X168869019Y-64723074D01*
X168970646Y-64774856D01*
X169024483Y-64802288D01*
X169024486Y-64802289D01*
X169107455Y-64829246D01*
X169190426Y-64856205D01*
X169362759Y-64883500D01*
X169362760Y-64883500D01*
X169537240Y-64883500D01*
X169537241Y-64883500D01*
X169709574Y-64856205D01*
X169875516Y-64802288D01*
X170030981Y-64723074D01*
X170172139Y-64620517D01*
X170272975Y-64519680D01*
X170334294Y-64486198D01*
X170403986Y-64491182D01*
X170459920Y-64533053D01*
X170466184Y-64542255D01*
X170500970Y-64598652D01*
X170626348Y-64724030D01*
X170777262Y-64817115D01*
X170945574Y-64872887D01*
X171049455Y-64883500D01*
X171850544Y-64883499D01*
X171954426Y-64872887D01*
X172122738Y-64817115D01*
X172273652Y-64724030D01*
X172399030Y-64598652D01*
X172492115Y-64447738D01*
X172547887Y-64279426D01*
X172558500Y-64175545D01*
X172558499Y-63574879D01*
X183481295Y-63574879D01*
X183481295Y-63788710D01*
X183514746Y-63999912D01*
X183580821Y-64203275D01*
X183580822Y-64203278D01*
X183638233Y-64315952D01*
X183677901Y-64393804D01*
X183803589Y-64566799D01*
X183954791Y-64718001D01*
X184127786Y-64843689D01*
X184221233Y-64891302D01*
X184318311Y-64940767D01*
X184318314Y-64940768D01*
X184366309Y-64956362D01*
X184521679Y-65006844D01*
X184732879Y-65040295D01*
X184732880Y-65040295D01*
X184946710Y-65040295D01*
X184946711Y-65040295D01*
X185157911Y-65006844D01*
X185157916Y-65006842D01*
X185162339Y-65005781D01*
X185232121Y-65009272D01*
X185288938Y-65049936D01*
X185314751Y-65114863D01*
X185311863Y-65155286D01*
X185310797Y-65159728D01*
X185277346Y-65370930D01*
X185277346Y-65584761D01*
X185310797Y-65795963D01*
X185376872Y-65999326D01*
X185376873Y-65999329D01*
X185393075Y-66031126D01*
X185473952Y-66189855D01*
X185599640Y-66362850D01*
X185750842Y-66514052D01*
X185923837Y-66639740D01*
X186017284Y-66687353D01*
X186114362Y-66736818D01*
X186114365Y-66736819D01*
X186162360Y-66752413D01*
X186317730Y-66802895D01*
X186528930Y-66836346D01*
X186528931Y-66836346D01*
X186742761Y-66836346D01*
X186742762Y-66836346D01*
X186953962Y-66802895D01*
X186953967Y-66802893D01*
X186958390Y-66801832D01*
X187028172Y-66805323D01*
X187084989Y-66845987D01*
X187110802Y-66910914D01*
X187107914Y-66951337D01*
X187106848Y-66955779D01*
X187073397Y-67166981D01*
X187073397Y-67380812D01*
X187106848Y-67592014D01*
X187172923Y-67795377D01*
X187172924Y-67795380D01*
X187270003Y-67985906D01*
X187395691Y-68158901D01*
X187546893Y-68310103D01*
X187719888Y-68435791D01*
X187813335Y-68483404D01*
X187910413Y-68532869D01*
X187910416Y-68532870D01*
X187958414Y-68548465D01*
X188113781Y-68598946D01*
X188324981Y-68632397D01*
X188324982Y-68632397D01*
X188538812Y-68632397D01*
X188538813Y-68632397D01*
X188750013Y-68598946D01*
X188750029Y-68598940D01*
X188754436Y-68597883D01*
X188824219Y-68601371D01*
X188881038Y-68642032D01*
X188906855Y-68706957D01*
X188903965Y-68747393D01*
X188902900Y-68751827D01*
X188869449Y-68963033D01*
X188869449Y-69176864D01*
X188902900Y-69388066D01*
X188968975Y-69591429D01*
X188968976Y-69591432D01*
X189026387Y-69704106D01*
X189066055Y-69781958D01*
X189191743Y-69954953D01*
X189342945Y-70106155D01*
X189515940Y-70231843D01*
X189584374Y-70266712D01*
X189706465Y-70328921D01*
X189706468Y-70328922D01*
X189754463Y-70344516D01*
X189909833Y-70394998D01*
X190121033Y-70428449D01*
X190121034Y-70428449D01*
X190334864Y-70428449D01*
X190334865Y-70428449D01*
X190546065Y-70394998D01*
X190546070Y-70394996D01*
X190550493Y-70393935D01*
X190620275Y-70397426D01*
X190677092Y-70438090D01*
X190702905Y-70503017D01*
X190700017Y-70543440D01*
X190698951Y-70547882D01*
X190665500Y-70759084D01*
X190665500Y-70972915D01*
X190698951Y-71184117D01*
X190765026Y-71387480D01*
X190765027Y-71387483D01*
X190856493Y-71566993D01*
X190862106Y-71578009D01*
X190987794Y-71751004D01*
X191138996Y-71902206D01*
X191311991Y-72027894D01*
X191405438Y-72075507D01*
X191502516Y-72124972D01*
X191502519Y-72124973D01*
X191602506Y-72157460D01*
X191705884Y-72191049D01*
X191917084Y-72224500D01*
X191917085Y-72224500D01*
X192075171Y-72224500D01*
X192142210Y-72244185D01*
X192187965Y-72296989D01*
X192197909Y-72366147D01*
X192187965Y-72400012D01*
X192133289Y-72519732D01*
X192133288Y-72519737D01*
X192112828Y-72662051D01*
X192133288Y-72804364D01*
X192133289Y-72804369D01*
X192193015Y-72935148D01*
X192230595Y-72981783D01*
X192688680Y-73439868D01*
X193337088Y-72791459D01*
X193354126Y-72855044D01*
X193419952Y-72969058D01*
X193513044Y-73062150D01*
X193627058Y-73127976D01*
X193690642Y-73145013D01*
X193042234Y-73793422D01*
X193500318Y-74251506D01*
X193546953Y-74289086D01*
X193677732Y-74348812D01*
X193677737Y-74348813D01*
X193820051Y-74369273D01*
X193962364Y-74348813D01*
X193962369Y-74348812D01*
X194093148Y-74289086D01*
X194139783Y-74251506D01*
X194139787Y-74251502D01*
X194597868Y-73793422D01*
X193949459Y-73145013D01*
X194013044Y-73127976D01*
X194127058Y-73062150D01*
X194220150Y-72969058D01*
X194285976Y-72855044D01*
X194303013Y-72791459D01*
X194951422Y-73439868D01*
X195409502Y-72981787D01*
X195409506Y-72981783D01*
X195447086Y-72935148D01*
X195506812Y-72804369D01*
X195506813Y-72804364D01*
X195527273Y-72662051D01*
X195506813Y-72519737D01*
X195506812Y-72519732D01*
X195447086Y-72388953D01*
X195409506Y-72342318D01*
X194951422Y-71884234D01*
X194303013Y-72532642D01*
X194285976Y-72469058D01*
X194220150Y-72355044D01*
X194127058Y-72261952D01*
X194013044Y-72196126D01*
X193949459Y-72179088D01*
X194597868Y-71530680D01*
X194139783Y-71072595D01*
X194093148Y-71035015D01*
X193962369Y-70975289D01*
X193962364Y-70975288D01*
X193820051Y-70954828D01*
X193677737Y-70975288D01*
X193677732Y-70975289D01*
X193558012Y-71029965D01*
X193488853Y-71039909D01*
X193425297Y-71010884D01*
X193387523Y-70952106D01*
X193382500Y-70917171D01*
X193382500Y-70759084D01*
X193349049Y-70547884D01*
X193282972Y-70344517D01*
X193282972Y-70344516D01*
X193225561Y-70231842D01*
X193185894Y-70153991D01*
X193060206Y-69980996D01*
X192909004Y-69829794D01*
X192736009Y-69704106D01*
X192698955Y-69685226D01*
X192545483Y-69607027D01*
X192545480Y-69607026D01*
X192342117Y-69540951D01*
X192236516Y-69524225D01*
X192130916Y-69507500D01*
X191917084Y-69507500D01*
X191846684Y-69518650D01*
X191705882Y-69540951D01*
X191701440Y-69542017D01*
X191631658Y-69538517D01*
X191574846Y-69497845D01*
X191549041Y-69432915D01*
X191551935Y-69392493D01*
X191552996Y-69388070D01*
X191552998Y-69388065D01*
X191586449Y-69176865D01*
X191586449Y-68963033D01*
X191552998Y-68751833D01*
X191517322Y-68642032D01*
X191486922Y-68548468D01*
X191486921Y-68548465D01*
X191389842Y-68357939D01*
X191355085Y-68310100D01*
X191264155Y-68184945D01*
X191112953Y-68033743D01*
X190939958Y-67908055D01*
X190749432Y-67810976D01*
X190749429Y-67810975D01*
X190546066Y-67744900D01*
X190440465Y-67728174D01*
X190334865Y-67711449D01*
X190121033Y-67711449D01*
X190090861Y-67716227D01*
X189909827Y-67744900D01*
X189905393Y-67745965D01*
X189835611Y-67742469D01*
X189778797Y-67701800D01*
X189752989Y-67636872D01*
X189755883Y-67596436D01*
X189756940Y-67592029D01*
X189756946Y-67592013D01*
X189790397Y-67380813D01*
X189790397Y-67166981D01*
X189756946Y-66955781D01*
X189690869Y-66752414D01*
X189690869Y-66752413D01*
X189593790Y-66561887D01*
X189559034Y-66514049D01*
X189468103Y-66388893D01*
X189316901Y-66237691D01*
X189143906Y-66112003D01*
X188953380Y-66014924D01*
X188953377Y-66014923D01*
X188750014Y-65948848D01*
X188644413Y-65932122D01*
X188538813Y-65915397D01*
X188324981Y-65915397D01*
X188254581Y-65926547D01*
X188113779Y-65948848D01*
X188109337Y-65949914D01*
X188039555Y-65946414D01*
X187982743Y-65905742D01*
X187956938Y-65840812D01*
X187959832Y-65800390D01*
X187960893Y-65795967D01*
X187960895Y-65795962D01*
X187994346Y-65584762D01*
X187994346Y-65370930D01*
X187960895Y-65159730D01*
X187894818Y-64956363D01*
X187894818Y-64956362D01*
X187816313Y-64802289D01*
X187797740Y-64765837D01*
X187672052Y-64592842D01*
X187520850Y-64441640D01*
X187347855Y-64315952D01*
X187157329Y-64218873D01*
X187157326Y-64218872D01*
X186953963Y-64152797D01*
X186848362Y-64136071D01*
X186742762Y-64119346D01*
X186528930Y-64119346D01*
X186458530Y-64130496D01*
X186317728Y-64152797D01*
X186313286Y-64153863D01*
X186243504Y-64150363D01*
X186186692Y-64109691D01*
X186160887Y-64044761D01*
X186163781Y-64004339D01*
X186164842Y-63999916D01*
X186164844Y-63999911D01*
X186198295Y-63788711D01*
X186198295Y-63574879D01*
X186164844Y-63363679D01*
X186098767Y-63160312D01*
X186098767Y-63160311D01*
X186001688Y-62969785D01*
X185998520Y-62965424D01*
X185876001Y-62796791D01*
X185724799Y-62645589D01*
X185551804Y-62519901D01*
X185543516Y-62515678D01*
X185361278Y-62422822D01*
X185361275Y-62422821D01*
X185157912Y-62356746D01*
X185004273Y-62332412D01*
X184946711Y-62323295D01*
X184732879Y-62323295D01*
X184687332Y-62330509D01*
X184521677Y-62356746D01*
X184318314Y-62422821D01*
X184318311Y-62422822D01*
X184127785Y-62519901D01*
X183954788Y-62645591D01*
X183803591Y-62796788D01*
X183677901Y-62969785D01*
X183580822Y-63160311D01*
X183580821Y-63160314D01*
X183514746Y-63363677D01*
X183481295Y-63574879D01*
X172558499Y-63574879D01*
X172558499Y-63389103D01*
X172558499Y-62824462D01*
X172558498Y-62824446D01*
X172555673Y-62796791D01*
X172547887Y-62720574D01*
X172492115Y-62552262D01*
X172399030Y-62401348D01*
X172273652Y-62275970D01*
X172122738Y-62182885D01*
X172122735Y-62182884D01*
X171954427Y-62127113D01*
X171850546Y-62116500D01*
X171049462Y-62116500D01*
X171049446Y-62116501D01*
X170945572Y-62127113D01*
X170777264Y-62182884D01*
X170777259Y-62182886D01*
X170626346Y-62275971D01*
X170500970Y-62401347D01*
X170500967Y-62401351D01*
X170466191Y-62457732D01*
X170414243Y-62504457D01*
X170345280Y-62515678D01*
X170281198Y-62487835D01*
X170272972Y-62480316D01*
X170172137Y-62379481D01*
X170172132Y-62379477D01*
X170030984Y-62276928D01*
X170030983Y-62276927D01*
X170030981Y-62276926D01*
X169981175Y-62251548D01*
X169875516Y-62197711D01*
X169875513Y-62197710D01*
X169709575Y-62143795D01*
X169623407Y-62130147D01*
X169537241Y-62116500D01*
X169362759Y-62116500D01*
X169305314Y-62125598D01*
X169190424Y-62143795D01*
X169024486Y-62197710D01*
X169024483Y-62197711D01*
X168869015Y-62276928D01*
X168727867Y-62379477D01*
X168727862Y-62379481D01*
X168604481Y-62502862D01*
X168604477Y-62502867D01*
X168501928Y-62644015D01*
X168422711Y-62799483D01*
X168422710Y-62799486D01*
X168368795Y-62965424D01*
X168341500Y-63137759D01*
X161382499Y-63137759D01*
X161382499Y-62824456D01*
X161371887Y-62720574D01*
X161316115Y-62552262D01*
X161223030Y-62401348D01*
X161097652Y-62275970D01*
X160946738Y-62182885D01*
X160946735Y-62182884D01*
X160778427Y-62127113D01*
X160674546Y-62116500D01*
X159873462Y-62116500D01*
X159873446Y-62116501D01*
X159769572Y-62127113D01*
X159601264Y-62182884D01*
X159601259Y-62182886D01*
X159450346Y-62275971D01*
X159324970Y-62401347D01*
X159324967Y-62401351D01*
X159290191Y-62457732D01*
X159238243Y-62504457D01*
X159169280Y-62515678D01*
X159105198Y-62487835D01*
X159096972Y-62480316D01*
X158996137Y-62379481D01*
X158996132Y-62379477D01*
X158854984Y-62276928D01*
X158854983Y-62276927D01*
X158854981Y-62276926D01*
X158805175Y-62251548D01*
X158699516Y-62197711D01*
X158699513Y-62197710D01*
X158533575Y-62143795D01*
X158447407Y-62130147D01*
X158361241Y-62116500D01*
X158186759Y-62116500D01*
X158129314Y-62125598D01*
X158014424Y-62143795D01*
X157848486Y-62197710D01*
X157848483Y-62197711D01*
X157693015Y-62276928D01*
X157551867Y-62379477D01*
X157551862Y-62379481D01*
X157428481Y-62502862D01*
X157428477Y-62502867D01*
X157325928Y-62644015D01*
X157246711Y-62799483D01*
X157246710Y-62799486D01*
X157192795Y-62965424D01*
X157165500Y-63137759D01*
X100377382Y-63137759D01*
X100406771Y-62856433D01*
X100408094Y-62847184D01*
X100500541Y-62338545D01*
X100502560Y-62329411D01*
X100633209Y-61829224D01*
X100635920Y-61820251D01*
X100635922Y-61820246D01*
X100804024Y-61331377D01*
X100807392Y-61322665D01*
X101011990Y-60847897D01*
X101016017Y-60839449D01*
X101255930Y-60381523D01*
X101260575Y-60373418D01*
X101534442Y-59934932D01*
X101539694Y-59927191D01*
X101845941Y-59510672D01*
X101851765Y-59503351D01*
X102188627Y-59111195D01*
X102194988Y-59104335D01*
X102560548Y-58738774D01*
X102567388Y-58732432D01*
X102959568Y-58395549D01*
X102966874Y-58389740D01*
X103383391Y-58083494D01*
X103391132Y-58078242D01*
X103829618Y-57804375D01*
X103837723Y-57799730D01*
X104295649Y-57559817D01*
X104304098Y-57555790D01*
X104778863Y-57351193D01*
X104787574Y-57347824D01*
X105276456Y-57179717D01*
X105285419Y-57177010D01*
X105785608Y-57046361D01*
X105794742Y-57044342D01*
X106303388Y-56951894D01*
X106312638Y-56950571D01*
X106827225Y-56896814D01*
X106835990Y-56896212D01*
X107139168Y-56886168D01*
X107143274Y-56886100D01*
X193440323Y-56886100D01*
X193444429Y-56886168D01*
G37*
%TD.AperFunction*%
%TD*%
M02*
