%TF.GenerationSoftware,KiCad,Pcbnew,10.0.0*%
%TF.CreationDate,2026-09-11T12:13:25+02:00*%
%TF.ProjectId,Bil v 1_0,42696c20-7620-4312-9c30-2e6b69636164,rev?*%
%TF.SameCoordinates,Original*%
%TF.FileFunction,Legend,Top*%
%TF.FilePolarity,Positive*%
%FSLAX46Y46*%
G04 Gerber Fmt 4.6, Leading zero omitted, Abs format (unit mm)*
G04 Created by KiCad (PCBNEW 10.0.0) date 2026-09-11 12:13:25*
%MOMM*%
%LPD*%
G01*
G04 APERTURE LIST*
%ADD10C,0.200000*%
%ADD11C,0.375000*%
%ADD12C,0.150000*%
%ADD13C,0.120000*%
G04 APERTURE END LIST*
D10*
G36*
X147433447Y-115265845D02*
G01*
X147403728Y-115173630D01*
X147372386Y-115016473D01*
X147352997Y-114868557D01*
X147347473Y-114763010D01*
X147352417Y-114707246D01*
X147365665Y-114665960D01*
X147385800Y-114635720D01*
X147412830Y-114614219D01*
X147448181Y-114600607D01*
X147494446Y-114595643D01*
X147711151Y-114609321D01*
X148016138Y-114622418D01*
X148371461Y-114627089D01*
X148407576Y-114633860D01*
X148437773Y-114654078D01*
X148458176Y-114684281D01*
X148465129Y-114722039D01*
X148458173Y-114759844D01*
X148437712Y-114790304D01*
X148407478Y-114810806D01*
X148371339Y-114817660D01*
X148013459Y-114812847D01*
X147698878Y-114799219D01*
X147531144Y-114786274D01*
X147539482Y-114893512D01*
X147563881Y-115030016D01*
X147608569Y-115201609D01*
X147613210Y-115231651D01*
X147609612Y-115258894D01*
X147599226Y-115281760D01*
X147581763Y-115301322D01*
X147551805Y-115319358D01*
X147518871Y-115325257D01*
X147483472Y-115318738D01*
X147455612Y-115299704D01*
X147433447Y-115265845D01*
G37*
G36*
X147805795Y-115992895D02*
G01*
X147668653Y-115993567D01*
X147531571Y-115994239D01*
X147489134Y-115996620D01*
X147446758Y-115999062D01*
X147411943Y-115992102D01*
X147383988Y-115971402D01*
X147365525Y-115940935D01*
X147359197Y-115903441D01*
X147364708Y-115868452D01*
X147380347Y-115841567D01*
X147406946Y-115820765D01*
X147389099Y-115761768D01*
X147378411Y-115701554D01*
X147374829Y-115639720D01*
X147379718Y-115576168D01*
X147393531Y-115522330D01*
X147415495Y-115476505D01*
X147441742Y-115442849D01*
X147472733Y-115417221D01*
X147509074Y-115398850D01*
X147551844Y-115387661D01*
X147717376Y-115367261D01*
X147854949Y-115361039D01*
X147945794Y-115365811D01*
X148056327Y-115381555D01*
X148090781Y-115392937D01*
X148113749Y-115411383D01*
X148127814Y-115437419D01*
X148132958Y-115473757D01*
X148126681Y-115510727D01*
X148108229Y-115541351D01*
X148080261Y-115562345D01*
X148045580Y-115569378D01*
X147952096Y-115559486D01*
X147855315Y-115549594D01*
X147688314Y-115556067D01*
X147620057Y-115564674D01*
X147570162Y-115575545D01*
X147558621Y-115608640D01*
X147554591Y-115639781D01*
X147559748Y-115717060D01*
X147576390Y-115806416D01*
X147695764Y-115805744D01*
X147810375Y-115804401D01*
X147945442Y-115807902D01*
X148051809Y-115817346D01*
X148088372Y-115827503D01*
X148112603Y-115845630D01*
X148127473Y-115872186D01*
X148132958Y-115910280D01*
X148126581Y-115947919D01*
X148107801Y-115979279D01*
X148089478Y-115995092D01*
X148068780Y-116003825D01*
X148044726Y-116005901D01*
X147805795Y-115992895D01*
G37*
G36*
X147821797Y-116093199D02*
G01*
X147900301Y-116113309D01*
X147968359Y-116145540D01*
X148027629Y-116189938D01*
X148068221Y-116233844D01*
X148099500Y-116282163D01*
X148122053Y-116335518D01*
X148135958Y-116394811D01*
X148140774Y-116461170D01*
X148137896Y-116510872D01*
X148129844Y-116552700D01*
X148115915Y-116590833D01*
X148097055Y-116622370D01*
X148312424Y-116633352D01*
X148419516Y-116643558D01*
X148456335Y-116654155D01*
X148480453Y-116671941D01*
X148495008Y-116697129D01*
X148500300Y-116732340D01*
X148493540Y-116769195D01*
X148474043Y-116797248D01*
X148445079Y-116815618D01*
X148409808Y-116821855D01*
X148297375Y-116818621D01*
X148111465Y-116806468D01*
X147925556Y-116794363D01*
X147813122Y-116791142D01*
X147588671Y-116796138D01*
X147485776Y-116806834D01*
X147465748Y-116808911D01*
X147431003Y-116802011D01*
X147403283Y-116781555D01*
X147384852Y-116751977D01*
X147378736Y-116718052D01*
X147383833Y-116687000D01*
X147398506Y-116662492D01*
X147423860Y-116642886D01*
X147400550Y-116595208D01*
X147387285Y-116546594D01*
X147380900Y-116496177D01*
X147378736Y-116443401D01*
X147554591Y-116443401D01*
X147558154Y-116492661D01*
X147566926Y-116523330D01*
X147579337Y-116544372D01*
X147610828Y-116586222D01*
X147632077Y-116608754D01*
X147883098Y-116608754D01*
X147921436Y-116582251D01*
X147947578Y-116550013D01*
X147963282Y-116511316D01*
X147968827Y-116463918D01*
X147964670Y-116413671D01*
X147953099Y-116372769D01*
X147934918Y-116339400D01*
X147910148Y-116312243D01*
X147868075Y-116285712D01*
X147810984Y-116268214D01*
X147734293Y-116261684D01*
X147687206Y-116267776D01*
X147645399Y-116285720D01*
X147607409Y-116316334D01*
X147577744Y-116355296D01*
X147560427Y-116397220D01*
X147554591Y-116443401D01*
X147378736Y-116443401D01*
X147385161Y-116368356D01*
X147403710Y-116301980D01*
X147433979Y-116242674D01*
X147476495Y-116189266D01*
X147529568Y-116144303D01*
X147588722Y-116112411D01*
X147655187Y-116092898D01*
X147730690Y-116086135D01*
X147821797Y-116093199D01*
G37*
G36*
X147460680Y-117310830D02*
G01*
X147429404Y-117302038D01*
X147404565Y-117282803D01*
X147388259Y-117255711D01*
X147382644Y-117222047D01*
X147387105Y-117190030D01*
X147399903Y-117163873D01*
X147421464Y-117142122D01*
X147453841Y-117124350D01*
X148005647Y-116898181D01*
X148026122Y-116891437D01*
X148044665Y-116889327D01*
X148078536Y-116896630D01*
X148107252Y-116919003D01*
X148126575Y-116950991D01*
X148132958Y-116987025D01*
X148126830Y-117022774D01*
X148109293Y-117050088D01*
X148078859Y-117071044D01*
X147968515Y-117117435D01*
X147691367Y-117222719D01*
X147927001Y-117322431D01*
X148074279Y-117381843D01*
X148105363Y-117404391D01*
X148123005Y-117432045D01*
X148129050Y-117466534D01*
X148122746Y-117502585D01*
X148103710Y-117534495D01*
X148085183Y-117551192D01*
X148064457Y-117560923D01*
X148040696Y-117564232D01*
X147993074Y-117549458D01*
X147769525Y-117453590D01*
X147460680Y-117310830D01*
G37*
G36*
X148230655Y-117779715D02*
G01*
X148238034Y-117738883D01*
X148260148Y-117703877D01*
X148281539Y-117685881D01*
X148305281Y-117675343D01*
X148332260Y-117671759D01*
X148359238Y-117675344D01*
X148382959Y-117685883D01*
X148404312Y-117703877D01*
X148420794Y-117726694D01*
X148430546Y-117751714D01*
X148433866Y-117779715D01*
X148430539Y-117807705D01*
X148420781Y-117832596D01*
X148404312Y-117855186D01*
X148382985Y-117872959D01*
X148359263Y-117883387D01*
X148332260Y-117886937D01*
X148305256Y-117883388D01*
X148281512Y-117872961D01*
X148260148Y-117855186D01*
X148243715Y-117832600D01*
X148233976Y-117807708D01*
X148230655Y-117779715D01*
G37*
G36*
X147730568Y-117837784D02*
G01*
X147605821Y-117840165D01*
X147481074Y-117842546D01*
X147444768Y-117835760D01*
X147415983Y-117815863D01*
X147397015Y-117786110D01*
X147390460Y-117748269D01*
X147397013Y-117710416D01*
X147415983Y-117680613D01*
X147444763Y-117660764D01*
X147481074Y-117653991D01*
X147605821Y-117651609D01*
X147730568Y-117649228D01*
X147882487Y-117656067D01*
X148034528Y-117662906D01*
X148070829Y-117669681D01*
X148099558Y-117689528D01*
X148118576Y-117719336D01*
X148125143Y-117757183D01*
X148118574Y-117795020D01*
X148099558Y-117824778D01*
X148070824Y-117844673D01*
X148034528Y-117851461D01*
X147882487Y-117844622D01*
X147730568Y-117837784D01*
G37*
G36*
X147161554Y-117964467D02*
G01*
X147187677Y-117982192D01*
X147204702Y-118009235D01*
X147210697Y-118045085D01*
X147208224Y-118078928D01*
X147198974Y-118133195D01*
X147189970Y-118189206D01*
X147187250Y-118234983D01*
X147191710Y-118285333D01*
X147204110Y-118325957D01*
X147223642Y-118358828D01*
X147250448Y-118385315D01*
X147294357Y-118409891D01*
X147357521Y-118428806D01*
X147445903Y-118439964D01*
X147414635Y-118402629D01*
X147392597Y-118361379D01*
X147379375Y-118316171D01*
X147375198Y-118269849D01*
X147535052Y-118269849D01*
X147541288Y-118304630D01*
X147561516Y-118341654D01*
X147599959Y-118382567D01*
X147642998Y-118414370D01*
X147683254Y-118433994D01*
X147721592Y-118443384D01*
X147925840Y-118473426D01*
X147946357Y-118427630D01*
X147953196Y-118383911D01*
X147948055Y-118327288D01*
X147933481Y-118279531D01*
X147910044Y-118238921D01*
X147877358Y-118204270D01*
X147828465Y-118173161D01*
X147769644Y-118153762D01*
X147698328Y-118146873D01*
X147644785Y-118150894D01*
X147605074Y-118161598D01*
X147576024Y-118177586D01*
X147553704Y-118200856D01*
X147539982Y-118230886D01*
X147535052Y-118269849D01*
X147375198Y-118269849D01*
X147374829Y-118265758D01*
X147380695Y-118199133D01*
X147397538Y-118141090D01*
X147424913Y-118090023D01*
X147463306Y-118044779D01*
X147509998Y-118007993D01*
X147562512Y-117981634D01*
X147621975Y-117965381D01*
X147689902Y-117959722D01*
X147764237Y-117964640D01*
X147830372Y-117978784D01*
X147889517Y-118001576D01*
X147942668Y-118032901D01*
X147990565Y-118073112D01*
X148032454Y-118122105D01*
X148065257Y-118177333D01*
X148089269Y-118239680D01*
X148104267Y-118310338D01*
X148109511Y-118390749D01*
X148105291Y-118452469D01*
X148093757Y-118501391D01*
X148073558Y-118544018D01*
X148045886Y-118576557D01*
X148035232Y-118615335D01*
X148015544Y-118641251D01*
X147986113Y-118657337D01*
X147943243Y-118663324D01*
X147893306Y-118660244D01*
X147816725Y-118648975D01*
X147653418Y-118626287D01*
X147477349Y-118614842D01*
X147362484Y-118606221D01*
X147273835Y-118589882D01*
X147206586Y-118567719D01*
X147156536Y-118541081D01*
X147110862Y-118502306D01*
X147074539Y-118453353D01*
X147047204Y-118392474D01*
X147029521Y-118317109D01*
X147023119Y-118224054D01*
X147027991Y-118121599D01*
X147040382Y-118051809D01*
X147057553Y-118006405D01*
X147077771Y-117978574D01*
X147100665Y-117963356D01*
X147127411Y-117958317D01*
X147161554Y-117964467D01*
G37*
G36*
X144150737Y-114621693D02*
G01*
X144218387Y-114648356D01*
X144361104Y-114715871D01*
X144382126Y-114708948D01*
X144400671Y-114707689D01*
X144418633Y-114714522D01*
X144435614Y-114734201D01*
X144451840Y-114773940D01*
X144620246Y-114874906D01*
X144799703Y-114989851D01*
X144948410Y-115092893D01*
X145022634Y-115152794D01*
X145051913Y-115184667D01*
X145058234Y-115200266D01*
X145052793Y-115234070D01*
X145037064Y-115261213D01*
X145009866Y-115283395D01*
X144967559Y-115300650D01*
X144748839Y-115343698D01*
X144299677Y-115445486D01*
X144209734Y-115480290D01*
X144154071Y-115499928D01*
X144121807Y-115504898D01*
X144096749Y-115501559D01*
X144074995Y-115491787D01*
X144055678Y-115475161D01*
X144035999Y-115443265D01*
X144030460Y-115407934D01*
X144036545Y-115385629D01*
X144055397Y-115360949D01*
X144092881Y-115332441D01*
X144157405Y-115299307D01*
X144241604Y-115266500D01*
X144343091Y-115237147D01*
X144326971Y-115071855D01*
X144320816Y-115006215D01*
X144479867Y-115006215D01*
X144491468Y-115101836D01*
X144499406Y-115198190D01*
X144729727Y-115153066D01*
X144479867Y-115006215D01*
X144320816Y-115006215D01*
X144317455Y-114970371D01*
X144307920Y-114906503D01*
X144224250Y-114868225D01*
X144083217Y-114797204D01*
X144055575Y-114774002D01*
X144039761Y-114746713D01*
X144034368Y-114713856D01*
X144040682Y-114678384D01*
X144059952Y-114646201D01*
X144078695Y-114629423D01*
X144100104Y-114619548D01*
X144125104Y-114616159D01*
X144150737Y-114621693D01*
G37*
G36*
X144445795Y-116245931D02*
G01*
X144308653Y-116246602D01*
X144171571Y-116247274D01*
X144129134Y-116249655D01*
X144086758Y-116252098D01*
X144051943Y-116245138D01*
X144023988Y-116224437D01*
X144005525Y-116193971D01*
X143999197Y-116156477D01*
X144004708Y-116121487D01*
X144020347Y-116094603D01*
X144046946Y-116073801D01*
X144029099Y-116014804D01*
X144018411Y-115954589D01*
X144014829Y-115892756D01*
X144019718Y-115829204D01*
X144033531Y-115775366D01*
X144055495Y-115729540D01*
X144081742Y-115695885D01*
X144112733Y-115670256D01*
X144149074Y-115651885D01*
X144191844Y-115640697D01*
X144357376Y-115620297D01*
X144494949Y-115614075D01*
X144585794Y-115618847D01*
X144696327Y-115634591D01*
X144730781Y-115645972D01*
X144753749Y-115664418D01*
X144767814Y-115690455D01*
X144772958Y-115726793D01*
X144766681Y-115763763D01*
X144748229Y-115794387D01*
X144720261Y-115815381D01*
X144685580Y-115822414D01*
X144592096Y-115812522D01*
X144495315Y-115802630D01*
X144328314Y-115809102D01*
X144260057Y-115817709D01*
X144210162Y-115828581D01*
X144198621Y-115861676D01*
X144194591Y-115892817D01*
X144199748Y-115970095D01*
X144216390Y-116059451D01*
X144335764Y-116058780D01*
X144450375Y-116057436D01*
X144585442Y-116060937D01*
X144691809Y-116070381D01*
X144728372Y-116080539D01*
X144752603Y-116098666D01*
X144767473Y-116125221D01*
X144772958Y-116163316D01*
X144766581Y-116200955D01*
X144747801Y-116232314D01*
X144729478Y-116248128D01*
X144708780Y-116256861D01*
X144684726Y-116258937D01*
X144445795Y-116245931D01*
G37*
G36*
X143801554Y-116324132D02*
G01*
X143827677Y-116341857D01*
X143844702Y-116368900D01*
X143850697Y-116404750D01*
X143848224Y-116438593D01*
X143838974Y-116492860D01*
X143829970Y-116548871D01*
X143827250Y-116594648D01*
X143831710Y-116644998D01*
X143844110Y-116685622D01*
X143863642Y-116718493D01*
X143890448Y-116744980D01*
X143934357Y-116769557D01*
X143997521Y-116788471D01*
X144085903Y-116799629D01*
X144054635Y-116762294D01*
X144032597Y-116721044D01*
X144019375Y-116675836D01*
X144015198Y-116629514D01*
X144175052Y-116629514D01*
X144181288Y-116664295D01*
X144201516Y-116701319D01*
X144239959Y-116742232D01*
X144282998Y-116774035D01*
X144323254Y-116793659D01*
X144361592Y-116803049D01*
X144565840Y-116833091D01*
X144586357Y-116787295D01*
X144593196Y-116743576D01*
X144588055Y-116686953D01*
X144573481Y-116639196D01*
X144550044Y-116598586D01*
X144517358Y-116563935D01*
X144468465Y-116532826D01*
X144409644Y-116513427D01*
X144338328Y-116506538D01*
X144284785Y-116510559D01*
X144245074Y-116521263D01*
X144216024Y-116537251D01*
X144193704Y-116560521D01*
X144179982Y-116590551D01*
X144175052Y-116629514D01*
X144015198Y-116629514D01*
X144014829Y-116625423D01*
X144020695Y-116558798D01*
X144037538Y-116500755D01*
X144064913Y-116449688D01*
X144103306Y-116404444D01*
X144149998Y-116367658D01*
X144202512Y-116341300D01*
X144261975Y-116325046D01*
X144329902Y-116319387D01*
X144404237Y-116324305D01*
X144470372Y-116338449D01*
X144529517Y-116361241D01*
X144582668Y-116392566D01*
X144630565Y-116432777D01*
X144672454Y-116481770D01*
X144705257Y-116536998D01*
X144729269Y-116599345D01*
X144744267Y-116670003D01*
X144749511Y-116750414D01*
X144745291Y-116812134D01*
X144733757Y-116861056D01*
X144713558Y-116903683D01*
X144685886Y-116936222D01*
X144675232Y-116975000D01*
X144655544Y-117000916D01*
X144626113Y-117017002D01*
X144583243Y-117022989D01*
X144533306Y-117019909D01*
X144456725Y-117008640D01*
X144293418Y-116985952D01*
X144117349Y-116974507D01*
X144002484Y-116965886D01*
X143913835Y-116949547D01*
X143846586Y-116927384D01*
X143796536Y-116900746D01*
X143750862Y-116861971D01*
X143714539Y-116813018D01*
X143687204Y-116752139D01*
X143669521Y-116676774D01*
X143663119Y-116583719D01*
X143667991Y-116481264D01*
X143680382Y-116411474D01*
X143697553Y-116366070D01*
X143717771Y-116338239D01*
X143740665Y-116323021D01*
X143767411Y-116317982D01*
X143801554Y-116324132D01*
G37*
G36*
X144445795Y-117716273D02*
G01*
X144308653Y-117716944D01*
X144171571Y-117717616D01*
X144129134Y-117719997D01*
X144086758Y-117722440D01*
X144051943Y-117715480D01*
X144023988Y-117694779D01*
X144005525Y-117664313D01*
X143999197Y-117626819D01*
X144004708Y-117591829D01*
X144020347Y-117564945D01*
X144046946Y-117544143D01*
X144029099Y-117485146D01*
X144018411Y-117424931D01*
X144014829Y-117363098D01*
X144019718Y-117299546D01*
X144033531Y-117245708D01*
X144055495Y-117199882D01*
X144081742Y-117166227D01*
X144112733Y-117140598D01*
X144149074Y-117122227D01*
X144191844Y-117111039D01*
X144357376Y-117090639D01*
X144494949Y-117084416D01*
X144585794Y-117089189D01*
X144696327Y-117104933D01*
X144730781Y-117116314D01*
X144753749Y-117134760D01*
X144767814Y-117160797D01*
X144772958Y-117197135D01*
X144766681Y-117234104D01*
X144748229Y-117264729D01*
X144720261Y-117285723D01*
X144685580Y-117292756D01*
X144592096Y-117282864D01*
X144495315Y-117272972D01*
X144328314Y-117279444D01*
X144260057Y-117288051D01*
X144210162Y-117298923D01*
X144198621Y-117332018D01*
X144194591Y-117363159D01*
X144199748Y-117440437D01*
X144216390Y-117529793D01*
X144335764Y-117529122D01*
X144450375Y-117527778D01*
X144585442Y-117531279D01*
X144691809Y-117540723D01*
X144728372Y-117550881D01*
X144752603Y-117569008D01*
X144767473Y-117595563D01*
X144772958Y-117633658D01*
X144766581Y-117671296D01*
X144747801Y-117702656D01*
X144729478Y-117718470D01*
X144708780Y-117727203D01*
X144684726Y-117729279D01*
X144445795Y-117716273D01*
G37*
G36*
X144554117Y-118326636D02*
G01*
X144558004Y-118294254D01*
X144568419Y-118271357D01*
X144584757Y-118255410D01*
X144608155Y-118245364D01*
X144612735Y-118189371D01*
X144607757Y-118098194D01*
X144596480Y-118051069D01*
X144582834Y-118030419D01*
X144567550Y-118024690D01*
X144552995Y-118030926D01*
X144530572Y-118057704D01*
X144495682Y-118123731D01*
X144434856Y-118247227D01*
X144398534Y-118306852D01*
X144358538Y-118352999D01*
X144318779Y-118383166D01*
X144278597Y-118400279D01*
X144236845Y-118405892D01*
X144181578Y-118398989D01*
X144134716Y-118379060D01*
X144094235Y-118345717D01*
X144059220Y-118296594D01*
X144033237Y-118236023D01*
X144016770Y-118164570D01*
X144010921Y-118080072D01*
X144018068Y-117991848D01*
X144038642Y-117914048D01*
X144062435Y-117865100D01*
X144088756Y-117834362D01*
X144117634Y-117817260D01*
X144150383Y-117811588D01*
X144180036Y-117816690D01*
X144200092Y-117830703D01*
X144213020Y-117854620D01*
X144218039Y-117892860D01*
X144213987Y-117927299D01*
X144198499Y-117983719D01*
X144183034Y-118040225D01*
X144178960Y-118075249D01*
X144184444Y-118148463D01*
X144197323Y-118188742D01*
X144214170Y-118208347D01*
X144235075Y-118214589D01*
X144254310Y-118207671D01*
X144279118Y-118180684D01*
X144312377Y-118118296D01*
X144372026Y-117990748D01*
X144402076Y-117937923D01*
X144439812Y-117893891D01*
X144479361Y-117864477D01*
X144521384Y-117847370D01*
X144567123Y-117841630D01*
X144619055Y-117847565D01*
X144662052Y-117864444D01*
X144698137Y-117892113D01*
X144728368Y-117932045D01*
X144752686Y-117987138D01*
X144766828Y-118045312D01*
X144776889Y-118129413D01*
X144780774Y-118246707D01*
X144775636Y-118310188D01*
X144763189Y-118347824D01*
X144743686Y-118372265D01*
X144715635Y-118387337D01*
X144675933Y-118392886D01*
X144614325Y-118387044D01*
X144578839Y-118372882D01*
X144560290Y-118353107D01*
X144554117Y-118326636D01*
G37*
G36*
X144600523Y-119008928D02*
G01*
X144601500Y-118975100D01*
X144602538Y-118941334D01*
X144597103Y-118876426D01*
X144236479Y-118888760D01*
X144203384Y-118889432D01*
X144164122Y-118890104D01*
X144099090Y-118884660D01*
X144055966Y-118870772D01*
X144028503Y-118850776D01*
X144012591Y-118824871D01*
X144007013Y-118791063D01*
X144012881Y-118755872D01*
X144030216Y-118726156D01*
X144048300Y-118709247D01*
X144068516Y-118699441D01*
X144091704Y-118696114D01*
X144165465Y-118698129D01*
X144239288Y-118700205D01*
X144593196Y-118687871D01*
X144604492Y-118559826D01*
X144614271Y-118520479D01*
X144631822Y-118494969D01*
X144657152Y-118479666D01*
X144693030Y-118474097D01*
X144728532Y-118480632D01*
X144757998Y-118500048D01*
X144777844Y-118529338D01*
X144784682Y-118566971D01*
X144776866Y-118683108D01*
X144848613Y-118679689D01*
X144915596Y-118676941D01*
X144950283Y-118683948D01*
X144978489Y-118704907D01*
X144997180Y-118735605D01*
X145003524Y-118772562D01*
X144997666Y-118806575D01*
X144980796Y-118832921D01*
X144951282Y-118853526D01*
X144904373Y-118867981D01*
X144833042Y-118873678D01*
X144776866Y-118872335D01*
X144784682Y-118941334D01*
X144781466Y-119013650D01*
X144774424Y-119048556D01*
X144756812Y-119078815D01*
X144730141Y-119096698D01*
X144691259Y-119103206D01*
X144655415Y-119096459D01*
X144626413Y-119076522D01*
X144607160Y-119046740D01*
X144600523Y-119008928D01*
G37*
G36*
X141230387Y-114915357D02*
G01*
X140894919Y-114829322D01*
X140740558Y-114804043D01*
X140694529Y-114785184D01*
X140665342Y-114761922D01*
X140648756Y-114734352D01*
X140643105Y-114700912D01*
X140646877Y-114670979D01*
X140657605Y-114646583D01*
X140675345Y-114626418D01*
X140705128Y-114609086D01*
X140740436Y-114603214D01*
X140813875Y-114607737D01*
X140903196Y-114622674D01*
X141011179Y-114650353D01*
X141276427Y-114726191D01*
X141487513Y-114766491D01*
X141585224Y-114790959D01*
X141646207Y-114813251D01*
X141681137Y-114833047D01*
X141708550Y-114859785D01*
X141724219Y-114889539D01*
X141729497Y-114923600D01*
X141722614Y-114961123D01*
X141702449Y-114991001D01*
X141666543Y-115015130D01*
X141590974Y-115039700D01*
X141422789Y-115073870D01*
X141241564Y-115110260D01*
X141038046Y-115163324D01*
X141246245Y-115237085D01*
X141482873Y-115308160D01*
X141639738Y-115346445D01*
X141685643Y-115369520D01*
X141715004Y-115395912D01*
X141731687Y-115425765D01*
X141737313Y-115460507D01*
X141731242Y-115492890D01*
X141712743Y-115521492D01*
X141678855Y-115547653D01*
X141623801Y-115571149D01*
X141567840Y-115584819D01*
X141452770Y-115603267D01*
X141258441Y-115633624D01*
X141093086Y-115667090D01*
X140953538Y-115702979D01*
X140762637Y-115755759D01*
X140723705Y-115763795D01*
X140698259Y-115760231D01*
X140675983Y-115749731D01*
X140655989Y-115731677D01*
X140637481Y-115699614D01*
X140631381Y-115664083D01*
X140637248Y-115631302D01*
X140654965Y-115602584D01*
X140687004Y-115576578D01*
X140738421Y-115553380D01*
X140904445Y-115515156D01*
X141041883Y-115483614D01*
X141259146Y-115444081D01*
X140970940Y-115342293D01*
X140844972Y-115301322D01*
X140774170Y-115274306D01*
X140722423Y-115248748D01*
X140686115Y-115220409D01*
X140665654Y-115187298D01*
X140658736Y-115147632D01*
X140663184Y-115118319D01*
X140676359Y-115092754D01*
X140699335Y-115069823D01*
X140734757Y-115049263D01*
X140862069Y-115010978D01*
X141039940Y-114960926D01*
X141230387Y-114915357D01*
G37*
G36*
X141069112Y-115833097D02*
G01*
X141129001Y-115847595D01*
X141184908Y-115871527D01*
X141237549Y-115905279D01*
X141287418Y-115949725D01*
X141339320Y-116014105D01*
X141375702Y-116083241D01*
X141397644Y-116158263D01*
X141405143Y-116240741D01*
X141401550Y-116283335D01*
X141389871Y-116332970D01*
X141368445Y-116391011D01*
X141341596Y-116442218D01*
X141315861Y-116472990D01*
X141290989Y-116489107D01*
X141265863Y-116494143D01*
X141242879Y-116490204D01*
X141223060Y-116478450D01*
X141154733Y-116467825D01*
X141058623Y-116464101D01*
X140937919Y-116469670D01*
X140871777Y-116482541D01*
X140801069Y-116513987D01*
X140734513Y-116540610D01*
X140701602Y-116533716D01*
X140674734Y-116512949D01*
X140656862Y-116483119D01*
X140650921Y-116449080D01*
X140655410Y-116429263D01*
X140672943Y-116397868D01*
X140711676Y-116349368D01*
X140684357Y-116287904D01*
X140666308Y-116238665D01*
X140654364Y-116192263D01*
X140650921Y-116157393D01*
X140651610Y-116148478D01*
X140815052Y-116148478D01*
X140818603Y-116189967D01*
X140829096Y-116228773D01*
X140846301Y-116265289D01*
X140870495Y-116300153D01*
X141023369Y-116283915D01*
X141114310Y-116279636D01*
X141164624Y-116282689D01*
X141228005Y-116291971D01*
X141237897Y-116267668D01*
X141241011Y-116249594D01*
X141236503Y-116204856D01*
X141223161Y-116163385D01*
X141200686Y-116124299D01*
X141168044Y-116086990D01*
X141129416Y-116056020D01*
X141088849Y-116034511D01*
X141045743Y-116021669D01*
X140999272Y-116017319D01*
X140938647Y-116021640D01*
X140893854Y-116033102D01*
X140861275Y-116050109D01*
X140835953Y-116075108D01*
X140820552Y-116107137D01*
X140815052Y-116148478D01*
X140651610Y-116148478D01*
X140657279Y-116075074D01*
X140674905Y-116008329D01*
X140702395Y-115954206D01*
X140739459Y-115910463D01*
X140785637Y-115876487D01*
X140843385Y-115850839D01*
X140915235Y-115834195D01*
X141004340Y-115828153D01*
X141069112Y-115833097D01*
G37*
G36*
X141510655Y-116792974D02*
G01*
X141518034Y-116752142D01*
X141540148Y-116717136D01*
X141561539Y-116699140D01*
X141585281Y-116688602D01*
X141612260Y-116685018D01*
X141639238Y-116688603D01*
X141662959Y-116699142D01*
X141684312Y-116717136D01*
X141700794Y-116739953D01*
X141710546Y-116764973D01*
X141713866Y-116792974D01*
X141710539Y-116820963D01*
X141700781Y-116845855D01*
X141684312Y-116868445D01*
X141662985Y-116886218D01*
X141639263Y-116896646D01*
X141612260Y-116900196D01*
X141585256Y-116896647D01*
X141561512Y-116886220D01*
X141540148Y-116868445D01*
X141523715Y-116845859D01*
X141513976Y-116820967D01*
X141510655Y-116792974D01*
G37*
G36*
X141010568Y-116851042D02*
G01*
X140885821Y-116853424D01*
X140761074Y-116855805D01*
X140724768Y-116849019D01*
X140695983Y-116829122D01*
X140677015Y-116799369D01*
X140670460Y-116761527D01*
X140677013Y-116723675D01*
X140695983Y-116693872D01*
X140724763Y-116674023D01*
X140761074Y-116667250D01*
X140885821Y-116664868D01*
X141010568Y-116662487D01*
X141162487Y-116669326D01*
X141314528Y-116676165D01*
X141350829Y-116682939D01*
X141379558Y-116702787D01*
X141398576Y-116732595D01*
X141405143Y-116770442D01*
X141398574Y-116808279D01*
X141379558Y-116838036D01*
X141350824Y-116857932D01*
X141314528Y-116864720D01*
X141162487Y-116857881D01*
X141010568Y-116851042D01*
G37*
G36*
X137621809Y-114658169D02*
G01*
X137826545Y-114664642D01*
X138053813Y-114661588D01*
X138281020Y-114658535D01*
X138304743Y-114662159D01*
X138329373Y-114673639D01*
X138355758Y-114694744D01*
X138377190Y-114720606D01*
X138389098Y-114746063D01*
X138392944Y-114771925D01*
X138385871Y-114801770D01*
X138350629Y-114885315D01*
X138293965Y-115011039D01*
X138256471Y-115108933D01*
X138210558Y-115197985D01*
X138156262Y-115278999D01*
X138093381Y-115352613D01*
X138023955Y-115416021D01*
X137954172Y-115463073D01*
X137883460Y-115495629D01*
X137811010Y-115514886D01*
X137735809Y-115521323D01*
X137658534Y-115514898D01*
X137584019Y-115495684D01*
X137511289Y-115463255D01*
X137443367Y-115419481D01*
X137385658Y-115366629D01*
X137337266Y-115304069D01*
X137307171Y-115246816D01*
X137284079Y-115176357D01*
X137269018Y-115090108D01*
X137263565Y-114985088D01*
X137263612Y-114984355D01*
X137447236Y-114984355D01*
X137452965Y-115083001D01*
X137467622Y-115150966D01*
X137488269Y-115196114D01*
X137517166Y-115233671D01*
X137552281Y-115265786D01*
X137594270Y-115292773D01*
X137640032Y-115312880D01*
X137686347Y-115324733D01*
X137733794Y-115328677D01*
X137796716Y-115321491D01*
X137856367Y-115299913D01*
X137914147Y-115262788D01*
X137970968Y-115207576D01*
X138027191Y-115130535D01*
X138072380Y-115044517D01*
X138158471Y-114846358D01*
X137481430Y-114846358D01*
X137466654Y-114874512D01*
X137455785Y-114907480D01*
X137449471Y-114943083D01*
X137447236Y-114984355D01*
X137263612Y-114984355D01*
X137266885Y-114933622D01*
X137277915Y-114870294D01*
X137299641Y-114796749D01*
X137324321Y-114746646D01*
X137331643Y-114709370D01*
X137351920Y-114678991D01*
X137381736Y-114658513D01*
X137417133Y-114651697D01*
X137621809Y-114658169D01*
G37*
G36*
X137709112Y-115607417D02*
G01*
X137769001Y-115621914D01*
X137824908Y-115645846D01*
X137877549Y-115679599D01*
X137927418Y-115724045D01*
X137979320Y-115788425D01*
X138015702Y-115857561D01*
X138037644Y-115932583D01*
X138045143Y-116015060D01*
X138041550Y-116057655D01*
X138029871Y-116107289D01*
X138008445Y-116165331D01*
X137981596Y-116216538D01*
X137955861Y-116247310D01*
X137930989Y-116263427D01*
X137905863Y-116268462D01*
X137882879Y-116264524D01*
X137863060Y-116252770D01*
X137794733Y-116242145D01*
X137698623Y-116238420D01*
X137577919Y-116243990D01*
X137511777Y-116256861D01*
X137441069Y-116288307D01*
X137374513Y-116314929D01*
X137341602Y-116308036D01*
X137314734Y-116287269D01*
X137296862Y-116257439D01*
X137290921Y-116223399D01*
X137295410Y-116203583D01*
X137312943Y-116172187D01*
X137351676Y-116123687D01*
X137324357Y-116062224D01*
X137306308Y-116012984D01*
X137294364Y-115966583D01*
X137290921Y-115931712D01*
X137291610Y-115922797D01*
X137455052Y-115922797D01*
X137458603Y-115964287D01*
X137469096Y-116003092D01*
X137486301Y-116039608D01*
X137510495Y-116074472D01*
X137663369Y-116058235D01*
X137754310Y-116053956D01*
X137804624Y-116057009D01*
X137868005Y-116066290D01*
X137877897Y-116041988D01*
X137881011Y-116023914D01*
X137876503Y-115979176D01*
X137863161Y-115937705D01*
X137840686Y-115898619D01*
X137808044Y-115861309D01*
X137769416Y-115830339D01*
X137728849Y-115808831D01*
X137685743Y-115795988D01*
X137639272Y-115791639D01*
X137578647Y-115795960D01*
X137533854Y-115807422D01*
X137501275Y-115824429D01*
X137475953Y-115849428D01*
X137460552Y-115881457D01*
X137455052Y-115922797D01*
X137291610Y-115922797D01*
X137297279Y-115849393D01*
X137314905Y-115782649D01*
X137342395Y-115728526D01*
X137379459Y-115684783D01*
X137425637Y-115650807D01*
X137483385Y-115625158D01*
X137555235Y-115608514D01*
X137644340Y-115602473D01*
X137709112Y-115607417D01*
G37*
G36*
X137380680Y-116778380D02*
G01*
X137349404Y-116769589D01*
X137324565Y-116750353D01*
X137308259Y-116723262D01*
X137302644Y-116689598D01*
X137307105Y-116657581D01*
X137319903Y-116631424D01*
X137341464Y-116609673D01*
X137373841Y-116591901D01*
X137925647Y-116365732D01*
X137946122Y-116358988D01*
X137964665Y-116356878D01*
X137998536Y-116364181D01*
X138027252Y-116386554D01*
X138046575Y-116418541D01*
X138052958Y-116454575D01*
X138046830Y-116490325D01*
X138029293Y-116517639D01*
X137998859Y-116538595D01*
X137888515Y-116584985D01*
X137611367Y-116690270D01*
X137847001Y-116789982D01*
X137994279Y-116849394D01*
X138025363Y-116871942D01*
X138043005Y-116899596D01*
X138049050Y-116934085D01*
X138042746Y-116970135D01*
X138023710Y-117002046D01*
X138005183Y-117018742D01*
X137984457Y-117028473D01*
X137960696Y-117031782D01*
X137913074Y-117017008D01*
X137689525Y-116921140D01*
X137380680Y-116778380D01*
G37*
G36*
X138150655Y-117247265D02*
G01*
X138158034Y-117206434D01*
X138180148Y-117171428D01*
X138201539Y-117153431D01*
X138225281Y-117142893D01*
X138252260Y-117139310D01*
X138279238Y-117142895D01*
X138302959Y-117153433D01*
X138324312Y-117171428D01*
X138340794Y-117194245D01*
X138350546Y-117219265D01*
X138353866Y-117247265D01*
X138350539Y-117275255D01*
X138340781Y-117300147D01*
X138324312Y-117322736D01*
X138302985Y-117340509D01*
X138279263Y-117350937D01*
X138252260Y-117354488D01*
X138225256Y-117350939D01*
X138201512Y-117340511D01*
X138180148Y-117322736D01*
X138163715Y-117300151D01*
X138153976Y-117275259D01*
X138150655Y-117247265D01*
G37*
G36*
X137650568Y-117305334D02*
G01*
X137525821Y-117307715D01*
X137401074Y-117310097D01*
X137364768Y-117303311D01*
X137335983Y-117283413D01*
X137317015Y-117253661D01*
X137310460Y-117215819D01*
X137317013Y-117177967D01*
X137335983Y-117148164D01*
X137364763Y-117128314D01*
X137401074Y-117121541D01*
X137525821Y-117119160D01*
X137650568Y-117116779D01*
X137802487Y-117123617D01*
X137954528Y-117130456D01*
X137990829Y-117137231D01*
X138019558Y-117157079D01*
X138038576Y-117186887D01*
X138045143Y-117224734D01*
X138038574Y-117262571D01*
X138019558Y-117292328D01*
X137990824Y-117312223D01*
X137954528Y-117319012D01*
X137802487Y-117312173D01*
X137650568Y-117305334D01*
G37*
G36*
X137741797Y-117454120D02*
G01*
X137820301Y-117474230D01*
X137888359Y-117506461D01*
X137947629Y-117550859D01*
X137988221Y-117594765D01*
X138019500Y-117643084D01*
X138042053Y-117696439D01*
X138055958Y-117755732D01*
X138060774Y-117822091D01*
X138057896Y-117871793D01*
X138049844Y-117913621D01*
X138035915Y-117951754D01*
X138017055Y-117983291D01*
X138232424Y-117994273D01*
X138339516Y-118004479D01*
X138376335Y-118015076D01*
X138400453Y-118032862D01*
X138415008Y-118058050D01*
X138420300Y-118093262D01*
X138413540Y-118130117D01*
X138394043Y-118158169D01*
X138365079Y-118176539D01*
X138329808Y-118182777D01*
X138217375Y-118179542D01*
X138031465Y-118167389D01*
X137845556Y-118155284D01*
X137733122Y-118152063D01*
X137508671Y-118157060D01*
X137405776Y-118167756D01*
X137385748Y-118169832D01*
X137351003Y-118162932D01*
X137323283Y-118142476D01*
X137304852Y-118112898D01*
X137298736Y-118078973D01*
X137303833Y-118047922D01*
X137318506Y-118023413D01*
X137343860Y-118003808D01*
X137320550Y-117956129D01*
X137307285Y-117907515D01*
X137300900Y-117857098D01*
X137298736Y-117804322D01*
X137474591Y-117804322D01*
X137478154Y-117853582D01*
X137486926Y-117884251D01*
X137499337Y-117905293D01*
X137530828Y-117947143D01*
X137552077Y-117969675D01*
X137803098Y-117969675D01*
X137841436Y-117943172D01*
X137867578Y-117910934D01*
X137883282Y-117872237D01*
X137888827Y-117824839D01*
X137884670Y-117774592D01*
X137873099Y-117733690D01*
X137854918Y-117700321D01*
X137830148Y-117673164D01*
X137788075Y-117646633D01*
X137730984Y-117629135D01*
X137654293Y-117622606D01*
X137607206Y-117628697D01*
X137565399Y-117646641D01*
X137527409Y-117677255D01*
X137497744Y-117716218D01*
X137480427Y-117758141D01*
X137474591Y-117804322D01*
X137298736Y-117804322D01*
X137305161Y-117729277D01*
X137323710Y-117662901D01*
X137353979Y-117603596D01*
X137396495Y-117550188D01*
X137449568Y-117505224D01*
X137508722Y-117473332D01*
X137575187Y-117453819D01*
X137650690Y-117447056D01*
X137741797Y-117454120D01*
G37*
X102478780Y-107240149D02*
X102478780Y-107430625D01*
X102478780Y-107430625D02*
X102431161Y-107525863D01*
X102431161Y-107525863D02*
X102335923Y-107621101D01*
X102335923Y-107621101D02*
X102145447Y-107668720D01*
X102145447Y-107668720D02*
X101812114Y-107668720D01*
X101812114Y-107668720D02*
X101621638Y-107621101D01*
X101621638Y-107621101D02*
X101526400Y-107525863D01*
X101526400Y-107525863D02*
X101478780Y-107430625D01*
X101478780Y-107430625D02*
X101478780Y-107240149D01*
X101478780Y-107240149D02*
X101526400Y-107144911D01*
X101526400Y-107144911D02*
X101621638Y-107049673D01*
X101621638Y-107049673D02*
X101812114Y-107002054D01*
X101812114Y-107002054D02*
X102145447Y-107002054D01*
X102145447Y-107002054D02*
X102335923Y-107049673D01*
X102335923Y-107049673D02*
X102431161Y-107144911D01*
X102431161Y-107144911D02*
X102478780Y-107240149D01*
X102002590Y-108430625D02*
X102002590Y-108097292D01*
X101478780Y-108097292D02*
X102478780Y-108097292D01*
X102478780Y-108097292D02*
X102478780Y-108573482D01*
X102002590Y-109287768D02*
X102002590Y-108954435D01*
X101478780Y-108954435D02*
X102478780Y-108954435D01*
X102478780Y-108954435D02*
X102478780Y-109430625D01*
X102732780Y-111812149D02*
X102732780Y-112002625D01*
X102732780Y-112002625D02*
X102685161Y-112097863D01*
X102685161Y-112097863D02*
X102589923Y-112193101D01*
X102589923Y-112193101D02*
X102399447Y-112240720D01*
X102399447Y-112240720D02*
X102066114Y-112240720D01*
X102066114Y-112240720D02*
X101875638Y-112193101D01*
X101875638Y-112193101D02*
X101780400Y-112097863D01*
X101780400Y-112097863D02*
X101732780Y-112002625D01*
X101732780Y-112002625D02*
X101732780Y-111812149D01*
X101732780Y-111812149D02*
X101780400Y-111716911D01*
X101780400Y-111716911D02*
X101875638Y-111621673D01*
X101875638Y-111621673D02*
X102066114Y-111574054D01*
X102066114Y-111574054D02*
X102399447Y-111574054D01*
X102399447Y-111574054D02*
X102589923Y-111621673D01*
X102589923Y-111621673D02*
X102685161Y-111716911D01*
X102685161Y-111716911D02*
X102732780Y-111812149D01*
X101732780Y-112669292D02*
X102732780Y-112669292D01*
X102732780Y-112669292D02*
X101732780Y-113240720D01*
X101732780Y-113240720D02*
X102732780Y-113240720D01*
D11*
X105247928Y-73088995D02*
X105176500Y-73017567D01*
X105176500Y-73017567D02*
X105105071Y-72803281D01*
X105105071Y-72803281D02*
X105105071Y-72660424D01*
X105105071Y-72660424D02*
X105176500Y-72446138D01*
X105176500Y-72446138D02*
X105319357Y-72303281D01*
X105319357Y-72303281D02*
X105462214Y-72231852D01*
X105462214Y-72231852D02*
X105747928Y-72160424D01*
X105747928Y-72160424D02*
X105962214Y-72160424D01*
X105962214Y-72160424D02*
X106247928Y-72231852D01*
X106247928Y-72231852D02*
X106390785Y-72303281D01*
X106390785Y-72303281D02*
X106533642Y-72446138D01*
X106533642Y-72446138D02*
X106605071Y-72660424D01*
X106605071Y-72660424D02*
X106605071Y-72803281D01*
X106605071Y-72803281D02*
X106533642Y-73017567D01*
X106533642Y-73017567D02*
X106462214Y-73088995D01*
X105676500Y-73731852D02*
X105676500Y-74874710D01*
X105105071Y-74303281D02*
X106247928Y-74303281D01*
X105676500Y-75588995D02*
X105676500Y-76731853D01*
X105105071Y-76160424D02*
X106247928Y-76160424D01*
X105247928Y-77660424D02*
X105176500Y-77731853D01*
X105176500Y-77731853D02*
X105105071Y-77660424D01*
X105105071Y-77660424D02*
X105176500Y-77588996D01*
X105176500Y-77588996D02*
X105247928Y-77660424D01*
X105247928Y-77660424D02*
X105105071Y-77660424D01*
X106533642Y-77374710D02*
X106605071Y-77517567D01*
X106605071Y-77517567D02*
X106605071Y-77874710D01*
X106605071Y-77874710D02*
X106533642Y-78017567D01*
X106533642Y-78017567D02*
X106390785Y-78088996D01*
X106390785Y-78088996D02*
X106247928Y-78088996D01*
X106247928Y-78088996D02*
X106105071Y-78017567D01*
X106105071Y-78017567D02*
X106033642Y-77946138D01*
X106033642Y-77946138D02*
X105962214Y-77803281D01*
X105962214Y-77803281D02*
X105890785Y-77731853D01*
X105890785Y-77731853D02*
X105747928Y-77660424D01*
X105747928Y-77660424D02*
X105676500Y-77660424D01*
X105105071Y-79874709D02*
X106605071Y-79874709D01*
X105105071Y-81731852D02*
X106605071Y-81731852D01*
X105105071Y-82374710D02*
X105890785Y-82374710D01*
X105890785Y-82374710D02*
X106033642Y-82303281D01*
X106033642Y-82303281D02*
X106105071Y-82160424D01*
X106105071Y-82160424D02*
X106105071Y-81946138D01*
X106105071Y-81946138D02*
X106033642Y-81803281D01*
X106033642Y-81803281D02*
X105962214Y-81731852D01*
X105105071Y-83731853D02*
X105890785Y-83731853D01*
X105890785Y-83731853D02*
X106033642Y-83660424D01*
X106033642Y-83660424D02*
X106105071Y-83517567D01*
X106105071Y-83517567D02*
X106105071Y-83231853D01*
X106105071Y-83231853D02*
X106033642Y-83088995D01*
X105176500Y-83731853D02*
X105105071Y-83588995D01*
X105105071Y-83588995D02*
X105105071Y-83231853D01*
X105105071Y-83231853D02*
X105176500Y-83088995D01*
X105176500Y-83088995D02*
X105319357Y-83017567D01*
X105319357Y-83017567D02*
X105462214Y-83017567D01*
X105462214Y-83017567D02*
X105605071Y-83088995D01*
X105605071Y-83088995D02*
X105676500Y-83231853D01*
X105676500Y-83231853D02*
X105676500Y-83588995D01*
X105676500Y-83588995D02*
X105747928Y-83731853D01*
X105105071Y-84446138D02*
X106105071Y-84446138D01*
X105819357Y-84446138D02*
X105962214Y-84517567D01*
X105962214Y-84517567D02*
X106033642Y-84588996D01*
X106033642Y-84588996D02*
X106105071Y-84731853D01*
X106105071Y-84731853D02*
X106105071Y-84874710D01*
X105105071Y-86017567D02*
X106605071Y-86017567D01*
X105176500Y-86017567D02*
X105105071Y-85874709D01*
X105105071Y-85874709D02*
X105105071Y-85588995D01*
X105105071Y-85588995D02*
X105176500Y-85446138D01*
X105176500Y-85446138D02*
X105247928Y-85374709D01*
X105247928Y-85374709D02*
X105390785Y-85303281D01*
X105390785Y-85303281D02*
X105819357Y-85303281D01*
X105819357Y-85303281D02*
X105962214Y-85374709D01*
X105962214Y-85374709D02*
X106033642Y-85446138D01*
X106033642Y-85446138D02*
X106105071Y-85588995D01*
X106105071Y-85588995D02*
X106105071Y-85874709D01*
X106105071Y-85874709D02*
X106033642Y-86017567D01*
X105105071Y-86946138D02*
X105176500Y-86803281D01*
X105176500Y-86803281D02*
X105319357Y-86731852D01*
X105319357Y-86731852D02*
X106605071Y-86731852D01*
X106105071Y-87374709D02*
X105105071Y-87731852D01*
X106105071Y-88088995D02*
X105105071Y-87731852D01*
X105105071Y-87731852D02*
X104747928Y-87588995D01*
X104747928Y-87588995D02*
X104676500Y-87517566D01*
X104676500Y-87517566D02*
X104605071Y-87374709D01*
X105105071Y-89803280D02*
X106605071Y-89803280D01*
X105676500Y-89946138D02*
X105105071Y-90374709D01*
X106105071Y-90374709D02*
X105533642Y-89803280D01*
X106105071Y-91017566D02*
X105105071Y-91017566D01*
X105962214Y-91017566D02*
X106033642Y-91088995D01*
X106033642Y-91088995D02*
X106105071Y-91231852D01*
X106105071Y-91231852D02*
X106105071Y-91446138D01*
X106105071Y-91446138D02*
X106033642Y-91588995D01*
X106033642Y-91588995D02*
X105890785Y-91660424D01*
X105890785Y-91660424D02*
X105105071Y-91660424D01*
X105105071Y-92588995D02*
X105176500Y-92446138D01*
X105176500Y-92446138D02*
X105247928Y-92374709D01*
X105247928Y-92374709D02*
X105390785Y-92303281D01*
X105390785Y-92303281D02*
X105819357Y-92303281D01*
X105819357Y-92303281D02*
X105962214Y-92374709D01*
X105962214Y-92374709D02*
X106033642Y-92446138D01*
X106033642Y-92446138D02*
X106105071Y-92588995D01*
X106105071Y-92588995D02*
X106105071Y-92803281D01*
X106105071Y-92803281D02*
X106033642Y-92946138D01*
X106033642Y-92946138D02*
X105962214Y-93017567D01*
X105962214Y-93017567D02*
X105819357Y-93088995D01*
X105819357Y-93088995D02*
X105390785Y-93088995D01*
X105390785Y-93088995D02*
X105247928Y-93017567D01*
X105247928Y-93017567D02*
X105176500Y-92946138D01*
X105176500Y-92946138D02*
X105105071Y-92803281D01*
X105105071Y-92803281D02*
X105105071Y-92588995D01*
X106105071Y-93588995D02*
X105105071Y-93874710D01*
X105105071Y-93874710D02*
X105819357Y-94160424D01*
X105819357Y-94160424D02*
X105105071Y-94446138D01*
X105105071Y-94446138D02*
X106105071Y-94731852D01*
X105105071Y-96446138D02*
X106605071Y-96446138D01*
X105105071Y-97088996D02*
X105890785Y-97088996D01*
X105890785Y-97088996D02*
X106033642Y-97017567D01*
X106033642Y-97017567D02*
X106105071Y-96874710D01*
X106105071Y-96874710D02*
X106105071Y-96660424D01*
X106105071Y-96660424D02*
X106033642Y-96517567D01*
X106033642Y-96517567D02*
X105962214Y-96446138D01*
X105176500Y-98374710D02*
X105105071Y-98231853D01*
X105105071Y-98231853D02*
X105105071Y-97946139D01*
X105105071Y-97946139D02*
X105176500Y-97803281D01*
X105176500Y-97803281D02*
X105319357Y-97731853D01*
X105319357Y-97731853D02*
X105890785Y-97731853D01*
X105890785Y-97731853D02*
X106033642Y-97803281D01*
X106033642Y-97803281D02*
X106105071Y-97946139D01*
X106105071Y-97946139D02*
X106105071Y-98231853D01*
X106105071Y-98231853D02*
X106033642Y-98374710D01*
X106033642Y-98374710D02*
X105890785Y-98446139D01*
X105890785Y-98446139D02*
X105747928Y-98446139D01*
X105747928Y-98446139D02*
X105605071Y-97731853D01*
X105105071Y-99088995D02*
X106105071Y-99088995D01*
X105819357Y-99088995D02*
X105962214Y-99160424D01*
X105962214Y-99160424D02*
X106033642Y-99231853D01*
X106033642Y-99231853D02*
X106105071Y-99374710D01*
X106105071Y-99374710D02*
X106105071Y-99517567D01*
D12*
X134779048Y-108912819D02*
X134779048Y-107912819D01*
X134779048Y-107912819D02*
X135017143Y-107912819D01*
X135017143Y-107912819D02*
X135160000Y-107960438D01*
X135160000Y-107960438D02*
X135255238Y-108055676D01*
X135255238Y-108055676D02*
X135302857Y-108150914D01*
X135302857Y-108150914D02*
X135350476Y-108341390D01*
X135350476Y-108341390D02*
X135350476Y-108484247D01*
X135350476Y-108484247D02*
X135302857Y-108674723D01*
X135302857Y-108674723D02*
X135255238Y-108769961D01*
X135255238Y-108769961D02*
X135160000Y-108865200D01*
X135160000Y-108865200D02*
X135017143Y-108912819D01*
X135017143Y-108912819D02*
X134779048Y-108912819D01*
X136350476Y-108817580D02*
X136302857Y-108865200D01*
X136302857Y-108865200D02*
X136160000Y-108912819D01*
X136160000Y-108912819D02*
X136064762Y-108912819D01*
X136064762Y-108912819D02*
X135921905Y-108865200D01*
X135921905Y-108865200D02*
X135826667Y-108769961D01*
X135826667Y-108769961D02*
X135779048Y-108674723D01*
X135779048Y-108674723D02*
X135731429Y-108484247D01*
X135731429Y-108484247D02*
X135731429Y-108341390D01*
X135731429Y-108341390D02*
X135779048Y-108150914D01*
X135779048Y-108150914D02*
X135826667Y-108055676D01*
X135826667Y-108055676D02*
X135921905Y-107960438D01*
X135921905Y-107960438D02*
X136064762Y-107912819D01*
X136064762Y-107912819D02*
X136160000Y-107912819D01*
X136160000Y-107912819D02*
X136302857Y-107960438D01*
X136302857Y-107960438D02*
X136350476Y-108008057D01*
X136779048Y-108531866D02*
X137540953Y-108531866D01*
X138017143Y-108912819D02*
X138017143Y-107912819D01*
X138017143Y-107912819D02*
X138255238Y-107912819D01*
X138255238Y-107912819D02*
X138398095Y-107960438D01*
X138398095Y-107960438D02*
X138493333Y-108055676D01*
X138493333Y-108055676D02*
X138540952Y-108150914D01*
X138540952Y-108150914D02*
X138588571Y-108341390D01*
X138588571Y-108341390D02*
X138588571Y-108484247D01*
X138588571Y-108484247D02*
X138540952Y-108674723D01*
X138540952Y-108674723D02*
X138493333Y-108769961D01*
X138493333Y-108769961D02*
X138398095Y-108865200D01*
X138398095Y-108865200D02*
X138255238Y-108912819D01*
X138255238Y-108912819D02*
X138017143Y-108912819D01*
X139588571Y-108817580D02*
X139540952Y-108865200D01*
X139540952Y-108865200D02*
X139398095Y-108912819D01*
X139398095Y-108912819D02*
X139302857Y-108912819D01*
X139302857Y-108912819D02*
X139160000Y-108865200D01*
X139160000Y-108865200D02*
X139064762Y-108769961D01*
X139064762Y-108769961D02*
X139017143Y-108674723D01*
X139017143Y-108674723D02*
X138969524Y-108484247D01*
X138969524Y-108484247D02*
X138969524Y-108341390D01*
X138969524Y-108341390D02*
X139017143Y-108150914D01*
X139017143Y-108150914D02*
X139064762Y-108055676D01*
X139064762Y-108055676D02*
X139160000Y-107960438D01*
X139160000Y-107960438D02*
X139302857Y-107912819D01*
X139302857Y-107912819D02*
X139398095Y-107912819D01*
X139398095Y-107912819D02*
X139540952Y-107960438D01*
X139540952Y-107960438D02*
X139588571Y-108008057D01*
X167539200Y-79374476D02*
X167586819Y-79231619D01*
X167586819Y-79231619D02*
X167586819Y-78993524D01*
X167586819Y-78993524D02*
X167539200Y-78898286D01*
X167539200Y-78898286D02*
X167491580Y-78850667D01*
X167491580Y-78850667D02*
X167396342Y-78803048D01*
X167396342Y-78803048D02*
X167301104Y-78803048D01*
X167301104Y-78803048D02*
X167205866Y-78850667D01*
X167205866Y-78850667D02*
X167158247Y-78898286D01*
X167158247Y-78898286D02*
X167110628Y-78993524D01*
X167110628Y-78993524D02*
X167063009Y-79184000D01*
X167063009Y-79184000D02*
X167015390Y-79279238D01*
X167015390Y-79279238D02*
X166967771Y-79326857D01*
X166967771Y-79326857D02*
X166872533Y-79374476D01*
X166872533Y-79374476D02*
X166777295Y-79374476D01*
X166777295Y-79374476D02*
X166682057Y-79326857D01*
X166682057Y-79326857D02*
X166634438Y-79279238D01*
X166634438Y-79279238D02*
X166586819Y-79184000D01*
X166586819Y-79184000D02*
X166586819Y-78945905D01*
X166586819Y-78945905D02*
X166634438Y-78803048D01*
X166920152Y-78517333D02*
X166920152Y-78136381D01*
X166586819Y-78374476D02*
X167443961Y-78374476D01*
X167443961Y-78374476D02*
X167539200Y-78326857D01*
X167539200Y-78326857D02*
X167586819Y-78231619D01*
X167586819Y-78231619D02*
X167586819Y-78136381D01*
X167586819Y-77374476D02*
X167063009Y-77374476D01*
X167063009Y-77374476D02*
X166967771Y-77422095D01*
X166967771Y-77422095D02*
X166920152Y-77517333D01*
X166920152Y-77517333D02*
X166920152Y-77707809D01*
X166920152Y-77707809D02*
X166967771Y-77803047D01*
X167539200Y-77374476D02*
X167586819Y-77469714D01*
X167586819Y-77469714D02*
X167586819Y-77707809D01*
X167586819Y-77707809D02*
X167539200Y-77803047D01*
X167539200Y-77803047D02*
X167443961Y-77850666D01*
X167443961Y-77850666D02*
X167348723Y-77850666D01*
X167348723Y-77850666D02*
X167253485Y-77803047D01*
X167253485Y-77803047D02*
X167205866Y-77707809D01*
X167205866Y-77707809D02*
X167205866Y-77469714D01*
X167205866Y-77469714D02*
X167158247Y-77374476D01*
X167586819Y-76898285D02*
X166920152Y-76898285D01*
X167110628Y-76898285D02*
X167015390Y-76850666D01*
X167015390Y-76850666D02*
X166967771Y-76803047D01*
X166967771Y-76803047D02*
X166920152Y-76707809D01*
X166920152Y-76707809D02*
X166920152Y-76612571D01*
X166920152Y-76422094D02*
X166920152Y-76041142D01*
X166586819Y-76279237D02*
X167443961Y-76279237D01*
X167443961Y-76279237D02*
X167539200Y-76231618D01*
X167539200Y-76231618D02*
X167586819Y-76136380D01*
X167586819Y-76136380D02*
X167586819Y-76041142D01*
X167586819Y-74945903D02*
X166586819Y-74945903D01*
X166586819Y-74945903D02*
X167301104Y-74612570D01*
X167301104Y-74612570D02*
X166586819Y-74279237D01*
X166586819Y-74279237D02*
X167586819Y-74279237D01*
X167586819Y-73660189D02*
X167539200Y-73755427D01*
X167539200Y-73755427D02*
X167491580Y-73803046D01*
X167491580Y-73803046D02*
X167396342Y-73850665D01*
X167396342Y-73850665D02*
X167110628Y-73850665D01*
X167110628Y-73850665D02*
X167015390Y-73803046D01*
X167015390Y-73803046D02*
X166967771Y-73755427D01*
X166967771Y-73755427D02*
X166920152Y-73660189D01*
X166920152Y-73660189D02*
X166920152Y-73517332D01*
X166920152Y-73517332D02*
X166967771Y-73422094D01*
X166967771Y-73422094D02*
X167015390Y-73374475D01*
X167015390Y-73374475D02*
X167110628Y-73326856D01*
X167110628Y-73326856D02*
X167396342Y-73326856D01*
X167396342Y-73326856D02*
X167491580Y-73374475D01*
X167491580Y-73374475D02*
X167539200Y-73422094D01*
X167539200Y-73422094D02*
X167586819Y-73517332D01*
X167586819Y-73517332D02*
X167586819Y-73660189D01*
X167586819Y-72469713D02*
X166586819Y-72469713D01*
X167539200Y-72469713D02*
X167586819Y-72564951D01*
X167586819Y-72564951D02*
X167586819Y-72755427D01*
X167586819Y-72755427D02*
X167539200Y-72850665D01*
X167539200Y-72850665D02*
X167491580Y-72898284D01*
X167491580Y-72898284D02*
X167396342Y-72945903D01*
X167396342Y-72945903D02*
X167110628Y-72945903D01*
X167110628Y-72945903D02*
X167015390Y-72898284D01*
X167015390Y-72898284D02*
X166967771Y-72850665D01*
X166967771Y-72850665D02*
X166920152Y-72755427D01*
X166920152Y-72755427D02*
X166920152Y-72564951D01*
X166920152Y-72564951D02*
X166967771Y-72469713D01*
X166920152Y-71564951D02*
X167586819Y-71564951D01*
X166920152Y-71993522D02*
X167443961Y-71993522D01*
X167443961Y-71993522D02*
X167539200Y-71945903D01*
X167539200Y-71945903D02*
X167586819Y-71850665D01*
X167586819Y-71850665D02*
X167586819Y-71707808D01*
X167586819Y-71707808D02*
X167539200Y-71612570D01*
X167539200Y-71612570D02*
X167491580Y-71564951D01*
X167586819Y-70945903D02*
X167539200Y-71041141D01*
X167539200Y-71041141D02*
X167443961Y-71088760D01*
X167443961Y-71088760D02*
X166586819Y-71088760D01*
X130471104Y-83343142D02*
X130471104Y-82866952D01*
X130756819Y-83438380D02*
X129756819Y-83105047D01*
X129756819Y-83105047D02*
X130756819Y-82771714D01*
X130756819Y-82438380D02*
X130090152Y-82438380D01*
X130280628Y-82438380D02*
X130185390Y-82390761D01*
X130185390Y-82390761D02*
X130137771Y-82343142D01*
X130137771Y-82343142D02*
X130090152Y-82247904D01*
X130090152Y-82247904D02*
X130090152Y-82152666D01*
X130756819Y-81390761D02*
X129756819Y-81390761D01*
X130709200Y-81390761D02*
X130756819Y-81485999D01*
X130756819Y-81485999D02*
X130756819Y-81676475D01*
X130756819Y-81676475D02*
X130709200Y-81771713D01*
X130709200Y-81771713D02*
X130661580Y-81819332D01*
X130661580Y-81819332D02*
X130566342Y-81866951D01*
X130566342Y-81866951D02*
X130280628Y-81866951D01*
X130280628Y-81866951D02*
X130185390Y-81819332D01*
X130185390Y-81819332D02*
X130137771Y-81771713D01*
X130137771Y-81771713D02*
X130090152Y-81676475D01*
X130090152Y-81676475D02*
X130090152Y-81485999D01*
X130090152Y-81485999D02*
X130137771Y-81390761D01*
X130090152Y-80485999D02*
X130756819Y-80485999D01*
X130090152Y-80914570D02*
X130613961Y-80914570D01*
X130613961Y-80914570D02*
X130709200Y-80866951D01*
X130709200Y-80866951D02*
X130756819Y-80771713D01*
X130756819Y-80771713D02*
X130756819Y-80628856D01*
X130756819Y-80628856D02*
X130709200Y-80533618D01*
X130709200Y-80533618D02*
X130661580Y-80485999D01*
X130756819Y-80009808D02*
X130090152Y-80009808D01*
X129756819Y-80009808D02*
X129804438Y-80057427D01*
X129804438Y-80057427D02*
X129852057Y-80009808D01*
X129852057Y-80009808D02*
X129804438Y-79962189D01*
X129804438Y-79962189D02*
X129756819Y-80009808D01*
X129756819Y-80009808D02*
X129852057Y-80009808D01*
X130090152Y-79533618D02*
X130756819Y-79533618D01*
X130185390Y-79533618D02*
X130137771Y-79485999D01*
X130137771Y-79485999D02*
X130090152Y-79390761D01*
X130090152Y-79390761D02*
X130090152Y-79247904D01*
X130090152Y-79247904D02*
X130137771Y-79152666D01*
X130137771Y-79152666D02*
X130233009Y-79105047D01*
X130233009Y-79105047D02*
X130756819Y-79105047D01*
X130756819Y-78485999D02*
X130709200Y-78581237D01*
X130709200Y-78581237D02*
X130661580Y-78628856D01*
X130661580Y-78628856D02*
X130566342Y-78676475D01*
X130566342Y-78676475D02*
X130280628Y-78676475D01*
X130280628Y-78676475D02*
X130185390Y-78628856D01*
X130185390Y-78628856D02*
X130137771Y-78581237D01*
X130137771Y-78581237D02*
X130090152Y-78485999D01*
X130090152Y-78485999D02*
X130090152Y-78343142D01*
X130090152Y-78343142D02*
X130137771Y-78247904D01*
X130137771Y-78247904D02*
X130185390Y-78200285D01*
X130185390Y-78200285D02*
X130280628Y-78152666D01*
X130280628Y-78152666D02*
X130566342Y-78152666D01*
X130566342Y-78152666D02*
X130661580Y-78200285D01*
X130661580Y-78200285D02*
X130709200Y-78247904D01*
X130709200Y-78247904D02*
X130756819Y-78343142D01*
X130756819Y-78343142D02*
X130756819Y-78485999D01*
X130756819Y-76962189D02*
X129756819Y-76962189D01*
X129756819Y-76962189D02*
X130756819Y-76390761D01*
X130756819Y-76390761D02*
X129756819Y-76390761D01*
X130756819Y-75485999D02*
X130233009Y-75485999D01*
X130233009Y-75485999D02*
X130137771Y-75533618D01*
X130137771Y-75533618D02*
X130090152Y-75628856D01*
X130090152Y-75628856D02*
X130090152Y-75819332D01*
X130090152Y-75819332D02*
X130137771Y-75914570D01*
X130709200Y-75485999D02*
X130756819Y-75581237D01*
X130756819Y-75581237D02*
X130756819Y-75819332D01*
X130756819Y-75819332D02*
X130709200Y-75914570D01*
X130709200Y-75914570D02*
X130613961Y-75962189D01*
X130613961Y-75962189D02*
X130518723Y-75962189D01*
X130518723Y-75962189D02*
X130423485Y-75914570D01*
X130423485Y-75914570D02*
X130375866Y-75819332D01*
X130375866Y-75819332D02*
X130375866Y-75581237D01*
X130375866Y-75581237D02*
X130328247Y-75485999D01*
X130090152Y-75009808D02*
X130756819Y-75009808D01*
X130185390Y-75009808D02*
X130137771Y-74962189D01*
X130137771Y-74962189D02*
X130090152Y-74866951D01*
X130090152Y-74866951D02*
X130090152Y-74724094D01*
X130090152Y-74724094D02*
X130137771Y-74628856D01*
X130137771Y-74628856D02*
X130233009Y-74581237D01*
X130233009Y-74581237D02*
X130756819Y-74581237D01*
X130756819Y-73962189D02*
X130709200Y-74057427D01*
X130709200Y-74057427D02*
X130661580Y-74105046D01*
X130661580Y-74105046D02*
X130566342Y-74152665D01*
X130566342Y-74152665D02*
X130280628Y-74152665D01*
X130280628Y-74152665D02*
X130185390Y-74105046D01*
X130185390Y-74105046D02*
X130137771Y-74057427D01*
X130137771Y-74057427D02*
X130090152Y-73962189D01*
X130090152Y-73962189D02*
X130090152Y-73819332D01*
X130090152Y-73819332D02*
X130137771Y-73724094D01*
X130137771Y-73724094D02*
X130185390Y-73676475D01*
X130185390Y-73676475D02*
X130280628Y-73628856D01*
X130280628Y-73628856D02*
X130566342Y-73628856D01*
X130566342Y-73628856D02*
X130661580Y-73676475D01*
X130661580Y-73676475D02*
X130709200Y-73724094D01*
X130709200Y-73724094D02*
X130756819Y-73819332D01*
X130756819Y-73819332D02*
X130756819Y-73962189D01*
X185834556Y-120370654D02*
X185497838Y-120707372D01*
X185497838Y-120707372D02*
X184790732Y-120000265D01*
X186070258Y-120134952D02*
X185598854Y-119663547D01*
X185363151Y-119427845D02*
X185363151Y-119495189D01*
X185363151Y-119495189D02*
X185430495Y-119495189D01*
X185430495Y-119495189D02*
X185430495Y-119427845D01*
X185430495Y-119427845D02*
X185363151Y-119427845D01*
X185363151Y-119427845D02*
X185430495Y-119495189D01*
X186710021Y-119495189D02*
X186002914Y-118788082D01*
X186676349Y-119461517D02*
X186642678Y-119562533D01*
X186642678Y-119562533D02*
X186507991Y-119697220D01*
X186507991Y-119697220D02*
X186406975Y-119730891D01*
X186406975Y-119730891D02*
X186339632Y-119730891D01*
X186339632Y-119730891D02*
X186238617Y-119697220D01*
X186238617Y-119697220D02*
X186036586Y-119495189D01*
X186036586Y-119495189D02*
X186002914Y-119394174D01*
X186002914Y-119394174D02*
X186002914Y-119326830D01*
X186002914Y-119326830D02*
X186036586Y-119225815D01*
X186036586Y-119225815D02*
X186171273Y-119091128D01*
X186171273Y-119091128D02*
X186272288Y-119057456D01*
X187349785Y-118855426D02*
X186979395Y-118485036D01*
X186979395Y-118485036D02*
X186878380Y-118451365D01*
X186878380Y-118451365D02*
X186777365Y-118485036D01*
X186777365Y-118485036D02*
X186642678Y-118619723D01*
X186642678Y-118619723D02*
X186609006Y-118720739D01*
X187316113Y-118821754D02*
X187282441Y-118922769D01*
X187282441Y-118922769D02*
X187114082Y-119091128D01*
X187114082Y-119091128D02*
X187013067Y-119124800D01*
X187013067Y-119124800D02*
X186912052Y-119091128D01*
X186912052Y-119091128D02*
X186844708Y-119023784D01*
X186844708Y-119023784D02*
X186811037Y-118922769D01*
X186811037Y-118922769D02*
X186844708Y-118821754D01*
X186844708Y-118821754D02*
X187013067Y-118653395D01*
X187013067Y-118653395D02*
X187046739Y-118552380D01*
X187686502Y-118518708D02*
X187215098Y-118047304D01*
X187349785Y-118181991D02*
X187316113Y-118080975D01*
X187316113Y-118080975D02*
X187316113Y-118013632D01*
X187316113Y-118013632D02*
X187349785Y-117912617D01*
X187349785Y-117912617D02*
X187417128Y-117845273D01*
X189067044Y-117138166D02*
X188494625Y-117037151D01*
X188662983Y-117542227D02*
X187955877Y-116835120D01*
X187955877Y-116835120D02*
X188225251Y-116565746D01*
X188225251Y-116565746D02*
X188326266Y-116532074D01*
X188326266Y-116532074D02*
X188393609Y-116532074D01*
X188393609Y-116532074D02*
X188494625Y-116565746D01*
X188494625Y-116565746D02*
X188595640Y-116666761D01*
X188595640Y-116666761D02*
X188629312Y-116767777D01*
X188629312Y-116767777D02*
X188629312Y-116835120D01*
X188629312Y-116835120D02*
X188595640Y-116936135D01*
X188595640Y-116936135D02*
X188326266Y-117205509D01*
X132773009Y-80374856D02*
X132773009Y-80041523D01*
X133296819Y-79898666D02*
X133296819Y-80374856D01*
X133296819Y-80374856D02*
X132296819Y-80374856D01*
X132296819Y-80374856D02*
X132296819Y-79898666D01*
X133249200Y-79517713D02*
X133296819Y-79374856D01*
X133296819Y-79374856D02*
X133296819Y-79136761D01*
X133296819Y-79136761D02*
X133249200Y-79041523D01*
X133249200Y-79041523D02*
X133201580Y-78993904D01*
X133201580Y-78993904D02*
X133106342Y-78946285D01*
X133106342Y-78946285D02*
X133011104Y-78946285D01*
X133011104Y-78946285D02*
X132915866Y-78993904D01*
X132915866Y-78993904D02*
X132868247Y-79041523D01*
X132868247Y-79041523D02*
X132820628Y-79136761D01*
X132820628Y-79136761D02*
X132773009Y-79327237D01*
X132773009Y-79327237D02*
X132725390Y-79422475D01*
X132725390Y-79422475D02*
X132677771Y-79470094D01*
X132677771Y-79470094D02*
X132582533Y-79517713D01*
X132582533Y-79517713D02*
X132487295Y-79517713D01*
X132487295Y-79517713D02*
X132392057Y-79470094D01*
X132392057Y-79470094D02*
X132344438Y-79422475D01*
X132344438Y-79422475D02*
X132296819Y-79327237D01*
X132296819Y-79327237D02*
X132296819Y-79089142D01*
X132296819Y-79089142D02*
X132344438Y-78946285D01*
X133296819Y-78517713D02*
X132296819Y-78517713D01*
X132296819Y-78517713D02*
X132296819Y-78136761D01*
X132296819Y-78136761D02*
X132344438Y-78041523D01*
X132344438Y-78041523D02*
X132392057Y-77993904D01*
X132392057Y-77993904D02*
X132487295Y-77946285D01*
X132487295Y-77946285D02*
X132630152Y-77946285D01*
X132630152Y-77946285D02*
X132725390Y-77993904D01*
X132725390Y-77993904D02*
X132773009Y-78041523D01*
X132773009Y-78041523D02*
X132820628Y-78136761D01*
X132820628Y-78136761D02*
X132820628Y-78517713D01*
X132296819Y-77612951D02*
X132296819Y-76993904D01*
X132296819Y-76993904D02*
X132677771Y-77327237D01*
X132677771Y-77327237D02*
X132677771Y-77184380D01*
X132677771Y-77184380D02*
X132725390Y-77089142D01*
X132725390Y-77089142D02*
X132773009Y-77041523D01*
X132773009Y-77041523D02*
X132868247Y-76993904D01*
X132868247Y-76993904D02*
X133106342Y-76993904D01*
X133106342Y-76993904D02*
X133201580Y-77041523D01*
X133201580Y-77041523D02*
X133249200Y-77089142D01*
X133249200Y-77089142D02*
X133296819Y-77184380D01*
X133296819Y-77184380D02*
X133296819Y-77470094D01*
X133296819Y-77470094D02*
X133249200Y-77565332D01*
X133249200Y-77565332D02*
X133201580Y-77612951D01*
X132392057Y-76612951D02*
X132344438Y-76565332D01*
X132344438Y-76565332D02*
X132296819Y-76470094D01*
X132296819Y-76470094D02*
X132296819Y-76231999D01*
X132296819Y-76231999D02*
X132344438Y-76136761D01*
X132344438Y-76136761D02*
X132392057Y-76089142D01*
X132392057Y-76089142D02*
X132487295Y-76041523D01*
X132487295Y-76041523D02*
X132582533Y-76041523D01*
X132582533Y-76041523D02*
X132725390Y-76089142D01*
X132725390Y-76089142D02*
X133296819Y-76660570D01*
X133296819Y-76660570D02*
X133296819Y-76041523D01*
X185258688Y-69315899D02*
X184921971Y-68979182D01*
X184921971Y-68979182D02*
X185629077Y-68272075D01*
X185494390Y-69551602D02*
X185965795Y-69080197D01*
X186201497Y-68844495D02*
X186134154Y-68844495D01*
X186134154Y-68844495D02*
X186134154Y-68911838D01*
X186134154Y-68911838D02*
X186201497Y-68911838D01*
X186201497Y-68911838D02*
X186201497Y-68844495D01*
X186201497Y-68844495D02*
X186134154Y-68911838D01*
X186134153Y-70191365D02*
X186841260Y-69484258D01*
X186167825Y-70157693D02*
X186066810Y-70124021D01*
X186066810Y-70124021D02*
X185932123Y-69989334D01*
X185932123Y-69989334D02*
X185898451Y-69888319D01*
X185898451Y-69888319D02*
X185898451Y-69820975D01*
X185898451Y-69820975D02*
X185932123Y-69719960D01*
X185932123Y-69719960D02*
X186134153Y-69517930D01*
X186134153Y-69517930D02*
X186235169Y-69484258D01*
X186235169Y-69484258D02*
X186302512Y-69484258D01*
X186302512Y-69484258D02*
X186403527Y-69517930D01*
X186403527Y-69517930D02*
X186538214Y-69652617D01*
X186538214Y-69652617D02*
X186571886Y-69753632D01*
X186773917Y-70831128D02*
X187144306Y-70460739D01*
X187144306Y-70460739D02*
X187177978Y-70359723D01*
X187177978Y-70359723D02*
X187144306Y-70258708D01*
X187144306Y-70258708D02*
X187009619Y-70124021D01*
X187009619Y-70124021D02*
X186908604Y-70090349D01*
X186807588Y-70797456D02*
X186706573Y-70763784D01*
X186706573Y-70763784D02*
X186538214Y-70595426D01*
X186538214Y-70595426D02*
X186504543Y-70494410D01*
X186504543Y-70494410D02*
X186538214Y-70393395D01*
X186538214Y-70393395D02*
X186605558Y-70326052D01*
X186605558Y-70326052D02*
X186706573Y-70292380D01*
X186706573Y-70292380D02*
X186807588Y-70326052D01*
X186807588Y-70326052D02*
X186975947Y-70494410D01*
X186975947Y-70494410D02*
X187076962Y-70528082D01*
X187110634Y-71167846D02*
X187582039Y-70696441D01*
X187447352Y-70831128D02*
X187548367Y-70797456D01*
X187548367Y-70797456D02*
X187615711Y-70797456D01*
X187615711Y-70797456D02*
X187716726Y-70831128D01*
X187716726Y-70831128D02*
X187784069Y-70898472D01*
X188423833Y-72481044D02*
X188087116Y-72144327D01*
X188087116Y-72144327D02*
X188794222Y-71437220D01*
X192224819Y-97178381D02*
X192224819Y-97654571D01*
X192224819Y-97654571D02*
X191224819Y-97654571D01*
X192224819Y-96845047D02*
X191558152Y-96845047D01*
X191224819Y-96845047D02*
X191272438Y-96892666D01*
X191272438Y-96892666D02*
X191320057Y-96845047D01*
X191320057Y-96845047D02*
X191272438Y-96797428D01*
X191272438Y-96797428D02*
X191224819Y-96845047D01*
X191224819Y-96845047D02*
X191320057Y-96845047D01*
X192224819Y-95940286D02*
X191224819Y-95940286D01*
X192177200Y-95940286D02*
X192224819Y-96035524D01*
X192224819Y-96035524D02*
X192224819Y-96226000D01*
X192224819Y-96226000D02*
X192177200Y-96321238D01*
X192177200Y-96321238D02*
X192129580Y-96368857D01*
X192129580Y-96368857D02*
X192034342Y-96416476D01*
X192034342Y-96416476D02*
X191748628Y-96416476D01*
X191748628Y-96416476D02*
X191653390Y-96368857D01*
X191653390Y-96368857D02*
X191605771Y-96321238D01*
X191605771Y-96321238D02*
X191558152Y-96226000D01*
X191558152Y-96226000D02*
X191558152Y-96035524D01*
X191558152Y-96035524D02*
X191605771Y-95940286D01*
X192224819Y-95035524D02*
X191701009Y-95035524D01*
X191701009Y-95035524D02*
X191605771Y-95083143D01*
X191605771Y-95083143D02*
X191558152Y-95178381D01*
X191558152Y-95178381D02*
X191558152Y-95368857D01*
X191558152Y-95368857D02*
X191605771Y-95464095D01*
X192177200Y-95035524D02*
X192224819Y-95130762D01*
X192224819Y-95130762D02*
X192224819Y-95368857D01*
X192224819Y-95368857D02*
X192177200Y-95464095D01*
X192177200Y-95464095D02*
X192081961Y-95511714D01*
X192081961Y-95511714D02*
X191986723Y-95511714D01*
X191986723Y-95511714D02*
X191891485Y-95464095D01*
X191891485Y-95464095D02*
X191843866Y-95368857D01*
X191843866Y-95368857D02*
X191843866Y-95130762D01*
X191843866Y-95130762D02*
X191796247Y-95035524D01*
X192224819Y-94559333D02*
X191558152Y-94559333D01*
X191748628Y-94559333D02*
X191653390Y-94511714D01*
X191653390Y-94511714D02*
X191605771Y-94464095D01*
X191605771Y-94464095D02*
X191558152Y-94368857D01*
X191558152Y-94368857D02*
X191558152Y-94273619D01*
X191701009Y-92845047D02*
X191701009Y-93178380D01*
X192224819Y-93178380D02*
X191224819Y-93178380D01*
X191224819Y-93178380D02*
X191224819Y-92702190D01*
X192224819Y-92321237D02*
X191558152Y-92321237D01*
X191748628Y-92321237D02*
X191653390Y-92273618D01*
X191653390Y-92273618D02*
X191605771Y-92225999D01*
X191605771Y-92225999D02*
X191558152Y-92130761D01*
X191558152Y-92130761D02*
X191558152Y-92035523D01*
X192224819Y-91559332D02*
X192177200Y-91654570D01*
X192177200Y-91654570D02*
X192129580Y-91702189D01*
X192129580Y-91702189D02*
X192034342Y-91749808D01*
X192034342Y-91749808D02*
X191748628Y-91749808D01*
X191748628Y-91749808D02*
X191653390Y-91702189D01*
X191653390Y-91702189D02*
X191605771Y-91654570D01*
X191605771Y-91654570D02*
X191558152Y-91559332D01*
X191558152Y-91559332D02*
X191558152Y-91416475D01*
X191558152Y-91416475D02*
X191605771Y-91321237D01*
X191605771Y-91321237D02*
X191653390Y-91273618D01*
X191653390Y-91273618D02*
X191748628Y-91225999D01*
X191748628Y-91225999D02*
X192034342Y-91225999D01*
X192034342Y-91225999D02*
X192129580Y-91273618D01*
X192129580Y-91273618D02*
X192177200Y-91321237D01*
X192177200Y-91321237D02*
X192224819Y-91416475D01*
X192224819Y-91416475D02*
X192224819Y-91559332D01*
X191558152Y-90797427D02*
X192224819Y-90797427D01*
X191653390Y-90797427D02*
X191605771Y-90749808D01*
X191605771Y-90749808D02*
X191558152Y-90654570D01*
X191558152Y-90654570D02*
X191558152Y-90511713D01*
X191558152Y-90511713D02*
X191605771Y-90416475D01*
X191605771Y-90416475D02*
X191701009Y-90368856D01*
X191701009Y-90368856D02*
X192224819Y-90368856D01*
X191558152Y-90035522D02*
X191558152Y-89654570D01*
X191224819Y-89892665D02*
X192081961Y-89892665D01*
X192081961Y-89892665D02*
X192177200Y-89845046D01*
X192177200Y-89845046D02*
X192224819Y-89749808D01*
X192224819Y-89749808D02*
X192224819Y-89654570D01*
X158464476Y-66854819D02*
X158464476Y-65854819D01*
X158464476Y-65854819D02*
X158797809Y-66569104D01*
X158797809Y-66569104D02*
X159131142Y-65854819D01*
X159131142Y-65854819D02*
X159131142Y-66854819D01*
X159559714Y-65950057D02*
X159607333Y-65902438D01*
X159607333Y-65902438D02*
X159702571Y-65854819D01*
X159702571Y-65854819D02*
X159940666Y-65854819D01*
X159940666Y-65854819D02*
X160035904Y-65902438D01*
X160035904Y-65902438D02*
X160083523Y-65950057D01*
X160083523Y-65950057D02*
X160131142Y-66045295D01*
X160131142Y-66045295D02*
X160131142Y-66140533D01*
X160131142Y-66140533D02*
X160083523Y-66283390D01*
X160083523Y-66283390D02*
X159512095Y-66854819D01*
X159512095Y-66854819D02*
X160131142Y-66854819D01*
X136598819Y-94146666D02*
X136122628Y-94479999D01*
X136598819Y-94718094D02*
X135598819Y-94718094D01*
X135598819Y-94718094D02*
X135598819Y-94337142D01*
X135598819Y-94337142D02*
X135646438Y-94241904D01*
X135646438Y-94241904D02*
X135694057Y-94194285D01*
X135694057Y-94194285D02*
X135789295Y-94146666D01*
X135789295Y-94146666D02*
X135932152Y-94146666D01*
X135932152Y-94146666D02*
X136027390Y-94194285D01*
X136027390Y-94194285D02*
X136075009Y-94241904D01*
X136075009Y-94241904D02*
X136122628Y-94337142D01*
X136122628Y-94337142D02*
X136122628Y-94718094D01*
X136598819Y-93194285D02*
X136598819Y-93765713D01*
X136598819Y-93479999D02*
X135598819Y-93479999D01*
X135598819Y-93479999D02*
X135741676Y-93575237D01*
X135741676Y-93575237D02*
X135836914Y-93670475D01*
X135836914Y-93670475D02*
X135884533Y-93765713D01*
X175206819Y-99860953D02*
X174206819Y-99860953D01*
X174206819Y-99860953D02*
X174921104Y-99527620D01*
X174921104Y-99527620D02*
X174206819Y-99194287D01*
X174206819Y-99194287D02*
X175206819Y-99194287D01*
X175206819Y-98575239D02*
X175159200Y-98670477D01*
X175159200Y-98670477D02*
X175111580Y-98718096D01*
X175111580Y-98718096D02*
X175016342Y-98765715D01*
X175016342Y-98765715D02*
X174730628Y-98765715D01*
X174730628Y-98765715D02*
X174635390Y-98718096D01*
X174635390Y-98718096D02*
X174587771Y-98670477D01*
X174587771Y-98670477D02*
X174540152Y-98575239D01*
X174540152Y-98575239D02*
X174540152Y-98432382D01*
X174540152Y-98432382D02*
X174587771Y-98337144D01*
X174587771Y-98337144D02*
X174635390Y-98289525D01*
X174635390Y-98289525D02*
X174730628Y-98241906D01*
X174730628Y-98241906D02*
X175016342Y-98241906D01*
X175016342Y-98241906D02*
X175111580Y-98289525D01*
X175111580Y-98289525D02*
X175159200Y-98337144D01*
X175159200Y-98337144D02*
X175206819Y-98432382D01*
X175206819Y-98432382D02*
X175206819Y-98575239D01*
X175206819Y-97813334D02*
X174540152Y-97813334D01*
X174730628Y-97813334D02*
X174635390Y-97765715D01*
X174635390Y-97765715D02*
X174587771Y-97718096D01*
X174587771Y-97718096D02*
X174540152Y-97622858D01*
X174540152Y-97622858D02*
X174540152Y-97527620D01*
X175206819Y-97051429D02*
X175159200Y-97146667D01*
X175159200Y-97146667D02*
X175111580Y-97194286D01*
X175111580Y-97194286D02*
X175016342Y-97241905D01*
X175016342Y-97241905D02*
X174730628Y-97241905D01*
X174730628Y-97241905D02*
X174635390Y-97194286D01*
X174635390Y-97194286D02*
X174587771Y-97146667D01*
X174587771Y-97146667D02*
X174540152Y-97051429D01*
X174540152Y-97051429D02*
X174540152Y-96908572D01*
X174540152Y-96908572D02*
X174587771Y-96813334D01*
X174587771Y-96813334D02*
X174635390Y-96765715D01*
X174635390Y-96765715D02*
X174730628Y-96718096D01*
X174730628Y-96718096D02*
X175016342Y-96718096D01*
X175016342Y-96718096D02*
X175111580Y-96765715D01*
X175111580Y-96765715D02*
X175159200Y-96813334D01*
X175159200Y-96813334D02*
X175206819Y-96908572D01*
X175206819Y-96908572D02*
X175206819Y-97051429D01*
X175206819Y-96289524D02*
X174540152Y-96289524D01*
X174730628Y-96289524D02*
X174635390Y-96241905D01*
X174635390Y-96241905D02*
X174587771Y-96194286D01*
X174587771Y-96194286D02*
X174540152Y-96099048D01*
X174540152Y-96099048D02*
X174540152Y-96003810D01*
X175159200Y-94480000D02*
X175206819Y-94575238D01*
X175206819Y-94575238D02*
X175206819Y-94765714D01*
X175206819Y-94765714D02*
X175159200Y-94860952D01*
X175159200Y-94860952D02*
X175111580Y-94908571D01*
X175111580Y-94908571D02*
X175016342Y-94956190D01*
X175016342Y-94956190D02*
X174730628Y-94956190D01*
X174730628Y-94956190D02*
X174635390Y-94908571D01*
X174635390Y-94908571D02*
X174587771Y-94860952D01*
X174587771Y-94860952D02*
X174540152Y-94765714D01*
X174540152Y-94765714D02*
X174540152Y-94575238D01*
X174540152Y-94575238D02*
X174587771Y-94480000D01*
X175206819Y-93908571D02*
X175159200Y-94003809D01*
X175159200Y-94003809D02*
X175111580Y-94051428D01*
X175111580Y-94051428D02*
X175016342Y-94099047D01*
X175016342Y-94099047D02*
X174730628Y-94099047D01*
X174730628Y-94099047D02*
X174635390Y-94051428D01*
X174635390Y-94051428D02*
X174587771Y-94003809D01*
X174587771Y-94003809D02*
X174540152Y-93908571D01*
X174540152Y-93908571D02*
X174540152Y-93765714D01*
X174540152Y-93765714D02*
X174587771Y-93670476D01*
X174587771Y-93670476D02*
X174635390Y-93622857D01*
X174635390Y-93622857D02*
X174730628Y-93575238D01*
X174730628Y-93575238D02*
X175016342Y-93575238D01*
X175016342Y-93575238D02*
X175111580Y-93622857D01*
X175111580Y-93622857D02*
X175159200Y-93670476D01*
X175159200Y-93670476D02*
X175206819Y-93765714D01*
X175206819Y-93765714D02*
X175206819Y-93908571D01*
X174540152Y-93146666D02*
X175206819Y-93146666D01*
X174635390Y-93146666D02*
X174587771Y-93099047D01*
X174587771Y-93099047D02*
X174540152Y-93003809D01*
X174540152Y-93003809D02*
X174540152Y-92860952D01*
X174540152Y-92860952D02*
X174587771Y-92765714D01*
X174587771Y-92765714D02*
X174683009Y-92718095D01*
X174683009Y-92718095D02*
X175206819Y-92718095D01*
X174540152Y-92384761D02*
X174540152Y-92003809D01*
X174206819Y-92241904D02*
X175063961Y-92241904D01*
X175063961Y-92241904D02*
X175159200Y-92194285D01*
X175159200Y-92194285D02*
X175206819Y-92099047D01*
X175206819Y-92099047D02*
X175206819Y-92003809D01*
X175206819Y-91670475D02*
X174540152Y-91670475D01*
X174730628Y-91670475D02*
X174635390Y-91622856D01*
X174635390Y-91622856D02*
X174587771Y-91575237D01*
X174587771Y-91575237D02*
X174540152Y-91479999D01*
X174540152Y-91479999D02*
X174540152Y-91384761D01*
X175206819Y-90908570D02*
X175159200Y-91003808D01*
X175159200Y-91003808D02*
X175111580Y-91051427D01*
X175111580Y-91051427D02*
X175016342Y-91099046D01*
X175016342Y-91099046D02*
X174730628Y-91099046D01*
X174730628Y-91099046D02*
X174635390Y-91051427D01*
X174635390Y-91051427D02*
X174587771Y-91003808D01*
X174587771Y-91003808D02*
X174540152Y-90908570D01*
X174540152Y-90908570D02*
X174540152Y-90765713D01*
X174540152Y-90765713D02*
X174587771Y-90670475D01*
X174587771Y-90670475D02*
X174635390Y-90622856D01*
X174635390Y-90622856D02*
X174730628Y-90575237D01*
X174730628Y-90575237D02*
X175016342Y-90575237D01*
X175016342Y-90575237D02*
X175111580Y-90622856D01*
X175111580Y-90622856D02*
X175159200Y-90670475D01*
X175159200Y-90670475D02*
X175206819Y-90765713D01*
X175206819Y-90765713D02*
X175206819Y-90908570D01*
X175206819Y-90003808D02*
X175159200Y-90099046D01*
X175159200Y-90099046D02*
X175063961Y-90146665D01*
X175063961Y-90146665D02*
X174206819Y-90146665D01*
X175206819Y-89479998D02*
X175159200Y-89575236D01*
X175159200Y-89575236D02*
X175063961Y-89622855D01*
X175063961Y-89622855D02*
X174206819Y-89622855D01*
X175159200Y-88718093D02*
X175206819Y-88813331D01*
X175206819Y-88813331D02*
X175206819Y-89003807D01*
X175206819Y-89003807D02*
X175159200Y-89099045D01*
X175159200Y-89099045D02*
X175063961Y-89146664D01*
X175063961Y-89146664D02*
X174683009Y-89146664D01*
X174683009Y-89146664D02*
X174587771Y-89099045D01*
X174587771Y-89099045D02*
X174540152Y-89003807D01*
X174540152Y-89003807D02*
X174540152Y-88813331D01*
X174540152Y-88813331D02*
X174587771Y-88718093D01*
X174587771Y-88718093D02*
X174683009Y-88670474D01*
X174683009Y-88670474D02*
X174778247Y-88670474D01*
X174778247Y-88670474D02*
X174873485Y-89146664D01*
X175206819Y-88241902D02*
X174540152Y-88241902D01*
X174730628Y-88241902D02*
X174635390Y-88194283D01*
X174635390Y-88194283D02*
X174587771Y-88146664D01*
X174587771Y-88146664D02*
X174540152Y-88051426D01*
X174540152Y-88051426D02*
X174540152Y-87956188D01*
X132534819Y-94146666D02*
X132058628Y-94479999D01*
X132534819Y-94718094D02*
X131534819Y-94718094D01*
X131534819Y-94718094D02*
X131534819Y-94337142D01*
X131534819Y-94337142D02*
X131582438Y-94241904D01*
X131582438Y-94241904D02*
X131630057Y-94194285D01*
X131630057Y-94194285D02*
X131725295Y-94146666D01*
X131725295Y-94146666D02*
X131868152Y-94146666D01*
X131868152Y-94146666D02*
X131963390Y-94194285D01*
X131963390Y-94194285D02*
X132011009Y-94241904D01*
X132011009Y-94241904D02*
X132058628Y-94337142D01*
X132058628Y-94337142D02*
X132058628Y-94718094D01*
X131630057Y-93765713D02*
X131582438Y-93718094D01*
X131582438Y-93718094D02*
X131534819Y-93622856D01*
X131534819Y-93622856D02*
X131534819Y-93384761D01*
X131534819Y-93384761D02*
X131582438Y-93289523D01*
X131582438Y-93289523D02*
X131630057Y-93241904D01*
X131630057Y-93241904D02*
X131725295Y-93194285D01*
X131725295Y-93194285D02*
X131820533Y-93194285D01*
X131820533Y-93194285D02*
X131963390Y-93241904D01*
X131963390Y-93241904D02*
X132534819Y-93813332D01*
X132534819Y-93813332D02*
X132534819Y-93194285D01*
X168434657Y-123167800D02*
X168577514Y-123215419D01*
X168577514Y-123215419D02*
X168815609Y-123215419D01*
X168815609Y-123215419D02*
X168910847Y-123167800D01*
X168910847Y-123167800D02*
X168958466Y-123120180D01*
X168958466Y-123120180D02*
X169006085Y-123024942D01*
X169006085Y-123024942D02*
X169006085Y-122929704D01*
X169006085Y-122929704D02*
X168958466Y-122834466D01*
X168958466Y-122834466D02*
X168910847Y-122786847D01*
X168910847Y-122786847D02*
X168815609Y-122739228D01*
X168815609Y-122739228D02*
X168625133Y-122691609D01*
X168625133Y-122691609D02*
X168529895Y-122643990D01*
X168529895Y-122643990D02*
X168482276Y-122596371D01*
X168482276Y-122596371D02*
X168434657Y-122501133D01*
X168434657Y-122501133D02*
X168434657Y-122405895D01*
X168434657Y-122405895D02*
X168482276Y-122310657D01*
X168482276Y-122310657D02*
X168529895Y-122263038D01*
X168529895Y-122263038D02*
X168625133Y-122215419D01*
X168625133Y-122215419D02*
X168863228Y-122215419D01*
X168863228Y-122215419D02*
X169006085Y-122263038D01*
X169815609Y-123167800D02*
X169720371Y-123215419D01*
X169720371Y-123215419D02*
X169529895Y-123215419D01*
X169529895Y-123215419D02*
X169434657Y-123167800D01*
X169434657Y-123167800D02*
X169387038Y-123072561D01*
X169387038Y-123072561D02*
X169387038Y-122691609D01*
X169387038Y-122691609D02*
X169434657Y-122596371D01*
X169434657Y-122596371D02*
X169529895Y-122548752D01*
X169529895Y-122548752D02*
X169720371Y-122548752D01*
X169720371Y-122548752D02*
X169815609Y-122596371D01*
X169815609Y-122596371D02*
X169863228Y-122691609D01*
X169863228Y-122691609D02*
X169863228Y-122786847D01*
X169863228Y-122786847D02*
X169387038Y-122882085D01*
X170291800Y-123215419D02*
X170291800Y-122548752D01*
X170291800Y-122739228D02*
X170339419Y-122643990D01*
X170339419Y-122643990D02*
X170387038Y-122596371D01*
X170387038Y-122596371D02*
X170482276Y-122548752D01*
X170482276Y-122548752D02*
X170577514Y-122548752D01*
X170815610Y-122548752D02*
X171053705Y-123215419D01*
X171053705Y-123215419D02*
X171291800Y-122548752D01*
X171815610Y-123215419D02*
X171720372Y-123167800D01*
X171720372Y-123167800D02*
X171672753Y-123120180D01*
X171672753Y-123120180D02*
X171625134Y-123024942D01*
X171625134Y-123024942D02*
X171625134Y-122739228D01*
X171625134Y-122739228D02*
X171672753Y-122643990D01*
X171672753Y-122643990D02*
X171720372Y-122596371D01*
X171720372Y-122596371D02*
X171815610Y-122548752D01*
X171815610Y-122548752D02*
X171958467Y-122548752D01*
X171958467Y-122548752D02*
X172053705Y-122596371D01*
X172053705Y-122596371D02*
X172101324Y-122643990D01*
X172101324Y-122643990D02*
X172148943Y-122739228D01*
X172148943Y-122739228D02*
X172148943Y-123024942D01*
X172148943Y-123024942D02*
X172101324Y-123120180D01*
X172101324Y-123120180D02*
X172053705Y-123167800D01*
X172053705Y-123167800D02*
X171958467Y-123215419D01*
X171958467Y-123215419D02*
X171815610Y-123215419D01*
X169640476Y-66854819D02*
X169640476Y-65854819D01*
X169640476Y-65854819D02*
X169973809Y-66569104D01*
X169973809Y-66569104D02*
X170307142Y-65854819D01*
X170307142Y-65854819D02*
X170307142Y-66854819D01*
X171307142Y-66854819D02*
X170735714Y-66854819D01*
X171021428Y-66854819D02*
X171021428Y-65854819D01*
X171021428Y-65854819D02*
X170926190Y-65997676D01*
X170926190Y-65997676D02*
X170830952Y-66092914D01*
X170830952Y-66092914D02*
X170735714Y-66140533D01*
X107422570Y-122607009D02*
X107565427Y-122654628D01*
X107565427Y-122654628D02*
X107613046Y-122702247D01*
X107613046Y-122702247D02*
X107660665Y-122797485D01*
X107660665Y-122797485D02*
X107660665Y-122940342D01*
X107660665Y-122940342D02*
X107613046Y-123035580D01*
X107613046Y-123035580D02*
X107565427Y-123083200D01*
X107565427Y-123083200D02*
X107470189Y-123130819D01*
X107470189Y-123130819D02*
X107089237Y-123130819D01*
X107089237Y-123130819D02*
X107089237Y-122130819D01*
X107089237Y-122130819D02*
X107422570Y-122130819D01*
X107422570Y-122130819D02*
X107517808Y-122178438D01*
X107517808Y-122178438D02*
X107565427Y-122226057D01*
X107565427Y-122226057D02*
X107613046Y-122321295D01*
X107613046Y-122321295D02*
X107613046Y-122416533D01*
X107613046Y-122416533D02*
X107565427Y-122511771D01*
X107565427Y-122511771D02*
X107517808Y-122559390D01*
X107517808Y-122559390D02*
X107422570Y-122607009D01*
X107422570Y-122607009D02*
X107089237Y-122607009D01*
X108517808Y-123130819D02*
X108517808Y-122607009D01*
X108517808Y-122607009D02*
X108470189Y-122511771D01*
X108470189Y-122511771D02*
X108374951Y-122464152D01*
X108374951Y-122464152D02*
X108184475Y-122464152D01*
X108184475Y-122464152D02*
X108089237Y-122511771D01*
X108517808Y-123083200D02*
X108422570Y-123130819D01*
X108422570Y-123130819D02*
X108184475Y-123130819D01*
X108184475Y-123130819D02*
X108089237Y-123083200D01*
X108089237Y-123083200D02*
X108041618Y-122987961D01*
X108041618Y-122987961D02*
X108041618Y-122892723D01*
X108041618Y-122892723D02*
X108089237Y-122797485D01*
X108089237Y-122797485D02*
X108184475Y-122749866D01*
X108184475Y-122749866D02*
X108422570Y-122749866D01*
X108422570Y-122749866D02*
X108517808Y-122702247D01*
X108851142Y-122464152D02*
X109232094Y-122464152D01*
X108993999Y-122130819D02*
X108993999Y-122987961D01*
X108993999Y-122987961D02*
X109041618Y-123083200D01*
X109041618Y-123083200D02*
X109136856Y-123130819D01*
X109136856Y-123130819D02*
X109232094Y-123130819D01*
X109422571Y-122464152D02*
X109803523Y-122464152D01*
X109565428Y-122130819D02*
X109565428Y-122987961D01*
X109565428Y-122987961D02*
X109613047Y-123083200D01*
X109613047Y-123083200D02*
X109708285Y-123130819D01*
X109708285Y-123130819D02*
X109803523Y-123130819D01*
X110517809Y-123083200D02*
X110422571Y-123130819D01*
X110422571Y-123130819D02*
X110232095Y-123130819D01*
X110232095Y-123130819D02*
X110136857Y-123083200D01*
X110136857Y-123083200D02*
X110089238Y-122987961D01*
X110089238Y-122987961D02*
X110089238Y-122607009D01*
X110089238Y-122607009D02*
X110136857Y-122511771D01*
X110136857Y-122511771D02*
X110232095Y-122464152D01*
X110232095Y-122464152D02*
X110422571Y-122464152D01*
X110422571Y-122464152D02*
X110517809Y-122511771D01*
X110517809Y-122511771D02*
X110565428Y-122607009D01*
X110565428Y-122607009D02*
X110565428Y-122702247D01*
X110565428Y-122702247D02*
X110089238Y-122797485D01*
X110994000Y-123130819D02*
X110994000Y-122464152D01*
X110994000Y-122654628D02*
X111041619Y-122559390D01*
X111041619Y-122559390D02*
X111089238Y-122511771D01*
X111089238Y-122511771D02*
X111184476Y-122464152D01*
X111184476Y-122464152D02*
X111279714Y-122464152D01*
X111517810Y-122464152D02*
X111755905Y-123130819D01*
X111994000Y-122464152D02*
X111755905Y-123130819D01*
X111755905Y-123130819D02*
X111660667Y-123368914D01*
X111660667Y-123368914D02*
X111613048Y-123416533D01*
X111613048Y-123416533D02*
X111517810Y-123464152D01*
%TO.C,DC-DC*%
D13*
X159832800Y-108717200D02*
X159832800Y-126607200D01*
X157072800Y-126607200D02*
X159832800Y-126607200D01*
X157072800Y-108717200D02*
X159832800Y-108717200D01*
X157072800Y-108717200D02*
X157072800Y-126607200D01*
X157072800Y-107447200D02*
X157072800Y-106067200D01*
X157072800Y-106067200D02*
X158452800Y-106067200D01*
X119722800Y-108717200D02*
X119722800Y-126607200D01*
X116962800Y-108717200D02*
X116962800Y-126607200D01*
X116962800Y-107447200D02*
X116962800Y-106067200D01*
X116962800Y-108717200D02*
X119722800Y-108717200D01*
X116962800Y-106067200D02*
X118342800Y-106067200D01*
X116962800Y-126607200D02*
X119722800Y-126607200D01*
%TO.C,SW2*%
X103542000Y-105380000D02*
X106262000Y-105380000D01*
X106262000Y-115600000D01*
X103542000Y-115600000D01*
X103542000Y-105380000D01*
%TO.C,Start Modul*%
X160563000Y-72644000D02*
X160563000Y-80324000D01*
X160563000Y-72644000D02*
X163223000Y-72644000D01*
X160563000Y-80324000D02*
X163223000Y-80324000D01*
X161893000Y-70044000D02*
X163223000Y-70044000D01*
X163223000Y-70044000D02*
X163223000Y-71374000D01*
X163223000Y-72644000D02*
X163223000Y-80324000D01*
%TO.C,Arduino Nano*%
X113903800Y-87740000D02*
X113903800Y-86360000D01*
X115283800Y-87740000D02*
X113903800Y-87740000D01*
X116553800Y-87740000D02*
X152223800Y-87740000D01*
X116553800Y-87740000D02*
X116553800Y-84980000D01*
X152223800Y-87740000D02*
X152223800Y-84980000D01*
X116553800Y-84980000D02*
X152223800Y-84980000D01*
%TO.C,Lidar R*%
X192833354Y-114712431D02*
X193809161Y-115688239D01*
X191857547Y-115688239D02*
X192833354Y-114712431D01*
X190959521Y-116586264D02*
X181901483Y-125644302D01*
X190959521Y-116586264D02*
X192911136Y-118537879D01*
X181901483Y-125644302D02*
X183853098Y-127595917D01*
X192911136Y-118537879D02*
X183853098Y-127595917D01*
%TO.C,ESP32*%
X116553800Y-69564200D02*
X152223800Y-69564200D01*
X152223800Y-72324200D02*
X152223800Y-69564200D01*
X116553800Y-72324200D02*
X116553800Y-69564200D01*
X116553800Y-72324200D02*
X152223800Y-72324200D01*
X115283800Y-72324200D02*
X113903800Y-72324200D01*
X113903800Y-72324200D02*
X113903800Y-70944200D01*
%TO.C,Lidar L*%
X191946218Y-72739833D02*
X182888180Y-63681795D01*
X184839795Y-61730180D02*
X182888180Y-63681795D01*
X193897833Y-70788218D02*
X191946218Y-72739833D01*
X193897833Y-70788218D02*
X184839795Y-61730180D01*
X194795858Y-71686244D02*
X195771666Y-72662051D01*
X195771666Y-72662051D02*
X194795858Y-73637858D01*
%TO.C,Lidar Front*%
X193380400Y-98806000D02*
X193380400Y-85996000D01*
X196140400Y-85996000D02*
X193380400Y-85996000D01*
X196140400Y-98806000D02*
X193380400Y-98806000D01*
X196140400Y-98806000D02*
X196140400Y-85996000D01*
X196140400Y-100076000D02*
X196140400Y-101456000D01*
X196140400Y-101456000D02*
X194760400Y-101456000D01*
%TO.C,M2*%
X162634000Y-65610000D02*
X162634000Y-64360000D01*
X162334000Y-64000000D02*
X161724000Y-64000000D01*
X162334000Y-62700000D02*
X161724000Y-62700000D01*
X161724000Y-64700000D02*
X161724000Y-61200000D01*
X161724000Y-61200000D02*
X156824000Y-61200000D01*
X161384000Y-65610000D02*
X162634000Y-65610000D01*
X160874000Y-65510000D02*
X160874000Y-65310000D01*
X160574000Y-65510000D02*
X160874000Y-65510000D01*
X160574000Y-65410000D02*
X160874000Y-65410000D01*
X160574000Y-65310000D02*
X160574000Y-65510000D01*
X159774000Y-65310000D02*
X159774000Y-64700000D01*
X159774000Y-64700000D02*
X161724000Y-64700000D01*
X159374000Y-61700000D02*
X159174000Y-61700000D01*
X159374000Y-61200000D02*
X159374000Y-61700000D01*
X159274000Y-61200000D02*
X159274000Y-61700000D01*
X159174000Y-61700000D02*
X159174000Y-61200000D01*
X158774000Y-64700000D02*
X158774000Y-65310000D01*
X156824000Y-64700000D02*
X158774000Y-64700000D01*
X156824000Y-61200000D02*
X156824000Y-64700000D01*
X156214000Y-64000000D02*
X156824000Y-64000000D01*
X156214000Y-62700000D02*
X156824000Y-62700000D01*
X156214000Y-60590000D02*
X162334000Y-60590000D01*
X162334000Y-65310000D01*
X156214000Y-65310000D01*
X156214000Y-60590000D01*
%TO.C,R1*%
X134760000Y-97250000D02*
X135090000Y-97250000D01*
X137500000Y-97250000D02*
X137170000Y-97250000D01*
X134760000Y-90710000D02*
X134760000Y-97250000D01*
X135090000Y-90710000D02*
X134760000Y-90710000D01*
X137170000Y-90710000D02*
X137500000Y-90710000D01*
X137500000Y-90710000D02*
X137500000Y-97250000D01*
%TO.C,Moror controller*%
X179318000Y-105032000D02*
X179318000Y-84472000D01*
X182078000Y-102382000D02*
X182078000Y-105012000D01*
X182078000Y-105032000D02*
X179318000Y-105032000D01*
X169528000Y-105032000D02*
X166768000Y-105032000D01*
X166768000Y-105032000D02*
X166768000Y-84472000D01*
X169528000Y-84472000D02*
X166768000Y-84472000D01*
X169528000Y-103632000D02*
X169528000Y-84472000D01*
X169528000Y-105012000D02*
X168148000Y-105012000D01*
X169528000Y-103632000D02*
X169528000Y-105012000D01*
X182078000Y-102362000D02*
X182078000Y-84472000D01*
X182078000Y-84472000D02*
X179318000Y-84472000D01*
%TO.C,R2*%
X133450000Y-90710000D02*
X133450000Y-97250000D01*
X133120000Y-90710000D02*
X133450000Y-90710000D01*
X131040000Y-90710000D02*
X130710000Y-90710000D01*
X130710000Y-90710000D02*
X130710000Y-97250000D01*
X133450000Y-97250000D02*
X133120000Y-97250000D01*
X130710000Y-97250000D02*
X131040000Y-97250000D01*
%TO.C,Servo*%
X165931800Y-123550600D02*
X165931800Y-124800600D01*
X166231800Y-125160600D02*
X166841800Y-125160600D01*
X166231800Y-126460600D02*
X166841800Y-126460600D01*
X166841800Y-124460600D02*
X166841800Y-127960600D01*
X166841800Y-127960600D02*
X173741800Y-127960600D01*
X167181800Y-123550600D02*
X165931800Y-123550600D01*
X167691800Y-123650600D02*
X167691800Y-123850600D01*
X167991800Y-123650600D02*
X167691800Y-123650600D01*
X167991800Y-123750600D02*
X167691800Y-123750600D01*
X167991800Y-123850600D02*
X167991800Y-123650600D01*
X168791800Y-123850600D02*
X168791800Y-124460600D01*
X168791800Y-124460600D02*
X166841800Y-124460600D01*
X169191800Y-127460600D02*
X169391800Y-127460600D01*
X169191800Y-127960600D02*
X169191800Y-127460600D01*
X169291800Y-127960600D02*
X169291800Y-127460600D01*
X169391800Y-127460600D02*
X169391800Y-127960600D01*
X171191800Y-127460600D02*
X171391800Y-127460600D01*
X171191800Y-127960600D02*
X171191800Y-127460600D01*
X171291800Y-127960600D02*
X171291800Y-127460600D01*
X171391800Y-127460600D02*
X171391800Y-127960600D01*
X171791800Y-124460600D02*
X171791800Y-123850600D01*
X173741800Y-124460600D02*
X171791800Y-124460600D01*
X173741800Y-127960600D02*
X173741800Y-124460600D01*
X174351800Y-125160600D02*
X173741800Y-125160600D01*
X174351800Y-126460600D02*
X173741800Y-126460600D01*
X166231800Y-123850600D02*
X174351800Y-123850600D01*
X174351800Y-128570600D01*
X166231800Y-128570600D01*
X166231800Y-123850600D01*
%TO.C,M1*%
X173810000Y-65610000D02*
X173810000Y-64360000D01*
X173510000Y-64000000D02*
X172900000Y-64000000D01*
X173510000Y-62700000D02*
X172900000Y-62700000D01*
X172900000Y-64700000D02*
X172900000Y-61200000D01*
X172900000Y-61200000D02*
X168000000Y-61200000D01*
X172560000Y-65610000D02*
X173810000Y-65610000D01*
X172050000Y-65510000D02*
X172050000Y-65310000D01*
X171750000Y-65510000D02*
X172050000Y-65510000D01*
X171750000Y-65410000D02*
X172050000Y-65410000D01*
X171750000Y-65310000D02*
X171750000Y-65510000D01*
X170950000Y-65310000D02*
X170950000Y-64700000D01*
X170950000Y-64700000D02*
X172900000Y-64700000D01*
X170550000Y-61700000D02*
X170350000Y-61700000D01*
X170550000Y-61200000D02*
X170550000Y-61700000D01*
X170450000Y-61200000D02*
X170450000Y-61700000D01*
X170350000Y-61700000D02*
X170350000Y-61200000D01*
X169950000Y-64700000D02*
X169950000Y-65310000D01*
X168000000Y-64700000D02*
X169950000Y-64700000D01*
X168000000Y-61200000D02*
X168000000Y-64700000D01*
X167390000Y-64000000D02*
X168000000Y-64000000D01*
X167390000Y-62700000D02*
X168000000Y-62700000D01*
X167390000Y-60590000D02*
X173510000Y-60590000D01*
X173510000Y-65310000D01*
X167390000Y-65310000D01*
X167390000Y-60590000D01*
%TO.C,Battery*%
X105334000Y-125586000D02*
X105334000Y-128086000D01*
X105334000Y-128086000D02*
X107834000Y-128086000D01*
X105634000Y-125476000D02*
X106134000Y-125476000D01*
X105634000Y-126286000D02*
X106634000Y-126286000D01*
X106134000Y-124266000D02*
X112854000Y-124266000D01*
X106134000Y-125476000D02*
X106134000Y-124266000D01*
X106634000Y-126286000D02*
X106634000Y-127786000D01*
X112354000Y-126286000D02*
X112354000Y-127786000D01*
X112854000Y-124266000D02*
X112854000Y-125476000D01*
X112854000Y-125476000D02*
X113354000Y-125476000D01*
X113354000Y-126286000D02*
X112354000Y-126286000D01*
X105634000Y-123766000D02*
X113354000Y-123766000D01*
X113354000Y-127786000D01*
X105634000Y-127786000D01*
X105634000Y-123766000D01*
%TD*%
M02*
