%TF.GenerationSoftware,KiCad,Pcbnew,10.0.0*%
%TF.CreationDate,2026-09-10T13:08:10+02:00*%
%TF.ProjectId,Bil v 1_0,42696c20-7620-4312-9c30-2e6b69636164,rev?*%
%TF.SameCoordinates,Original*%
%TF.FileFunction,Copper,L1,Top*%
%TF.FilePolarity,Positive*%
%FSLAX46Y46*%
G04 Gerber Fmt 4.6, Leading zero omitted, Abs format (unit mm)*
G04 Created by KiCad (PCBNEW 10.0.0) date 2026-09-10 13:08:10*
%MOMM*%
%LPD*%
G01*
G04 APERTURE LIST*
G04 Aperture macros list*
%AMRoundRect*
0 Rectangle with rounded corners*
0 $1 Rounding radius*
0 $2 $3 $4 $5 $6 $7 $8 $9 X,Y pos of 4 corners*
0 Add a 4 corners polygon primitive as box body*
4,1,4,$2,$3,$4,$5,$6,$7,$8,$9,$2,$3,0*
0 Add four circle primitives for the rounded corners*
1,1,$1+$1,$2,$3*
1,1,$1+$1,$4,$5*
1,1,$1+$1,$6,$7*
1,1,$1+$1,$8,$9*
0 Add four rect primitives between the rounded corners*
20,1,$1+$1,$2,$3,$4,$5,0*
20,1,$1+$1,$4,$5,$6,$7,0*
20,1,$1+$1,$6,$7,$8,$9,0*
20,1,$1+$1,$8,$9,$2,$3,0*%
%AMRotRect*
0 Rectangle, with rotation*
0 The origin of the aperture is its center*
0 $1 length*
0 $2 width*
0 $3 Rotation angle, in degrees counterclockwise*
0 Add horizontal line*
21,1,$1,$2,0,0,$3*%
G04 Aperture macros list end*
%TA.AperFunction,ComponentPad*%
%ADD10R,1.500000X1.500000*%
%TD*%
%TA.AperFunction,ComponentPad*%
%ADD11C,1.600000*%
%TD*%
%TA.AperFunction,ComponentPad*%
%ADD12R,1.700000X1.700000*%
%TD*%
%TA.AperFunction,ComponentPad*%
%ADD13C,1.700000*%
%TD*%
%TA.AperFunction,ComponentPad*%
%ADD14RotRect,1.700000X1.700000X315.000000*%
%TD*%
%TA.AperFunction,ComponentPad*%
%ADD15RotRect,1.700000X1.700000X225.000000*%
%TD*%
%TA.AperFunction,ComponentPad*%
%ADD16RoundRect,0.250000X0.350000X0.625000X-0.350000X0.625000X-0.350000X-0.625000X0.350000X-0.625000X0*%
%TD*%
%TA.AperFunction,ComponentPad*%
%ADD17O,1.200000X1.750000*%
%TD*%
%TA.AperFunction,ComponentPad*%
%ADD18RoundRect,0.250000X-0.350000X-0.625000X0.350000X-0.625000X0.350000X0.625000X-0.350000X0.625000X0*%
%TD*%
%TA.AperFunction,ComponentPad*%
%ADD19RoundRect,0.250000X-0.600000X-0.750000X0.600000X-0.750000X0.600000X0.750000X-0.600000X0.750000X0*%
%TD*%
%TA.AperFunction,ComponentPad*%
%ADD20O,1.700000X2.000000*%
%TD*%
%TA.AperFunction,Conductor*%
%ADD21C,1.000000*%
%TD*%
%TA.AperFunction,Conductor*%
%ADD22C,0.500000*%
%TD*%
G04 APERTURE END LIST*
D10*
%TO.P,SW2,1,C_1*%
%TO.N,VCC*%
X104902000Y-110490000D03*
D11*
%TO.P,SW2,2,B_2*%
%TO.N,Net-(BT1-+)*%
X104902000Y-113030000D03*
%TO.P,SW2,3,A_3*%
%TO.N,unconnected-(SW2-A-Pad3)*%
X104902000Y-107950000D03*
%TD*%
D12*
%TO.P,Start Modul,1,Pin_1_1*%
%TO.N,+3V3*%
X161893000Y-71374000D03*
D13*
%TO.P,Start Modul,2,Pin_2_2*%
%TO.N,GND*%
X161893000Y-73914000D03*
%TO.P,Start Modul,3,Pin_3_3*%
%TO.N,/D8*%
X161893000Y-76454000D03*
%TO.P,Start Modul,4,Pin_4_4*%
%TO.N,unconnected-(J5-Pin_4-Pad4)*%
X161893000Y-78994000D03*
%TD*%
D12*
%TO.P,J1,1,Pin_1_1*%
%TO.N,/D13{slash}SCK*%
X115283800Y-86360000D03*
D13*
%TO.P,J1,2,Pin_2_2*%
%TO.N,+3V3*%
X117823800Y-86360000D03*
%TO.P,J1,3,Pin_3_3*%
%TO.N,/AREF*%
X120363800Y-86360000D03*
%TO.P,J1,4,Pin_4_4*%
%TO.N,/A0*%
X122903800Y-86360000D03*
%TO.P,J1,5,Pin_5_5*%
%TO.N,/A1*%
X125443800Y-86360000D03*
%TO.P,J1,6,Pin_6_6*%
%TO.N,/A2*%
X127983800Y-86360000D03*
%TO.P,J1,7,Pin_7_7*%
%TO.N,/A3*%
X130523800Y-86360000D03*
%TO.P,J1,8,Pin_8_8*%
%TO.N,/A4{slash}SDA*%
X133063800Y-86360000D03*
%TO.P,J1,9,Pin_9_9*%
%TO.N,/A5{slash}SCL*%
X135603800Y-86360000D03*
%TO.P,J1,10,Pin_10_10*%
%TO.N,/A6*%
X138143800Y-86360000D03*
%TO.P,J1,11,Pin_11_11*%
%TO.N,/A7*%
X140683800Y-86360000D03*
%TO.P,J1,12,Pin_12_12*%
%TO.N,+5V*%
X143223800Y-86360000D03*
%TO.P,J1,13,Pin_13_13*%
%TO.N,/~{RESET}*%
X145763800Y-86360000D03*
%TO.P,J1,14,Pin_14_14*%
%TO.N,GND*%
X148303800Y-86360000D03*
%TO.P,J1,15,Pin_15_15*%
%TO.N,VCC*%
X150843800Y-86360000D03*
%TD*%
D14*
%TO.P,J6,1,Vin_1*%
%TO.N,+3V3*%
X192833354Y-116664046D03*
D13*
%TO.P,J6,2,GND_2*%
%TO.N,GND*%
X191037303Y-118460097D03*
%TO.P,J6,3,SCL_3*%
%TO.N,/A5{slash}SCL*%
X189241252Y-120256148D03*
%TO.P,J6,4,SDA_4*%
%TO.N,/A4{slash}SDA*%
X187445200Y-122052200D03*
%TO.P,J6,5,GPIO_5*%
%TO.N,unconnected-(J6-GPIO-Pad5)*%
X185649149Y-123848251D03*
%TO.P,J6,6,Xshut_6*%
%TO.N,/\u002AD5*%
X183853098Y-125644302D03*
%TD*%
%TO.P,J2,15,Pin_15_15*%
%TO.N,/D1{slash}TX*%
X150843800Y-70944200D03*
%TO.P,J2,14,Pin_14_14*%
%TO.N,/D0{slash}RX*%
X148303800Y-70944200D03*
%TO.P,J2,13,Pin_13_13*%
%TO.N,/~{RESET}*%
X145763800Y-70944200D03*
%TO.P,J2,12,Pin_12_12*%
%TO.N,GND*%
X143223800Y-70944200D03*
%TO.P,J2,11,Pin_11_11*%
%TO.N,/D2*%
X140683800Y-70944200D03*
%TO.P,J2,10,Pin_10_10*%
%TO.N,/\u002AD3*%
X138143800Y-70944200D03*
%TO.P,J2,9,Pin_9_9*%
%TO.N,/D4*%
X135603800Y-70944200D03*
%TO.P,J2,8,Pin_8_8*%
%TO.N,/\u002AD5*%
X133063800Y-70944200D03*
%TO.P,J2,7,Pin_7_7*%
%TO.N,/\u002AD6*%
X130523800Y-70944200D03*
%TO.P,J2,6,Pin_6_6*%
%TO.N,/D7*%
X127983800Y-70944200D03*
%TO.P,J2,5,Pin_5_5*%
%TO.N,/D8*%
X125443800Y-70944200D03*
%TO.P,J2,4,Pin_4_4*%
%TO.N,/\u002AD9*%
X122903800Y-70944200D03*
%TO.P,J2,3,Pin_3_3*%
%TO.N,/\u002AD10{slash}SS*%
X120363800Y-70944200D03*
%TO.P,J2,2,Pin_2_2*%
%TO.N,/\u002AD11{slash}MOSI*%
X117823800Y-70944200D03*
D12*
%TO.P,J2,1,Pin_1_1*%
%TO.N,/D12{slash}MISO*%
X115283800Y-70944200D03*
%TD*%
D13*
%TO.P,U2,*%
%TO.N,*%
X158452800Y-120147200D03*
X118342800Y-109987200D03*
X118342800Y-117607200D03*
X118342800Y-120147200D03*
X118342800Y-112527200D03*
%TO.P,U2,2,in_-_2*%
%TO.N,GND*%
X118342800Y-125227200D03*
D12*
%TO.P,U2,1,in_+_1*%
%TO.N,VCC*%
X118342800Y-107447200D03*
D13*
%TO.P,U2,*%
%TO.N,*%
X118342800Y-115067200D03*
X118342800Y-122687200D03*
D12*
%TO.P,U2,3,Out_+_3*%
%TO.N,/DC-DC out*%
X158452800Y-107447200D03*
D13*
%TO.P,U2,*%
%TO.N,*%
X158452800Y-109987200D03*
X158452800Y-112527200D03*
X158452800Y-115067200D03*
X158452800Y-117607200D03*
X158452800Y-122687200D03*
%TO.P,U2,4,Out_-_4*%
%TO.N,GND*%
X158452800Y-125227200D03*
%TD*%
%TO.P,J3,6,Xshut_6*%
%TO.N,/D4*%
X184839795Y-63681795D03*
%TO.P,J3,5,GPIO_5*%
%TO.N,unconnected-(J3-GPIO-Pad5)*%
X186635846Y-65477846D03*
%TO.P,J3,4,SDA_4*%
%TO.N,/A4{slash}SDA*%
X188431897Y-67273897D03*
%TO.P,J3,3,SCL_3*%
%TO.N,/A5{slash}SCL*%
X190227949Y-69069949D03*
%TO.P,J3,2,GND_2*%
%TO.N,GND*%
X192024000Y-70866000D03*
D15*
%TO.P,J3,1,Vin_1*%
%TO.N,+3V3*%
X193820051Y-72662051D03*
%TD*%
D13*
%TO.P,J4,6,Xshut_6*%
%TO.N,/\u002AD3*%
X194760400Y-87376000D03*
%TO.P,J4,5,GPIO_5*%
%TO.N,unconnected-(J4-GPIO-Pad5)*%
X194760400Y-89916000D03*
%TO.P,J4,4,SDA_4*%
%TO.N,/A4{slash}SDA*%
X194760400Y-92456000D03*
%TO.P,J4,3,SCL_3*%
%TO.N,/A5{slash}SCL*%
X194760400Y-94996000D03*
%TO.P,J4,2,GND_2*%
%TO.N,GND*%
X194760400Y-97536000D03*
D12*
%TO.P,J4,1,Vin_1*%
%TO.N,+3V3*%
X194760400Y-100076000D03*
%TD*%
D16*
%TO.P,M4,1,+_1*%
%TO.N,/M2 +*%
X160274000Y-63500000D03*
D17*
%TO.P,M4,2,-_2*%
%TO.N,/M2 -*%
X158274000Y-63500000D03*
%TD*%
D11*
%TO.P,R1,2*%
%TO.N,+3V3*%
X136130000Y-97790000D03*
%TO.P,R1,1*%
%TO.N,/A5{slash}SCL*%
X136130000Y-90170000D03*
%TD*%
D13*
%TO.P,U1,10,M1b_10*%
%TO.N,/M1 +*%
X168148000Y-101092000D03*
%TO.P,U1,14,M2a_14*%
%TO.N,/M2 +*%
X168148000Y-90932000D03*
%TO.P,U1,16*%
%TO.N,N/C*%
X168148000Y-85852000D03*
%TO.P,U1,11,M1a_11*%
%TO.N,/M1 -*%
X168148000Y-98552000D03*
%TO.P,U1,13,Gnd_13*%
%TO.N,GND*%
X168148000Y-93472000D03*
D12*
%TO.P,U1,9*%
%TO.N,N/C*%
X168148000Y-103632000D03*
D13*
%TO.P,U1,12,Vin_12*%
%TO.N,/DC-DC out*%
X168148000Y-96012000D03*
%TO.P,U1,15,M2b_15*%
%TO.N,/M2 -*%
X168148000Y-88392000D03*
D12*
%TO.P,U1,1,Vm_1*%
%TO.N,unconnected-(U1-Vm-Pad1)*%
X180698000Y-103632000D03*
D13*
%TO.P,U1,2,Gnd_2*%
%TO.N,unconnected-(U1-Gnd-Pad2)*%
X180698000Y-101092000D03*
%TO.P,U1,3,Err_3*%
%TO.N,unconnected-(U1-Err-Pad3)*%
X180698000Y-98552000D03*
%TO.P,U1,4,Reset_4*%
%TO.N,unconnected-(U1-Reset-Pad4)*%
X180698000Y-96012000D03*
%TO.P,U1,5,SCL_5*%
%TO.N,/A5{slash}SCL*%
X180698000Y-93472000D03*
%TO.P,U1,6,SDA_6*%
%TO.N,/A4{slash}SDA*%
X180698000Y-90932000D03*
%TO.P,U1,7,Vdd_7*%
%TO.N,+3V3*%
X180698000Y-88392000D03*
%TO.P,U1,8,Gnd_8*%
%TO.N,GND*%
X180698000Y-85852000D03*
%TD*%
D11*
%TO.P,R2,1*%
%TO.N,/A4{slash}SDA*%
X132080000Y-90170000D03*
%TO.P,R2,2*%
%TO.N,+3V3*%
X132080000Y-97790000D03*
%TD*%
D18*
%TO.P,M2,1,PWM_1*%
%TO.N,/\u002AD9*%
X168291800Y-125660600D03*
D17*
%TO.P,M2,2,+_2*%
%TO.N,/DC-DC out*%
X170291800Y-125660600D03*
%TO.P,M2,3,-_3*%
%TO.N,GND*%
X172291800Y-125660600D03*
%TD*%
D16*
%TO.P,M1,1,+_1*%
%TO.N,/M1 +*%
X171450000Y-63500000D03*
D17*
%TO.P,M1,2,-_2*%
%TO.N,/M1 -*%
X169450000Y-63500000D03*
%TD*%
D19*
%TO.P,BT1,1,+_1*%
%TO.N,Net-(BT1-+)*%
X108244000Y-125476000D03*
D20*
%TO.P,BT1,2,-_2*%
%TO.N,GND*%
X110744000Y-125476000D03*
%TD*%
%TO.N,Net-(BT1-+)*%
D21*
X108244000Y-116372000D02*
X104902000Y-113030000D01*
X108244000Y-125476000D02*
X108244000Y-116372000D01*
%TO.N,VCC*%
X118342800Y-107447200D02*
X107944800Y-107447200D01*
X107944800Y-107447200D02*
X104902000Y-110490000D01*
%TO.N,/D8*%
D22*
X130953600Y-76454000D02*
X161893000Y-76454000D01*
X125443800Y-70944200D02*
X130953600Y-76454000D01*
%TO.N,/\u002AD3*%
X196850000Y-85286400D02*
X194760400Y-87376000D01*
X196850000Y-72390000D02*
X196850000Y-85286400D01*
X185674000Y-61214000D02*
X196850000Y-72390000D01*
X147874000Y-61214000D02*
X185674000Y-61214000D01*
X138143800Y-70944200D02*
X147874000Y-61214000D01*
%TO.N,/M1 +*%
X173482000Y-95758000D02*
X168148000Y-101092000D01*
X173482000Y-65532000D02*
X173482000Y-95758000D01*
X171450000Y-63500000D02*
X173482000Y-65532000D01*
%TO.N,/M2 +*%
X171450000Y-87630000D02*
X168148000Y-90932000D01*
X160274000Y-63500000D02*
X171450000Y-74676000D01*
X171450000Y-74676000D02*
X171450000Y-87630000D01*
%TO.N,/M2 -*%
X170434000Y-75660000D02*
X158274000Y-63500000D01*
X168148000Y-88392000D02*
X170434000Y-86106000D01*
X170434000Y-86106000D02*
X170434000Y-75660000D01*
%TO.N,VCC*%
D21*
X129756600Y-107447200D02*
X118342800Y-107447200D01*
X150843800Y-86360000D02*
X129756600Y-107447200D01*
%TO.N,/DC-DC out*%
D22*
X158452800Y-105707200D02*
X168148000Y-96012000D01*
X158452800Y-107447200D02*
X158452800Y-105707200D01*
%TO.N,/A5{slash}SCL*%
X135603800Y-89643800D02*
X136130000Y-90170000D01*
X135603800Y-86360000D02*
X135603800Y-89643800D01*
%TO.N,/A4{slash}SDA*%
X132080000Y-87343800D02*
X133063800Y-86360000D01*
X132080000Y-90170000D02*
X132080000Y-87343800D01*
%TO.N,/DC-DC out*%
X170291800Y-119286200D02*
X158452800Y-107447200D01*
X170291800Y-125660600D02*
X170291800Y-119286200D01*
%TO.N,/M1 -*%
X172428000Y-76454000D02*
X172428000Y-94272000D01*
%TO.N,/A5{slash}SCL*%
X190227949Y-83942051D02*
X180698000Y-93472000D01*
X190227949Y-69069949D02*
X190227949Y-83942051D01*
%TO.N,/A4{slash}SDA*%
X187445200Y-99771200D02*
X187445200Y-122052200D01*
X194760400Y-92456000D02*
X187445200Y-99771200D01*
%TO.N,/M1 -*%
X170825000Y-64875000D02*
X172428000Y-66478000D01*
X169450000Y-63500000D02*
X170350000Y-64400000D01*
X170350000Y-64400000D02*
X170350000Y-64442588D01*
X170350000Y-64442588D02*
X170782412Y-64875000D01*
X172428000Y-66478000D02*
X172428000Y-76454000D01*
X170782412Y-64875000D02*
X170825000Y-64875000D01*
X172428000Y-94272000D02*
X168148000Y-98552000D01*
%TD*%
%TA.AperFunction,Conductor*%
%TO.N,Net-(BT1-+)*%
G36*
X108743810Y-123629427D02*
G01*
X108746649Y-123634038D01*
X109072739Y-124623559D01*
X109072074Y-124632489D01*
X109069977Y-124635416D01*
X108252350Y-125468492D01*
X108244109Y-125471996D01*
X108235805Y-125468647D01*
X108235650Y-125468492D01*
X108029349Y-125258293D01*
X107418021Y-124635414D01*
X107414673Y-124627112D01*
X107415258Y-124623565D01*
X107741351Y-123634037D01*
X107747195Y-123627253D01*
X107752463Y-123626000D01*
X108735537Y-123626000D01*
X108743810Y-123629427D01*
G37*
%TD.AperFunction*%
%TD*%
%TA.AperFunction,Conductor*%
%TO.N,VCC*%
G36*
X117494547Y-106600186D02*
G01*
X117498313Y-106602706D01*
X117840224Y-106944216D01*
X118335512Y-107438922D01*
X118338944Y-107447193D01*
X118335522Y-107455468D01*
X118335512Y-107455478D01*
X117498315Y-108291691D01*
X117490040Y-108295113D01*
X117485592Y-108294232D01*
X116650045Y-107950183D01*
X116643700Y-107943864D01*
X116642800Y-107939364D01*
X116642800Y-106955035D01*
X116646227Y-106946762D01*
X116650042Y-106944217D01*
X117485594Y-106600167D01*
X117494547Y-106600186D01*
G37*
%TD.AperFunction*%
%TD*%
%TA.AperFunction,Conductor*%
%TO.N,/D8*%
G36*
X126198455Y-70554094D02*
G01*
X126198695Y-70554570D01*
X126288961Y-70744246D01*
X126289407Y-70745320D01*
X126351549Y-70918357D01*
X126351861Y-70919366D01*
X126391433Y-71071516D01*
X126391583Y-71072168D01*
X126419091Y-71209776D01*
X126461219Y-71404093D01*
X126461220Y-71404099D01*
X126525015Y-71576089D01*
X126572039Y-71662483D01*
X126572047Y-71662496D01*
X126572051Y-71662503D01*
X126600099Y-71704158D01*
X126633634Y-71753963D01*
X126633639Y-71753969D01*
X126715818Y-71855813D01*
X126715824Y-71855820D01*
X126812010Y-71958346D01*
X126815171Y-71966724D01*
X126811750Y-71974624D01*
X126474216Y-72312158D01*
X126465943Y-72315585D01*
X126457946Y-72312425D01*
X126352352Y-72213551D01*
X126352349Y-72213548D01*
X126247887Y-72129866D01*
X126247886Y-72129865D01*
X126150871Y-72065723D01*
X126059361Y-72017733D01*
X125885049Y-71956648D01*
X125885043Y-71956647D01*
X125709329Y-71919481D01*
X125709329Y-71919480D01*
X125538223Y-71884310D01*
X125537174Y-71884044D01*
X125303528Y-71812971D01*
X125302062Y-71812415D01*
X125054413Y-71699007D01*
X125048317Y-71692446D01*
X125048646Y-71683498D01*
X125048950Y-71682882D01*
X125441418Y-70946634D01*
X125446234Y-70941818D01*
X126182627Y-70549272D01*
X126191539Y-70548406D01*
X126198455Y-70554094D01*
G37*
%TD.AperFunction*%
%TD*%
%TA.AperFunction,Conductor*%
%TO.N,/\u002AD3*%
G36*
X195790824Y-86008049D02*
G01*
X196128358Y-86345583D01*
X196131785Y-86353856D01*
X196128625Y-86361853D01*
X196029751Y-86467447D01*
X196029748Y-86467450D01*
X195946066Y-86571912D01*
X195946065Y-86571913D01*
X195881923Y-86668927D01*
X195833933Y-86760437D01*
X195772848Y-86934749D01*
X195772847Y-86934755D01*
X195735681Y-87110470D01*
X195700510Y-87281576D01*
X195700244Y-87282625D01*
X195629171Y-87516271D01*
X195628615Y-87517737D01*
X195515207Y-87765386D01*
X195508646Y-87771482D01*
X195499698Y-87771153D01*
X195499065Y-87770840D01*
X194762837Y-87378383D01*
X194758017Y-87373563D01*
X194365472Y-86637172D01*
X194364606Y-86628260D01*
X194370294Y-86621344D01*
X194370732Y-86621122D01*
X194560451Y-86530836D01*
X194561509Y-86530396D01*
X194734577Y-86468242D01*
X194735553Y-86467941D01*
X194887749Y-86428358D01*
X194888330Y-86428224D01*
X195025963Y-86400711D01*
X195220304Y-86358577D01*
X195392284Y-86294786D01*
X195478703Y-86247749D01*
X195570158Y-86186168D01*
X195672020Y-86103976D01*
X195774547Y-86007788D01*
X195782924Y-86004628D01*
X195790824Y-86008049D01*
G37*
%TD.AperFunction*%
%TD*%
%TA.AperFunction,Conductor*%
%TO.N,/\u002AD3*%
G36*
X139174224Y-69576249D02*
G01*
X139511758Y-69913783D01*
X139515185Y-69922056D01*
X139512025Y-69930053D01*
X139413151Y-70035647D01*
X139413148Y-70035650D01*
X139329466Y-70140112D01*
X139329465Y-70140113D01*
X139265323Y-70237127D01*
X139217333Y-70328637D01*
X139156248Y-70502949D01*
X139156247Y-70502955D01*
X139119081Y-70678670D01*
X139083910Y-70849776D01*
X139083644Y-70850825D01*
X139012571Y-71084471D01*
X139012015Y-71085937D01*
X138898607Y-71333586D01*
X138892046Y-71339682D01*
X138883098Y-71339353D01*
X138882465Y-71339040D01*
X138146237Y-70946583D01*
X138141417Y-70941763D01*
X137748872Y-70205372D01*
X137748006Y-70196460D01*
X137753694Y-70189544D01*
X137754132Y-70189322D01*
X137943851Y-70099036D01*
X137944909Y-70098596D01*
X138117977Y-70036442D01*
X138118953Y-70036141D01*
X138271149Y-69996558D01*
X138271730Y-69996424D01*
X138409363Y-69968911D01*
X138603704Y-69926777D01*
X138775684Y-69862986D01*
X138862103Y-69815949D01*
X138953558Y-69754368D01*
X139055420Y-69672176D01*
X139157947Y-69575988D01*
X139166324Y-69572828D01*
X139174224Y-69576249D01*
G37*
%TD.AperFunction*%
%TD*%
%TA.AperFunction,Conductor*%
%TO.N,/M1 +*%
G36*
X169174872Y-99722510D02*
G01*
X169175653Y-99722849D01*
X169176382Y-99723165D01*
X169180002Y-99725627D01*
X169514312Y-100059937D01*
X169516849Y-100063735D01*
X169517573Y-100065484D01*
X169517646Y-100074254D01*
X169517045Y-100075777D01*
X169514702Y-100079479D01*
X169417491Y-100183296D01*
X169417421Y-100183368D01*
X169417343Y-100183455D01*
X169333743Y-100287814D01*
X169333691Y-100287878D01*
X169333677Y-100287894D01*
X169269524Y-100384924D01*
X169221534Y-100476433D01*
X169160446Y-100650754D01*
X169160427Y-100650827D01*
X169160395Y-100650998D01*
X169123274Y-100826503D01*
X169088165Y-100997308D01*
X169088043Y-100997841D01*
X169087910Y-100998363D01*
X169087766Y-100998879D01*
X169016885Y-101231895D01*
X169016633Y-101232634D01*
X169016355Y-101233368D01*
X169016051Y-101234095D01*
X168903775Y-101479270D01*
X168901099Y-101482972D01*
X168899794Y-101484184D01*
X168891407Y-101487303D01*
X168889949Y-101487250D01*
X168884870Y-101485883D01*
X168151972Y-101095201D01*
X168149203Y-101093149D01*
X168146850Y-101090796D01*
X168144798Y-101088027D01*
X168096439Y-100997308D01*
X167754165Y-100355223D01*
X167752846Y-100350854D01*
X167752674Y-100349079D01*
X167755282Y-100340519D01*
X167756257Y-100339333D01*
X167760262Y-100336203D01*
X167947831Y-100246940D01*
X167948295Y-100246734D01*
X167948878Y-100246491D01*
X167949366Y-100246303D01*
X168121957Y-100184320D01*
X168122404Y-100184171D01*
X168122931Y-100184009D01*
X168123363Y-100183886D01*
X168275194Y-100144398D01*
X168275483Y-100144327D01*
X168275782Y-100144258D01*
X168276080Y-100144193D01*
X168413563Y-100116711D01*
X168607904Y-100074577D01*
X168779884Y-100010786D01*
X168866303Y-99963749D01*
X168957758Y-99902168D01*
X169059620Y-99819976D01*
X169160453Y-99725376D01*
X169164316Y-99722969D01*
X169166093Y-99722299D01*
X169174872Y-99722510D01*
G37*
%TD.AperFunction*%
%TD*%
%TA.AperFunction,Conductor*%
%TO.N,/M1 +*%
G36*
X172044797Y-63255473D02*
G01*
X172052599Y-63258470D01*
X172053554Y-63259328D01*
X172054701Y-63261727D01*
X172055037Y-63261544D01*
X172645698Y-64337749D01*
X172647071Y-64342104D01*
X172647368Y-64344816D01*
X172645807Y-64352049D01*
X172645588Y-64352419D01*
X172643792Y-64354733D01*
X172304572Y-64693953D01*
X172300777Y-64696489D01*
X172297943Y-64697663D01*
X172289147Y-64697728D01*
X172288983Y-64697663D01*
X171485770Y-64378692D01*
X171481936Y-64376210D01*
X171479735Y-64374072D01*
X171476193Y-64366043D01*
X171449616Y-63509708D01*
X171450365Y-63505212D01*
X171451420Y-63502421D01*
X171455678Y-63496961D01*
X171455716Y-63496935D01*
X171457914Y-63495735D01*
X172038166Y-63256353D01*
X172042641Y-63255470D01*
X172044797Y-63255473D01*
G37*
%TD.AperFunction*%
%TD*%
%TA.AperFunction,Conductor*%
%TO.N,/M2 +*%
G36*
X169174872Y-89562510D02*
G01*
X169175653Y-89562849D01*
X169176382Y-89563165D01*
X169180002Y-89565627D01*
X169514312Y-89899937D01*
X169516849Y-89903735D01*
X169517573Y-89905484D01*
X169517646Y-89914254D01*
X169517045Y-89915777D01*
X169514702Y-89919479D01*
X169417491Y-90023296D01*
X169417421Y-90023368D01*
X169417343Y-90023455D01*
X169333743Y-90127814D01*
X169333691Y-90127878D01*
X169333677Y-90127894D01*
X169269524Y-90224924D01*
X169221534Y-90316433D01*
X169160446Y-90490754D01*
X169160427Y-90490827D01*
X169160395Y-90490998D01*
X169123274Y-90666503D01*
X169088165Y-90837308D01*
X169088043Y-90837841D01*
X169087910Y-90838363D01*
X169087766Y-90838879D01*
X169016885Y-91071895D01*
X169016633Y-91072634D01*
X169016355Y-91073368D01*
X169016051Y-91074095D01*
X168903775Y-91319270D01*
X168901099Y-91322972D01*
X168899794Y-91324184D01*
X168891407Y-91327303D01*
X168889949Y-91327250D01*
X168884870Y-91325883D01*
X168151972Y-90935201D01*
X168149203Y-90933149D01*
X168146850Y-90930796D01*
X168144798Y-90928027D01*
X168096439Y-90837308D01*
X167754165Y-90195223D01*
X167752846Y-90190854D01*
X167752674Y-90189079D01*
X167755282Y-90180519D01*
X167756257Y-90179333D01*
X167760262Y-90176203D01*
X167947831Y-90086940D01*
X167948295Y-90086734D01*
X167948878Y-90086491D01*
X167949366Y-90086303D01*
X168121957Y-90024320D01*
X168122404Y-90024171D01*
X168122931Y-90024009D01*
X168123363Y-90023886D01*
X168275194Y-89984398D01*
X168275483Y-89984327D01*
X168275782Y-89984258D01*
X168276080Y-89984193D01*
X168413563Y-89956711D01*
X168607904Y-89914577D01*
X168779884Y-89850786D01*
X168866303Y-89803749D01*
X168957758Y-89742168D01*
X169059620Y-89659976D01*
X169160453Y-89565376D01*
X169164316Y-89562969D01*
X169166093Y-89562299D01*
X169174872Y-89562510D01*
G37*
%TD.AperFunction*%
%TD*%
%TA.AperFunction,Conductor*%
%TO.N,/M2 +*%
G36*
X160868797Y-63255473D02*
G01*
X160876599Y-63258470D01*
X160877554Y-63259328D01*
X160878701Y-63261727D01*
X160879037Y-63261544D01*
X161469698Y-64337749D01*
X161471071Y-64342104D01*
X161471368Y-64344816D01*
X161469807Y-64352049D01*
X161469588Y-64352419D01*
X161467792Y-64354733D01*
X161128572Y-64693953D01*
X161124777Y-64696489D01*
X161121943Y-64697663D01*
X161113147Y-64697728D01*
X161112983Y-64697663D01*
X160309770Y-64378692D01*
X160305936Y-64376210D01*
X160303735Y-64374072D01*
X160300193Y-64366043D01*
X160273616Y-63509708D01*
X160274365Y-63505212D01*
X160275420Y-63502421D01*
X160279678Y-63496961D01*
X160279716Y-63496935D01*
X160281914Y-63495735D01*
X160862166Y-63256353D01*
X160866641Y-63255470D01*
X160868797Y-63255473D01*
G37*
%TD.AperFunction*%
%TD*%
%TA.AperFunction,Conductor*%
%TO.N,/M2 -*%
G36*
X158873057Y-63255568D02*
G01*
X158878943Y-63260970D01*
X159407210Y-64276008D01*
X159407989Y-64284928D01*
X159405104Y-64289682D01*
X159062819Y-64631967D01*
X159054546Y-64635394D01*
X159050674Y-64634735D01*
X158302958Y-64372538D01*
X158296285Y-64366566D01*
X158295134Y-64361795D01*
X158273496Y-63507334D01*
X158276712Y-63498979D01*
X158280726Y-63496226D01*
X158864102Y-63255555D01*
X158873057Y-63255568D01*
G37*
%TD.AperFunction*%
%TD*%
%TA.AperFunction,Conductor*%
%TO.N,/M2 -*%
G36*
X169178424Y-87024049D02*
G01*
X169515958Y-87361583D01*
X169519385Y-87369856D01*
X169516225Y-87377853D01*
X169417351Y-87483447D01*
X169417348Y-87483450D01*
X169333666Y-87587912D01*
X169333665Y-87587913D01*
X169269523Y-87684927D01*
X169221533Y-87776437D01*
X169160448Y-87950749D01*
X169160447Y-87950755D01*
X169123281Y-88126470D01*
X169088110Y-88297576D01*
X169087844Y-88298625D01*
X169016771Y-88532271D01*
X169016215Y-88533737D01*
X168902807Y-88781386D01*
X168896246Y-88787482D01*
X168887298Y-88787153D01*
X168886665Y-88786840D01*
X168150437Y-88394383D01*
X168145617Y-88389563D01*
X167753072Y-87653172D01*
X167752206Y-87644260D01*
X167757894Y-87637344D01*
X167758332Y-87637122D01*
X167948051Y-87546836D01*
X167949109Y-87546396D01*
X168122177Y-87484242D01*
X168123153Y-87483941D01*
X168275349Y-87444358D01*
X168275930Y-87444224D01*
X168413563Y-87416711D01*
X168607904Y-87374577D01*
X168779884Y-87310786D01*
X168866303Y-87263749D01*
X168957758Y-87202168D01*
X169059620Y-87119976D01*
X169162147Y-87023788D01*
X169170524Y-87020628D01*
X169178424Y-87024049D01*
G37*
%TD.AperFunction*%
%TD*%
%TA.AperFunction,Conductor*%
%TO.N,VCC*%
G36*
X119200004Y-106600166D02*
G01*
X120035556Y-106944217D01*
X120041900Y-106950535D01*
X120042800Y-106955035D01*
X120042800Y-107939364D01*
X120039373Y-107947637D01*
X120035555Y-107950183D01*
X119200007Y-108294232D01*
X119191052Y-108294213D01*
X119187285Y-108291692D01*
X118350086Y-107455476D01*
X118346655Y-107447207D01*
X118350076Y-107438933D01*
X119187286Y-106602706D01*
X119195559Y-106599286D01*
X119200004Y-106600166D01*
G37*
%TD.AperFunction*%
%TD*%
%TA.AperFunction,Conductor*%
%TO.N,VCC*%
G36*
X150104493Y-85964822D02*
G01*
X150104743Y-85964950D01*
X150841363Y-86357617D01*
X150846182Y-86362436D01*
X150957591Y-86571433D01*
X151238838Y-87099036D01*
X151239705Y-87107949D01*
X151234017Y-87114865D01*
X151233747Y-87115004D01*
X150819282Y-87322320D01*
X150819283Y-87322321D01*
X150548671Y-87459292D01*
X150548663Y-87459297D01*
X150443604Y-87525059D01*
X150443586Y-87525071D01*
X150333484Y-87606175D01*
X150182145Y-87735891D01*
X150182119Y-87735915D01*
X150006435Y-87904791D01*
X149998096Y-87908054D01*
X149990054Y-87904629D01*
X149299095Y-87213670D01*
X149295668Y-87205397D01*
X149298856Y-87197369D01*
X149524138Y-86958616D01*
X149675821Y-86764479D01*
X149782724Y-86585647D01*
X149881465Y-86384544D01*
X150088795Y-85970051D01*
X150095561Y-85964186D01*
X150104493Y-85964822D01*
G37*
%TD.AperFunction*%
%TD*%
%TA.AperFunction,Conductor*%
%TO.N,/DC-DC out*%
G36*
X167404936Y-95616707D02*
G01*
X167406051Y-95616748D01*
X167411126Y-95618114D01*
X168144027Y-96008798D01*
X168146796Y-96010850D01*
X168149149Y-96013203D01*
X168151201Y-96015972D01*
X168541831Y-96748772D01*
X168543151Y-96753146D01*
X168543323Y-96754919D01*
X168540719Y-96763476D01*
X168540253Y-96764042D01*
X168539746Y-96764659D01*
X168535735Y-96767796D01*
X168348205Y-96857040D01*
X168347667Y-96857279D01*
X168347140Y-96857498D01*
X168346604Y-96857705D01*
X168174101Y-96919655D01*
X168173597Y-96919824D01*
X168173072Y-96919986D01*
X168172567Y-96920129D01*
X168020841Y-96959591D01*
X168020524Y-96959669D01*
X168020203Y-96959743D01*
X168019869Y-96959815D01*
X167882383Y-96987298D01*
X167688385Y-97029358D01*
X167688201Y-97029393D01*
X167688099Y-97029420D01*
X167516103Y-97093217D01*
X167429723Y-97140234D01*
X167429705Y-97140245D01*
X167338228Y-97201838D01*
X167338224Y-97201841D01*
X167338145Y-97201906D01*
X167236391Y-97284013D01*
X167236387Y-97284017D01*
X167236364Y-97284037D01*
X167135550Y-97378617D01*
X167131675Y-97381031D01*
X167129907Y-97381698D01*
X167121128Y-97381488D01*
X167119620Y-97380835D01*
X167115996Y-97378371D01*
X166781686Y-97044061D01*
X166779149Y-97040263D01*
X166778425Y-97038514D01*
X166778354Y-97029738D01*
X166778491Y-97029393D01*
X166778956Y-97028215D01*
X166781297Y-97024519D01*
X166841951Y-96959743D01*
X166878652Y-96920547D01*
X166962336Y-96816083D01*
X167026477Y-96719070D01*
X167074467Y-96627559D01*
X167135551Y-96453249D01*
X167172711Y-96277563D01*
X167207842Y-96106645D01*
X167207944Y-96106198D01*
X167208094Y-96105606D01*
X167208229Y-96105125D01*
X167235350Y-96015972D01*
X167279123Y-95872072D01*
X167279370Y-95871351D01*
X167279645Y-95870625D01*
X167279925Y-95869953D01*
X167392224Y-95624724D01*
X167394895Y-95621029D01*
X167396204Y-95619813D01*
X167404590Y-95616695D01*
X167404936Y-95616707D01*
G37*
%TD.AperFunction*%
%TD*%
%TA.AperFunction,Conductor*%
%TO.N,/DC-DC out*%
G36*
X158705010Y-105750627D02*
G01*
X158706296Y-105752153D01*
X159297120Y-106589153D01*
X159299091Y-106597888D01*
X159295839Y-106604168D01*
X158461078Y-107439912D01*
X158452807Y-107443344D01*
X158444532Y-107439922D01*
X158444522Y-107439912D01*
X157609760Y-106604168D01*
X157606338Y-106595893D01*
X157608477Y-106589156D01*
X158199304Y-105752153D01*
X158206875Y-105747370D01*
X158208863Y-105747200D01*
X158696737Y-105747200D01*
X158705010Y-105750627D01*
G37*
%TD.AperFunction*%
%TD*%
%TA.AperFunction,Conductor*%
%TO.N,/A5{slash}SCL*%
G36*
X136405485Y-86603174D02*
G01*
X136412401Y-86608862D01*
X136413268Y-86617775D01*
X136413101Y-86618281D01*
X136342813Y-86816212D01*
X136342371Y-86817287D01*
X136263943Y-86983613D01*
X136263449Y-86984547D01*
X136183850Y-87120105D01*
X136183495Y-87120672D01*
X136105670Y-87237386D01*
X135998029Y-87404619D01*
X135921525Y-87571339D01*
X135893678Y-87665707D01*
X135872556Y-87773904D01*
X135872552Y-87773926D01*
X135858643Y-87904070D01*
X135854161Y-88044580D01*
X135850472Y-88052740D01*
X135842467Y-88055907D01*
X135365122Y-88055907D01*
X135356849Y-88052480D01*
X135353428Y-88044591D01*
X135353428Y-88044580D01*
X135348675Y-87900004D01*
X135333982Y-87766963D01*
X135310738Y-87653010D01*
X135279963Y-87554368D01*
X135199900Y-87387919D01*
X135101948Y-87237414D01*
X135101930Y-87237386D01*
X135101930Y-87237385D01*
X135024833Y-87120395D01*
X135005800Y-87091514D01*
X135005256Y-87090600D01*
X134890297Y-86875124D01*
X134889655Y-86873698D01*
X134794731Y-86618388D01*
X134795060Y-86609441D01*
X134801621Y-86603345D01*
X134802251Y-86603132D01*
X135600392Y-86360038D01*
X135607208Y-86360038D01*
X136405485Y-86603174D01*
G37*
%TD.AperFunction*%
%TD*%
%TA.AperFunction,Conductor*%
%TO.N,/A5{slash}SCL*%
G36*
X135851022Y-88773704D02*
G01*
X135854430Y-88781310D01*
X135860837Y-88893491D01*
X135860837Y-88893495D01*
X135860838Y-88893498D01*
X135881325Y-88993194D01*
X135881326Y-88993196D01*
X135881327Y-88993201D01*
X135914313Y-89073174D01*
X135914315Y-89073178D01*
X135914317Y-89073182D01*
X135958870Y-89137280D01*
X136014041Y-89189306D01*
X136078888Y-89233076D01*
X136078892Y-89233078D01*
X136078893Y-89233079D01*
X136140244Y-89263981D01*
X136233762Y-89311085D01*
X136233818Y-89311150D01*
X136233833Y-89311121D01*
X136457185Y-89425549D01*
X136458558Y-89426376D01*
X136627172Y-89544355D01*
X136631986Y-89551905D01*
X136630050Y-89560649D01*
X136629514Y-89561356D01*
X136133973Y-90166150D01*
X136126079Y-90170378D01*
X136123762Y-90170377D01*
X135345154Y-90092713D01*
X135337262Y-90088482D01*
X135334643Y-90080256D01*
X135367742Y-89606280D01*
X135364953Y-89396989D01*
X135363205Y-89265741D01*
X135354026Y-88782199D01*
X135357295Y-88773862D01*
X135365502Y-88770279D01*
X135365724Y-88770277D01*
X135842749Y-88770277D01*
X135851022Y-88773704D01*
G37*
%TD.AperFunction*%
%TD*%
%TA.AperFunction,Conductor*%
%TO.N,/A4{slash}SDA*%
G36*
X133059150Y-86357595D02*
G01*
X133066077Y-86363267D01*
X133066087Y-86363284D01*
X133458452Y-87098328D01*
X133459324Y-87107241D01*
X133453640Y-87114160D01*
X133452680Y-87114617D01*
X133300596Y-87178821D01*
X133298794Y-87179415D01*
X133137576Y-87218367D01*
X133136231Y-87218610D01*
X132979968Y-87237479D01*
X132979237Y-87237544D01*
X132831348Y-87246056D01*
X132831303Y-87246058D01*
X132736613Y-87251139D01*
X132724360Y-87251797D01*
X132568497Y-87273057D01*
X132568495Y-87273057D01*
X132503352Y-87298635D01*
X132467733Y-87312621D01*
X132467732Y-87312621D01*
X132467729Y-87312623D01*
X132397098Y-87376524D01*
X132397091Y-87376532D01*
X132369780Y-87422708D01*
X132369779Y-87422710D01*
X132349253Y-87479357D01*
X132334907Y-87555937D01*
X132330588Y-87637324D01*
X132326727Y-87645404D01*
X132318904Y-87648404D01*
X131842213Y-87648404D01*
X131833940Y-87644977D01*
X131830513Y-87636704D01*
X131830524Y-87636202D01*
X131833971Y-87555937D01*
X131843995Y-87322502D01*
X131844140Y-87321105D01*
X131883523Y-87082725D01*
X131883914Y-87081103D01*
X131945066Y-86889506D01*
X131945454Y-86888466D01*
X132025088Y-86703277D01*
X132125208Y-86471049D01*
X132246700Y-86123833D01*
X132252666Y-86117157D01*
X132261125Y-86116498D01*
X133059150Y-86357595D01*
G37*
%TD.AperFunction*%
%TD*%
%TA.AperFunction,Conductor*%
%TO.N,/A4{slash}SDA*%
G36*
X132326939Y-88577279D02*
G01*
X132330360Y-88585181D01*
X132334671Y-88720955D01*
X132348074Y-88846518D01*
X132369291Y-88954106D01*
X132369292Y-88954109D01*
X132397411Y-89047312D01*
X132470703Y-89204916D01*
X132560627Y-89347991D01*
X132631315Y-89457883D01*
X132633760Y-89461683D01*
X132634240Y-89462500D01*
X132747215Y-89673973D01*
X132747860Y-89675403D01*
X132841213Y-89926120D01*
X132840888Y-89935069D01*
X132834331Y-89941168D01*
X132833658Y-89941395D01*
X132083410Y-90169961D01*
X132076590Y-90169961D01*
X131326133Y-89941331D01*
X131319218Y-89935642D01*
X131318351Y-89926729D01*
X131318508Y-89926250D01*
X131383209Y-89742652D01*
X131383619Y-89741642D01*
X131455472Y-89586148D01*
X131455904Y-89585309D01*
X131528427Y-89458135D01*
X131528749Y-89457606D01*
X131599404Y-89347942D01*
X131686276Y-89210196D01*
X131686279Y-89210192D01*
X131762681Y-89047051D01*
X131790294Y-88955767D01*
X131790626Y-88954109D01*
X131811287Y-88850718D01*
X131825161Y-88723419D01*
X131825161Y-88723413D01*
X131825241Y-88720957D01*
X131827372Y-88655067D01*
X131829634Y-88585174D01*
X131833327Y-88577016D01*
X131841328Y-88573852D01*
X132318666Y-88573852D01*
X132326939Y-88577279D01*
G37*
%TD.AperFunction*%
%TD*%
%TA.AperFunction,Conductor*%
%TO.N,/DC-DC out*%
G36*
X159301513Y-107099357D02*
G01*
X159307580Y-107105114D01*
X160077045Y-108713996D01*
X160077523Y-108722938D01*
X160074763Y-108727317D01*
X159732917Y-109069163D01*
X159724644Y-109072590D01*
X159719596Y-109071445D01*
X158110714Y-108301980D01*
X158104729Y-108295319D01*
X158104948Y-108286958D01*
X158450238Y-107450982D01*
X158456561Y-107444647D01*
X159292558Y-107099348D01*
X159301513Y-107099357D01*
G37*
%TD.AperFunction*%
%TD*%
%TA.AperFunction,Conductor*%
%TO.N,/DC-DC out*%
G36*
X170541494Y-124194160D02*
G01*
X170544380Y-124198915D01*
X170843881Y-125148863D01*
X170843100Y-125157784D01*
X170840607Y-125161025D01*
X170299685Y-125654407D01*
X170291263Y-125657451D01*
X170283915Y-125654407D01*
X169742992Y-125161025D01*
X169739189Y-125152918D01*
X169739717Y-125148868D01*
X170039220Y-124198914D01*
X170044976Y-124192055D01*
X170050379Y-124190733D01*
X170533221Y-124190733D01*
X170541494Y-124194160D01*
G37*
%TD.AperFunction*%
%TD*%
%TA.AperFunction,Conductor*%
%TO.N,/A5{slash}SCL*%
G36*
X181728424Y-92104049D02*
G01*
X182065958Y-92441583D01*
X182069385Y-92449856D01*
X182066225Y-92457853D01*
X181967351Y-92563447D01*
X181967348Y-92563450D01*
X181883666Y-92667912D01*
X181883665Y-92667913D01*
X181819523Y-92764927D01*
X181771533Y-92856437D01*
X181710448Y-93030749D01*
X181710447Y-93030755D01*
X181673281Y-93206470D01*
X181638110Y-93377576D01*
X181637844Y-93378625D01*
X181566771Y-93612271D01*
X181566215Y-93613737D01*
X181452807Y-93861386D01*
X181446246Y-93867482D01*
X181437298Y-93867153D01*
X181436665Y-93866840D01*
X180700437Y-93474383D01*
X180695617Y-93469563D01*
X180303072Y-92733172D01*
X180302206Y-92724260D01*
X180307894Y-92717344D01*
X180308332Y-92717122D01*
X180498051Y-92626836D01*
X180499109Y-92626396D01*
X180672177Y-92564242D01*
X180673153Y-92563941D01*
X180825349Y-92524358D01*
X180825930Y-92524224D01*
X180963563Y-92496711D01*
X181157904Y-92454577D01*
X181329884Y-92390786D01*
X181416303Y-92343749D01*
X181507758Y-92282168D01*
X181609620Y-92199976D01*
X181712147Y-92103788D01*
X181720524Y-92100628D01*
X181728424Y-92104049D01*
G37*
%TD.AperFunction*%
%TD*%
%TA.AperFunction,Conductor*%
%TO.N,/A5{slash}SCL*%
G36*
X191029634Y-69313123D02*
G01*
X191036550Y-69318811D01*
X191037417Y-69327724D01*
X191037250Y-69328230D01*
X190966962Y-69526161D01*
X190966520Y-69527236D01*
X190888092Y-69693562D01*
X190887598Y-69694496D01*
X190807999Y-69830054D01*
X190807644Y-69830621D01*
X190729819Y-69947335D01*
X190622178Y-70114568D01*
X190545674Y-70281288D01*
X190517827Y-70375656D01*
X190496705Y-70483853D01*
X190496701Y-70483875D01*
X190482792Y-70614019D01*
X190478310Y-70754529D01*
X190474621Y-70762689D01*
X190466616Y-70765856D01*
X189989271Y-70765856D01*
X189980998Y-70762429D01*
X189977577Y-70754540D01*
X189977577Y-70754529D01*
X189972824Y-70609953D01*
X189958131Y-70476912D01*
X189934887Y-70362959D01*
X189904112Y-70264317D01*
X189824049Y-70097868D01*
X189726097Y-69947363D01*
X189726079Y-69947335D01*
X189726079Y-69947334D01*
X189648982Y-69830344D01*
X189629949Y-69801463D01*
X189629405Y-69800549D01*
X189514446Y-69585073D01*
X189513804Y-69583647D01*
X189418880Y-69328337D01*
X189419209Y-69319390D01*
X189425770Y-69313294D01*
X189426400Y-69313081D01*
X190224541Y-69069987D01*
X190231357Y-69069987D01*
X191029634Y-69313123D01*
G37*
%TD.AperFunction*%
%TD*%
%TA.AperFunction,Conductor*%
%TO.N,/A4{slash}SDA*%
G36*
X187692151Y-120359720D02*
G01*
X187695572Y-120367609D01*
X187700324Y-120512194D01*
X187700326Y-120512218D01*
X187715015Y-120645217D01*
X187715017Y-120645235D01*
X187715018Y-120645237D01*
X187738262Y-120759190D01*
X187756672Y-120818198D01*
X187769036Y-120857830D01*
X187769036Y-120857831D01*
X187849099Y-121024279D01*
X187849100Y-121024281D01*
X187947070Y-121174814D01*
X188043193Y-121320676D01*
X188043747Y-121321607D01*
X188158699Y-121537070D01*
X188159343Y-121538500D01*
X188254268Y-121793810D01*
X188253939Y-121802758D01*
X188247378Y-121808854D01*
X188246710Y-121809079D01*
X187448609Y-122052161D01*
X187441791Y-122052161D01*
X186643514Y-121809025D01*
X186636598Y-121803337D01*
X186635731Y-121794424D01*
X186635885Y-121793956D01*
X186706187Y-121595983D01*
X186706628Y-121594912D01*
X186733228Y-121538500D01*
X186785059Y-121428578D01*
X186785550Y-121427651D01*
X186865169Y-121292059D01*
X186865482Y-121291559D01*
X186943348Y-121174785D01*
X186943348Y-121174784D01*
X186943366Y-121174758D01*
X187040220Y-121024281D01*
X187050975Y-121007572D01*
X187127476Y-120840856D01*
X187155323Y-120746489D01*
X187176447Y-120638276D01*
X187190356Y-120508130D01*
X187194839Y-120367620D01*
X187198528Y-120359460D01*
X187206533Y-120356293D01*
X187683878Y-120356293D01*
X187692151Y-120359720D01*
G37*
%TD.AperFunction*%
%TD*%
%TA.AperFunction,Conductor*%
%TO.N,/A4{slash}SDA*%
G36*
X194021101Y-92060846D02*
G01*
X194021730Y-92061157D01*
X194757963Y-92453617D01*
X194762783Y-92458437D01*
X195155326Y-93194826D01*
X195156193Y-93203739D01*
X195150505Y-93210655D01*
X195150029Y-93210895D01*
X194960352Y-93301161D01*
X194959278Y-93301607D01*
X194786241Y-93363749D01*
X194785232Y-93364061D01*
X194633082Y-93403633D01*
X194632431Y-93403783D01*
X194494810Y-93431293D01*
X194300505Y-93473419D01*
X194300499Y-93473420D01*
X194128509Y-93537215D01*
X194042116Y-93584239D01*
X194042092Y-93584254D01*
X193950635Y-93645834D01*
X193950629Y-93645839D01*
X193848786Y-93728018D01*
X193848779Y-93728024D01*
X193746253Y-93824210D01*
X193737875Y-93827371D01*
X193729975Y-93823950D01*
X193392441Y-93486416D01*
X193389014Y-93478143D01*
X193392173Y-93470147D01*
X193491052Y-93364547D01*
X193574736Y-93260083D01*
X193638877Y-93163070D01*
X193686867Y-93071559D01*
X193747951Y-92897249D01*
X193785111Y-92721563D01*
X193820290Y-92550413D01*
X193820554Y-92549373D01*
X193891632Y-92315716D01*
X193892179Y-92314273D01*
X194005592Y-92066612D01*
X194012153Y-92060517D01*
X194021101Y-92060846D01*
G37*
%TD.AperFunction*%
%TD*%
%TA.AperFunction,Conductor*%
%TO.N,/M1 -*%
G36*
X170048664Y-63262965D02*
G01*
X170054670Y-63268791D01*
X170592274Y-64425958D01*
X170592652Y-64434905D01*
X170586593Y-64441499D01*
X170581663Y-64442588D01*
X170100653Y-64442588D01*
X170099349Y-64442515D01*
X169461855Y-64371030D01*
X169454015Y-64366703D01*
X169451459Y-64359423D01*
X169450013Y-63506933D01*
X169453426Y-63498654D01*
X169457364Y-63496051D01*
X170039711Y-63262859D01*
X170048664Y-63262965D01*
G37*
%TD.AperFunction*%
%TD*%
%TA.AperFunction,Conductor*%
%TO.N,/M1 -*%
G36*
X169178424Y-97184049D02*
G01*
X169515958Y-97521583D01*
X169519385Y-97529856D01*
X169516225Y-97537853D01*
X169417351Y-97643447D01*
X169417348Y-97643450D01*
X169333666Y-97747912D01*
X169333665Y-97747913D01*
X169269523Y-97844927D01*
X169221533Y-97936437D01*
X169160448Y-98110749D01*
X169160447Y-98110755D01*
X169123281Y-98286470D01*
X169088110Y-98457576D01*
X169087844Y-98458625D01*
X169016771Y-98692271D01*
X169016215Y-98693737D01*
X168902807Y-98941386D01*
X168896246Y-98947482D01*
X168887298Y-98947153D01*
X168886665Y-98946840D01*
X168150437Y-98554383D01*
X168145617Y-98549563D01*
X167753072Y-97813172D01*
X167752206Y-97804260D01*
X167757894Y-97797344D01*
X167758332Y-97797122D01*
X167948051Y-97706836D01*
X167949109Y-97706396D01*
X168122177Y-97644242D01*
X168123153Y-97643941D01*
X168275349Y-97604358D01*
X168275930Y-97604224D01*
X168413563Y-97576711D01*
X168607904Y-97534577D01*
X168779884Y-97470786D01*
X168866303Y-97423749D01*
X168957758Y-97362168D01*
X169059620Y-97279976D01*
X169162147Y-97183788D01*
X169170524Y-97180628D01*
X169178424Y-97184049D01*
G37*
%TD.AperFunction*%
%TD*%
%TA.AperFunction,Conductor*%
%TO.N,Net-(BT1-+)*%
G36*
X105526932Y-112532263D02*
G01*
X105527576Y-112533129D01*
X106283510Y-113655583D01*
X106378816Y-113797099D01*
X106380595Y-113805876D01*
X106377385Y-113811908D01*
X105683908Y-114505385D01*
X105675635Y-114508812D01*
X105669099Y-114506816D01*
X104405137Y-113655581D01*
X104400191Y-113648120D01*
X104401970Y-113639343D01*
X104402612Y-113638479D01*
X104900561Y-113030186D01*
X104902186Y-113028561D01*
X105510469Y-112530620D01*
X105519040Y-112528032D01*
X105526932Y-112532263D01*
G37*
%TD.AperFunction*%
%TD*%
%TA.AperFunction,Conductor*%
%TO.N,VCC*%
G36*
X105837048Y-108864400D02*
G01*
X105837352Y-108864693D01*
X106527306Y-109554647D01*
X106530733Y-109562920D01*
X106527306Y-109571193D01*
X106527014Y-109571475D01*
X106361372Y-109725582D01*
X106200736Y-109872900D01*
X106200716Y-109872920D01*
X105984253Y-110093856D01*
X105984245Y-110093865D01*
X105830852Y-110289731D01*
X105830843Y-110289745D01*
X105728981Y-110469391D01*
X105728980Y-110469393D01*
X105670915Y-110638098D01*
X105653787Y-110785294D01*
X105649426Y-110793116D01*
X105640813Y-110795564D01*
X105637700Y-110794756D01*
X105614783Y-110785294D01*
X104905786Y-110492562D01*
X104899448Y-110486239D01*
X104597255Y-109754326D01*
X104597265Y-109745371D01*
X104603604Y-109739047D01*
X104606734Y-109738237D01*
X104751203Y-109721701D01*
X104904783Y-109670928D01*
X104904785Y-109670927D01*
X104904788Y-109670926D01*
X104984560Y-109629047D01*
X105051581Y-109593863D01*
X105191100Y-109496692D01*
X105322841Y-109385599D01*
X105382444Y-109328232D01*
X105446291Y-109266783D01*
X105446291Y-109266782D01*
X105446306Y-109266768D01*
X105666418Y-109030628D01*
X105820515Y-108864995D01*
X105828657Y-108861274D01*
X105837048Y-108864400D01*
G37*
%TD.AperFunction*%
%TD*%
%TA.AperFunction,Conductor*%
%TO.N,/D8*%
G36*
X161643558Y-75645260D02*
G01*
X161649654Y-75651821D01*
X161649876Y-75652482D01*
X161676572Y-75740129D01*
X161892961Y-76450591D01*
X161892961Y-76457409D01*
X161649825Y-77255685D01*
X161644137Y-77262601D01*
X161635224Y-77263468D01*
X161634718Y-77263301D01*
X161436787Y-77193013D01*
X161435712Y-77192571D01*
X161269386Y-77114143D01*
X161268452Y-77113649D01*
X161181279Y-77062462D01*
X161132885Y-77034045D01*
X161132335Y-77033700D01*
X161090515Y-77005815D01*
X161015578Y-76955846D01*
X160848379Y-76848229D01*
X160848376Y-76848227D01*
X160848372Y-76848225D01*
X160735579Y-76796467D01*
X160681660Y-76771725D01*
X160587292Y-76743878D01*
X160587293Y-76743878D01*
X160587289Y-76743877D01*
X160547379Y-76736086D01*
X160479095Y-76722756D01*
X160479073Y-76722752D01*
X160348929Y-76708843D01*
X160208420Y-76704361D01*
X160200260Y-76700672D01*
X160197093Y-76692667D01*
X160197093Y-76215321D01*
X160200520Y-76207048D01*
X160208406Y-76203628D01*
X160352996Y-76198875D01*
X160486037Y-76184182D01*
X160599990Y-76160938D01*
X160698632Y-76130163D01*
X160865080Y-76050100D01*
X161015585Y-75952148D01*
X161015613Y-75952130D01*
X161056458Y-75925212D01*
X161161494Y-75855994D01*
X161162388Y-75855461D01*
X161377879Y-75740494D01*
X161379290Y-75739859D01*
X161634611Y-75644931D01*
X161643558Y-75645260D01*
G37*
%TD.AperFunction*%
%TD*%
M02*
